<?xml version="1.0" encoding="UTF-8"?>
<svg width="318px" height="187px" viewBox="0 0 318 187" version="1.1" xmlns="http://www.w3.org/2000/svg" xmlns:xlink="http://www.w3.org/1999/xlink">
    <!-- Generator: Sketch 51.3 (57544) - http://www.bohemiancoding.com/sketch -->
    <title>Apríl</title>
    <desc>Created with Sketch.</desc>
    <defs></defs>
    <g id="Apríl" stroke="none" stroke-width="1" fill="none" fill-rule="evenodd">
        <path d="M199.504105,58.3121353 C197.079206,58.3121353 195.059382,56.4437876 194.945405,54.0464053 C194.828647,51.5786148 196.776192,49.4850384 199.29561,49.3698955 C201.84243,49.2539747 217.672983,46.2781554 226.475854,35.9055774 C228.088218,34.005721 230.967836,33.7454826 232.907041,35.3248064 C234.84704,36.9041301 235.112326,39.72474 233.499962,41.6245964 C222.510074,54.5746619 203.769721,58.1226943 199.719749,58.3074674 C199.647868,58.3105794 199.575589,58.3121353 199.504105,58.3121353 Z M297.106314,74.0765462 C298.852909,75.8589259 298.794133,78.6908167 296.974465,80.40201 C296.019358,81.2998128 273.4137,102.517599 258.379798,113.269059 C251.380709,118.274271 241.14895,124.426631 233.13161,120.088548 C226.840612,116.684833 224.38553,108.389104 225.404575,93.981471 C225.610291,91.070614 225.955003,88.1776508 226.409721,85.3239763 C223.719933,87.6307225 221.492012,89.4683395 219.917773,90.7438574 C209.863136,98.8902114 208.068487,99.2539226 207.104246,99.4491986 C205.366388,99.801629 203.634884,99.3083821 202.352142,98.0986045 C200.402611,96.2586535 199.501117,93.2221508 200.453444,83.0899723 C194.196599,89.8791193 186.628418,97.8963266 182.973991,101.028522 L182.790515,101.186455 C182.118565,101.766448 180.994278,102.736604 179.795728,103.493201 C175.269593,106.350376 172.489655,104.000063 171.745426,103.211179 C168.454377,99.7246078 167.899581,93.9954749 170.09732,86.1824904 C170.618757,84.3297025 171.244243,82.5142582 171.910237,80.7980079 C170.695007,80.6746962 169.477394,80.3747803 168.268916,79.8943702 C166.746701,82.5193152 164.897248,85.3722118 162.732471,88.4339992 C155.829886,98.1942976 148.100866,106.754154 147.775216,107.113587 C146.464277,108.561041 144.351524,109.018889 142.539402,108.247899 C140.72728,107.476909 139.626425,105.65174 139.811489,103.725432 C140.542613,96.119393 140.521564,88.1815408 139.876619,83.9399285 C125.041681,100.016355 110.122947,153.502914 105.079346,171.583448 C104.52455,173.571217 102.684628,174.879022 100.676322,174.879022 C100.281174,174.879022 99.8796714,174.828452 99.4797576,174.721867 C97.0489007,174.077301 95.6100845,171.626626 96.2629727,169.244415 C106.014199,133.669176 117.32378,96.8335896 122.977378,78.7297163 C116.527129,82.3322081 108.633695,86.2069972 99.1374281,90.0339397 C96.9412774,108.82478 94.2939826,129.205058 91.2852959,148.163166 C90.9346266,150.371497 88.990656,151.949653 86.7778257,151.950042 C86.5447081,151.950042 86.3084134,151.932537 86.0709273,151.896361 C83.5785147,151.516701 81.8720301,149.229793 82.2596329,146.788844 C85.0014456,129.513532 87.4418336,111.043613 89.5116957,93.688557 C81.4486854,96.5667383 72.4206395,99.3550616 62.3560741,101.908431 C60.7294135,102.320767 59.1400835,102.709763 57.5829213,103.081254 C42.5220139,128.375718 34.7516912,141.35846 34.3946678,141.824477 C32.8811904,143.800576 30.0186489,144.200464 28.0008114,142.718389 C26.0481038,141.283383 25.6025195,138.611759 26.9472151,136.649663 C27.720832,135.435218 35.1960841,122.914215 45.4175174,105.750934 C33.1965147,108.200052 25.1688493,109.109136 24.702614,109.160483 C24.5282722,109.179933 24.3547247,109.189658 24.1831628,109.189658 C21.8909058,109.189658 19.9147673,107.502972 19.6506732,105.219176 C19.3671196,102.763833 21.1689163,100.548501 23.6752285,100.270758 C23.9687105,100.237693 35.403388,98.9116062 51.6858795,95.2219792 C66.643135,70.0912823 85.1602991,38.9362046 97.6787552,17.8635138 C98.7510168,16.0581834 100.957096,15.2202861 102.991216,15.8442357 C105.02613,16.4685742 106.348983,18.3890474 106.178613,20.4709539 C106.143665,20.8953486 104.003113,46.7935345 100.303413,79.8375768 C110.028429,75.6834887 119.626362,70.7541315 128.370854,64.9195806 C128.38118,64.9129677 128.3923,64.9079108 128.402625,64.9009088 C128.483243,64.8480054 128.567039,64.8001589 128.650834,64.7527014 C128.699681,64.7246937 128.748132,64.694352 128.797773,64.6682892 C128.870052,64.6309456 128.944713,64.598659 129.019374,64.5644273 C129.082121,64.5360306 129.144471,64.5045219 129.20841,64.4788482 C129.268377,64.4547304 129.329933,64.4356696 129.391092,64.4142749 C129.470121,64.3858781 129.548357,64.3559255 129.62818,64.3321967 C129.685765,64.3154699 129.744938,64.3038 129.803317,64.2890181 C129.887112,64.2680124 129.97051,64.2446726 130.054702,64.2283348 C130.1381,64.2119969 130.22269,64.202661 130.306882,64.1909912 C130.367247,64.1828222 130.427214,64.1711524 130.487578,64.1649284 C130.592025,64.1548145 130.697662,64.1520916 130.802903,64.1489796 C130.844205,64.1478126 130.885507,64.1435336 130.926808,64.1431447 C131.023312,64.1431447 131.120213,64.1501466 131.216716,64.1559815 C131.268344,64.1590935 131.320368,64.1590935 131.371598,64.1637614 C131.449834,64.1711524 131.528466,64.1847672 131.607099,64.1960481 C131.678186,64.206551 131.74967,64.2147199 131.82036,64.2283348 C131.883901,64.2403936 131.947046,64.2578985 132.01019,64.2726803 C132.095971,64.2929081 132.181752,64.3123579 132.265944,64.3376426 C132.279844,64.3415326 132.293743,64.3438666 132.307246,64.3481455 C132.353711,64.3621494 132.396601,64.3812102 132.441874,64.39677 C132.526464,64.4255557 132.611054,64.4543414 132.694055,64.4877951 C132.75561,64.5130798 132.81518,64.5410875 132.875148,64.5687063 C132.950206,64.6029379 133.024867,64.6371696 133.09794,64.6752912 C133.161084,64.7083558 133.221846,64.7445325 133.282607,64.7799311 C133.348928,64.8188307 133.41525,64.8577303 133.479585,64.8997418 C133.541935,64.9405864 133.601506,64.983765 133.661076,65.0269435 C133.720646,65.0701221 133.779422,65.1133006 133.837006,65.1595912 C133.89737,65.2078267 133.954955,65.2587851 134.012142,65.3101326 C134.064564,65.3568121 134.116985,65.4031027 134.167421,65.4521162 C134.2258,65.5096876 134.281002,65.5699819 134.336203,65.6302763 C134.380682,65.6785118 134.425558,65.7263583 134.468052,65.7769278 C134.524445,65.8442241 134.576469,65.9142434 134.628494,65.9842627 C134.657088,66.0231623 134.688858,66.0585609 134.716658,66.0986275 C134.724997,66.1102974 134.731352,66.1235232 134.739691,66.1355821 C134.78695,66.2048234 134.829047,66.2767877 134.871937,66.3483629 C134.906885,66.4059343 134.944215,66.4631167 134.975986,66.5218551 C135.00736,66.5802045 135.034365,66.6408879 135.063356,66.7004043 C135.099098,66.7743135 135.137222,66.8478338 135.168596,66.923299 C135.18607,66.9653106 135.199573,67.0088781 135.215855,67.0512787 C135.251597,67.1454157 135.288531,67.2387747 135.317521,67.3340787 C135.327847,67.3679214 135.334201,67.402542 135.343732,67.4367737 C135.37312,67.5410246 135.402111,67.6456645 135.423159,67.7510825 C135.435867,67.8129328 135.441824,67.8759502 135.451753,67.9385785 C135.464064,68.0167667 135.479155,68.0949549 135.487097,68.1739211 C135.496629,68.2680581 135.499012,68.3633621 135.502189,68.4586662 C135.504174,68.5069017 135.50894,68.5551372 135.509337,68.6029837 C135.509337,68.6959537 135.502189,68.7900907 135.496629,68.8838388 C135.493452,68.9351862 135.493452,68.9865337 135.488289,69.0374922 C135.480743,69.1152914 135.466844,69.1927016 135.45493,69.2701118 C135.444604,69.3393531 135.436264,69.4085944 135.422762,69.4770577 C135.410054,69.539686 135.392182,69.6019254 135.376694,69.6645537 C135.35644,69.7477989 135.336187,69.831433 135.31077,69.9135112 C135.306799,69.927126 135.304416,69.9407409 135.300445,69.9543557 C135.260334,70.0788344 134.269882,73.1810775 132.598742,78.5114895 C133.666238,77.300545 134.729763,76.2416979 135.790905,75.3318363 C139.544615,72.1140615 142.782845,73.1876904 144.001252,73.7984141 C147.768465,75.6866006 149.374474,80.690256 149.482495,90.9881469 C151.132983,88.8988494 152.876004,86.613887 154.569383,84.2573493 C157.484346,80.2005101 159.549443,76.914661 161.00891,74.2702662 C158.480358,71.0653283 156.986738,67.2025981 157.400948,64.0023281 C157.717067,61.5594333 159.269463,58.191506 162.604991,56.740551 C165.09383,55.6575861 167.935323,56.0026256 170.400731,57.6858112 C170.682696,57.8779752 170.941627,58.1012589 171.172362,58.3502164 C173.988439,61.391776 174.332754,65.9045185 172.201733,71.7783579 C173.185831,72.062325 175.041241,72.1681319 177.583295,69.3094004 C179.120998,67.5803132 181.744861,67.2702834 183.658253,68.5909248 C185.572041,69.9123442 186.155828,72.4369281 185.010097,74.4367565 C180.558622,82.2065624 178.349366,89.2353309 177.94429,93.4166488 C185.075227,86.8546755 203.280641,66.530802 203.472854,66.3160762 C204.819138,64.8118288 207.020451,64.3660394 208.865535,65.2241645 C210.710222,66.0819007 211.749522,68.0350495 211.410767,70.0072592 C210.383381,75.9931295 209.521203,82.9487668 209.265449,87.6536732 C214.028674,84.0309536 221.659205,77.7358315 229.848504,70.1702485 C233.267033,58.4023418 237.846782,48.3113969 241.023853,42.0232767 C247.25131,29.6967718 256.502545,15.3988352 263.79035,12.2382428 C267.594893,10.5877328 270.214389,12.1164871 271.163936,12.8505225 C274.277466,15.2564627 274.951403,19.7672602 273.417671,27.933453 C270.943527,41.1071912 254.203934,59.4199554 240.597331,72.4622129 C239.727211,73.2966093 238.867416,74.1115559 238.020726,74.9058857 C236.150225,81.8218454 234.948498,88.4966275 234.516814,94.5999746 C233.504122,108.914249 236.580719,111.734081 237.548137,112.256892 C238.450028,112.744693 242.230346,113.739744 252.993867,106.04307 C267.536118,95.6432619 290.419372,74.1636813 290.648916,73.9477886 C292.468583,72.2365952 295.359719,72.2949446 297.106314,74.0765462 Z M64.0816211,92.1633037 C72.4452618,89.9261878 81.5114325,87.1363086 90.6784752,83.6936941 C92.6299914,66.6121022 94.1863593,51.1413427 95.2745063,39.6978587 C83.0455609,60.2784695 72.6450202,77.7720081 64.0816211,92.1633037 Z M26.9623061,136.627879 C27.0028138,136.56953 27.0445129,136.512347 27.0881976,136.455165 C27.0647667,136.485896 27.0202877,136.541911 26.9623061,136.627879 Z M249.568984,45.2853971 C247.887916,48.5724132 246.324003,51.9107768 244.889952,55.2639222 C256.243217,43.062674 263.2153,32.8044608 264.434502,26.3144517 C264.752209,24.6238751 264.921785,23.3055677 265.003595,22.2883432 C261.576726,25.5920861 255.778173,33.1475552 249.568984,45.2853971 Z" id="Combined-Shape" fill="#1A1919"></path>
    </g>
</svg>