<svg viewBox="0 0 3385.31 262.75" xmlns="http://www.w3.org/2000/svg"><path d="m0 4.62h62q16.32 0 28.15 5a54.07 54.07 0 0 1 19.58 13.73 56.74 56.74 0 0 1 11.56 20.4 79.44 79.44 0 0 1 3.81 24.75v46.24a106.35 106.35 0 0 1 -3.81 29.52 63.32 63.32 0 0 1 -11.54 22.74 51.27 51.27 0 0 1 -19.58 14.7q-11.83 5.16-28.17 5.16h-9.23v71.27h-52.77zm52.77 55.22v71.81h9.23q9.24 0 9.24-13.6v-44.61q0-13.6-9.24-13.6z" fill="#559184"/><path d="m136 4.62h62q16.32 0 28.15 5a54.07 54.07 0 0 1 19.58 13.73 56.74 56.74 0 0 1 11.56 20.4 79.44 79.44 0 0 1 3.81 24.75v29.96a106.35 106.35 0 0 1 -3.79 29.54 63.32 63.32 0 0 1 -11.56 22.71 51.27 51.27 0 0 1 -19.58 14.69q-11.83 5.16-28.15 5.16h-15.78v87.59h-46.24zm46.24 46.52v72.86h20.94q6 0 8.84-3.94t2.86-12.92v-39.14q0-9-2.86-12.92t-8.84-3.94z" fill="#88bba5"/><path d="m266.56 258.13 73.44-253.51h125.12l73.44 253.51h-162.93l-10.33-35.63h-71.3l-10.3 35.63zm32.1-51.95h62l-31-106.9z" fill="#acceed"/><path d="m579.9 4.62h53.32l41.34 253.51h-42.16l-5.71-39.71h-44.88l-6 39.71h-37.25zm7.89 174.08h33.46l-16-115.32z" fill="#7396c5"/><path d="m683.81 148.24h80.24v-33.73h-80.24v-109.89h190.67q16 0 28.56 5.31a62.9 62.9 0 0 1 21.22 14.41 60.69 60.69 0 0 1 13.19 21.49 76.44 76.44 0 0 1 4.49 26.25 76.44 76.44 0 0 1 -4.49 26.25 60.69 60.69 0 0 1 -13.19 21.49 62.9 62.9 0 0 1 -21.26 14.41q-12.51 5.31-28.56 5.31h-53l3.54 8.7h112.33v109.89h-85.68l-46.51-118.59h-24.75v8.7h24.75v109.89h-121.31zm96.56-33.73v8.71h94.11q4.35 0 4.35-4.36c0-2.89-1.45-4.35-4.35-4.35z" fill="#4a77b0"/><path d="m952 4.62h62q16.32 0 28.15 5a54.07 54.07 0 0 1 19.58 13.73 56.74 56.74 0 0 1 11.56 20.4 79.44 79.44 0 0 1 3.81 24.75v27.2q0 20.15-5.58 35.5a52.43 52.43 0 0 1 -17.81 24.62l28.83 102.27h-52l-22.85-90.31h-9.52v90.31h-46.17zm46.24 46.52v70.17h20.94q6 0 8.84-3.94t2.86-12.92v-36.45q0-9-2.86-12.92t-8.84-3.94z" fill="#7396c5"/><path d="m1085.28 4.62h130.56v53.86h-39.44v199.65h-51.68v-199.65h-39.44z" fill="#db713f"/><path d="m1221.28 4.62h130.56v53.86h-31.28v199.65h-68v-199.65h-31.28z" fill="#db713f"/><path d="m1357.28 4.62h130.56v53.86h-31.28v199.65h-68v-199.65h-31.28z" fill="#b03e32"/><path d="m1541.7 258.13v-199.13h-41.89v-54.38h253.5v54.38h-43v199.13z" fill="#e29d88"/><path d="m1768 4.62h52.22l33.19 142v-142h39.71v253.51h-52.22l-33.19-141.71v141.71h-39.71z" fill="#acceed"/><path d="m1904 4.62h52.22l33.19 142v-142h39.71v253.51h-52.22l-33.19-141.71v141.71h-39.71z" fill="#7396c5"/><path d="m2040 4.62h52.22l30.47 110.16v-110.16h42.43v253.51h-52.22l-30.47-109.89v109.89h-42.43z" fill="#7396c5"/><path d="m2176 4.62h125.12v59.3h-68v41.62h54.4v51.68h-54.4v41.61h68v59.3h-125.12z" fill="#db713f"/><path d="m2315.81 4.62h253.5v75.08h-126.75v23.93h66.91v55.49h-66.91v23.94h126.75v75.07h-253.5z" fill="#b03e32"/><path d="m2584 4.62h62q16.32 0 28.15 5a54.07 54.07 0 0 1 19.58 13.73 56.74 56.74 0 0 1 11.56 20.4 79.44 79.44 0 0 1 3.81 24.75v27.2q0 20.15-5.58 35.5a52.43 52.43 0 0 1 -17.81 24.62l28.83 102.27h-51.95l-22.85-90.31h-9.52v90.31h-46.22zm46.24 46.52v70.17h20.94q6 0 8.84-3.94t2.86-12.92v-36.45q0-9-2.86-12.92t-8.84-3.94z" fill="#88bba5"/><path d="m2720 4.62h62q16.32 0 28.15 5a54.07 54.07 0 0 1 19.58 13.73 56.74 56.74 0 0 1 11.56 20.4 79.44 79.44 0 0 1 3.81 24.75v32.64q0 18-6.12 31.42a51 51 0 0 1 -17.52 21.44l29.1 104.18h-60.11l-17.68-88.18v88.13h-52.77zm52.77 55.22v58.21h9.23q9.24 0 9.24-13.6v-31q0-13.6-9.24-13.6z" fill="#559184"/><path d="m2894.08 177.62v13q0 15.51 5.71 24.75t18.77 9.25q12.24 0 18.36-7.75t6.08-18.87a34.09 34.09 0 0 0 -6.39-19.45 129.11 129.11 0 0 0 -16.19-19q-9.78-9.66-20.94-20a220.53 220.53 0 0 1 -20.94-22.31 119.79 119.79 0 0 1 -16.19-25.84 71.92 71.92 0 0 1 -6.35-30.47 72.2 72.2 0 0 1 3.67-23 54.27 54.27 0 0 1 11.33-19.43 54.46 54.46 0 0 1 19.41-13.5q11.84-5 28.15-5t28.15 5a52.94 52.94 0 0 1 19.45 13.74 56.17 56.17 0 0 1 11.29 20.4 82.12 82.12 0 0 1 3.67 24.75v21.25h-38.12v-21.22a29.47 29.47 0 0 0 -5.71-18.22q-5.72-7.62-18.77-7.62t-18.77 7.62a29.47 29.47 0 0 0 -5.71 18.22 34.11 34.11 0 0 0 6.39 19.45 134.49 134.49 0 0 0 16.19 19.17q9.78 9.79 20.94 20.27a233.27 233.27 0 0 1 20.94 22.44 118.72 118.72 0 0 1 16.19 26 72.92 72.92 0 0 1 6.39 30.6 67.91 67.91 0 0 1 -3.94 23 56.64 56.64 0 0 1 -11.7 19.45 55.84 55.84 0 0 1 -19.58 13.46q-11.83 5-27.34 5-16.32 0-28.15-5.17a50 50 0 0 1 -19.37-14.69 62.86 62.86 0 0 1 -11.29-22.72 109.9 109.9 0 0 1 -3.67-29.51v-13z" fill="#559184"/><path d="m3060.54 193.94a38.28 38.28 0 0 0 -5-19 109.17 109.17 0 0 0 -12.65-17.82q-7.61-8.84-16.59-18.22a166.36 166.36 0 0 1 -16.59-20.4 112.62 112.62 0 0 1 -12.71-24.39q-5-13.32-5-30.19a82.12 82.12 0 0 1 3.67-24.75 56 56 0 0 1 11.33-20.4 52.86 52.86 0 0 1 19.41-13.77q11.84-5 28.15-5t28.15 5a52.94 52.94 0 0 1 19.45 13.74 56.17 56.17 0 0 1 11.29 20.4 82.12 82.12 0 0 1 3.67 24.75v26.69h-51.68v-21.76q0-6.25-2-9.93a7 7 0 0 0 -6.66-3.67 7.65 7.65 0 0 0 -6.94 3.67q-2.31 3.68-2.31 9.93a37.54 37.54 0 0 0 5.17 19 111.21 111.21 0 0 0 12.92 17.81q7.74 8.85 16.72 18.09a167.32 167.32 0 0 1 16.66 20.28 114.28 114.28 0 0 1 13 24.23 81.07 81.07 0 0 1 5.17 29.79 78.9 78.9 0 0 1 -3.94 25.29 59.67 59.67 0 0 1 -11.7 20.54 53.39 53.39 0 0 1 -19.58 13.87q-11.83 5-27.34 5-16.32 0-28.15-5.17a50 50 0 0 1 -19.46-14.65 62.86 62.86 0 0 1 -11.29-22.72 109.9 109.9 0 0 1 -3.67-29.51v-18.49h50.59v21.76q0 6.26 2 9.92a7 7 0 0 0 6.67 3.68 7.65 7.65 0 0 0 6.93-3.68q2.31-3.66 2.31-9.92z" fill="#487169"/><path d="m3131.81 131.38a123.31 123.31 0 0 1 9.93-49.24 127.12 127.12 0 0 1 67.59-67.59 127 127 0 0 1 98.46 0 127.12 127.12 0 0 1 67.59 67.59 123.48 123.48 0 0 1 9.93 49.24 123.43 123.43 0 0 1 -9.93 49.23 127.12 127.12 0 0 1 -67.59 67.59 127 127 0 0 1 -98.46 0 127.12 127.12 0 0 1 -67.59-67.59 123.26 123.26 0 0 1 -9.93-49.23zm41.07-27.75a19.7 19.7 0 0 0 -14 2.59q-6.66 3.94-9.38 12.37a24.25 24.25 0 0 0 -1.09 9.93 19.76 19.76 0 0 0 2.58 7.89 20.26 20.26 0 0 0 5 5.71 21.07 21.07 0 0 0 6.25 3.4q9.8 3.27 17.95-.27a78.42 78.42 0 0 0 15.51-9q7.33-5.43 14.69-10.47a27 27 0 0 1 15.5-5 27.82 27.82 0 0 1 -9.52-13.33q-3-8.43-5.85-17.27a81.92 81.92 0 0 0 -7.34-16.46q-4.49-7.6-14.28-10.88a20.12 20.12 0 0 0 -7.07-.95 19.91 19.91 0 0 0 -7.48 1.77 21.58 21.58 0 0 0 -6.8 4.89 21 21 0 0 0 -4.76 8.71q-3 8.43.27 15.5a23.77 23.77 0 0 0 9.82 10.87zm32.64 100.64a20.92 20.92 0 0 0 -1.5 14.28 21.68 21.68 0 0 0 8.84 12.65 25.07 25.07 0 0 0 9 4.22 19.75 19.75 0 0 0 8.3.13 17.76 17.76 0 0 0 6.93-3 26.54 26.54 0 0 0 5.17-4.9q6-8.41 5.17-17.27a80.14 80.14 0 0 0 -3.67-17.54q-2.86-8.7-5.31-17.27a28.3 28.3 0 0 1 0-16.46 22.65 22.65 0 0 1 -9.93 4.22 79.8 79.8 0 0 1 -11.56 1.08q-6 .15-12.24 0a76.11 76.11 0 0 0 -12.1.68 37.14 37.14 0 0 0 -11.15 3.4 26.08 26.08 0 0 0 -9.39 8 21.68 21.68 0 0 0 -3 6.39 21.36 21.36 0 0 0 -.81 7.62 18.72 18.72 0 0 0 2.44 7.88 22 22 0 0 0 6.8 7.21 21.48 21.48 0 0 0 28-1.36zm53-162.93a21.62 21.62 0 0 0 -7.21-12.51 21.21 21.21 0 0 0 -14.55-5.17 22.09 22.09 0 0 0 -9.66 1.91 21.54 21.54 0 0 0 -6.66 4.89 18.56 18.56 0 0 0 -3.94 6.67 21.87 21.87 0 0 0 -1.23 6.93q0 10.35 5.85 17a80.93 80.93 0 0 0 13.33 12.11q7.55 5.44 14.55 10.88a26.67 26.67 0 0 1 9.52 13 26.36 26.36 0 0 1 9.66-13q7.2-5.44 14.68-10.88a80.93 80.93 0 0 0 13.33-12.11q5.85-6.66 5.85-17a22.13 22.13 0 0 0 -1.22-6.93 18.73 18.73 0 0 0 -4-6.67 21.66 21.66 0 0 0 -6.66-4.89 22.09 22.09 0 0 0 -9.66-1.91q-9 0-14.82 5.17a21.62 21.62 0 0 0 -7.12 12.51zm-17.68 90a17.63 17.63 0 1 0 5.17-12.52 17 17 0 0 0 -5.13 12.56zm70.72 72.89a21.48 21.48 0 0 0 28 1.36 22.12 22.12 0 0 0 6.8-7.21 18.86 18.86 0 0 0 2.44-7.88 21.59 21.59 0 0 0 -.81-7.62 22.19 22.19 0 0 0 -3-6.39 26.08 26.08 0 0 0 -9.39-8 37.14 37.14 0 0 0 -11.15-3.4 76.11 76.11 0 0 0 -12.1-.68q-6.27.15-12.24 0a79.8 79.8 0 0 1 -11.56-1.08 22.65 22.65 0 0 1 -9.93-4.22 28.3 28.3 0 0 1 0 16.46q-2.45 8.56-5.31 17.27a80.14 80.14 0 0 0 -3.67 17.54q-.81 8.85 5.17 17.27a19.93 19.93 0 0 0 5 4.9 18.86 18.86 0 0 0 7.07 3 19.75 19.75 0 0 0 8.3-.13 25.14 25.14 0 0 0 9-4.22 21.72 21.72 0 0 0 8.84-12.65 21 21 0 0 0 -1.42-14.28zm32.44-100.6a22.72 22.72 0 0 0 9.93-10.88q3.12-7.06.4-15.5a21 21 0 0 0 -4.76-8.71 21.58 21.58 0 0 0 -6.8-4.89 20.36 20.36 0 0 0 -14.55-.82 26 26 0 0 0 -10.61 6.39 36 36 0 0 0 -6.66 9.66 90.34 90.34 0 0 0 -4.49 11.42q-1.91 6-3.81 11.7a70.87 70.87 0 0 1 -4.48 10.61 24.34 24.34 0 0 1 -6.94 8.16 27 27 0 0 1 15.5 5q7.35 5 14.69 10.47a78.42 78.42 0 0 0 15.51 9q8.16 3.54 17.95.27a21.07 21.07 0 0 0 6.25-3.4 20.26 20.26 0 0 0 5-5.71 19.92 19.92 0 0 0 2.58-7.89 24.43 24.43 0 0 0 -1.09-9.93q-2.72-8.43-9.38-12.37a20.26 20.26 0 0 0 -14.24-2.58z" fill="#290a3b"/></svg>