<?xml version="1.0" encoding="UTF-8"?>
<svg width="123px" height="40px" viewBox="0 0 123 40" version="1.1" xmlns="http://www.w3.org/2000/svg" xmlns:xlink="http://www.w3.org/1999/xlink">
    <!-- Generator: Sketch 51.3 (57544) - http://www.bohemiancoding.com/sketch -->
    <title>Copyvait</title>
    <desc>Created with Sketch.</desc>
    <defs></defs>
    <g id="Copyvait" stroke="none" stroke-width="1" fill="none" fill-rule="evenodd">
        <g id="Logo-COPYVAIT-Blue">
            <polygon id="Fill-1" fill="#2A1C35" points="50.0865 0.3021 66.678 5.1397 61.2405 25.044 44.6479 20.2064"></polygon>
            <path d="M10.5911,9.6842 C10.1812,9.4699 9.7739,9.3129 9.375,9.2111 C8.9719,9.1099 8.5791,9.0566 8.1867,9.0566 C7.1807,9.0566 6.3533,9.3687 5.7087,9.9963 C5.0601,10.6233 4.7373,11.4371 4.7373,12.4358 C4.7373,13.4551 5.0666,14.2763 5.722,14.8957 C6.3819,15.5168 7.2471,15.8252 8.3197,15.8252 C8.7511,15.8252 9.1684,15.7693 9.5638,15.6562 C9.9604,15.5414 10.345,15.366 10.7133,15.1281 L10.1069,19.8385 C9.7325,19.9221 9.3609,19.9856 8.9926,20.0312 C8.6275,20.0766 8.2698,20.0973 7.9203,20.0973 C5.6069,20.0973 3.7287,19.39 2.2839,17.9704 C0.8396,16.5545 0.1179,14.7109 0.1179,12.4358 C0.1179,11.2994 0.307,10.2619 0.6826,9.3231 C1.0607,8.3879 1.6209,7.5667 2.3683,6.8697 C3.0657,6.1999 3.865,5.6891 4.7619,5.3344 C5.6628,4.9807 6.6163,4.8049 7.6226,4.8049 C8.0813,4.8049 8.4986,4.8299 8.877,4.882 C9.252,4.9348 9.6129,5.0155 9.9524,5.1247 L10.5911,9.6842 Z M21.7349,15.7861 C22.6568,15.7861 23.3889,15.4856 23.9326,14.8824 C24.4726,14.2794 24.7422,13.4628 24.7422,12.4358 C24.7422,11.4162 24.4726,10.6023 23.9326,10.0003 C23.3889,9.3971 22.6568,9.0954 21.7349,9.0954 C20.8236,9.0954 20.0985,9.3971 19.5625,9.9963 C19.0259,10.5958 18.7551,11.4085 18.7551,12.4358 C18.7551,13.4693 19.0259,14.2857 19.5625,14.8852 C20.0985,15.4856 20.8236,15.7861 21.7349,15.7861 Z M21.7349,4.784 C22.7934,4.784 23.7895,4.9634 24.7113,5.3171 C25.6357,5.6746 26.4529,6.1897 27.1644,6.8697 C27.9043,7.5599 28.4649,8.3806 28.8428,9.3231 C29.2252,10.2696 29.414,11.3073 29.414,12.4358 C29.414,13.5708 29.2252,14.6091 28.8496,15.5414 C28.4712,16.4774 27.9108,17.3006 27.1644,18.0121 C26.4455,18.6919 25.6224,19.2069 24.6966,19.5646 C23.7685,19.919 22.7795,20.0973 21.7349,20.0973 C20.6938,20.0973 19.713,19.919 18.7914,19.5646 C17.8722,19.2069 17.0521,18.6919 16.3341,18.0121 C15.5869,17.3006 15.0265,16.4774 14.6477,15.5414 C14.2733,14.6091 14.0837,13.5708 14.0837,12.4358 C14.0837,11.3073 14.2733,10.2732 14.6477,9.3401 C15.0265,8.4052 15.5869,7.5809 16.3341,6.8697 C17.0521,6.1831 17.8722,5.6672 18.7914,5.3135 C19.713,4.9597 20.6938,4.784 21.7349,4.784 Z M38.6342,8.6362 L38.6342,11.8076 L38.8199,11.8076 C39.3605,11.8076 39.7661,11.6713 40.0368,11.4017 C40.3058,11.1316 40.4436,10.7325 40.4436,10.2069 C40.4436,9.6947 40.3058,9.3024 40.0329,9.0356 C39.7596,8.7692 39.3528,8.6362 38.8199,8.6362 L38.6342,8.6362 Z M34.0044,19.9011 L34.0044,5.1457 L39.1601,5.1457 C40.9377,5.1457 42.3354,5.5941 43.3457,6.491 C44.3546,7.3884 44.8591,8.6252 44.8591,10.2069 C44.8591,11.6996 44.3299,12.9194 43.2714,13.8724 C42.213,14.8226 40.8424,15.2988 39.1601,15.2988 C39.0132,15.2988 38.9081,15.2988 38.8341,15.2957 C38.7641,15.292 38.6974,15.2855 38.6342,15.2778 L38.6342,19.4603 L34.0044,19.9011 Z" id="Fill-2" fill="#2A1C35"></path>
            <polygon id="Fill-3" fill="#FFFFFF" points="52.2955 19.4603 54.2469 14.9002 49.7509 5.4328 54.6888 4.8684 56.4559 9.4985 57.9132 4.8684 62.5963 5.1873 57.1958 19.9439"></polygon>
            <path d="M71.2236,19.7361 L67.7117,5.2707 L72.3135,4.9092 L74.1399,14.356 L75.907,4.9092 L80.5368,5.2707 L76.8314,19.7361 L71.2236,19.7361 Z M89.1539,13.6762 L91.3405,13.6762 L90.2928,9.3857 L89.1539,13.6762 Z M82.6943,19.6556 L87.601,5.1445 L93.1283,5.1445 L97.9441,19.6556 L92.9421,20.0338 L92.2037,17.4647 L88.3511,17.4647 L87.5801,20.0338 L82.6943,19.6556 Z M101.91,20.0131 L101.91,5.3483 L106.5297,5.0289 L106.5297,19.6128 L101.91,20.0131 Z M113.7382,19.9921 L113.7382,9.365 L110.5656,9.365 L111.5719,5.1445 L121.0076,5.1445 L121.0076,9.365 L118.3575,9.365 L118.3575,19.5292 L113.7382,19.9921 Z" id="Fill-4" fill="#2A1C35"></path>
            <path d="M11.3902,25.9863 L11.226,26.1504 L11.0597,26.2119 L10.7904,26.45 L10.4292,26.4962 C10.1602,26.3375 9.6939,26.2195 9.0354,26.1427 C9.0354,26.1427 8.8688,26.1427 8.5331,26.1427 C8.4716,26.1427 8.382,26.1631 8.2616,26.2042 L8.1567,26.5246 L8.0977,26.5246 L8.0362,26.6884 L7.8721,26.8551 L7.9311,26.9137 L7.8262,27.0189 L7.8262,27.1394 L7.9311,27.3494 L7.8721,27.4109 C7.8851,27.475 7.8746,27.5773 7.8338,27.7185 C7.7927,27.8594 7.7519,27.9566 7.7057,28.013 L7.7057,28.072 C7.6493,28.1077 7.5674,28.2103 7.4571,28.3846 C7.3468,28.5561 7.2471,28.669 7.1626,28.7177 C7.1524,28.8535 7.1317,29.0559 7.1036,29.3274 L6.9369,29.5528 C6.9114,29.6835 6.8961,29.8629 6.891,30.0934 L7.2675,29.9885 L7.3264,29.927 L7.3879,29.927 L7.8236,29.6118 L7.8236,29.5528 C8.0133,29.4734 8.1592,29.4377 8.259,29.4479 L8.259,29.3249 L8.4847,29.3249 L8.6357,29.2172 L9.0354,29.1557 L9.2608,29.2146 L9.4711,29.3813 C9.5403,29.5069 9.576,29.686 9.576,29.9219 L9.5298,29.9219 L9.5298,30.0423 L9.3609,30.1472 L9.3762,30.4035 C9.2866,30.5137 9.1916,30.7391 9.0918,31.0798 C8.9943,31.395 8.8818,31.6153 8.7537,31.7409 C8.7868,31.992 8.7126,32.2483 8.528,32.5147 L8.4821,32.5147 L8.3154,32.7248 C8.1797,32.8016 8.0311,32.8966 7.8644,33.0116 L7.8644,33.1605 L7.7006,33.2809 L7.7006,33.3269 C7.5546,33.3705 7.4083,33.4167 7.2649,33.4626 C7.0727,33.5165 6.9242,33.542 6.8139,33.5369 L6.6166,33.3858 C6.4964,33.4244 6.4015,33.4448 6.3323,33.4448 C5.9148,33.4448 5.6021,33.368 5.3921,33.2143 L5.3459,33.1554 L5.2869,33.2143 L5.2869,33.273 L5.2254,33.273 L5.2254,33.3192 L5.1205,33.3782 L5.0769,33.4833 L5.0153,33.5448 L4.9564,33.5448 L4.9564,33.6035 L4.7463,33.6497 L4.6848,33.7087 L4.4158,33.8138 L4.0827,33.7676 L4.0238,33.5369 L3.9189,33.4754 L3.9189,33.368 L3.9804,33.3064 L4.2494,33.2038 C4.5006,32.8759 4.6259,32.6607 4.6259,32.5584 L4.5799,32.1227 L4.7463,31.6794 C4.8155,31.6309 4.9771,31.431 5.2282,31.0798 C5.1973,30.9287 5.182,30.8392 5.182,30.8108 C5.182,30.7802 5.1973,30.6903 5.2282,30.5393 L5.2869,30.4803 L5.2869,30.4188 L5.3484,30.3139 L5.3484,30.2549 L5.3921,30.2549 L5.3921,30.2087 C5.4867,30.1396 5.6254,30.0293 5.8071,29.8782 L5.8198,29.7886 L5.9865,29.563 C6.0276,29.4428 6.071,29.1251 6.1223,28.61 L6.1659,28.61 C6.1914,28.4895 6.2427,28.3206 6.317,28.1 L6.2861,28.0105 C6.4477,27.8336 6.5733,27.6493 6.6628,27.4546 C6.6577,27.4237 6.6552,27.3956 6.6552,27.3647 C6.6552,27.2752 6.6861,27.1419 6.7448,26.9702 C6.8063,26.7987 6.8346,26.6858 6.8346,26.6371 C6.8346,26.6167 6.8321,26.5988 6.8295,26.5832 L6.8885,26.5832 C6.9344,26.4732 6.9471,26.3834 6.9344,26.3142 L6.9934,26.3142 C7.1444,26.1886 7.365,26.0018 7.6544,25.7558 L8.1516,25.6047 L8.528,25.6506 L8.6332,25.6047 L8.9714,25.6047 L9.0918,25.5381 L9.2582,25.6506 L9.5272,25.6506 L9.8578,25.8199 L10.506,25.8199 C10.6163,25.8199 10.7263,25.766 10.8366,25.6557 L10.8366,25.6098 L11.1056,25.5432 L11.3156,25.5891 C11.3363,25.6739 11.3593,25.8071 11.3902,25.9863 Z M8.1924,30.2703 L8.1618,30.0449 L8.0286,29.8782 C7.9132,29.9346 7.744,30.0242 7.5186,30.1498 L7.429,30.2549 C7.1549,30.3678 6.9191,30.5316 6.7243,30.7544 L6.6654,30.7544 L6.6195,30.8596 L6.499,30.9185 L6.499,31.0234 L6.4553,31.0234 L6.3323,31.1439 L6.258,31.3233 L6.0633,31.5181 L6.0633,31.6232 L5.9556,31.846 L5.9556,31.9589 C5.8864,32.0637 5.8507,32.1587 5.8507,32.2432 L5.8507,32.894 L5.8969,32.953 L6.0608,33.0145 C6.3068,32.9581 6.5809,32.9374 6.8859,32.953 C6.9857,32.8733 7.1317,32.7812 7.3213,32.6811 L7.3213,32.6224 C7.3468,32.5864 7.3803,32.5326 7.4265,32.4558 C7.4906,32.2919 7.5954,32.0433 7.7414,31.7128 C7.8004,31.6283 7.8826,31.4926 7.9824,31.3055 C8.0209,31.1107 8.0824,30.8315 8.1618,30.465 L8.1465,30.4035 L8.1924,30.2703 Z" id="Fill-5" fill="#2A1C35"></path>
            <path d="M14.1188,30.342 L14.0573,30.4009 L14.042,30.5651 L14.1035,30.7161 L14.042,30.8956 L14.0726,31.1209 C13.947,31.3925 13.8214,31.5719 13.6959,31.6615 C13.6857,31.6615 13.65,31.6691 13.5833,31.6845 C13.5193,31.7 13.4807,31.7077 13.4705,31.7077 C13.4603,31.7077 13.35,31.6924 13.14,31.6615 L13.0348,31.6 C12.9146,31.6153 12.6456,31.5847 12.2278,31.5079 C11.8103,31.4336 11.5285,31.367 11.3822,31.308 L11.1929,31.3976 C11.1773,31.4231 11.1288,31.5566 11.0466,31.7973 C10.9621,32.0382 10.921,32.1689 10.921,32.1868 C10.921,32.233 10.9239,32.297 10.929,32.384 C10.9341,32.4685 10.9366,32.5326 10.9366,32.5788 L11.162,33.0451 C11.3029,33.0964 11.3876,33.1219 11.4131,33.1219 C11.4284,33.1219 11.4412,33.1194 11.4568,33.1143 C11.4721,33.1091 11.4874,33.1066 11.5027,33.1066 L11.9563,33.1528 C12.0716,33.1219 12.2023,33.0629 12.3483,32.9708 C12.5303,32.8554 12.6507,32.7863 12.7123,32.7608 L12.8171,32.7452 C12.9325,32.6607 13.0221,32.5533 13.0887,32.4277 L13.3988,32.3378 L13.4578,32.5045 C13.432,32.6301 13.1732,32.9425 12.6763,33.4397 C12.5121,33.5216 12.2791,33.5729 11.9792,33.5984 C11.6487,33.6217 11.4157,33.6574 11.2799,33.7061 L10.9417,33.6446 L10.8981,33.5984 L10.6265,33.5369 C10.3728,33.3654 10.1322,33.0757 9.9065,32.6658 C9.8963,32.5453 9.8708,32.3994 9.8297,32.2279 C9.8552,32.138 9.8912,31.9509 9.9374,31.664 L9.9964,31.6051 L9.968,31.5592 L10.0706,31.454 L10.1296,31.2286 C10.2141,31.1748 10.2832,31.0645 10.3371,30.8981 L10.3371,30.4035 L10.4573,30.3573 L10.5625,29.9652 C10.929,29.54 11.3156,29.2634 11.7283,29.1404 C11.7539,29.1404 11.7899,29.1429 11.8409,29.148 C11.8896,29.1506 11.9282,29.1531 11.9537,29.1531 C12.0997,29.1149 12.1689,29.0942 12.1637,29.0942 L12.3432,29.1713 C12.4047,29.1608 12.4892,29.1353 12.5994,29.0942 C12.6763,29.0993 12.7865,29.1276 12.93,29.1764 C13.0759,29.2274 13.1862,29.2557 13.263,29.2583 L13.4116,29.4247 L13.5626,29.4836 L13.6369,29.5888 L13.8472,29.6809 L13.9674,29.8142 C13.9932,29.8706 14.0187,29.9576 14.0445,30.0781 C14.0675,30.1985 14.093,30.2856 14.1188,30.342 Z M13.2579,30.5214 L13.1964,30.4599 C13.1964,30.2779 13.1913,30.1421 13.1811,30.0526 C13.1221,29.9321 12.93,29.745 12.6122,29.4938 C12.42,29.4938 12.1765,29.5554 11.8769,29.6758 L11.8001,29.7989 L11.6668,29.8884 L11.6053,30.0268 L11.5617,30.073 L11.5617,30.1934 L11.4721,30.2703 C11.4412,30.3292 11.4157,30.4318 11.3953,30.5727 L11.3363,30.5727 L11.321,30.711 L11.3669,30.8927 C11.677,31.0492 12.2304,31.1464 13.0323,31.185 C13.0708,31.0288 13.1272,30.9338 13.1964,30.8981 L13.2579,30.5214 Z" id="Fill-6" fill="#2A1C35"></path>
            <path d="M19.3635,30.0551 L19.3198,30.2062 L19.184,30.3856 L18.9252,30.3547 L18.792,30.2189 L18.7177,29.9936 L18.7639,29.6886 L18.5973,29.5247 C18.5204,29.4734 18.3334,29.4479 18.0334,29.4479 C17.985,29.4479 17.9184,29.4581 17.8364,29.4785 C17.7364,29.5579 17.6545,29.6143 17.5955,29.6427 L17.4878,29.8244 C17.5289,29.9627 17.5493,30.0832 17.5493,30.1832 L17.6261,30.319 C17.826,30.4446 18.0232,30.6393 18.2154,30.9058 C18.4229,31.2003 18.523,31.4514 18.5179,31.6564 L18.4255,31.8766 L18.2871,31.9818 L18.2565,32.1457 C18.131,32.2381 18.0567,32.3891 18.0309,32.5992 L17.8517,32.7069 L17.7928,32.858 C17.7415,32.8914 17.6723,32.953 17.5827,33.0374 L17.3727,33.0091 C17.2213,33.0578 17.0575,33.1758 16.878,33.3552 C16.6884,33.3909 16.5271,33.4677 16.399,33.5831 C16.1785,33.6035 16.007,33.614 15.889,33.614 C15.9429,33.614 15.8301,33.5882 15.5509,33.5369 C15.3561,33.5012 15.2254,33.4703 15.1614,33.4473 C15.0667,33.4167 14.9411,33.3501 14.7875,33.25 C14.6823,33.0938 14.5568,32.953 14.4108,32.8274 C14.3722,32.7248 14.3518,32.5737 14.3518,32.3713 C14.4006,32.1612 14.4363,32.0357 14.4541,31.9946 L14.5721,31.8511 L14.6336,31.6076 L14.6925,31.6076 L14.7206,31.3823 L14.9437,31.2156 L15.105,31.2156 C15.1257,31.2156 15.2101,31.2312 15.3612,31.2593 C15.5971,31.3539 15.7584,31.5592 15.8428,31.8766 L15.8122,32.0535 L15.8584,32.2636 L15.8071,32.4711 L15.6149,32.7375 L15.4511,32.7375 L15.3332,32.5198 L15.3048,32.2996 L15.1999,32.1689 L15.054,32.1689 L14.9051,32.2585 C14.8487,32.4456 14.8283,32.6224 14.8436,32.7888 L15.0973,33.0323 C15.41,33.1219 15.6481,33.1681 15.8122,33.1681 C15.8559,33.1681 15.9199,33.1656 16.0044,33.1605 C16.0889,33.1554 16.1504,33.1528 16.1915,33.1528 C16.2785,33.1168 16.3862,33.0349 16.5064,32.9042 C16.6269,32.7735 16.7321,32.6916 16.8165,32.6556 C16.8242,32.6275 16.8653,32.5428 16.9345,32.4019 L16.9191,32.2202 L17.0575,32.0997 L16.9807,31.9356 L17.0266,31.8075 L16.9243,31.7179 L16.7063,31.6564 C16.6757,31.6127 16.632,31.5385 16.573,31.4387 C16.5144,31.3386 16.4707,31.2669 16.4424,31.2207 L16.3837,31.2207 L16.34,31.1773 C16.2734,30.9568 16.2094,30.77 16.1504,30.6212 C16.1504,30.5163 16.1657,30.4086 16.194,30.3037 C16.2734,30.2087 16.3604,30.073 16.458,29.8986 L16.4733,29.6886 L16.609,29.5837 L16.6527,29.4196 L16.7142,29.4196 L16.8191,29.3172 C16.9447,29.2914 17.1292,29.2274 17.3752,29.1225 C17.6749,29.0737 17.8594,29.0482 17.9286,29.0482 C18.0694,29.0482 18.2693,29.0686 18.5306,29.1072 C18.6253,29.1633 18.7716,29.2379 18.9663,29.3326 C19.0661,29.4403 19.184,29.5786 19.3173,29.7552 L19.3635,30.0551 Z" id="Fill-7" fill="#2A1C35"></path>
            <path d="M23.6599,29.0712 L23.614,29.3402 L23.4499,29.3864 C23.4011,29.3762 23.273,29.3453 23.0681,29.294 C22.917,29.2532 22.7914,29.2325 22.6865,29.2325 C22.676,29.2325 22.5814,29.2481 22.3994,29.2787 L22.356,29.3377 L22.0408,29.3377 L21.8767,29.4887 C21.8511,29.6194 21.7922,29.7708 21.6975,29.9397 C21.7103,30.0857 21.6924,30.2524 21.636,30.4369 L21.5308,30.5418 L21.5923,30.829 L21.4872,30.8749 L21.4257,30.98 L21.4872,31.1005 L21.367,31.2363 L21.3208,31.4617 L21.2618,31.477 L21.1567,31.7026 L21.1567,31.7485 L20.9313,31.869 L20.9928,32.0408 L20.8723,32.1482 L20.8261,32.3123 L20.647,32.5377 L20.647,32.6429 L20.6929,32.6891 L20.8185,32.6891 L20.8185,32.8092 L20.7595,32.8529 C20.8006,32.9476 20.8287,33.0629 20.8494,33.1987 L21.149,33.1372 L21.2695,33.2143 L21.3591,33.1372 L21.4795,33.1834 C21.5847,33.1423 21.746,33.0887 21.9614,33.017 L22.1253,32.8529 L22.2457,32.5377 L22.2457,32.2508 C22.3302,32.0357 22.4226,31.8766 22.5173,31.7769 L22.3968,31.7026 L22.5173,31.5974 L22.5173,31.5359 L22.6837,31.431 L22.8504,31.431 C22.9657,31.4617 23.0221,31.4744 23.017,31.4744 L23.1681,31.8049 L23.0604,31.9767 L23.0604,32.1406 C22.9399,32.3047 22.8144,32.4147 22.6865,32.4685 L22.6865,32.5275 L22.5198,32.7375 C22.4994,32.9068 22.4354,33.0451 22.3251,33.1554 L22.1457,33.2755 L22.0255,33.4397 C21.8049,33.5576 21.6258,33.614 21.4846,33.6035 L21.4257,33.724 L21.3208,33.724 L21.2593,33.6625 C21.1541,33.6883 21.0798,33.7214 21.0339,33.7676 L20.7649,33.8266 L20.7649,33.7676 C20.5291,33.7291 20.3471,33.7138 20.2164,33.724 C20.1781,33.6574 20.0883,33.5857 19.9551,33.5063 C19.804,33.4193 19.7067,33.3475 19.6631,33.2911 L19.6631,33.0091 L19.6169,32.9657 L19.6169,32.7426 C19.7323,32.4405 19.7861,32.2432 19.7836,32.1482 L19.8731,32.0586 C19.9321,31.9509 19.9525,31.8126 19.9321,31.6436 L20.1268,31.3874 C20.1217,31.3412 20.1574,31.1515 20.2317,30.8134 L20.3678,30.6648 L20.3088,30.5418 C20.3624,30.3471 20.442,30.0551 20.5469,29.6682 L20.6521,29.6682 C20.6983,29.6092 20.7366,29.4785 20.7649,29.2787 L20.6983,29.2172 L20.4265,29.2787 C20.3216,29.3657 20.2317,29.4221 20.1574,29.4479 L19.9936,29.4017 C19.7861,29.5043 19.5837,29.54 19.3864,29.5094 L19.4454,29.2838 C19.5707,29.1866 19.7169,29.0967 19.8833,29.0148 L19.9885,29.0148 L20.0475,28.9125 L20.2139,28.9125 L20.4239,28.8073 L20.5597,28.8354 C20.7544,28.8022 20.9262,28.7534 21.0773,28.6945 L21.1516,28.4691 L21.2593,28.4691 L21.4846,28.1976 L21.5308,28.0334 C21.6309,27.9719 21.7052,27.9311 21.7562,27.9132 L21.7998,27.7466 L21.9665,27.8055 L22.028,27.7466 L22.028,27.6414 L22.2534,27.5365 L22.2534,27.4314 L22.3586,27.265 L22.4634,27.265 L22.5249,27.3109 L22.6301,27.265 L22.6301,27.6389 L22.5249,27.7004 L22.5249,27.744 L22.466,27.8055 L22.466,27.9694 L22.2406,28.2384 C22.2253,28.428 22.1613,28.6023 22.0459,28.756 C22.2406,28.7713 22.4354,28.8022 22.6301,28.8458 C22.7197,28.8149 22.858,28.8022 23.0477,28.8022 C23.2526,28.8022 23.4218,28.8149 23.5551,28.8458 L23.6599,29.0712 Z" id="Fill-8" fill="#2A1C35"></path>
            <path d="M31.1236,29.2634 C31.0465,29.3223 30.9903,29.3915 30.9543,29.4734 L30.9543,29.7577 L30.9081,29.804 L30.8492,30.1345 L30.8032,30.1345 L30.7443,30.3011 L30.6828,30.3011 C30.6417,30.4522 30.5725,30.6725 30.4727,30.9647 C30.3727,31.2542 30.3035,31.4744 30.2703,31.6258 C30.2652,31.7205 30.2343,31.869 30.1779,32.0688 C30.1779,32.0841 30.1805,32.1099 30.1856,32.1457 C30.191,32.1791 30.1935,32.2046 30.1935,32.2202 C30.1935,32.2355 30.191,32.2559 30.1856,32.2814 C30.1805,32.3047 30.1779,32.3251 30.1779,32.3404 C30.0192,32.4507 29.8885,32.5609 29.7859,32.6709 L29.7859,32.8376 L29.681,32.8991 L29.622,33.2143 L29.4094,33.5012 C29.3913,33.7753 29.3352,33.993 29.2453,34.1469 L29.1249,34.2084 L29.0047,35.0897 L28.8995,35.2536 L28.8995,35.3151 L28.8533,35.3151 L28.7918,35.4792 L28.6869,35.4792 L28.6869,35.5866 C28.6586,35.6507 28.5868,35.725 28.4769,35.8123 C28.4153,35.9327 28.3972,36.0762 28.4179,36.2477 L28.3564,36.3092 L28.3564,36.7908 L28.1463,37.0754 L28.1463,37.1213 L28.2512,37.1803 L28.3564,37.1213 L28.4769,37.2265 L28.5202,37.1803 L28.5202,37.0728 C28.6767,37.047 28.8944,37.0266 29.1787,37.0113 L29.2402,37.0703 L29.2402,37.1162 L29.3454,37.0113 L29.4043,37.0113 L29.5092,37.0703 C29.499,37.1111 29.3888,37.2341 29.1787,37.4416 L29.0738,37.4416 L28.9071,37.5493 L28.8023,37.5493 L28.7408,37.6724 L28.6818,37.6724 L28.6356,37.7183 L28.3513,37.7183 L28.0797,37.8413 L27.9156,38.0567 L27.5876,38.0567 L27.5417,38.1591 C27.3827,38.2231 27.1956,38.2461 26.983,38.2257 L26.9368,38.3334 L26.7729,38.3334 L26.7729,38.2282 L26.8753,38.0542 L26.8166,38.0542 C26.8807,37.8081 26.9728,37.644 27.0958,37.5595 L27.1417,37.1828 C27.1879,37.0983 27.229,37.0419 27.2648,37.0164 L27.2648,36.8523 C27.3444,36.8064 27.4391,36.6604 27.5443,36.4169 L27.4827,36.0249 C27.5825,35.7533 27.6185,35.4817 27.5876,35.2127 L27.6491,35.2127 C27.703,35.0821 27.7234,34.9846 27.7081,34.9179 L27.8439,34.859 C27.9899,34.6234 28.1463,34.2878 28.3102,33.8521 L28.4306,33.7316 L28.3411,33.5806 L28.3564,33.4448 L27.5468,33.4448 L27.2699,33.3396 L27.0445,33.3396 C26.924,33.2194 26.7934,33.1449 26.6525,33.1143 L26.6525,33.0527 C26.6474,33.0476 26.5833,33.004 26.4577,32.917 C26.3296,32.7735 26.2324,32.6173 26.1734,32.4532 L26.1734,32.2868 L26.1119,32.2868 L26.1734,31.8435 L26.2809,31.7667 L26.3424,31.6768 C26.3529,31.636 26.358,31.5719 26.358,31.4821 L26.5218,31.4361 L26.6423,31.1799 L26.7038,31.1362 L26.8217,30.7442 L26.9266,30.7008 C27.1522,30.3624 27.3263,30.1781 27.4442,30.1421 L27.4442,30.0988 L27.5494,30.0988 L27.6695,29.8731 L27.8799,29.8116 L27.8799,29.7682 C27.8952,29.7733 28.0488,29.745 28.3411,29.6886 C28.6356,29.6296 28.8303,29.6016 28.9301,29.6016 C29.3301,29.6016 29.6016,29.6376 29.74,29.7093 L29.8015,29.6016 L29.8015,29.3737 C29.9217,29.4119 30.1037,29.4323 30.3446,29.4323 C30.5266,29.3915 30.6598,29.3555 30.7468,29.3249 L30.7468,29.2634 L31.1236,29.2019 L31.1236,29.2634 Z M29.5299,30.0474 L29.471,29.9859 C29.3811,30.0012 29.2555,29.9834 29.0942,29.9321 C28.9329,29.8808 28.8252,29.8629 28.7688,29.8782 L28.6509,29.9834 L28.546,29.9834 L28.546,30.0449 L28.4409,30.0449 L28.4409,30.2087 L28.3819,30.2549 L28.336,30.3754 L28.277,30.3754 C28.218,30.465 28.0721,30.7649 27.8439,31.2771 L27.7849,31.3361 L27.7387,31.4412 C27.6313,31.5283 27.5287,31.6615 27.434,31.8486 L27.3725,32.2763 L27.4955,32.7426 L27.7183,32.953 L27.9873,32.953 L28.4179,32.7837 L28.5228,32.676 L28.5817,32.676 C28.6381,32.2661 28.8023,31.9203 29.0789,31.636 L29.0789,31.3055 L29.1249,31.3055 C29.2198,31.026 29.3556,30.6059 29.5299,30.0474 Z" id="Fill-9" fill="#2A1C35"></path>
            <path d="M37.8363,32.1842 C37.7824,32.2585 37.6696,32.3429 37.5032,32.4328 C37.334,32.5224 37.2419,32.5864 37.2212,32.6199 L37.2212,32.6811 C37.1546,32.7299 37.065,32.8016 36.9496,32.8914 L36.8447,33.1168 L36.5757,33.3269 L36.5168,33.4473 C36.3399,33.5678 36.0581,33.614 35.6686,33.5831 C35.4379,33.519 35.2329,33.432 35.051,33.3269 L34.9923,33.0862 C35.0076,32.8657 35.0717,32.6094 35.187,32.32 C34.9126,32.3943 34.7102,32.5147 34.5796,32.6786 C34.3593,32.9476 34.2363,33.0938 34.2108,33.1117 L34.2414,33.1579 C34.2312,33.1783 34.2159,33.2038 34.1955,33.2398 C34.1748,33.2755 34.1595,33.3013 34.1493,33.3217 L33.9392,33.3217 C33.7904,33.455 33.6036,33.5318 33.3831,33.5525 C32.927,33.5369 32.5094,33.3577 32.1276,33.0091 C32.0842,32.8143 32.0176,32.5584 31.9329,32.2432 C31.9329,31.8973 32.0125,31.5974 32.1738,31.3463 L32.1738,31.3029 C32.4788,30.9058 32.6069,30.5753 32.5633,30.3088 L32.4428,30.2498 L32.3966,30.3088 L32.2764,30.3088 L32.1712,30.4162 L32.0049,30.4777 L31.733,30.4188 L31.8076,30.0268 L32.002,29.8757 C32.161,29.8374 32.3456,29.8167 32.5556,29.8167 L32.7195,29.7118 L32.8323,29.7118 L32.8912,29.6067 L33.1013,29.5477 L33.2065,29.2761 L33.2654,29.2172 L33.4882,29.3223 L33.7572,29.2172 L34.0877,29.3223 C34.1082,29.4323 34.1209,29.599 34.1314,29.8193 L34.0877,29.9244 L33.8238,29.9859 C33.7904,30.0319 33.7496,30.1217 33.7059,30.2575 L33.6626,30.2575 C33.6112,30.5469 33.537,30.7314 33.4395,30.8134 L33.4395,30.857 C33.3907,30.9032 33.3164,30.9979 33.2167,31.1439 L33.173,31.5796 L33.114,31.6258 C33.0245,31.7692 32.9885,31.9382 33.0092,32.1278 L33.0551,32.1893 C33.0347,32.2636 33.0809,32.4096 33.1934,32.6275 C33.3062,32.8452 33.3986,32.9912 33.4729,33.0604 L33.6677,33.0604 C33.6983,33.04 33.9185,32.8248 34.3287,32.4121 L34.4925,32.3534 L34.5234,32.2483 C34.6028,32.2279 34.6643,32.1868 34.7026,32.1278 L34.8077,32.0816 L34.8077,32.0204 C34.8486,31.9407 34.9024,31.8486 34.9741,31.7434 C35.0819,31.7026 35.1947,31.636 35.3098,31.5385 C35.4815,31.3976 35.5788,31.3208 35.602,31.3055 C35.6275,31.2003 35.6635,31.126 35.7069,31.0798 L35.7684,31.0798 C35.8325,30.8596 35.9555,30.5444 36.1349,30.1345 C36.1862,30.0577 36.2554,29.9397 36.345,29.7733 C36.3297,29.6682 36.3501,29.5579 36.4039,29.4428 L36.8393,29.2481 L37.2161,29.3839 C37.275,29.4938 37.2954,29.622 37.275,29.7733 L37.2161,29.8782 L37.2161,30.0449 L37.1699,30.0449 L37.0086,30.3754 L36.9471,30.3754 C36.8779,30.4239 36.824,30.5855 36.7858,30.8545 L36.7396,30.8545 C36.7061,30.9903 36.6525,31.1413 36.5783,31.3055 L36.5783,31.577 L36.4141,31.9589 L36.3552,32.0204 L36.1913,32.4558 L36.1913,32.6199 C36.1913,32.6454 36.1939,32.6865 36.199,32.7401 C36.2041,32.7965 36.2066,32.835 36.2066,32.8606 C36.3963,32.7401 36.5193,32.6403 36.5808,32.5609 L36.9088,32.5147 L36.9522,32.4558 L36.9522,32.348 C37.0522,32.2534 37.1957,32.1099 37.3853,31.9126 C37.5262,31.8588 37.6209,31.8358 37.6722,31.846 L37.8363,32.079 L37.8363,32.1842 Z" id="Fill-10" fill="#2A1C35"></path>
            <path d="M44.0493,29.4403 L43.9903,29.5451 L43.8854,29.6041 L43.8854,29.6656 L43.4497,29.7093 L43.3908,29.8295 L43.3908,29.9808 L43.3449,30.0398 L43.3449,30.2062 L43.2859,30.2062 L43.2859,30.2651 L43.1935,30.3703 L43.1629,30.5061 L43.0424,30.5957 L43.0886,30.7034 C43.0424,30.7828 42.9809,30.9622 42.899,31.244 L42.6733,31.5155 L42.7323,31.5155 L42.7323,31.5745 C42.5684,31.6845 42.4378,31.7973 42.3403,31.9126 L42.3122,32.0022 L42.3403,32.079 L42.2813,32.5762 L42.2354,32.5762 L42.2354,32.6811 L42.1277,32.8478 L42.1739,32.953 L42.3377,32.9989 C42.4684,32.8554 42.6708,32.7324 42.9449,32.6301 L43.0347,32.7939 L42.8913,33.0783 C42.6708,33.2194 42.4865,33.3986 42.3351,33.6166 C42.033,33.701 41.8331,33.7367 41.7331,33.7214 L41.7331,33.6752 L41.5667,33.6752 C41.4717,33.5601 41.3617,33.4626 41.2362,33.3884 C41.2464,33.273 41.2311,33.1117 41.19,32.9042 L41.0669,32.7837 L41.0207,32.7837 C40.7928,32.9785 40.6647,33.1245 40.6341,33.222 L40.3651,33.2809 L40.2599,33.4473 L39.9472,33.5678 L39.7602,33.5063 L39.581,33.5369 C39.3965,33.4218 39.2377,33.3577 39.1017,33.3422 L38.8916,33.1758 C38.7431,32.835 38.6688,32.5915 38.6688,32.4405 C38.6688,32.3611 38.6892,32.261 38.7303,32.1406 L38.7765,32.1406 C38.802,32.0688 38.838,31.9407 38.884,31.7565 L38.838,31.636 L38.838,31.577 C38.838,31.5257 38.8687,31.454 38.9327,31.3593 C38.9942,31.2644 39.0274,31.1901 39.0325,31.1413 C39.3324,30.9313 39.5144,30.6186 39.5734,30.2087 C39.6782,30.1396 39.7602,30.0628 39.8217,29.9834 C40.0011,29.9244 40.1318,29.8731 40.2111,29.832 L40.2727,29.832 C40.3829,29.7042 40.5085,29.5939 40.6468,29.5015 L40.7083,29.3813 L41.2027,29.2172 L41.6384,29.2787 L41.8048,29.3864 L42.0148,29.3864 L42.2405,29.1713 L42.4505,29.1713 L42.7348,29.2787 L42.9528,29.2172 L43.073,29.2787 L43.1192,29.3864 L43.5087,29.3402 L43.6725,29.2172 L43.7803,29.2761 L43.9444,29.2172 C43.9903,29.2608 44.0237,29.3377 44.0493,29.4403 Z M42.3428,29.6631 L42.0097,29.5426 C41.8073,29.5965 41.6256,29.6169 41.4615,29.6016 L41.0669,29.7682 L40.8543,29.9783 C40.839,30.0577 40.7492,30.3011 40.5853,30.7034 C40.4212,31.1031 40.324,31.3157 40.2931,31.3361 L40.2625,31.5002 L40.1114,31.636 L40.0805,31.7434 L40.1114,31.8486 L39.9447,32.0816 L39.9447,32.2763 L39.8526,32.3687 L39.8526,32.5198 L39.7911,32.625 L39.7911,32.684 L39.6374,32.7452 L39.6374,32.9555 L39.6833,33.017 L39.9192,33.1219 C40.0422,33.0811 40.2265,32.9708 40.47,32.7888 L40.5315,32.7888 L40.6981,32.684 C40.7543,32.6017 40.8467,32.4918 40.9748,32.3506 L40.9748,32.3047 L41.0797,32.2432 C41.19,32.0433 41.3566,31.7485 41.5769,31.3644 L41.5769,31.3029 L41.7433,31.1388 C41.7563,30.9724 41.8229,30.7904 41.938,30.5957 C41.9278,30.5597 41.9431,30.465 41.9817,30.3114 L42.1021,30.2651 L42.1021,30.2036 L42.0738,30.1447 C42.1021,30.0755 42.1586,29.9681 42.2379,29.8295 L42.2841,29.8295 L42.3428,29.6631 Z" id="Fill-11" fill="#2A1C35"></path>
            <path d="M49.7886,25.2203 L49.6837,25.2818 L49.3532,25.2818 C49.2454,25.2509 49.1967,25.2356 49.2018,25.2356 C49.0918,25.2356 48.9509,25.2742 48.7791,25.3536 C48.5844,25.438 48.441,25.4868 48.3511,25.5021 C48.2743,25.6404 48.1643,25.7918 48.018,25.9556 C48.018,25.9942 48.0206,26.0529 48.026,26.1325 C48.0311,26.2119 48.0336,26.2709 48.0336,26.3117 C47.9696,26.4758 47.8746,26.6218 47.749,26.7474 L47.7031,27.3469 L47.5699,27.5133 L47.5699,27.9028 C47.4236,28.0283 47.3289,28.159 47.2827,28.2948 L47.2983,28.5179 C47.2136,28.7152 47.183,28.856 47.2085,28.9456 C47.0985,29.0916 47.0188,29.2223 46.9678,29.3377 C46.9599,29.4272 46.9216,29.6194 46.8575,29.9168 C46.796,30.1807 46.768,30.3343 46.7731,30.3729 C46.673,30.4548 46.5936,30.5086 46.5347,30.5393 L46.6089,30.7034 L46.4885,30.8083 C46.4528,30.8698 46.4142,30.9903 46.3683,31.1697 L46.2195,31.3488 C46.1889,31.6487 46.1735,31.7998 46.1735,31.7998 L46.0531,32.0175 C46.0531,32.3534 45.93,32.6094 45.6789,32.7837 L45.4535,32.8452 C45.3356,32.9581 45.1664,33.104 44.9538,33.2781 C44.7437,33.3603 44.5439,33.4142 44.3543,33.4448 C44.2443,33.3782 44.0853,33.3603 43.8752,33.3833 L43.7547,33.3396 L43.4857,33.0527 L43.4857,32.8427 L43.7111,32.676 L43.8137,32.676 L43.9189,32.7837 L44.1879,32.9068 C44.2877,32.8606 44.3954,32.7812 44.5054,32.6658 C44.6182,32.5507 44.7131,32.4736 44.7874,32.4405 C44.8155,32.3534 44.8566,32.2228 44.905,32.0484 C44.905,31.8486 44.941,31.5643 45.0128,31.2003 L45.0717,31.2003 L45.0717,31.0798 L45.1769,30.8698 L45.1769,30.5829 L45.3484,30.3729 C45.4433,29.8935 45.5893,29.563 45.7841,29.3813 C45.7943,29.2685 45.8991,28.8994 46.099,28.2795 C46.1095,28.1797 46.1401,28.0334 46.1889,27.8438 C46.2937,27.6876 46.4295,27.4467 46.5936,27.1215 L46.55,26.9112 L46.6089,26.6422 L46.819,26.5807 L46.8805,26.4758 L46.8805,26.2657 L46.9857,26.2068 L47.1495,25.8148 C47.2751,25.6713 47.4673,25.4842 47.721,25.2535 L47.903,25.2665 L48.0362,25.1024 L48.1436,25.1024 C48.2437,24.9975 48.4206,24.9128 48.6765,24.8462 C48.9713,24.777 49.1635,24.718 49.248,24.667 C49.4118,24.7078 49.5374,24.7231 49.6247,24.7129 L49.7886,24.9437 L49.7886,25.2203 Z" id="Fill-12" fill="#2A1C35"></path>
            <path d="M51.3694,26.5679 L51.2643,26.6578 C51.2362,26.8806 51.162,27.0317 51.0415,27.1136 L51.0415,27.265 L50.9236,27.4007 L50.862,27.6133 L50.6699,27.6595 C50.6494,27.8157 50.6007,27.9413 50.5213,28.0385 C50.4111,28.1026 50.3113,28.1899 50.2217,28.2948 L50.0295,28.3563 L49.8937,28.0385 C49.9039,27.926 49.909,27.7593 49.909,27.5365 C50.0448,27.3163 50.0805,27.083 50.0165,26.8395 C50.0856,26.6629 50.1755,26.5115 50.2829,26.3859 L50.5522,26.2785 L50.6109,26.2195 C50.6906,26.1784 50.775,26.158 50.8646,26.158 L51.103,26.158 C51.2104,26.2093 51.3003,26.2836 51.3694,26.3859 L51.3694,26.5679 Z M50.6469,32.3353 C50.6571,32.42 50.6214,32.5453 50.5417,32.7069 L50.4369,32.7684 L50.3779,32.8708 L50.3164,32.8708 L50.2112,32.9912 L49.9859,33.0349 C49.9706,33.0706 49.9397,33.1194 49.8886,33.1834 C49.8399,33.25 49.8064,33.2988 49.7911,33.3345 L49.6117,33.4677 L49.3863,33.5267 L49.3401,33.5857 L49.1148,33.6319 L49.0558,33.6908 L48.7791,33.5831 C48.5535,33.6035 48.3333,33.5627 48.1181,33.4652 L48.1181,33.4218 C48.077,33.3629 48.0413,33.3217 48.0129,33.3039 L47.9081,33.2602 C47.8182,33.1015 47.7723,32.945 47.7723,32.7888 L47.8466,32.612 C47.9259,32.5584 48.0617,32.356 48.2513,32.0073 C48.3769,31.7769 48.5025,31.541 48.6252,31.3055 C48.6357,31.1824 48.7202,30.9058 48.8815,30.4726 L48.8815,30.3678 L48.9404,30.3063 L48.9404,30.2473 L49.0071,30.2473 L49.1275,30.0038 L49.1122,29.7682 L49.0533,29.7093 C48.9073,29.7246 48.7791,29.7784 48.6689,29.8731 L48.6689,29.9346 C48.469,29.9936 48.3231,30.0449 48.2335,30.0832 L48.113,30.2036 C48.0129,30.2189 47.9081,30.2549 47.7978,30.3088 L47.6773,30.2932 L47.5724,30.2036 L47.5415,30.0806 L47.5724,29.9295 C47.7465,29.7886 47.8925,29.7067 48.0078,29.6886 C48.1669,29.658 48.3282,29.6271 48.4869,29.5965 C48.5535,29.5656 48.6485,29.5196 48.7715,29.4607 C49.0686,29.33 49.4351,29.2634 49.8756,29.2634 C49.8858,29.2634 49.9243,29.271 49.9884,29.2863 C50.055,29.3017 50.091,29.3096 50.1012,29.3096 C50.1908,29.3992 50.2625,29.5094 50.3113,29.6427 L50.3728,29.6427 C50.4111,29.7067 50.4317,29.8425 50.4317,30.05 C50.4317,30.0704 50.4162,30.1549 50.3855,30.3063 C50.3495,30.3318 50.2702,30.4213 50.142,30.5778 L49.9757,30.6393 L49.9294,30.8057 L49.8705,30.8057 L49.7656,30.9109 C49.7809,31.0569 49.7605,31.2233 49.7066,31.4103 L49.6604,31.4103 C49.64,31.5359 49.6015,31.6462 49.54,31.7434 L49.3761,31.8948 C49.2582,32.2814 49.2018,32.4918 49.212,32.5224 L49.1686,32.5224 C49.1581,32.6069 49.1326,32.7299 49.0915,32.8914 L49.1071,33.0604 C49.2582,33.0502 49.4657,32.9708 49.7296,32.8197 C49.9961,32.6684 50.1551,32.5275 50.2112,32.3943 L50.3906,32.2919 L50.5264,32.2763 L50.6469,32.3353 Z" id="Fill-13" fill="#2A1C35"></path>
            <path d="M55.5789,29.0712 L55.533,29.3402 L55.3689,29.3864 C55.3201,29.3762 55.192,29.3453 54.987,29.294 C54.8359,29.2532 54.7104,29.2325 54.6055,29.2325 C54.595,29.2325 54.5003,29.2481 54.3183,29.2787 L54.275,29.3377 L53.9597,29.3377 L53.7956,29.4887 C53.7701,29.6194 53.7111,29.7708 53.6165,29.9397 C53.6292,30.0857 53.6114,30.2524 53.555,30.4369 L53.4498,30.5418 L53.5113,30.829 L53.4061,30.8749 L53.3446,30.98 L53.4061,31.1005 L53.286,31.2363 L53.2397,31.4617 L53.1808,31.477 L53.0756,31.7026 L53.0756,31.7485 L52.8503,31.869 L52.9118,32.0408 L52.7913,32.1482 L52.7451,32.3123 L52.566,32.5377 L52.566,32.6429 L52.6119,32.6891 L52.7374,32.6891 L52.7374,32.8092 L52.6785,32.8529 C52.7196,32.9476 52.7477,33.0629 52.7683,33.1987 L53.068,33.1372 L53.1884,33.2143 L53.278,33.1372 L53.3985,33.1834 C53.5037,33.1423 53.6649,33.0887 53.8804,33.017 L54.0442,32.8529 L54.1647,32.5377 L54.1647,32.2508 C54.2492,32.0357 54.3416,31.8766 54.4363,31.7769 L54.3158,31.7026 L54.4363,31.5974 L54.4363,31.5359 L54.6026,31.431 L54.7693,31.431 C54.8847,31.4617 54.9411,31.4744 54.936,31.4744 L55.0871,31.8049 L54.9794,31.9767 L54.9794,32.1406 C54.8589,32.3047 54.7333,32.4147 54.6055,32.4685 L54.6055,32.5275 L54.4388,32.7375 C54.4184,32.9068 54.3543,33.0451 54.2441,33.1554 L54.0646,33.2755 L53.9444,33.4397 C53.7239,33.5576 53.5448,33.614 53.4036,33.6035 L53.3446,33.724 L53.2397,33.724 L53.1782,33.6625 C53.0731,33.6883 52.9988,33.7214 52.9529,33.7676 L52.6839,33.8266 L52.6839,33.7676 C52.448,33.7291 52.266,33.7138 52.1354,33.724 C52.0971,33.6574 52.0072,33.5857 51.874,33.5063 C51.7229,33.4193 51.6257,33.3475 51.582,33.2911 L51.582,33.0091 L51.5358,32.9657 L51.5358,32.7426 C51.6512,32.4405 51.7051,32.2432 51.7025,32.1482 L51.7921,32.0586 C51.8511,31.9509 51.8715,31.8126 51.8511,31.6436 L52.0458,31.3874 C52.0407,31.3412 52.0764,31.1515 52.1507,30.8134 L52.2867,30.6648 L52.2278,30.5418 C52.2814,30.3471 52.361,30.0551 52.4659,29.6682 L52.5711,29.6682 C52.6173,29.6092 52.6555,29.4785 52.6839,29.2787 L52.6173,29.2172 L52.3454,29.2787 C52.2405,29.3657 52.1507,29.4221 52.0764,29.4479 L51.9126,29.4017 C51.7051,29.5043 51.5027,29.54 51.3054,29.5094 L51.3643,29.2838 C51.4896,29.1866 51.6359,29.0967 51.8023,29.0148 L51.9075,29.0148 L51.9664,28.9125 L52.1328,28.9125 L52.3429,28.8073 L52.4786,28.8354 C52.6734,28.8022 52.8452,28.7534 52.9963,28.6945 L53.0705,28.4691 L53.1782,28.4691 L53.4036,28.1976 L53.4498,28.0334 C53.5499,27.9719 53.6241,27.9311 53.6751,27.9132 L53.7188,27.7466 L53.8855,27.8055 L53.947,27.7466 L53.947,27.6414 L54.1723,27.5365 L54.1723,27.4314 L54.2775,27.265 L54.3824,27.265 L54.4439,27.3109 L54.5491,27.265 L54.5491,27.6389 L54.4439,27.7004 L54.4439,27.744 L54.3849,27.8055 L54.3849,27.9694 L54.1596,28.2384 C54.1443,28.428 54.0802,28.6023 53.9649,28.756 C54.1596,28.7713 54.3543,28.8022 54.5491,28.8458 C54.6386,28.8149 54.777,28.8022 54.9666,28.8022 C55.1716,28.8022 55.3408,28.8149 55.474,28.8458 L55.5789,29.0712 Z" id="Fill-14" fill="#2A1C35"></path>
            <path d="M61.9047,29.4709 C61.8279,29.6296 61.774,29.7552 61.746,29.8451 L61.6895,29.8451 L61.6433,30.0114 L61.5229,30.1166 L61.4795,30.2371 L61.3128,30.4009 L61.3128,30.4471 L61.1464,30.7161 L60.8159,30.88 L60.8593,30.9415 L60.785,31.0158 C60.7391,31.2207 60.675,31.5283 60.5877,31.9382 L60.3777,32.1482 L60.3162,32.42 L60.2113,32.5402 C60.2266,32.6607 60.2062,32.7837 60.1498,32.9144 L60.0369,33.0349 L60.0369,33.1398 L59.9318,33.1398 L59.8116,33.5165 C59.7115,33.6395 59.6194,33.7163 59.54,33.7393 L59.54,33.8008 C59.358,34.0057 59.2889,34.2365 59.3297,34.4902 L59.207,34.6722 L59.207,34.7771 C59.1531,34.8873 59.0428,35.0333 58.8764,35.2178 L58.8764,35.3383 L58.7713,35.3842 L58.7713,35.5047 L58.6046,35.6099 L58.6046,35.7148 L58.5431,35.7148 C58.538,35.8352 58.4484,36.0787 58.2715,36.4501 C58.1871,36.4988 58.0768,36.5833 57.9436,36.7038 L57.9872,36.8242 L57.9436,36.9753 L57.7335,37.1394 L57.7182,37.2163 C57.6927,37.2341 57.5875,37.2443 57.403,37.2443 L57.2981,37.3058 L57.2981,37.47 C57.0725,37.6596 56.9443,37.8056 56.9086,37.9054 L56.842,37.9054 L56.7958,38.0105 L56.632,38.131 L56.3604,38.182 L56.2425,38.2872 L56.1963,38.4077 L55.8068,38.5741 L55.7606,38.5741 L55.7019,38.6792 C55.497,38.728 55.1869,38.8023 54.7719,38.902 C54.6361,38.9329 54.3464,38.9482 53.9031,38.9482 C53.788,38.9176 53.729,38.902 53.729,38.902 C53.634,38.7793 53.4906,38.669 53.2959,38.5741 L53.1754,38.4102 L53.1754,38.1849 L53.0705,37.9694 L53.0705,37.6851 L53.132,37.6389 L53.132,37.4161 L53.3574,37.1318 C53.5368,37.106 53.6624,37.0779 53.7316,37.0419 L54.1134,37.0419 C54.1236,37.0419 54.2336,37.0575 54.4439,37.0881 L54.5488,37.2086 C54.6026,37.375 54.6231,37.5006 54.6077,37.5851 L54.5029,37.7517 C54.3515,37.8518 54.1928,37.9028 54.021,37.9028 L53.7803,37.8569 L53.6085,37.7492 L53.5623,37.7492 L53.5623,37.913 L53.4549,38.0771 L53.606,38.0771 L53.7778,38.3538 L53.898,38.3538 L53.9442,38.459 L54.1695,38.5792 C54.4541,38.5639 54.7308,38.51 54.9972,38.4128 C55.0304,38.3691 55.0868,38.3127 55.1611,38.2486 C55.3969,38.2923 55.6532,38.2002 55.9298,37.9694 L55.9298,37.9105 L56.0809,37.849 L56.0809,37.8056 L56.3066,37.5774 L56.3655,37.5774 L56.4704,37.352 L56.6371,37.352 L56.9752,36.9779 C57.075,36.8166 57.1853,36.5603 57.3058,36.2094 C57.4466,36.0685 57.5158,35.8712 57.5158,35.6124 L57.5748,35.6124 L57.5748,35.5073 L57.6363,35.3868 L57.7412,35.3409 L57.9053,35.0052 L57.9515,35.0052 L57.9515,34.8848 L58.1153,34.736 L58.1769,34.1826 C58.1204,34.0494 58.1026,33.9391 58.1153,33.8547 L58.1769,33.8547 C58.21,33.7753 58.2664,33.7036 58.3407,33.6446 C58.21,33.5729 58.0258,33.5525 57.7848,33.5831 C57.6901,33.542 57.5952,33.5012 57.498,33.4601 C57.403,33.4167 57.3185,33.3475 57.2443,33.2526 C57.1085,33.2064 57.0317,33.1885 57.0161,33.1911 L56.8446,32.981 L56.7984,32.981 C56.8137,32.8606 56.7241,32.6454 56.5294,32.3353 L56.4678,32.051 C56.478,31.9895 56.5115,31.869 56.5654,31.6898 C56.6164,31.5385 56.6371,31.4206 56.632,31.3361 L56.7984,31.2771 L56.8293,31.1566 L56.9112,31.1107 L56.9112,31.0518 L57.1802,30.8392 L57.3007,30.5702 L57.3007,30.4497 L57.4055,30.283 L57.3466,30.1192 L57.4055,29.9525 L57.344,29.8476 C57.1547,29.8629 56.988,29.9168 56.842,30.014 C56.7856,30.1781 56.7164,30.2907 56.632,30.3445 C56.4653,30.3703 56.2654,30.4599 56.0299,30.6161 L55.9684,30.6161 L55.6994,30.5702 L55.6379,30.5086 L55.6968,30.3394 L55.8043,30.2805 L55.9222,30.3394 L56.1937,30.2345 L56.3604,30.0704 L56.4038,29.9499 C56.4883,29.84 56.6345,29.6962 56.8395,29.5171 L56.9676,29.5171 L57.2981,29.307 C57.3749,29.3172 57.498,29.3017 57.6746,29.2608 C57.8693,29.2223 58,29.2019 58.064,29.2019 C58.1409,29.2019 58.2664,29.2379 58.4408,29.307 C58.4972,29.5171 58.5714,29.7322 58.6661,29.9525 L58.6046,29.9525 L58.4972,30.014 L58.4972,30.2396 L58.4357,30.2396 L58.4357,30.283 L58.392,30.283 L58.3614,30.5702 L58.2871,30.7187 L58.3305,31.0056 L58.2256,31.3823 L58.1051,31.4872 L58.1051,31.6076 L58.0615,31.6076 L57.8951,31.8843 L57.8361,31.8843 C57.8463,31.9254 57.831,32.0255 57.7899,32.1842 C57.8667,32.3815 57.9359,32.502 58.0025,32.5479 L58.0025,32.5915 C58.0822,32.6173 58.1743,32.6942 58.2741,32.8197 L58.3356,32.9836 L58.4408,33.0451 L58.8815,32.9683 C58.9864,32.8889 59.1375,32.7633 59.3323,32.5915 L59.3759,32.4867 L59.6013,32.4277 L59.6013,32.2763 C59.6628,32.2097 59.7217,32.0714 59.7832,31.8562 C59.8626,31.5796 59.9114,31.4206 59.9318,31.3823 L60.1498,31.1697 L60.2546,30.7187 L60.3751,30.5702 L60.3751,30.5086 L60.4213,30.5086 L60.4803,30.342 L60.5392,30.342 L60.6467,30.283 L60.7056,30.073 L60.7493,30.073 L60.7493,29.9066 L60.8108,29.8476 L60.8108,29.4709 L60.9746,29.3045 C61.0849,29.2761 61.2488,29.2197 61.4693,29.1404 L61.7998,29.1404 L61.9047,29.4709 Z" id="Fill-15" fill="#2A1C35"></path>
            <path d="M79.5478,25.9993 L79.4812,26.1606 C79.2967,26.2709 79.1175,26.4321 78.9457,26.6498 L78.7204,26.6498 C78.5614,26.5705 78.4718,26.5141 78.4539,26.486 L78.3924,26.486 L78.3488,26.2606 L78.4565,26.1555 L78.4565,25.766 L78.2898,25.5483 L78.2308,25.5483 L78.2308,25.4278 C78.1795,25.3893 78.0951,25.3434 77.9797,25.2946 C77.8646,25.2433 77.7824,25.1999 77.7314,25.1588 C77.5596,25.1894 77.3033,25.2458 76.9601,25.328 C76.7755,25.5174 76.6295,25.5945 76.5218,25.5585 L76.4785,25.6124 L76.3503,26.012 L76.4169,26.2221 L76.3503,26.4474 L76.1837,26.5526 L76.1403,26.778 L75.9146,26.8831 C75.9351,27.0087 75.9197,27.119 75.8713,27.2137 L75.8098,27.2752 L75.8098,27.4852 C75.7559,27.5238 75.702,27.6006 75.6456,27.7106 L75.6456,27.8747 L75.5867,27.8747 C75.5918,28.0436 75.5561,28.2795 75.4818,28.5819 L75.3177,28.6409 C75.2562,28.7713 75.187,28.8637 75.1076,28.9176 L75.0025,29.294 C75.1436,29.2838 75.3409,29.2966 75.5943,29.3326 C75.8815,29.3788 76.0839,29.4017 76.2043,29.4017 C76.3682,29.3504 76.481,29.3096 76.5425,29.2787 L76.5425,29.2325 L76.6015,29.2325 L76.6474,29.1251 L76.9164,29.0173 L77.0831,29.1225 L77.142,29.2274 L77.0831,29.3941 L76.9164,29.4403 L76.7217,29.6503 C76.5167,29.6656 76.2684,29.722 75.9787,29.8167 C75.6533,29.6835 75.3435,29.6322 75.0487,29.6631 L74.9438,29.7682 L74.8823,29.904 L74.8823,30.0551 L74.9438,30.1756 C74.8823,30.3343 74.8641,30.5163 74.8823,30.7161 L74.7797,30.8825 L74.7797,31.0467 L74.7181,31.1082 L74.7181,31.272 L74.6133,31.4387 L74.6133,31.4846 L74.5543,31.4846 L74.5543,31.5436 L74.4953,31.5436 L74.3902,32.0484 C74.1903,32.3378 74.1008,32.5533 74.1212,32.6942 L74.0597,32.6942 L74.0597,32.7557 L74.0163,32.7557 C73.965,32.7965 73.9239,32.9476 73.8882,33.2143 C73.8522,33.4601 73.842,33.637 73.8496,33.7472 L73.7906,33.7931 L73.7906,33.8547 C73.7317,33.9238 73.6574,34.0341 73.5678,34.1852 L73.5216,34.1852 L73.4627,34.3493 L73.3578,34.3952 L73.4165,34.6798 L73.2963,34.9514 L73.0783,35.1229 L73.0783,35.1691 C73.004,35.2947 72.9094,35.4049 72.794,35.4996 L72.6891,35.8891 L72.5839,35.8891 C72.5199,36.1246 72.438,36.3168 72.343,36.4606 C72.2072,36.6499 72.1227,36.7857 72.0893,36.8679 C72.0125,36.9215 71.8869,36.996 71.7129,37.0932 L71.7129,37.1522 C71.5822,37.288 71.418,37.4314 71.2182,37.5879 L71.1567,37.6928 L71.0977,37.6928 L71.0518,37.7543 L70.9466,37.7979 L70.9466,37.8594 L70.3908,37.9643 L70.1651,37.9184 C69.9219,37.9901 69.7578,38.0258 69.6784,38.0258 C69.6988,38.0258 69.5889,38.0054 69.3479,37.9643 L69.3479,37.9184 L69.1226,37.7979 L69.0763,37.6953 L68.9584,37.6338 L69.0174,37.3214 L68.9559,37.201 L68.851,37.201 C68.8893,37.1471 68.9253,37.0368 68.9559,36.873 C69.0403,36.8038 69.1149,36.6783 69.179,36.4988 L69.389,36.335 L69.4505,36.335 C69.4888,36.5884 69.5095,36.8781 69.5095,37.2035 C69.4837,37.3186 69.4633,37.3931 69.448,37.4289 L69.5529,37.4878 L70.4472,37.534 L70.5521,37.4878 L70.6572,37.324 C70.7085,37.3033 70.7828,37.2625 70.8826,37.2035 L70.9441,37.0983 L71.0952,36.9935 L71.1541,36.8704 L71.3183,36.7653 L71.3183,36.7216 L71.7103,36.4348 L71.8614,36.1042 L71.9203,36.058 L71.9203,35.9378 C71.9921,35.8225 72.0663,35.6456 72.1457,35.4049 C72.2356,35.1331 72.2713,34.9463 72.2509,34.8462 L72.3124,34.8462 L72.3557,34.7873 L72.3557,34.3952 L72.4762,34.1852 C72.4609,34.1033 72.4762,34.0188 72.5224,33.9289 C72.6069,33.8674 72.6633,33.8034 72.6863,33.7342 C72.6684,33.614 72.6582,33.5165 72.6582,33.4473 C72.6582,33.273 72.7812,32.8759 73.0324,32.2585 L73.0913,32.2585 L73.0324,31.8843 L73.122,31.7565 L73.2501,31.7103 L73.2501,31.5436 L73.4139,31.3182 C73.4193,31.1595 73.4936,30.916 73.6319,30.5906 C73.7368,30.3445 73.8445,30.0959 73.9548,29.8451 L74.0163,29.8451 L74.0163,29.7399 C73.8111,29.6784 73.5551,29.658 73.2501,29.6784 L72.9581,29.7861 C72.8016,29.7399 72.6429,29.7246 72.4762,29.7399 L72.2509,29.8476 L71.9819,29.7424 L71.9819,29.6835 L71.9203,29.6245 C71.9666,29.5786 72.0408,29.5451 72.1457,29.5196 L72.2509,29.417 C72.3022,29.4298 72.4456,29.3915 72.6863,29.2966 C72.8325,29.3555 73.0553,29.3864 73.3552,29.3864 C73.7062,29.3864 73.9599,29.3198 74.1212,29.1866 L74.2263,29.1866 L74.2853,29.1404 L74.3312,29.0352 C74.3698,28.856 74.4466,28.5947 74.5569,28.2489 C74.6002,28.1797 74.6566,28.0745 74.7207,27.9337 C74.7309,27.8336 74.7516,27.6876 74.7797,27.498 C74.831,27.2675 74.9001,26.9934 74.9897,26.6731 L74.9897,26.6116 L75.2023,26.4015 L75.2922,26.1631 L75.4869,25.9531 C75.4713,25.8635 75.5073,25.6943 75.5918,25.4482 L75.6507,25.4049 C75.7406,25.4049 75.8123,25.3998 75.8608,25.3893 L75.9223,25.2844 C76.2222,25.2586 76.445,25.1894 76.5884,25.0743 L76.6936,24.9077 L76.9652,24.8487 L77.0241,24.8028 C77.3853,24.7438 77.6597,24.7129 77.849,24.7129 C77.9003,24.7129 77.9902,24.7206 78.1206,24.7362 C78.2334,24.7464 78.3258,24.7489 78.3899,24.7438 L78.3899,24.8513 C78.5358,24.8898 78.6997,24.9641 78.8842,25.0743 L78.8842,25.1177 L78.9457,25.1177 L78.9457,25.2356 C79.1405,25.3485 79.2992,25.5149 79.4248,25.7328 L79.4863,25.9403 L79.5478,25.9993 Z" id="Fill-16" fill="#2A1C35"></path>
            <path d="M82.2764,29.4403 L82.2175,29.5451 L82.1126,29.6041 L82.1126,29.6656 L81.6769,29.7093 L81.618,29.8295 L81.618,29.9808 L81.572,30.0398 L81.572,30.2062 L81.5131,30.2062 L81.5131,30.2651 L81.4207,30.3703 L81.39,30.5061 L81.2696,30.5957 L81.3158,30.7034 C81.2696,30.7828 81.2081,30.9622 81.1261,31.244 L80.9005,31.5155 L80.9595,31.5155 L80.9595,31.5745 C80.7956,31.6845 80.6649,31.7973 80.5674,31.9126 L80.5394,32.0022 L80.5674,32.079 L80.5085,32.5762 L80.4626,32.5762 L80.4626,32.6811 L80.3548,32.8478 L80.401,32.953 L80.5649,32.9989 C80.6956,32.8554 80.898,32.7324 81.1721,32.6301 L81.2619,32.7939 L81.1185,33.0783 C80.898,33.2194 80.7137,33.3986 80.5623,33.6166 C80.2602,33.701 80.0603,33.7367 79.9603,33.7214 L79.9603,33.6752 L79.7939,33.6752 C79.6989,33.5601 79.5889,33.4626 79.4633,33.3884 C79.4735,33.273 79.4582,33.1117 79.4171,32.9042 L79.2941,32.7837 L79.2479,32.7837 C79.02,32.9785 78.8919,33.1245 78.8613,33.222 L78.5923,33.2809 L78.4871,33.4473 L78.1744,33.5678 L77.9873,33.5063 L77.8082,33.5369 C77.6237,33.4218 77.4649,33.3577 77.3289,33.3422 L77.1188,33.1758 C76.9703,32.835 76.896,32.5915 76.896,32.4405 C76.896,32.3611 76.9164,32.261 76.9575,32.1406 L77.0037,32.1406 C77.0292,32.0688 77.0652,31.9407 77.1111,31.7565 L77.0652,31.636 L77.0652,31.577 C77.0652,31.5257 77.0958,31.454 77.1599,31.3593 C77.2214,31.2644 77.2546,31.1901 77.2597,31.1413 C77.5596,30.9313 77.7416,30.6186 77.8005,30.2087 C77.9054,30.1396 77.9873,30.0628 78.0489,29.9834 C78.2283,29.9244 78.359,29.8731 78.4383,29.832 L78.4998,29.832 C78.6101,29.7042 78.7357,29.5939 78.874,29.5015 L78.9355,29.3813 L79.4299,29.2172 L79.8656,29.2787 L80.032,29.3864 L80.242,29.3864 L80.4677,29.1713 L80.6777,29.1713 L80.962,29.2787 L81.18,29.2172 L81.3002,29.2787 L81.3464,29.3864 L81.7359,29.3402 L81.8997,29.2172 L82.0074,29.2761 L82.1716,29.2172 C82.2175,29.2608 82.2509,29.3377 82.2764,29.4403 Z M80.57,29.6631 L80.2369,29.5426 C80.0345,29.5965 79.8528,29.6169 79.6887,29.6016 L79.2941,29.7682 L79.0815,29.9783 C79.0662,30.0577 78.9763,30.3011 78.8125,30.7034 C78.6484,31.1031 78.5511,31.3157 78.5203,31.3361 L78.4896,31.5002 L78.3386,31.636 L78.3077,31.7434 L78.3386,31.8486 L78.1719,32.0816 L78.1719,32.2763 L78.0797,32.3687 L78.0797,32.5198 L78.0182,32.625 L78.0182,32.684 L77.8646,32.7452 L77.8646,32.9555 L77.9105,33.017 L78.1464,33.1219 C78.2694,33.0811 78.4536,32.9708 78.6971,32.7888 L78.7586,32.7888 L78.9253,32.684 C78.9814,32.6017 79.0739,32.4918 79.202,32.3506 L79.202,32.3047 L79.3069,32.2432 C79.4171,32.0433 79.5838,31.7485 79.8041,31.3644 L79.8041,31.3029 L79.9705,31.1388 C79.9835,30.9724 80.0501,30.7904 80.1652,30.5957 C80.155,30.5597 80.1703,30.465 80.2089,30.3114 L80.3293,30.2651 L80.3293,30.2036 L80.301,30.1447 C80.3293,30.0755 80.3857,29.9681 80.4651,29.8295 L80.5113,29.8295 L80.57,29.6631 Z" id="Fill-17" fill="#2A1C35"></path>
            <path d="M85.9405,26.5679 L85.8353,26.6578 C85.8073,26.8806 85.733,27.0317 85.6125,27.1136 L85.6125,27.265 L85.4946,27.4007 L85.4331,27.6133 L85.2409,27.6595 C85.2205,27.8157 85.1717,27.9413 85.0924,28.0385 C84.9821,28.1026 84.8823,28.1899 84.7928,28.2948 L84.6006,28.3563 L84.4648,28.0385 C84.475,27.926 84.4801,27.7593 84.4801,27.5365 C84.6159,27.3163 84.6516,27.083 84.5875,26.8395 C84.6567,26.6629 84.7466,26.5115 84.854,26.3859 L85.1233,26.2785 L85.182,26.2195 C85.2616,26.1784 85.3461,26.158 85.4357,26.158 L85.674,26.158 C85.7815,26.2093 85.8713,26.2836 85.9405,26.3859 L85.9405,26.5679 Z M85.218,32.3353 C85.2282,32.42 85.1924,32.5453 85.1128,32.7069 L85.0079,32.7684 L84.9489,32.8708 L84.8874,32.8708 L84.7823,32.9912 L84.5569,33.0349 C84.5416,33.0706 84.5107,33.1194 84.4597,33.1834 C84.4109,33.25 84.3775,33.2988 84.3622,33.3345 L84.1827,33.4677 L83.9574,33.5267 L83.9112,33.5857 L83.6858,33.6319 L83.6269,33.6908 L83.3502,33.5831 C83.1246,33.6035 82.9043,33.5627 82.6892,33.4652 L82.6892,33.4218 C82.6481,33.3629 82.6123,33.3217 82.584,33.3039 L82.4791,33.2602 C82.3893,33.1015 82.3433,32.945 82.3433,32.7888 L82.4176,32.612 C82.497,32.5584 82.6328,32.356 82.8224,32.0073 C82.948,31.7769 83.0735,31.541 83.1963,31.3055 C83.2068,31.1824 83.2912,30.9058 83.4525,30.4726 L83.4525,30.3678 L83.5115,30.3063 L83.5115,30.2473 L83.5781,30.2473 L83.6986,30.0038 L83.6833,29.7682 L83.6243,29.7093 C83.4783,29.7246 83.3502,29.7784 83.2399,29.8731 L83.2399,29.9346 C83.0401,29.9936 82.8941,30.0449 82.8045,30.0832 L82.6841,30.2036 C82.584,30.2189 82.4791,30.2549 82.3689,30.3088 L82.2484,30.2932 L82.1435,30.2036 L82.1126,30.0806 L82.1435,29.9295 C82.3175,29.7886 82.4635,29.7067 82.5789,29.6886 C82.7379,29.658 82.8992,29.6271 83.058,29.5965 C83.1246,29.5656 83.2195,29.5196 83.3426,29.4607 C83.6396,29.33 84.0061,29.2634 84.4466,29.2634 C84.4569,29.2634 84.4954,29.271 84.5595,29.2863 C84.6261,29.3017 84.6621,29.3096 84.6723,29.3096 C84.7619,29.3992 84.8336,29.5094 84.8823,29.6427 L84.9438,29.6427 C84.9821,29.7067 85.0028,29.8425 85.0028,30.05 C85.0028,30.0704 84.9872,30.1549 84.9566,30.3063 C84.9206,30.3318 84.8412,30.4213 84.7131,30.5778 L84.5467,30.6393 L84.5005,30.8057 L84.4415,30.8057 L84.3367,30.9109 C84.352,31.0569 84.3316,31.2233 84.2777,31.4103 L84.2315,31.4103 C84.2111,31.5359 84.1725,31.6462 84.111,31.7434 L83.9472,31.8948 C83.8293,32.2814 83.7729,32.4918 83.7831,32.5224 L83.7397,32.5224 C83.7292,32.6069 83.7037,32.7299 83.6626,32.8914 L83.6782,33.0604 C83.8293,33.0502 84.0368,32.9708 84.3007,32.8197 C84.5671,32.6684 84.7261,32.5275 84.7823,32.3943 L84.9617,32.2919 L85.0975,32.2763 L85.218,32.3353 Z" id="Fill-18" fill="#2A1C35"></path>
            <path d="M90.4266,30.2575 L90.396,30.6161 L90.2089,30.6623 C90.1757,30.6419 90.0295,30.6317 89.7735,30.6317 C89.6837,30.6317 89.5708,30.5982 89.43,30.5291 C89.3302,30.3703 89.2508,30.2549 89.1893,30.1858 L88.9662,30.0934 C88.8253,30.1985 88.7204,30.3292 88.6513,30.4829 L88.6204,30.6957 L88.4565,30.8006 L88.2899,31.0722 L88.3052,31.2669 L88.2462,31.4642 L88.1104,31.5232 L88.126,31.7358 L87.9619,31.9075 C87.9415,32.0637 87.8927,32.1893 87.8134,32.284 L87.6467,32.3455 L87.6186,32.5402 L87.6467,32.676 L87.588,32.9042 L87.4828,33.0527 L87.4392,33.2653 L87.2444,33.5088 C87.0653,33.5474 86.9321,33.5831 86.8473,33.614 C86.7424,33.5318 86.5911,33.491 86.3991,33.491 C86.3529,33.491 86.2634,33.5139 86.1327,33.5601 C85.9995,33.6061 85.9096,33.6242 85.8583,33.614 L85.784,33.4626 L85.7996,33.2809 C85.8815,33.2143 86.002,33.104 86.1531,32.9476 C86.1276,32.7684 86.148,32.6224 86.2121,32.5122 L86.2736,32.5122 L86.3042,32.3764 L86.3785,32.3455 L86.4221,32.2097 L86.4836,32.2097 L86.5885,31.9382 C86.6475,31.8639 86.7475,31.7641 86.8884,31.6436 C86.8884,31.5385 86.9576,31.3976 87.0985,31.2233 L87.0985,31.0416 C87.2317,30.7493 87.2855,30.5189 87.2549,30.3496 L87.1421,30.1268 L86.991,30.0781 C86.9321,30.0883 86.8371,30.0934 86.7064,30.0934 L86.54,30.1985 L86.3734,30.109 L86.2095,30.137 L86.148,30.0934 L85.938,30.0934 L85.938,29.9706 C86.0122,29.8629 86.1222,29.7912 86.2685,29.7552 L86.4196,29.7708 C86.5193,29.6605 86.6707,29.5837 86.8706,29.54 L87.0806,29.54 L87.1421,29.4964 L87.3751,29.5247 C87.4494,29.5247 87.575,29.4581 87.7518,29.3249 C87.8978,29.3813 88.0234,29.4403 88.1286,29.5043 C88.2181,29.635 88.272,29.7399 88.2924,29.8218 L88.2924,29.8808 L88.4129,30.137 L88.4591,30.137 C88.5385,29.9757 88.6615,29.8065 88.8253,29.6245 C89.0201,29.4196 89.1918,29.2991 89.3404,29.2634 L89.5071,29.3249 L89.6119,29.4734 C89.7401,29.5298 89.8401,29.6092 89.9093,29.7169 L89.9093,29.8374 L90.104,30.0319 L90.3141,30.0934 L90.3141,30.1396 L90.4266,30.2575 Z" id="Fill-19" fill="#2A1C35"></path>
            <path d="M99.0332,30.6186 C98.9742,30.8672 98.9127,31.1158 98.8486,31.3593 C98.7537,31.6538 98.6309,31.8741 98.4796,32.0204 L98.4796,32.138 C98.3798,32.2483 98.2848,32.3738 98.1927,32.5147 L98.1927,32.6199 C98.1646,32.648 98.1082,32.7426 98.0286,32.9042 L97.9237,32.9476 L97.7726,33.0989 L97.5906,33.1732 L97.547,33.2194 C97.2958,33.3475 96.9962,33.4037 96.6504,33.3833 L96.5452,33.4448 C96.4454,33.3986 96.2991,33.3243 96.1098,33.2194 L96.1098,33.1732 L95.9431,32.7812 L96.107,32.735 L96.2121,32.6145 L96.4349,32.7324 L96.4811,32.894 L96.6912,32.9374 C96.8528,32.9374 97.0398,32.8682 97.2524,32.7299 L97.4188,32.4456 L97.4188,32.3994 L97.6983,32.2814 L97.8185,32.1329 L97.8647,31.7973 L97.9262,31.7973 L97.9262,31.4693 C97.8134,31.3055 97.7726,31.0209 97.8032,30.6186 L97.757,30.6186 L97.757,30.3933 L97.6983,30.3496 L97.6521,30.1858 L97.3446,30.232 C97.096,30.552 96.8295,30.8774 96.5503,31.2054 C96.4556,31.2363 96.3658,31.2848 96.2787,31.3565 L96.1149,31.5796 L96.1149,31.6411 L95.8893,31.7896 C95.8484,31.8766 95.7793,31.992 95.6792,32.1431 L95.6177,32.1431 L95.5587,32.2483 L95.5128,32.2483 C95.523,32.3174 95.5074,32.4172 95.4666,32.5479 C95.4128,32.7171 95.3821,32.8197 95.3768,32.8478 C95.3283,32.9093 95.241,32.9989 95.1208,33.1194 L95.1208,33.2245 L95.0771,33.2245 L95.0771,33.3422 C94.9669,33.3935 94.8671,33.5369 94.7826,33.7702 C94.7262,33.9366 94.6749,34.1033 94.6236,34.275 C94.5697,34.3748 94.498,34.5336 94.4135,34.7541 L94.352,34.8131 C94.2778,35.0129 94.2163,35.2357 94.1649,35.4817 L93.983,35.7071 C93.9702,35.9069 93.8959,36.1093 93.7678,36.3168 C93.632,36.5374 93.4733,36.6808 93.2939,36.7449 C93.2349,36.8268 93.1453,36.9371 93.0249,37.0754 L92.8148,37.1828 L92.6507,37.3931 C92.4741,37.5184 92.2357,37.5904 91.9307,37.6109 C91.4953,37.6389 91.2416,37.6596 91.1724,37.6724 L91.1134,37.6134 L90.9471,37.6134 C90.409,37.3827 90.0989,37.0728 90.017,36.6834 L89.8529,36.5192 L89.8529,36.4143 L89.8067,36.4143 L89.748,36.2502 L89.8067,36.0249 C89.958,35.8582 90.1579,35.7508 90.4062,35.6943 L90.4062,35.6507 L90.5729,35.6507 L90.5729,35.5892 C90.7265,35.5302 90.9445,35.4817 91.2237,35.4483 C91.5335,35.4024 91.7515,35.3613 91.8822,35.3202 L92.3766,35.4279 L92.2561,35.5047 L91.9871,35.4894 L91.777,35.6583 L91.6132,35.7046 L91.48,35.9044 C91.2801,35.9353 90.9955,36.0172 90.6242,36.1581 L90.6242,36.2604 L90.3934,36.4092 L90.3475,36.5884 C90.5292,36.7653 90.6574,36.9036 90.7393,37.0037 C90.9085,37.0575 91.0905,37.1318 91.2852,37.2265 L91.5106,37.2265 C91.5004,37.2265 91.7745,37.1573 92.3357,37.0164 L92.4253,36.7908 L92.6354,36.5782 C92.7303,36.3194 92.8993,36.0376 93.1453,35.738 L93.1144,35.4971 C93.1606,35.2819 93.24,35.0639 93.3554,34.8437 L93.3554,34.6336 L93.5348,34.3184 L93.5348,34.152 L93.5963,34.1058 C93.6655,33.8725 93.7012,33.7061 93.7012,33.6114 L93.9421,33.2962 L93.9728,33.1605 L94.0932,33.0091 L94.0932,32.9042 L94.0317,32.9042 C94.0932,32.7401 94.1624,32.4841 94.2418,32.138 L94.288,32.138 L94.288,32.079 L94.3855,31.9895 L94.3855,31.8151 C94.5006,31.7 94.5697,31.6 94.5955,31.5155 L94.5366,31.4693 L94.5955,31.4103 L94.5366,31.3514 C94.6057,31.2644 94.657,31.1748 94.6851,31.0798 L94.6851,31.0339 L94.6261,31.0339 L94.6261,30.8698 L94.6851,30.7493 L94.7313,30.7493 L94.6723,30.5393 C94.3724,30.6008 94.1984,30.6317 94.1547,30.6317 C94.1445,30.6317 93.9883,30.6161 93.6884,30.5855 L93.4809,30.6444 L93.0915,30.5855 L93.0915,30.5393 L92.9248,30.5393 L92.7609,30.378 L92.8199,30.2728 L93.1504,30.1549 C93.2068,30.196 93.4963,30.2138 94.0215,30.2138 L94.3571,30.05 L94.5238,30.05 L94.6287,29.9448 L94.7928,29.9448 L95.0771,29.7784 L95.1233,29.7195 L95.2282,29.6733 C95.2642,29.5145 95.341,29.2736 95.459,28.9533 C95.5049,28.915 95.8329,28.8943 96.4454,28.8943 L96.4888,28.9533 L96.5503,29.2838 L96.448,29.389 C96.476,29.6245 96.4222,29.8451 96.2813,30.05 L96.2198,30.05 L96.2198,30.109 L96.1608,30.109 C96.1659,30.1549 96.1583,30.2189 96.143,30.3037 C96.1251,30.3907 96.1149,30.4497 96.1149,30.4854 C96.1149,30.5061 96.1302,30.6059 96.1608,30.7853 L95.9791,31.1748 L96.3249,30.9954 C96.4298,30.8956 96.5529,30.7366 96.6912,30.5163 C96.8477,30.2677 96.9602,30.1039 97.0294,30.0217 C97.1396,29.9372 97.3063,29.8295 97.5317,29.6937 C97.9517,29.5043 98.2619,29.4272 98.4617,29.4632 L98.7307,29.6271 L98.7307,29.6886 L98.7897,29.7475 L98.7897,29.7937 L98.8512,29.7937 C98.8999,29.8527 98.9254,30.073 98.9254,30.4522 L98.9717,30.5137 L98.9717,30.5571 L99.0332,30.6186 Z" id="Fill-20" fill="#2A1C35"></path>
            <path d="M104.3416,30.2575 L104.311,30.6161 L104.1239,30.6623 C104.0907,30.6419 103.9445,30.6317 103.6885,30.6317 C103.5986,30.6317 103.4858,30.5982 103.3449,30.5291 C103.2452,30.3703 103.1658,30.2549 103.1043,30.1858 L102.8812,30.0934 C102.7403,30.1985 102.6354,30.3292 102.5663,30.4829 L102.5354,30.6957 L102.3715,30.8006 L102.2049,31.0722 L102.2202,31.2669 L102.1612,31.4642 L102.0254,31.5232 L102.041,31.7358 L101.8769,31.9075 C101.8565,32.0637 101.8077,32.1893 101.7283,32.284 L101.5617,32.3455 L101.5336,32.5402 L101.5617,32.676 L101.503,32.9042 L101.3978,33.0527 L101.3542,33.2653 L101.1594,33.5088 C100.9803,33.5474 100.8471,33.5831 100.7623,33.614 C100.6574,33.5318 100.506,33.491 100.3141,33.491 C100.2679,33.491 100.1784,33.5139 100.0477,33.5601 C99.9145,33.6061 99.8246,33.6242 99.7733,33.614 L99.699,33.4626 L99.7146,33.2809 C99.7965,33.2143 99.917,33.104 100.0681,32.9476 C100.0426,32.7684 100.063,32.6224 100.1271,32.5122 L100.1886,32.5122 L100.2192,32.3764 L100.2934,32.3455 L100.3371,32.2097 L100.3986,32.2097 L100.5035,31.9382 C100.5625,31.8639 100.6625,31.7641 100.8034,31.6436 C100.8034,31.5385 100.8726,31.3976 101.0134,31.2233 L101.0134,31.0416 C101.1467,30.7493 101.2005,30.5189 101.1699,30.3496 L101.0571,30.1268 L100.906,30.0781 C100.8471,30.0883 100.7521,30.0934 100.6214,30.0934 L100.455,30.1985 L100.2883,30.109 L100.1245,30.137 L100.063,30.0934 L99.8529,30.0934 L99.8529,29.9706 C99.9272,29.8629 100.0372,29.7912 100.1835,29.7552 L100.3346,29.7708 C100.4343,29.6605 100.5857,29.5837 100.7855,29.54 L100.9956,29.54 L101.0571,29.4964 L101.2901,29.5247 C101.3644,29.5247 101.49,29.4581 101.6668,29.3249 C101.8128,29.3813 101.9384,29.4403 102.0436,29.5043 C102.1331,29.635 102.187,29.7399 102.2074,29.8218 L102.2074,29.8808 L102.3279,30.137 L102.3741,30.137 C102.4534,29.9757 102.5765,29.8065 102.7403,29.6245 C102.9351,29.4196 103.1068,29.2991 103.2554,29.2634 L103.422,29.3249 L103.5269,29.4734 C103.6551,29.5298 103.7551,29.6092 103.8243,29.7169 L103.8243,29.8374 L104.019,30.0319 L104.2291,30.0934 L104.2291,30.1396 L104.3416,30.2575 Z" id="Fill-21" fill="#2A1C35"></path>
            <path d="M108.203,26.5679 L108.0978,26.6578 C108.0697,26.8806 107.9955,27.0317 107.875,27.1136 L107.875,27.265 L107.7571,27.4007 L107.6956,27.6133 L107.5034,27.6595 C107.483,27.8157 107.4342,27.9413 107.3548,28.0385 C107.2446,28.1026 107.1448,28.1899 107.0552,28.2948 L106.863,28.3563 L106.7272,28.0385 C106.7374,27.926 106.7426,27.7593 106.7426,27.5365 C106.8783,27.3163 106.914,27.083 106.85,26.8395 C106.9191,26.6629 107.009,26.5115 107.1164,26.3859 L107.3857,26.2785 L107.4444,26.2195 C107.5241,26.1784 107.6085,26.158 107.6981,26.158 L107.9365,26.158 C108.0439,26.2093 108.1338,26.2836 108.203,26.3859 L108.203,26.5679 Z M107.4804,32.3353 C107.4906,32.42 107.4549,32.5453 107.3752,32.7069 L107.2704,32.7684 L107.2114,32.8708 L107.1499,32.8708 L107.0447,32.9912 L106.8194,33.0349 C106.8041,33.0706 106.7732,33.1194 106.7221,33.1834 C106.6734,33.25 106.6399,33.2988 106.6246,33.3345 L106.4452,33.4677 L106.2198,33.5267 L106.1736,33.5857 L105.9483,33.6319 L105.8893,33.6908 L105.6127,33.5831 C105.387,33.6035 105.1668,33.5627 104.9516,33.4652 L104.9516,33.4218 C104.9105,33.3629 104.8748,33.3217 104.8465,33.3039 L104.7416,33.2602 C104.6517,33.1015 104.6058,32.945 104.6058,32.7888 L104.6801,32.612 C104.7594,32.5584 104.8952,32.356 105.0849,32.0073 C105.2104,31.7769 105.336,31.541 105.4587,31.3055 C105.4692,31.1824 105.5537,30.9058 105.715,30.4726 L105.715,30.3678 L105.774,30.3063 L105.774,30.2473 L105.8406,30.2473 L105.961,30.0038 L105.9457,29.7682 L105.8868,29.7093 C105.7408,29.7246 105.6127,29.7784 105.5024,29.8731 L105.5024,29.9346 C105.3026,29.9936 105.1566,30.0449 105.067,30.0832 L104.9465,30.2036 C104.8465,30.2189 104.7416,30.2549 104.6313,30.3088 L104.5108,30.2932 L104.406,30.2036 L104.3751,30.0806 L104.406,29.9295 C104.58,29.7886 104.726,29.7067 104.8414,29.6886 C105.0004,29.658 105.1617,29.6271 105.3204,29.5965 C105.387,29.5656 105.482,29.5196 105.605,29.4607 C105.9021,29.33 106.2686,29.2634 106.7091,29.2634 C106.7193,29.2634 106.7579,29.271 106.8219,29.2863 C106.8885,29.3017 106.9245,29.3096 106.9347,29.3096 C107.0243,29.3992 107.096,29.5094 107.1448,29.6427 L107.2063,29.6427 C107.2446,29.7067 107.2653,29.8425 107.2653,30.05 C107.2653,30.0704 107.2497,30.1549 107.2191,30.3063 C107.1831,30.3318 107.1037,30.4213 106.9756,30.5778 L106.8092,30.6393 L106.763,30.8057 L106.704,30.8057 L106.5991,30.9109 C106.6144,31.0569 106.594,31.2233 106.5402,31.4103 L106.494,31.4103 C106.4735,31.5359 106.435,31.6462 106.3735,31.7434 L106.2096,31.8948 C106.0917,32.2814 106.0353,32.4918 106.0455,32.5224 L106.0021,32.5224 C105.9917,32.6069 105.9661,32.7299 105.925,32.8914 L105.9406,33.0604 C106.0917,33.0502 106.2992,32.9708 106.5631,32.8197 C106.8296,32.6684 106.9886,32.5275 107.0447,32.3943 L107.2242,32.2919 L107.3599,32.2763 L107.4804,32.3353 Z" id="Fill-22" fill="#2A1C35"></path>
            <path d="M113.0734,29.6452 L113.0581,29.7963 C112.989,29.9346 112.9071,30.05 112.8172,30.1396 L112.2843,30.1858 C112.0229,30.0423 111.8307,29.9295 111.7106,29.8476 C111.5694,29.868 111.4543,29.8782 111.3644,29.8782 C111.3338,29.8782 111.2902,29.8706 111.2287,29.8553 C111.1697,29.84 111.1238,29.832 111.0929,29.832 C111.0827,29.832 110.9597,29.8476 110.719,29.8782 L110.4318,30.0602 C110.4165,30.1268 110.3859,30.1807 110.3423,30.2266 C110.2808,30.3933 110.1705,30.6419 110.0092,30.9724 L110.0092,31.1235 L109.8451,31.2312 L109.8607,31.3514 L109.7838,31.4872 L109.6634,31.5487 L109.6634,31.6102 L109.4992,31.8231 C109.4533,32.015 109.4352,32.1482 109.4454,32.2253 L109.5506,32.2253 C109.4992,32.443 109.4788,32.6454 109.4916,32.8325 L109.5531,32.9399 C109.5866,32.9657 109.7198,33.0196 109.9451,33.1066 C110.1169,33.0964 110.3499,33.0349 110.6498,32.9246 C110.9648,32.8092 111.1751,32.6916 111.2749,32.5762 L111.3364,32.3789 L111.4415,32.2432 L111.6822,32.1074 L111.8948,32.138 L111.9694,32.2868 L112.0895,32.3917 L112.0895,32.5584 C111.8846,32.7044 111.7386,32.8299 111.6541,32.9348 C111.4824,33.004 111.2978,33.0938 111.098,33.2038 C110.9724,33.2245 110.8624,33.2653 110.7675,33.3243 L110.7215,33.3243 L110.66,33.4295 L110.66,33.4601 L110.5115,33.4601 L110.3295,33.5984 L110.0605,33.5984 C109.794,33.5984 109.5557,33.5627 109.3456,33.491 L109.3456,33.368 L109.1203,33.2013 C109.0945,33.1015 109.0587,33.0323 109.0151,32.9912 C108.9204,32.9068 108.7741,32.8401 108.5794,32.7939 C108.5335,32.6531 108.4592,32.5224 108.3515,32.4019 C108.3129,32.2636 108.2925,32.0535 108.2925,31.7769 C108.2925,31.6411 108.3387,31.4719 108.4309,31.2695 C108.5233,31.0645 108.6231,30.9236 108.7282,30.8417 L108.6973,30.7828 L108.7282,30.6776 L108.7897,30.6776 L108.8946,30.4497 L108.8946,30.406 L109.0151,30.2396 L109.1945,30.1654 C109.2251,30.0551 109.2841,29.9525 109.3762,29.8629 L109.5942,29.7424 L109.6838,29.5171 L109.8938,29.4556 L109.9681,29.3351 L110.1654,29.3351 L110.45,29.184 C110.6215,29.1738 110.8701,29.1404 111.2006,29.0789 L111.6516,29.1866 L111.759,29.3555 C111.9847,29.3941 112.1536,29.4556 112.269,29.54 C112.3254,29.54 112.4073,29.5375 112.5176,29.5324 C112.6276,29.5273 112.7123,29.5247 112.7738,29.5247 C112.8685,29.5247 112.9686,29.5656 113.0734,29.6452" id="Fill-23" fill="#2A1C35"></path>
            <path d="M117.2446,30.342 L117.1831,30.4009 L117.1678,30.5651 L117.2293,30.7161 L117.1678,30.8956 L117.1984,31.1209 C117.0729,31.3925 116.9473,31.5719 116.8217,31.6615 C116.8115,31.6615 116.7758,31.6691 116.7092,31.6845 C116.6451,31.7 116.6066,31.7077 116.5963,31.7077 C116.5861,31.7077 116.4759,31.6924 116.2658,31.6615 L116.1607,31.6 C116.0405,31.6153 115.7715,31.5847 115.3536,31.5079 C114.9361,31.4336 114.6543,31.367 114.5081,31.308 L114.3187,31.3976 C114.3031,31.4231 114.2546,31.5566 114.1724,31.7973 C114.088,32.0382 114.0469,32.1689 114.0469,32.1868 C114.0469,32.233 114.0497,32.297 114.0548,32.384 C114.0599,32.4685 114.0625,32.5326 114.0625,32.5788 L114.2878,33.0451 C114.4287,33.0964 114.5134,33.1219 114.539,33.1219 C114.5543,33.1219 114.567,33.1194 114.5826,33.1143 C114.5979,33.1091 114.6132,33.1066 114.6285,33.1066 L115.0821,33.1528 C115.1974,33.1219 115.3281,33.0629 115.4741,32.9708 C115.6561,32.8554 115.7766,32.7863 115.8381,32.7608 L115.943,32.7452 C116.0583,32.6607 116.1479,32.5533 116.2145,32.4277 L116.5246,32.3378 L116.5836,32.5045 C116.5578,32.6301 116.299,32.9425 115.8021,33.4397 C115.638,33.5216 115.4049,33.5729 115.105,33.5984 C114.7745,33.6217 114.5415,33.6574 114.4057,33.7061 L114.0676,33.6446 L114.0239,33.5984 L113.7523,33.5369 C113.4986,33.3654 113.258,33.0757 113.0323,32.6658 C113.0221,32.5453 112.9966,32.3994 112.9555,32.2279 C112.981,32.138 113.017,31.9509 113.0632,31.664 L113.1222,31.6051 L113.0939,31.5592 L113.1965,31.454 L113.2554,31.2286 C113.3399,31.1748 113.4091,31.0645 113.4629,30.8981 L113.4629,30.4035 L113.5831,30.3573 L113.6883,29.9652 C114.0548,29.54 114.4414,29.2634 114.8542,29.1404 C114.8797,29.1404 114.9157,29.1429 114.9667,29.148 C115.0155,29.1506 115.054,29.1531 115.0795,29.1531 C115.2255,29.1149 115.2947,29.0942 115.2896,29.0942 L115.469,29.1713 C115.5305,29.1608 115.615,29.1353 115.7253,29.0942 C115.8021,29.0993 115.9123,29.1276 116.0558,29.1764 C116.2018,29.2274 116.312,29.2557 116.3889,29.2583 L116.5374,29.4247 L116.6885,29.4836 L116.7627,29.5888 L116.9731,29.6809 L117.0933,29.8142 C117.1191,29.8706 117.1446,29.9576 117.1704,30.0781 C117.1933,30.1985 117.2188,30.2856 117.2446,30.342 Z M116.3837,30.5214 L116.3222,30.4599 C116.3222,30.2779 116.3171,30.1421 116.3069,30.0526 C116.248,29.9321 116.0558,29.745 115.738,29.4938 C115.5458,29.4938 115.3023,29.5554 115.0027,29.6758 L114.9259,29.7989 L114.7927,29.8884 L114.7311,30.0268 L114.6875,30.073 L114.6875,30.1934 L114.5979,30.2703 C114.567,30.3292 114.5415,30.4318 114.5211,30.5727 L114.4621,30.5727 L114.4468,30.711 L114.4928,30.8927 C114.8029,31.0492 115.3562,31.1464 116.1581,31.185 C116.1967,31.0288 116.2531,30.9338 116.3222,30.8981 L116.3837,30.5214 Z" id="Fill-24" fill="#2A1C35"></path>
            <path d="M68.1863,31.0708 L68.0811,31.1756 L67.6891,31.3423 L67.5227,31.1785 L67.4765,31.0169 C67.3075,30.8735 67.1409,30.8171 66.9796,30.8531 L66.7848,30.7479 L66.649,30.5404 L66.5875,30.5404 L66.5439,30.4814 L66.5439,30.4225 L66.4234,30.4814 L66.4234,30.7504 L66.3109,30.9758 L66.3109,31.3063 C66.3109,31.3398 66.3236,31.4038 66.3517,31.496 C66.38,31.5884 66.3877,31.6703 66.3775,31.7394 L66.3109,31.8446 L66.3775,32.1162 L66.1467,32.28 L65.9854,32.28 L65.9392,32.2338 L65.8213,32.2338 L65.7751,32.1751 L65.7164,31.9061 L65.8803,31.6805 L65.8803,31.4115 L65.8213,31.35 L65.7751,31.35 L65.7751,31.3063 L65.6549,31.1399 L65.7164,30.7068 C65.8111,30.6121 65.8828,30.5174 65.9341,30.4225 L65.9341,30.3763 L65.8752,30.3176 L65.8752,30.1509 L65.8137,30.1509 L65.5447,30.4814 L65.4857,30.4814 L65.3805,30.6325 L64.9477,30.9171 L64.7223,30.9171 L64.5582,31.1425 C64.4635,31.1989 64.3198,31.2142 64.1254,31.1887 L64.0202,31.0835 L64.0202,30.812 L64.184,30.5429 C64.2994,30.4712 64.4992,30.4508 64.7836,30.4814 L64.7836,30.3763 L65.0066,30.2124 L65.2167,30.2124 C65.2706,30.1177 65.3448,30.0381 65.4395,29.9791 L65.4857,29.9791 L65.4857,29.8127 L65.6036,29.7076 L65.6498,29.7076 L65.6062,29.4848 L65.442,29.4848 L65.3219,29.3771 L65.3219,29.2722 C65.1526,29.1954 64.9015,29.1055 64.5633,29.0006 L64.2943,28.775 L64.2506,28.5496 L64.2969,28.2781 L64.4173,28.1729 L64.6863,28.1139 L64.8964,28.3396 L64.8964,28.5522 L65.0143,28.6111 L65.0143,28.6726 L65.0605,28.716 L65.2218,28.716 L65.2218,28.8365 L65.3859,29.0032 L65.6524,29.0491 L65.8162,29.1543 L65.8162,29.2132 L65.8752,29.2132 L65.9803,29.108 L65.8675,28.8827 C66.011,28.7084 66.0699,28.5445 66.039,28.388 L65.9265,28.2217 L65.9265,27.9526 L66.0929,27.6811 L66.3055,27.6221 L66.4798,27.6811 L66.585,27.9064 C66.5158,28.0629 66.4798,28.2781 66.4798,28.5547 C66.4798,28.5343 66.5002,28.6443 66.5413,28.8852 L66.5875,28.9442 L66.708,28.9442 L66.918,28.6137 L67.1896,28.5522 L67.4739,28.2217 L67.7455,28.1754 L67.9096,28.3421 L67.9096,28.447 L68.017,28.6137 L68.017,28.7775 L67.8532,28.9442 L67.6916,28.9442 L67.5867,28.8365 L67.4816,28.8365 L67.3152,29.0465 L67.0255,29.108 L66.9821,29.2747 L66.8154,29.3796 L66.8154,29.5437 L66.5875,29.7691 L66.5875,29.8743 L66.649,29.9766 L66.8129,30.0355 L67.0255,30.251 L67.0255,30.4123 L67.3126,30.3686 L67.4765,30.6351 L67.5842,30.694 L67.7942,30.6351 L68.0811,30.6966 C68.1248,30.7813 68.1605,30.9066 68.1863,31.0708" id="Fill-25" fill="#2A1C35"></path>
        </g>
    </g>
</svg>