<?xml version="1.0" encoding="UTF-8"?>
<svg width="168px" height="26px" viewBox="0 0 168 26" version="1.1" xmlns="http://www.w3.org/2000/svg" xmlns:xlink="http://www.w3.org/1999/xlink">
    <!-- Generator: Sketch 51.3 (57544) - http://www.bohemiancoding.com/sketch -->
    <title>Curaprox</title>
    <desc>Created with Sketch.</desc>
    <defs></defs>
    <g id="Curaprox" stroke="none" stroke-width="1" fill="none" fill-rule="evenodd">
        <path d="M19.819,3.114 C17.673,1.51 15.298,0.74 12.603,0.74 C5.678,0.74 0,6.413 0,13.343 C0,20.208 5.772,25.756 12.603,25.756 C15.173,25.756 17.736,24.893 19.819,23.384 L19.819,20.047 C17.894,21.971 15.235,23.254 12.507,23.254 C7.089,23.254 2.694,18.572 2.694,13.249 C2.694,7.925 7.058,3.241 12.444,3.241 C15.235,3.241 17.894,4.459 19.819,6.447 L19.819,3.114 Z M27.004,1.16 L24.31,1.16 L24.31,16.297 C24.31,19.054 24.567,21.268 26.686,23.286 C28.32,24.893 30.661,25.756 32.937,25.756 C35.376,25.756 37.778,24.793 39.446,23 C41.37,21.011 41.566,18.923 41.566,16.297 L41.566,1.16 L38.869,1.16 L38.869,15.557 C38.869,17.45 38.968,19.565 37.683,21.106 C36.563,22.455 34.667,23.254 32.937,23.254 C31.175,23.254 29.118,22.422 28.063,20.943 C26.941,19.406 27.004,17.356 27.004,15.557 L27.004,1.16 Z M50.163,3.66 L50.964,3.66 C54.201,3.66 57.122,4.044 57.122,8.02 C57.122,11.775 54.043,12.352 50.995,12.352 L50.163,12.352 L50.163,3.66 Z M50.163,14.722 L50.832,14.722 L58.145,25.342 L61.448,25.342 L53.755,14.497 C57.472,14.178 59.814,11.549 59.814,7.825 C59.814,2.376 55.548,1.16 50.964,1.16 L47.466,1.16 L47.466,25.342 L50.163,25.342 L50.163,14.722 Z M79.601,18.479 L82.456,25.342 L85.44,25.342 L74.567,0 L63.405,25.342 L66.358,25.342 L69.275,18.479 L79.601,18.479 Z M78.543,15.977 L70.365,15.977 L74.504,6.289 L78.543,15.977 Z M91.727,14.754 L93.684,14.754 C95.705,14.754 97.786,14.497 99.417,13.154 C100.934,11.901 101.733,9.913 101.733,7.957 C101.733,5.806 100.796,3.692 99.002,2.439 C97.244,1.223 95.089,1.16 93.006,1.16 L89.03,1.16 L89.03,25.342 L91.727,25.342 L91.727,14.754 Z M91.727,3.66 L92.72,3.66 C95.863,3.66 99.038,3.95 99.038,7.893 C99.038,11.355 96.506,12.253 93.521,12.253 L91.727,12.253 L91.727,3.66 Z M108.983,3.66 L109.775,3.66 C113.023,3.66 115.933,4.044 115.933,8.02 C115.933,11.775 112.86,12.352 109.814,12.352 L108.983,12.352 L108.983,3.66 Z M108.983,14.722 L109.651,14.722 L116.962,25.342 L120.271,25.342 L112.573,14.497 C116.294,14.178 118.63,11.549 118.63,7.825 C118.63,2.376 114.365,1.16 109.775,1.16 L106.288,1.16 L106.288,25.342 L108.983,25.342 L108.983,14.722 Z M135.533,0.74 C128.635,0.74 122.929,6.352 122.929,13.28 C122.929,20.239 128.635,25.756 135.533,25.756 C142.43,25.756 148.137,20.239 148.137,13.28 C148.137,6.352 142.43,0.74 135.533,0.74 Z M135.533,3.241 C141.08,3.241 145.441,7.762 145.441,13.249 C145.441,18.697 141.017,23.254 135.533,23.254 C130.053,23.254 125.625,18.697 125.625,13.249 C125.625,7.762 129.991,3.241 135.533,3.241 Z M156.928,12.828 L149.777,25.342 L152.853,25.342 L158.398,15.401 L163.95,25.342 L167.025,25.342 L159.875,12.828 L166.422,1.16 L163.339,1.16 L158.398,10.265 L153.467,1.16 L150.382,1.16 L156.928,12.828 Z" fill="#2A1C35"></path>
    </g>
</svg>