<?xml version="1.0" encoding="UTF-8"?>
<svg width="440px" height="162px" viewBox="0 0 440 162" version="1.1" xmlns="http://www.w3.org/2000/svg" xmlns:xlink="http://www.w3.org/1999/xlink">
    <!-- Generator: Sketch 51.3 (57544) - http://www.bohemiancoding.com/sketch -->
    <title>Czech Design Logo White</title>
    <desc>Created with Sketch.</desc>
    <defs></defs>
    <g id="Czech-Design-Logo-White" stroke="none" stroke-width="1" fill="none" fill-rule="evenodd">
        <path d="M16.5791,148.3636 L21.4961,148.3636 C40.4791,148.3626 59.4621,148.3616 78.4441,148.3606 C95.9291,148.3606 113.4141,148.4836 130.8961,148.3046 C139.2591,148.2186 147.0271,145.9176 150.8981,137.6936 C154.9301,129.1286 154.6991,120.3536 148.7191,112.5836 C144.2521,106.7786 137.6381,105.2746 130.6591,105.2696 C93.9431,105.2456 57.2261,105.2586 20.5101,105.2686 C19.1991,105.2686 17.8881,105.3826 16.5791,105.4416 L16.5791,148.3636 Z M70.9371,159.7516 C50.0621,159.7476 29.1871,159.6626 8.3131,159.8276 C4.6441,159.8566 3.7191,158.7126 3.7491,155.1616 C3.9121,136.1626 3.9111,117.1616 3.7481,98.1626 C3.7181,94.6906 4.7361,93.6736 8.1781,93.6816 C48.8021,93.7826 89.4271,93.6856 130.0521,93.7966 C140.1311,93.8236 149.8761,95.7656 157.2061,103.3846 C166.2561,112.7916 167.8281,124.3106 164.7821,136.5186 C161.4451,149.8936 151.1071,157.9666 136.1731,159.3516 C132.8191,159.6626 129.4331,159.7306 126.0611,159.7366 C107.6871,159.7726 89.3121,159.7546 70.9371,159.7516 Z M426.4058,1.4764 C430.1938,1.4764 433.5318,1.4554 436.8688,1.4834 C439.4668,1.5054 438.9438,3.4764 438.9478,5.0144 C438.9758,16.7604 438.9758,28.5074 438.9798,40.2534 C438.9828,48.1264 438.9088,55.9994 439.0178,63.8714 C439.0528,66.4324 438.2158,67.5284 435.5688,67.3814 C432.7248,67.2234 429.8658,67.3454 426.6708,67.3454 C426.5658,65.8094 426.4198,64.6154 426.4148,63.4204 C426.3898,57.5474 426.4328,51.6734 426.3948,45.8004 C426.3548,39.6264 427.2348,40.1034 420.8748,40.0944 C408.3788,40.0764 395.8828,40.0884 383.3858,40.0894 C347.7708,40.0894 312.1568,40.1544 276.5428,39.9974 C272.6268,39.9794 271.6378,41.1764 271.8018,44.8824 C272.0818,51.2434 271.7728,57.6274 271.9188,63.9974 C271.9788,66.6494 271.0098,67.3894 268.4388,67.4094 C259.5088,67.4784 259.5098,67.5674 259.5098,58.5804 C259.5098,40.9604 259.6048,23.3394 259.4278,5.7214 C259.3928,2.1794 260.5308,1.0764 263.9018,1.4114 C266.3578,1.6554 268.8568,1.4584 271.8798,1.4584 C271.8798,8.1784 271.8798,14.5164 271.8808,20.8534 C271.8808,28.5954 271.8808,28.6054 279.6278,28.6064 C326.9878,28.6114 374.3488,28.5664 421.7098,28.6954 C425.4978,28.7054 426.6688,27.7474 426.4988,23.8984 C426.1768,16.5774 426.4058,9.2314 426.4058,1.4764 Z M176.9116,1.7616 C178.4256,12.5696 178.4256,12.5686 168.0616,12.5696 C161.1936,12.5706 154.3226,12.6746 147.4566,12.5246 C144.8156,12.4666 143.9016,13.3946 144.0306,15.9706 C144.1866,19.0856 144.1926,22.2196 144.0366,25.3336 C143.9006,28.0606 144.8886,29.1056 147.6926,29.0566 C155.4326,28.9196 163.1786,29.0886 170.9196,28.9636 C173.4326,28.9226 174.6216,29.5756 174.4126,32.2966 C174.2246,34.7466 174.3726,37.2226 174.3726,40.0536 C165.3426,40.0536 156.8686,40.2186 148.4066,39.9736 C144.9366,39.8726 143.7016,40.9166 144.0206,44.3706 C144.2836,47.2196 144.2016,50.1176 144.0396,52.9806 C143.8966,55.5026 144.9586,56.1686 147.3356,56.1386 C155.8266,56.0316 164.3226,56.2306 172.8106,56.0346 C176.1076,55.9586 177.5096,56.7376 177.3536,60.3456 C176.9936,68.6826 178.2276,67.2626 170.4136,67.3246 C159.0506,67.4126 147.6846,67.3486 136.3206,67.3496 C134.9686,67.3496 133.6166,67.3496 131.9436,67.3496 L131.9436,1.7616 L176.9116,1.7616 Z M240.7573,44.1478 C243.8913,46.4358 246.8563,48.5998 249.7463,50.7098 C243.7553,63.4468 230.2213,70.4308 216.0683,68.4068 C200.4063,66.1658 191.0473,57.6148 187.2833,42.1068 C184.0363,28.7308 189.6423,13.8708 200.9833,5.7858 C214.9623,-4.1792 237.2623,-0.8712 247.1303,12.6298 C250.1923,16.8178 250.1303,17.1588 245.8443,20.1518 C244.2123,21.2918 242.6003,22.4608 240.9583,23.5878 C240.6633,23.7908 240.2703,23.8518 239.5643,24.1068 C235.8963,17.0218 230.4303,12.1408 222.0503,11.5788 C215.7463,11.1558 210.2513,13.2258 205.6743,17.5528 C197.0503,25.7098 197.1803,43.1478 205.8693,51.2358 C216.4633,61.0978 228.9233,58.7158 240.7573,44.1478 Z M54.001,44.078 C57.272,46.422 60.26,48.563 63.206,50.675 C55.276,65.475 42.525,71.314 24.505,67.533 C9.683,64.422 -0.302,50.494 0.007,33.794 C0.318,17.016 10.828,3.783 26.139,0.889 C42.561,-2.215 57.666,4.396 63.001,17.377 C59.914,19.618 56.736,21.926 53.158,24.524 C49.061,16.549 43.147,11.505 34.002,11.54 C28.265,11.561 23.223,13.498 19.138,17.544 C10.44,26.159 10.456,42.483 19.231,51.147 C24.492,56.342 30.993,58.075 38.181,56.718 C45.439,55.347 50.037,50.266 54.001,44.078 Z M76.1908,12.8978 C70.5228,12.8968 70.5228,12.8958 70.5228,7.2948 L70.5228,1.7878 L118.6798,1.7878 C119.2178,7.7348 119.3928,12.9618 114.9088,18.1048 C105.0088,29.4578 95.8908,41.4928 86.4658,53.2588 C86.0278,53.8058 85.7118,54.4498 85.0278,55.5468 C86.8038,55.6458 88.1008,55.7758 89.3978,55.7788 C98.6388,55.7968 107.8808,55.8678 117.1188,55.7368 C119.7528,55.6998 120.6058,56.5678 120.5348,59.1768 C120.2638,69.0448 121.7868,67.2388 112.5058,67.3188 C99.6448,67.4288 86.7818,67.3458 73.9208,67.3458 L70.2738,67.3458 C66.7858,57.8138 72.3418,51.9308 77.4728,45.7458 C85.4268,36.1578 93.1708,26.3948 100.9838,16.6898 C101.7438,15.7458 102.3658,14.6908 103.5928,12.8978 C93.8698,12.8978 85.0308,12.8978 76.1908,12.8978 Z M359.7212,134.8548 L338.8182,134.8548 C338.8182,131.7258 338.6392,129.0048 338.9362,126.3368 C339.0172,125.6128 340.5252,124.5048 341.3912,124.4938 C350.8882,124.3578 360.3892,124.3318 369.8852,124.5208 C370.7782,124.5398 372.3812,126.2208 372.3982,127.1538 C372.5812,137.1488 372.5792,147.1508 372.3912,157.1468 C372.3742,158.0268 370.7552,159.5288 369.7622,159.6338 C362.1872,160.4448 362.1772,160.3588 361.2362,152.5838 C358.5902,154.5348 356.1762,156.9458 353.2742,158.3488 C337.6862,165.8868 317.2962,157.3038 311.4252,140.7208 C306.7152,127.4198 308.0532,114.9258 317.3302,103.7758 C330.3062,88.1798 357.4082,88.7708 369.7652,104.8588 C371.7992,107.5068 371.8742,109.3578 368.7222,111.0848 C366.6862,112.2018 364.8722,113.7258 364.0242,113.5168 C361.4232,111.6078 358.8332,109.6828 356.2182,107.7928 C342.4882,97.8638 324.1442,105.7168 321.8572,122.4988 C320.3532,133.5288 324.4052,142.9428 333.0572,147.4318 C342.1882,152.1688 357.8052,149.4108 359.7212,134.8548 Z M395.8247,114.4584 L395.8247,159.6794 C392.2437,159.6794 388.7957,159.8654 385.4027,159.5164 C384.7477,159.4484 383.8467,157.2844 383.8397,156.0834 C383.7367,139.5924 383.7697,123.1014 383.7707,106.6094 C383.7707,103.2364 383.5837,99.8454 383.8957,96.5014 C383.9877,95.5184 385.4077,94.0214 386.3797,93.8804 C388.9497,93.5104 391.6807,93.3894 394.2057,93.8884 C395.7767,94.1974 397.5387,95.5184 398.4497,96.8924 C407.4007,110.3924 416.1947,123.9964 425.0087,137.5864 C425.2707,137.9914 425.2677,138.5684 425.3877,139.0654 C425.7587,138.8234 426.1297,138.5814 426.4997,138.3394 C426.5597,137.0314 426.6727,135.7254 426.6737,134.4174 C426.6857,122.2984 426.8157,110.1774 426.5957,98.0624 C426.5297,94.4834 427.7497,93.5784 431.0997,93.6774 C440.0587,93.9404 438.9477,92.7384 438.9627,101.4264 C438.9927,119.2914 438.8827,137.1574 439.0187,155.0214 C439.0457,158.4744 438.1867,159.5884 434.5017,159.9104 C428.2397,160.4584 424.6287,158.2264 421.3677,152.8154 C413.4757,139.7224 404.8257,127.0864 396.4817,114.2664 C396.2617,114.3304 396.0437,114.3954 395.8247,114.4584 Z M222.897,140.3158 C227.049,138.2218 230.457,136.5028 234.255,134.5868 C234.91,136.4628 235.439,137.9318 235.936,139.4118 C239.124,148.8938 250.698,153.2668 259.297,148.2318 C265.149,144.8058 265.008,137.1818 258.628,134.1218 C254.42,132.1018 249.668,131.1628 245.103,129.9518 C238.288,128.1418 232.085,125.4648 228.481,118.9198 C223.751,110.3348 227.289,99.5538 236.118,95.4098 C249.501,89.1278 264.539,92.5608 271.914,103.5828 C275.313,108.6638 275.231,109.0628 269.995,112.2148 C268.512,113.1068 266.994,113.9388 265.272,114.9238 C264.727,114.0018 264.258,113.3198 263.9,112.5838 C260.002,104.5708 250.334,101.1268 242.31,104.9078 C237.869,107.0008 236.756,112.6128 240.926,115.0978 C245.409,117.7698 250.743,119.0178 255.716,120.8588 C259.442,122.2378 263.524,123.0108 266.859,125.0278 C279.302,132.5508 279.152,149.1698 266.484,157.1098 C254.921,164.3558 236.568,162.0988 228.672,151.2948 C226.311,148.0658 224.879,144.1568 222.897,140.3158 Z M217.3579,105.1156 L188.8419,105.1156 L188.8419,121.0426 L214.0679,121.0426 L214.0679,132.5526 L188.8359,132.5526 L188.8359,148.5446 L217.0769,148.5446 L217.0769,159.4756 L176.2469,159.4756 C176.1649,158.2376 176.0189,157.0496 176.0179,155.8606 C176.0039,136.4966 176.0659,117.1316 175.9469,97.7676 C175.9279,94.7596 176.6459,93.6186 179.8639,93.6706 C191.1049,93.8496 202.3509,93.8216 213.5939,93.6956 C216.4829,93.6636 217.7259,94.4636 217.4059,97.5106 C217.1629,99.8336 217.3579,102.2026 217.3579,105.1156 Z M286.3862,159.7504 L286.3862,140.6884 C286.3862,126.2004 286.4372,111.7124 286.3382,97.2254 C286.3212,94.6854 287.0042,93.6394 289.6812,93.6974 C301.1112,93.9494 298.8562,92.3524 298.9352,102.5514 C299.0742,120.2854 298.9072,138.0224 299.0382,155.7574 C299.0612,158.8524 298.1622,160.0514 295.0292,159.7964 C292.3272,159.5764 289.5942,159.7504 286.3862,159.7504 Z" id="Combined-Shape" fill="#EEEEEE"></path>
    </g>
</svg>