<?xml version="1.0" encoding="UTF-8"?>
<svg width="545px" height="548px" viewBox="0 0 545 548" version="1.1" xmlns="http://www.w3.org/2000/svg" xmlns:xlink="http://www.w3.org/1999/xlink">
    <!-- Generator: Sketch 51.3 (57544) - http://www.bohemiancoding.com/sketch -->
    <title>Dva Dve</title>
    <desc>Created with Sketch.</desc>
    <defs></defs>
    <g id="Page-1" stroke="none" stroke-width="1" fill="none" fill-rule="evenodd">
        <g id="dvadve" transform="translate(-323.000000, -147.000000)" fill="#000000">
            <g id="Dva-Dve" transform="translate(323.000000, 147.000000)">
                <path d="M286.21,273.6752 C286.11,266.0932 279.477,259.7632 271.885,260.0062 C264.405,260.2442 258.307,266.5362 258.371,273.9512 C258.438,281.6982 264.737,287.9392 272.41,287.8602 C280.048,287.7802 286.311,281.3432 286.21,273.6752 Z M437.253,311.5932 L468.223,311.5932 L468.223,301.6652 C462.333,301.6652 456.712,301.8012 451.107,301.5572 C449.905,301.5042 447.785,300.1152 447.749,299.2722 C447.469,292.6812 447.594,286.0712 447.594,278.8632 L465.307,278.8632 L465.307,268.7922 L447.535,268.7922 C447.535,263.0442 447.762,257.9022 447.462,252.7912 C447.233,248.8922 448.823,247.9382 452.399,248.1082 C457.646,248.3582 462.912,248.1732 468.099,248.1732 L468.099,238.3742 L437.253,238.3742 L437.253,311.5932 Z M394.095,293.4762 C393.595,292.0062 393.421,291.6152 393.328,291.2062 C389.65,274.9842 385.925,258.7722 382.356,242.5262 C381.651,239.3212 380.499,237.4152 376.801,237.9482 C374.773,238.2402 372.668,238.0002 370.264,238.0002 C370.52,239.4792 370.591,240.1192 370.744,240.7392 C375.848,261.4062 380.971,282.0692 386.065,302.7382 C388.488,312.5662 388.466,312.5712 399.371,311.5022 C405.346,287.3042 411.365,262.9242 417.522,237.9912 C415.018,237.9912 413.338,238.1982 411.729,237.9502 C407.714,237.3312 406.165,239.2372 405.52,242.9602 C404.611,248.2002 403.312,253.3732 402.127,258.5632 C399.544,269.8722 396.927,281.1742 394.095,293.4762 Z M176.771,238.5752 C166.25,237.1192 166.267,237.1232 164.316,246.1132 C162.908,252.6072 161.478,259.0972 159.997,265.5752 C157.998,274.3202 155.941,283.0512 153.91,291.7872 C152.811,290.9742 152.535,290.2382 152.363,289.4792 C148.959,274.4042 145.327,259.3732 142.305,244.2212 C141.273,239.0482 139.126,237.0422 134.059,237.9882 C132.821,238.2192 131.551,238.2742 130.196,238.4202 C130.196,239.4262 130.064,240.1112 130.215,240.7272 C135.798,263.4792 141.438,286.2162 146.987,308.9762 C148.204,313.9692 152.062,311.2562 154.742,311.7922 C157.189,312.2822 158.896,311.7072 159.627,308.5052 C162.623,295.3862 166.037,282.3632 169.264,269.2972 C171.764,259.1752 174.215,249.0422 176.771,238.5752 Z M235.857,311.7012 C235.953,310.9002 236.093,310.5462 236.017,310.2492 C230.077,287.2172 224.057,264.2052 218.225,241.1452 C217.247,237.2762 214.571,237.9622 212.023,238.0382 C209.405,238.1162 206.302,236.9492 205.315,241.1532 C203.529,248.7622 201.406,256.2912 199.45,263.8602 C195.383,279.6022 191.334,295.3492 187.079,311.8632 C189.553,311.8632 191.497,311.7232 193.412,311.8952 C196.55,312.1772 198.161,311.2472 198.872,307.8032 C199.814,303.2352 200.364,297.0042 203.431,294.8852 C206.727,292.6072 212.75,294.4232 217.565,294.1382 C220.331,293.9752 221.402,295.2032 221.944,297.6172 C222.996,302.3002 224.16,306.9562 225.296,311.7012 L235.857,311.7012 Z M315.336,311.5222 C321.879,311.5222 328.224,312.1502 334.397,311.3862 C346.117,309.9372 353.25,301.3012 353.347,289.4162 C353.426,279.5932 353.458,269.7672 353.33,259.9462 C353.184,248.6402 346.074,239.9692 334.931,238.5202 C328.601,237.6972 322.076,238.3722 315.336,238.3722 L315.336,311.5222 Z M74.616,311.8632 C79.873,311.8632 84.509,311.8912 89.145,311.8582 C103.47,311.7532 112.307,303.4902 112.801,289.2042 C113.14,279.4072 113.095,269.5822 112.792,259.7822 C112.528,251.2312 108.879,244.2142 100.91,240.4442 C92.475,236.4542 83.49,238.0962 74.616,238.3062 L74.616,311.8632 Z M544.155,273.6982 C547.977,422.2602 421.075,543.0182 280.566,546.9892 C123.706,551.4242 -4.956,418.5922 0.421,272.7092 C-2.802,126.1012 122.379,5.7332 262.028,0.9532 C422.208,-4.5288 549.052,130.6202 544.155,273.6982 Z" id="Fill-1"></path>
                <path d="M85.5562,248.704 C95.9762,247.298 100.9982,250.996 101.4412,260.951 C101.8542,270.253 101.8442,279.604 101.4182,288.906 C100.9632,298.867 95.8832,302.615 85.5562,301.156 L85.5562,248.704 Z" id="Fill-3"></path>
                <path d="M325.8389,301.013 L325.8389,249.029 C334.9449,246.783 340.7609,249.678 341.5319,258.434 C342.4889,269.3 342.4759,280.365 341.6049,291.241 C340.9169,299.826 335.1349,302.843 325.8389,301.013" id="Fill-5"></path>
                <path d="M212.0654,256.8763 C214.1744,265.7053 216.2844,274.5343 218.4664,283.6653 L204.5954,283.6653 C206.7614,274.5493 208.8724,265.6663 210.9824,256.7823 C211.3434,256.8143 211.7044,256.8453 212.0654,256.8763" id="Fill-7"></path>
            </g>
        </g>
    </g>
</svg>