<svg xmlns="http://www.w3.org/2000/svg" viewBox="0 0 3228.37 263.02"><defs><style>.cls-1{fill:#487169;}.cls-2{fill:#559184;}.cls-3{fill:#e29d88;}.cls-4{fill:#88bba5;}.cls-5{fill:#acceed;}.cls-6{fill:#557fb5;}.cls-7{fill:#7396c5;}.cls-8{fill:#290a3b;}</style></defs><title>Asset 4</title><g id="Layer_2" data-name="Layer 2"><g id="Layer_1-2" data-name="Layer 1"><path class="cls-1" d="M41.89,258.4V59.3H0V4.9H253.5V59.3h-43V258.4Z"/><path class="cls-2" d="M265.47,4.9H396V58.75H356.59V258.4H304.91V58.75H265.47Z"/><path class="cls-3" d="M424.59,4.9h84.32V258.4H424.59Z"/><path class="cls-3" d="M540.19,4.9H665.31V35.63H625.06v192h40.25V258.4H540.19V227.66h40.26v-192H540.19Z"/><path class="cls-2" d="M676.19,4.9H801.31V35.63H761.06v192h40.25V258.4H676.19V227.66h40.26v-192H676.19Z"/><path class="cls-2" d="M930,131.65q0-24.75-2.86-41.89t-8.57-28q-5.7-10.87-14-15.77a36.58,36.58,0,0,0-18.91-4.9,41.36,41.36,0,0,0-14.14,2.18A105.55,105.55,0,0,0,860.34,48q-5.18,2.58-10.2,4.76a28.2,28.2,0,0,1-11.29,2.17q-12.24,0-19.86-7.88a26.75,26.75,0,0,1-7.61-19.32A27.75,27.75,0,0,1,818.72,8.3q7.35-8,20.13-8a42.59,42.59,0,0,1,16.73,3.4q8,3.41,19.17,7.48A201.75,201.75,0,0,0,902,18.63q16,3.4,40.8,3.4t40.8-3.4a201.75,201.75,0,0,0,27.2-7.48q11.16-4.08,19.18-7.48a42.52,42.52,0,0,1,16.73-3.4q12.78,0,20.12,8a27.75,27.75,0,0,1,7.35,19.44,26.76,26.76,0,0,1-7.62,19.32q-7.62,7.89-19.85,7.88a28.14,28.14,0,0,1-11.29-2.17q-5-2.18-10.2-4.76A107.37,107.37,0,0,0,1014,43.25a41.46,41.46,0,0,0-14.15-2.18A36.52,36.52,0,0,0,981,46q-8.31,4.89-14,15.77t-8.57,28q-2.85,17.13-2.85,41.89t2.85,42q2.86,17.28,8.57,28t14,15.64a36.51,36.51,0,0,0,18.9,4.89,41.47,41.47,0,0,0,14.15-2.17,107.37,107.37,0,0,0,11.15-4.76q5.16-2.58,10.2-4.76a28.14,28.14,0,0,1,11.29-2.18q12.24,0,19.85,7.89a26.75,26.75,0,0,1,7.62,19.31,27.76,27.76,0,0,1-7.35,19.45q-7.33,8-20.12,8a42.34,42.34,0,0,1-16.73-3.4q-8-3.39-19.18-7.48a203.24,203.24,0,0,0-27.2-7.48q-16-3.39-40.8-3.4t-40.8,3.4a203.24,203.24,0,0,0-27.2,7.48q-11.16,4.08-19.17,7.48a42.42,42.42,0,0,1-16.73,3.4q-12.79,0-20.13-8a27.75,27.75,0,0,1-7.34-19.45A26.74,26.74,0,0,1,819,216.24q7.62-7.89,19.86-7.89a28.21,28.21,0,0,1,11.29,2.18q5,2.17,10.2,4.76a105.55,105.55,0,0,0,11.15,4.76,41.37,41.37,0,0,0,14.14,2.17,36.57,36.57,0,0,0,18.91-4.89q8.3-4.91,14-15.64t8.57-28Q930,156.41,930,131.65Z"/><path class="cls-4" d="M1104.59,4.9h84.32V258.4h-84.32Z"/><path class="cls-4" d="M1345.31,142.53v48.41a110,110,0,0,1-3.67,29.52,62.89,62.89,0,0,1-11.29,22.71,50.15,50.15,0,0,1-19.45,14.69q-11.82,5.16-28.15,5.16t-28.15-5.16a50.15,50.15,0,0,1-19.45-14.69,62.89,62.89,0,0,1-11.29-22.71,110.43,110.43,0,0,1-3.67-29.52V64.19a82.43,82.43,0,0,1,3.67-24.75A56.19,56.19,0,0,1,1235.15,19,52.94,52.94,0,0,1,1254.6,5.3q11.84-5,28.15-5t28.15,5A52.94,52.94,0,0,1,1330.35,19a56.19,56.19,0,0,1,11.29,20.4,82.12,82.12,0,0,1,3.67,24.75v56.58h-53.85v-49q0-4.62-1.91-6.39a6.54,6.54,0,0,0-4.62-1.77q-3.54,0-5,2.31a10.54,10.54,0,0,0-1.5,5.85V191.49a9.21,9.21,0,0,0,1.77,6,5.79,5.79,0,0,0,4.76,2.18c2.35,0,4-.72,5-2.18a10.47,10.47,0,0,0,1.5-6v-49Z"/><path class="cls-5" d="M1481.31,158.85V199.1a82.13,82.13,0,0,1-3.67,24.76,56,56,0,0,1-11.29,20.4A52.8,52.8,0,0,1,1446.9,258q-11.82,5-28.15,5t-28.15-5a52.8,52.8,0,0,1-19.45-13.73,56,56,0,0,1-11.29-20.4,82.45,82.45,0,0,1-3.67-24.76V64.19a82.43,82.43,0,0,1,3.67-24.75A56.19,56.19,0,0,1,1371.15,19,52.94,52.94,0,0,1,1390.6,5.3q11.84-5,28.15-5t28.15,5A52.94,52.94,0,0,1,1466.35,19a56.19,56.19,0,0,1,11.29,20.4,82.12,82.12,0,0,1,3.67,24.75v40.26h-40.8V64.19a26.19,26.19,0,0,0-5.17-16.32q-5.16-6.79-16.59-6.8t-16.59,6.8A26.19,26.19,0,0,0,1397,64.19V199.1a26.15,26.15,0,0,0,5.17,16.32q5.16,6.81,16.59,6.8t16.59-6.8a26.15,26.15,0,0,0,5.17-16.32V158.85Z"/><path class="cls-6" d="M1617.31,158.85V199.1a82.13,82.13,0,0,1-3.67,24.76,56,56,0,0,1-11.29,20.4A52.8,52.8,0,0,1,1582.9,258q-11.82,5-28.15,5t-28.15-5a52.8,52.8,0,0,1-19.45-13.73,56,56,0,0,1-11.29-20.4,82.45,82.45,0,0,1-3.67-24.76V64.19a82.43,82.43,0,0,1,3.67-24.75A56.19,56.19,0,0,1,1507.15,19,52.94,52.94,0,0,1,1526.6,5.3q11.84-5,28.15-5t28.15,5A52.94,52.94,0,0,1,1602.35,19a56.19,56.19,0,0,1,11.29,20.4,82.12,82.12,0,0,1,3.67,24.75v40.26h-40.8V64.19a26.19,26.19,0,0,0-5.17-16.32q-5.16-6.79-16.59-6.8t-16.59,6.8A26.19,26.19,0,0,0,1533,64.19V199.1a26.15,26.15,0,0,0,5.17,16.32q5.16,6.81,16.59,6.8t16.59-6.8a26.15,26.15,0,0,0,5.17-16.32V158.85Z"/><path class="cls-6" d="M1812.06,150.42q16.32,6,25.84,14.82a75.52,75.52,0,0,1,14.83,18.36,91.21,91.21,0,0,1,8,18.9q2.71,9.39,5.31,17a34,34,0,0,0,6.8,12.24q4.22,4.63,12.64,4.63a4.26,4.26,0,0,1,3.54,1.36,5.11,5.11,0,0,1,1.09,3.26c0,2.36-1.09,4.86-3.27,7.48a31.29,31.29,0,0,1-9.24,7.21,58.81,58.81,0,0,1-14.69,5.3,86.18,86.18,0,0,1-19.59,2q-20.94,0-35.22-7.34a83.91,83.91,0,0,1-24.21-18.36,114.09,114.09,0,0,1-16.59-23.8q-6.67-12.78-12.1-23.8a141.23,141.23,0,0,0-10.61-18.36q-5.17-7.35-12.24-7.34c-3.63,0-6.3,1.08-8,3.26s-2.58,5.17-2.58,9v54.12q0,7.08,2.86,11.43t10.74,4.35a2.88,2.88,0,0,1,2.58,1.9,9.76,9.76,0,0,1,0,8.44,2.87,2.87,0,0,1-2.58,1.9H1630.1a2.89,2.89,0,0,1-2.59-1.9,9.85,9.85,0,0,1,0-8.44,2.91,2.91,0,0,1,2.59-1.9c5.25,0,8.84-1.45,10.74-4.35s2.86-6.71,2.86-11.43V32.91q0-7.06-2.86-11.42c-1.9-2.9-5.49-4.35-10.74-4.35a2.9,2.9,0,0,1-2.59-1.91,9.18,9.18,0,0,1-1-4.21,9.25,9.25,0,0,1,1-4.22,2.89,2.89,0,0,1,2.59-1.9h105.26a2.87,2.87,0,0,1,2.58,1.9,9.25,9.25,0,0,1,1,4.22,9.18,9.18,0,0,1-1,4.21,2.88,2.88,0,0,1-2.58,1.91q-7.89,0-10.74,4.35t-2.86,11.42V134.1a14.65,14.65,0,0,0,3.26,9.65,10.74,10.74,0,0,0,8.71,3.95q6.26,0,9.52-3.68t3.26-9.92a37.54,37.54,0,0,0-1.22-9q-1.23-4.89-2.72-11.15t-2.72-14a112.78,112.78,0,0,1-1.23-17.54,92.27,92.27,0,0,1,5.58-32.24,77.63,77.63,0,0,1,15.91-26.24,74.55,74.55,0,0,1,24.75-17.55A78.36,78.36,0,0,1,1817,0a80.27,80.27,0,0,1,29,5.17A66.18,66.18,0,0,1,1884.55,43a78.84,78.84,0,0,1,5.58,30.19q0,13.6-4.76,23.93a55.73,55.73,0,0,1-12.24,17.41,51.57,51.57,0,0,1-17,10.75,52.57,52.57,0,0,1-19,3.67,62.09,62.09,0,0,1-20.81-3.4,50.26,50.26,0,0,1-16.86-9.79A46.23,46.23,0,0,1,1788,100.1a50.68,50.68,0,0,1-4.21-21.22q0-19.84,12.37-32.5t36.59-15.64q5.43-.54,7.88-1.91c1.64-.9,2.45-2.54,2.45-4.89q0-4.62-6.53-7.62t-19.58-3a63.82,63.82,0,0,0-26.11,5.17,59.15,59.15,0,0,0-19.86,14,63,63,0,0,0-12.65,20.81,72.26,72.26,0,0,0-4.48,25.57q0,25.58,13.73,42.84T1812.06,150.42Z"/><path class="cls-7" d="M1900.19,4.9h42.43V120.77l43-115.87h45.15l-48.41,126.75,48.41,126.75H1985.6l-43-115.6V258.4h-42.43Z"/><path class="cls-5" d="M2036.19,4.9h125.12V64.19h-40.8v41.62h27.2v51.68h-27.2V199.1h40.8v59.3H2036.19Z"/><path class="cls-4" d="M2172.19,4.9h125.12V64.19h-68v41.62h54.4v51.68h-54.4V199.1h68v59.3H2172.19Z"/><path class="cls-1" d="M2308.19,4.9h125.12V64.19h-68v41.62h54.4v51.68h-54.4V199.1h68v59.3H2308.19Z"/><path class="cls-8" d="M2448.54,131.65V10.06q0-4.89,6-4.89,24.48,0,48.55.27t48.55.27q36.45,0,72.49-.13t72.49-.14q4.35,0,4.35,4.9,0,9.53-.27,18.9t-.27,18.9c0,4.36.08,8.67.27,12.92s.27,8.67.27,13.2c0,2-.46,3.4-1.36,4.21s-2.63,1.23-5.17,1.23q-15.49,0-30.87-.28t-30.87-.27q-13.07,0-26,.14t-26.25.13c-3.26,0-5.12.78-5.57,2.32a30.39,30.39,0,0,0-.68,7.75,38.65,38.65,0,0,1-.41,5.71,38.85,38.85,0,0,0-.41,5.71q0,3.81,5.44,3.81H2633c4,0,6.35.37,7.07,1.09s1.09,3.08,1.09,7.07q0,6.53-.14,13.19t-.13,13.19c0,2.36,0,4.68.13,6.94s.14,4.67.14,7.21q0,5.72-6.26,5.71-13.05,0-25.84-.27t-25.84-.27a44.23,44.23,0,0,0-5.71.27,3.72,3.72,0,0,0-2.72,1.49,7.81,7.81,0,0,0-.95,3.81q-.14,2.59-.14,7.48c.18,2.91.37,5.22.55,6.94a8.33,8.33,0,0,0,1.22,3.94,4.46,4.46,0,0,0,2.86,1.77,25.85,25.85,0,0,0,5.17.41q27.47,0,54.8-.41t55.08-.41c3.81,0,6,.37,6.67,1.09s.95,2.9.95,6.53v57.66c0,2.18-.05,3.86-.14,5a4.55,4.55,0,0,1-1,2.72,3.76,3.76,0,0,1-2.72,1.09c-1.27.1-3,.14-5.17.14q-22.84,0-45.15.41t-44.88.4q-35.89,0-71.4-.27t-71.4-.27q-7.33,0-8.84-1.09c-1-.72-1.49-3-1.49-6.8q0-29.64.13-59.29T2448.54,131.65Zm20.95,75.61c0-1.63-.55-2.44-1.63-2.44a5.67,5.67,0,0,0-4,1.63,5,5,0,0,0-1.77,3.81c0,1.08.28,1.63.82,1.63a8.1,8.1,0,0,0,3.54-1.63A7.71,7.71,0,0,0,2469.49,207.26Zm7.61,19.32-.27-.55a.82.82,0,0,0-.54.27l.54.55Zm.82-153.41.54-.27-.54-.28Zm.82,162.38-.28.55.55-.28Zm7.61-76.7a12.32,12.32,0,0,0-.54-2c-.19-.45-.73-.68-1.63-.68a1,1,0,0,0-1.09,1.09,6.18,6.18,0,0,0,.68,2,2.17,2.17,0,0,0,2,1.49c.36,0,.5-.22.41-.68A1.79,1.79,0,0,1,2486.35,158.85Zm0,33.73c.91,0,1.36-.55,1.36-1.64,0-1.44-.81-2.17-2.45-2.17-.72,0-1.08.45-1.08,1.36A2.43,2.43,0,0,0,2486.35,192.58Zm-.27,43c.36-.36.63-.54.82-.54a.76.76,0,0,1-.28-.55l-.81.55A.78.78,0,0,1,2486.08,235.55Zm4.62-204a1.61,1.61,0,0,0-.27-1.09,1.21,1.21,0,0,0-.54.14,1.25,1.25,0,0,1-.55.14l.55,1.08a.58.58,0,0,0,.41-.13A.52.52,0,0,1,2490.7,31.55Zm4.36,90c2,0,3-.9,3-2.72a1.21,1.21,0,0,0-1.36-1.36c-2.36,0-3.54.82-3.54,2.45C2493.15,121,2493.79,121.58,2495.06,121.58Zm-1.36,56.85.54.55.54-.27-.81-.82c0,.18,0,.27-.14.27S2493.7,178.25,2493.7,178.43Zm1.9,7.07-.54-.27-.28.27a.48.48,0,0,0,.55.55v-.27A.25.25,0,0,1,2495.6,185.5Zm9.79-121c-.36-.54-.72-.81-1.09-.81a1,1,0,0,0-1.08,1.09q0,1.08.81,1.08A1.2,1.2,0,0,0,2505.39,64.46Zm16.32,167.28c.72,0,1.09-.63,1.09-1.9a1.44,1.44,0,0,0-1.63-1.63c-.55,0-.82.45-.82,1.36C2520.35,230.84,2520.8,231.57,2521.71,231.74Zm5.17-1.36a.8.8,0,0,1,.27-.54,1.1,1.1,0,0,1-.68-.13.56.56,0,0,0-.41-.14l-.27.54A1.59,1.59,0,0,0,2526.88,230.38Zm7.62-13.87a.79.79,0,0,0-.28-.54,1.1,1.1,0,0,0-.27.81A.78.78,0,0,0,2534.5,216.51Zm2.44-84.32v-.27l-.27-.27a1.08,1.08,0,0,0-.81.27c0,.18.17.46.54.82Zm2.45,85.68a.82.82,0,0,0-.54.27.43.43,0,1,0,.81.28A.8.8,0,0,1,2539.39,217.87Zm5.44-187.95A3.58,3.58,0,0,0,2541,27.2c-1.08,0-1.63.64-1.63,1.9q0,3.54,3,3.81a1.7,1.7,0,0,0,1.77-.95A13.19,13.19,0,0,0,2544.83,29.92Zm.27,117.78-.68-.68a1.27,1.27,0,0,0-1-.41.72.72,0,0,0-.81.81,1.93,1.93,0,0,0,1.63,1.64C2544.83,149.06,2545.1,148.61,2545.1,147.7Zm1.64,76.43a1.61,1.61,0,0,0-1.09-.55c-.55,0-.82.37-.82,1.09a.72.72,0,0,0,.82.82C2546.37,225.49,2546.74,225,2546.74,224.13Zm4.08-178.43c-.37-.37-.64-.55-.82-.55l-.54.27.54.82C2550.18,46.24,2550.45,46.06,2550.82,45.7Zm4.08,12c-.37-.72-.73-1.08-1.09-1.08a3,3,0,0,0-.95.27c-.46.18-.68.45-.68.81,0,.73.45,1.09,1.36,1.09Zm6.25,146.61c-.91,0-1.36.37-1.36,1.09,0,.91.36,1.36,1.09,1.36.54,0,.82-.45.82-1.36A1.61,1.61,0,0,0,2561.15,204.27Zm1.36,18.5c1.27-.36,1.91-.91,1.91-1.63a2,2,0,0,0-1-1.91,4.59,4.59,0,0,0-2.31-.54c-.73,0-1.09.54-1.09,1.63A2.56,2.56,0,0,0,2562.51,222.77ZM2565,122.13a2.3,2.3,0,0,0,1.36-1.91c0-1.44-.64-2.17-1.9-2.17a1.51,1.51,0,0,0-1.36,1.63C2563.06,121.31,2563.69,122.13,2565,122.13Zm2.72-47.33c-.37-.72-.73-1.09-1.09-1.09-1.45,0-2.17.46-2.17,1.36,0,.37.36.73,1.08,1.09A2.45,2.45,0,0,0,2567.68,74.8Zm-.54-32.91a26.07,26.07,0,0,1-.14,2.85,23.68,23.68,0,0,0-.14,2.59,4.53,4.53,0,0,0,.68,2,2.7,2.7,0,0,0,2.59,1.22,2.57,2.57,0,0,0,2.17-1.09,3.31,3.31,0,0,0,.82-1.9,13.18,13.18,0,0,0-.68-3.81,14.61,14.61,0,0,1-.68-4.35,11.94,11.94,0,0,1,.27-2.58,10.82,10.82,0,0,0,.27-2.32c0-1.81-.81-2.72-2.44-2.72-.73,0-1.28.46-1.64,1.36a14.41,14.41,0,0,0-.81,3.13,22.52,22.52,0,0,0-.27,3.4Zm3.8,27.74c-.54-.9-1-1.36-1.36-1.36-.72,0-1.08.27-1.08.82a2,2,0,0,0,.54,1.22,3.11,3.11,0,0,0,1.09,1C2570.67,71.26,2570.94,70.72,2570.94,69.63Zm5.17-7.07a1.6,1.6,0,0,0-1.36-.82c-.54.55-.81.91-.81,1.09.17.55.72.82,1.63.82A1.56,1.56,0,0,0,2576.11,62.56Zm26.66-9a1.21,1.21,0,0,0-1.36-1.36l-1.09,1.09c.36.73.72,1.09,1.09,1.09A2.23,2.23,0,0,0,2602.77,53.58Zm6.25,69.09c0-1.09-.45-1.63-1.36-1.63s-1.36.37-1.36,1.09a10,10,0,0,0,.14,1.63c.09.54.59.82,1.5.82C2608.66,124.58,2609,123.94,2609,122.67Zm4.08-96.29a1.48,1.48,0,0,0-.95-1.49,5.2,5.2,0,0,0-2-.41.72.72,0,0,0-.81.82c0,1.63.63,2.54,1.9,2.72C2612.47,28,2613.1,27.47,2613.1,26.38Zm1.09,182c1.09,0,1.63-.36,1.63-1.09a2.34,2.34,0,0,0-1.63-.81.48.48,0,0,0-.54.54A1.84,1.84,0,0,0,2614.19,208.35Zm27.2,6.26c1.27,0,1.91-.36,1.91-1.09a2.71,2.71,0,0,0-3-2.72c-1.08,0-1.63.73-1.63,2.18,0,.72.27,1.13.82,1.22S2640.67,214.43,2641.39,214.61Zm11.43-159.12c.9,0,1.36-.27,1.36-.82a6,6,0,0,0-1-3,2.71,2.71,0,0,0-2.31-1.63c-.54,0-.81.36-.81,1.09A6.35,6.35,0,0,0,2652.82,55.49Zm-.28,156.67a1.75,1.75,0,0,0-1.08,1.63l.81.82,1.09-1.63Zm3.27-183.6a1.06,1.06,0,0,0,.81-1.09,16.65,16.65,0,0,0-.27-2.17,2.06,2.06,0,0,0-1.63-1.91c-.73,0-1.09.46-1.09,1.36a6.72,6.72,0,0,0,.41,2A2.83,2.83,0,0,0,2655.81,28.56Zm29.65,16.86-.55-.27c-.18,0-.45.18-.81.55l.54.54Z"/><path class="cls-8" d="M2753.73,126.89q0-10.2-.14-19.72t-.13-19.72v-23a4.67,4.67,0,0,0-3.68-4.89,32.67,32.67,0,0,0-9.11-1.09q-3.54,0-6.66.27c-2.09.19-4.31.27-6.67.27a30.25,30.25,0,0,1-9.24-1.22,4.9,4.9,0,0,1-3.81-5q0-3-.14-8.57c-.09-3.71-.13-7.62-.13-11.7s-.05-7.93-.14-11.56-.14-6.43-.14-8.43q0-4.62,1.36-6.12t6.26-1.49q12,0,22.85.4t22.57.41q9.53,0,18.91-.41t18.9-.4q9,0,17.14.13t17.13.14c1.81,0,3,.32,3.54,1a4.83,4.83,0,0,1,.82,3.13c0,2.36,0,5.57.13,9.65s.14,8.35.14,12.79V54.13c0,2-.46,3.26-1.36,3.81a6.29,6.29,0,0,1-3.27.81q-7.34,0-14.41-.27t-15-.27q-3.81,0-5,1.09t-1.23,4.08q0,9.24.14,15.91t.27,12.92q.14,6.26.27,13.05t.14,16q0,12-.27,23.94t-.28,24.21q0,8.7.14,17.54t.14,17.54q0,5.44-.14,10.75c-.09,3.53-.14,7.12-.14,10.74q0,12.53.82,25a11.15,11.15,0,0,1-1.09,5.44c-.73,1.27-2.08,1.9-4.08,1.9a49.71,49.71,0,0,1-6.39-.41,49.82,49.82,0,0,0-6.39-.41q-7.08,0-14.15.28t-14.14.27c-2.18,0-3.63-.55-4.35-1.63s-1.09-4.17-1.09-9.25v-11.7q0-8.43.14-19.17t.27-22.58q.13-11.84.27-21.49t.41-22.44Zm4.89,61.61c.73,0,1.09-.18,1.09-.55,0-.72-.45-1.09-1.36-1.09-.36,0-.54.28-.54.82Zm6.26-6a1.44,1.44,0,0,0-1.63-1.63,1,1,0,0,0-1.09,1.09,1.44,1.44,0,0,0,1.63,1.63A1,1,0,0,0,2764.88,182.51Zm-.54-19.58a7.75,7.75,0,0,1,2.31-1.5,2.57,2.57,0,0,0,1.49-2.58,3.11,3.11,0,0,0-.27-.95c-.18-.45-.72-.68-1.63-.68a4.37,4.37,0,0,0-2.72,1.9,8.52,8.52,0,0,0-1.09,3C2762.43,162.66,2763.07,162.93,2764.34,162.93Zm.54-67.46c-.54-.54-.73-.81-.54-.81-.91,0-1.36.36-1.36,1.08,0,.37.36.55,1.08.55ZM2766,235.28c-.18,0-.27,0-.27-.14s-.1-.13-.28-.13l-.54.54a.48.48,0,0,0,.54.55C2765.24,236.1,2765.42,235.82,2766,235.28Zm1.9-129.74c-.36-.36-.64-.55-.81-.55-.91,0-1.36.37-1.36,1.09a.72.72,0,0,0,.81.82A1.2,1.2,0,0,0,2767.87,105.54Zm-.27-37.81a1.44,1.44,0,0,0,1.63-1.63,8.81,8.81,0,0,1-.54-1.5c-.19-.63-.73-.95-1.63-.95-.73,0-1.09.64-1.09,1.9A2.45,2.45,0,0,0,2767.6,67.73Zm3.26,176.53c-1.08,0-1.63.27-1.63.81,0,.37.36.82,1.09,1.36a3.25,3.25,0,0,0,1.63.82.89.89,0,0,0,.82-.54,1.61,1.61,0,0,0-.68-1.5A6.4,6.4,0,0,1,2770.86,244.26Zm5.72-72.9c-.19-1.45-1.19-2.18-3-2.18a2,2,0,0,0-1.9,1,4.49,4.49,0,0,0-.54,2.31c0,1.27.54,1.9,1.63,1.9a3.14,3.14,0,0,0,2.31-.95A8,8,0,0,0,2776.58,171.36Zm-.55,34.27c0-.72-.09-1.09-.27-1.09-.91,0-1.36.28-1.36.82,0,.37.27.54.82.54a.55.55,0,0,0,.4-.13A.56.56,0,0,1,2776,205.63Zm6.53-59.84q-2.17,1.36-4.76,2.72c-1.73.91-2.58,1.91-2.58,3a6.1,6.1,0,0,0,1.49,3.81,4.52,4.52,0,0,0,3.67,1.91c1.45,0,2.18-.36,2.18-1.09a5.2,5.2,0,0,0-.41-2,4.56,4.56,0,0,1-.41-1.77,4.62,4.62,0,0,1,1.23-2.86,4.34,4.34,0,0,0,1.22-2.31C2784.19,146.25,2783.65,145.79,2782.56,145.79ZM2782,87.58a4,4,0,0,0,2.17-1.08,24.05,24.05,0,0,0,2.72-2.59,26.81,26.81,0,0,0,2.31-2.85,4.27,4.27,0,0,0,1-2.18,2.39,2.39,0,0,0-1.91-1.09,4.62,4.62,0,0,0-2.31,1.09c-1,.73-2,1.54-3.13,2.45a36.61,36.61,0,0,0-3.81,3.81,1.93,1.93,0,0,0,1.09,1.9A4.26,4.26,0,0,0,2782,87.58Zm-2.18,2.72-.82,1.09a.74.74,0,0,0,.55.27h.27c.18,0,.54-.27,1.09-.81Zm.54,51.14a.24.24,0,0,1-.27-.27v-.27a2.44,2.44,0,0,0-1.09.27l.28.27v.27a.55.55,0,0,0,.4-.13A1.08,1.08,0,0,1,2780.38,141.44Zm8.16,61.2c1.27,0,1.91-.72,1.91-2.18a2.2,2.2,0,0,0-1.5-2,7,7,0,0,0-2.85-.68c-.91,0-1.36.73-1.36,2.18a1.68,1.68,0,0,0,1.22,1.77C2786.78,202,2787.63,202.28,2788.54,202.64Zm-1.9-34.54-.54-.28v.55Zm3.54,7.61c0-1.09-.64-1.63-1.91-1.63-1.09.37-1.63.91-1.63,1.63,0,.55.54,1,1.63,1.36A1.68,1.68,0,0,0,2790.18,175.71Zm21.48-152.32c.37-.36.55-.63.55-.81C2811.84,22.94,2811.66,23.21,2811.66,23.39Z"/><path class="cls-8" d="M2920.74,194.21a38.29,38.29,0,0,0-5-19,109.52,109.52,0,0,0-12.64-17.82q-7.62-8.83-16.6-18.22a167.29,167.29,0,0,1-16.59-20.4,112.62,112.62,0,0,1-12.65-24.35,85.06,85.06,0,0,1-5-30.19,82.43,82.43,0,0,1,3.67-24.75A56.19,56.19,0,0,1,2867.15,19,52.94,52.94,0,0,1,2886.6,5.3q11.83-5,28.15-5t28.15,5A52.94,52.94,0,0,1,2962.35,19a56.19,56.19,0,0,1,11.29,20.4,82.12,82.12,0,0,1,3.67,24.75V90.85h-51.68V69.09q0-6.26-2-9.93a7,7,0,0,0-6.66-3.67,7.65,7.65,0,0,0-6.94,3.67q-2.31,3.68-2.31,9.93a37.54,37.54,0,0,0,5.17,19,111.21,111.21,0,0,0,12.92,17.81q7.76,8.85,16.73,18.09a166.6,166.6,0,0,1,16.72,20.27,114,114,0,0,1,12.92,24.2,81.07,81.07,0,0,1,5.17,29.79,78.86,78.86,0,0,1-3.94,25.29,59.67,59.67,0,0,1-11.7,20.54A53.19,53.19,0,0,1,2942.09,258q-11.84,5-27.34,5-16.32,0-28.15-5.16a50.15,50.15,0,0,1-19.45-14.69,62.89,62.89,0,0,1-11.29-22.71,110.43,110.43,0,0,1-3.67-29.52V172.45h50.59v21.76q0,6.25,2,9.93a7.05,7.05,0,0,0,6.67,3.67,7.66,7.66,0,0,0,6.93-3.67Q2920.73,200.47,2920.74,194.21Z"/><path class="cls-8" d="M3008.86,68.27a86.59,86.59,0,0,1,23.4,3.27,97.3,97.3,0,0,1,22.16,9.24,95.83,95.83,0,0,1,19,14.28,75.6,75.6,0,0,1,14,18.36,87.86,87.86,0,0,1-23-3.12,94.42,94.42,0,0,1-21.9-9,93.39,93.39,0,0,1-19-14.28A85.94,85.94,0,0,1,3008.86,68.27Zm0,126.75a80.89,80.89,0,0,1,14.69-18.9,100.47,100.47,0,0,1,19-14.28,90.62,90.62,0,0,1,21.9-9.11,87.88,87.88,0,0,1,23-3.13,77.66,77.66,0,0,1-14,18.5,92,92,0,0,1-19,14.41,97.33,97.33,0,0,1-22.16,9.25A86.57,86.57,0,0,1,3008.86,195Zm94.66-63.37a15.33,15.33,0,1,1,4.49,10.74A14.7,14.7,0,0,1,3103.52,131.65ZM3118.75,4.9a82.86,82.86,0,0,1,8.84,22,100.26,100.26,0,0,1,2.86,23.93,97,97,0,0,1-2.86,23.67,71.62,71.62,0,0,1-8.84,20.94,74.4,74.4,0,0,1-9-20.94,92.85,92.85,0,0,1-3-23.67,96,96,0,0,1,3-23.93A86.31,86.31,0,0,1,3118.75,4.9Zm0,253.5a82,82,0,0,1-9-21.76,95.92,95.92,0,0,1-3-23.93,94.4,94.4,0,0,1,3-23.81,78.24,78.24,0,0,1,9-21.35,75.27,75.27,0,0,1,8.84,21.35,98.61,98.61,0,0,1,2.86,23.81,100.2,100.2,0,0,1-2.86,23.93A78.8,78.8,0,0,1,3118.75,258.4ZM3228.37,68.27A85.94,85.94,0,0,1,3213.68,87a92.1,92.1,0,0,1-19.18,14.28,97.87,97.87,0,0,1-21.89,9,86.4,86.4,0,0,1-22.85,3.12,75.6,75.6,0,0,1,14-18.36,97.57,97.57,0,0,1,18.9-14.28,94.68,94.68,0,0,1,22-9.24A87.55,87.55,0,0,1,3228.37,68.27Zm0,126.75a86.45,86.45,0,0,1-23.39-3.26,97.22,97.22,0,0,1-22.17-9.25,92,92,0,0,1-19-14.41,77.66,77.66,0,0,1-14-18.5,86.42,86.42,0,0,1,22.85,3.13,93.81,93.81,0,0,1,21.89,9.11,98.92,98.92,0,0,1,19.18,14.28A80.89,80.89,0,0,1,3228.37,195Z"/></g></g></svg>