<svg xmlns="http://www.w3.org/2000/svg" viewBox="0 0 2977.04 262.75"><defs><style>.cls-1{fill:#e29d88;}.cls-2{fill:#db713f;}.cls-3{fill:#b03e32;}.cls-4{fill:#acceed;}.cls-5{fill:#290a3b;}</style></defs><title>Asset 3</title><g id="Layer_2" data-name="Layer 2"><g id="Layer_1-2" data-name="Layer 1"><path class="cls-1" d="M25.57,172.72q3.25,0,6.53.14c2.17.09,4.35.13,6.52.13,1.09,0,2.18,0,3.27-.13s2.17-.14,3.26-.14c1.81,0,3,.41,3.54,1.22a6.13,6.13,0,0,1,.81,3.4q0,3-.13,6.12c-.1,2.09-.14,4.13-.14,6.12A44.13,44.13,0,0,0,51,202.64q1.77,5.72,8.3,5.71A7.63,7.63,0,0,0,66.5,204q2.31-4.35,2.32-11.42a34.45,34.45,0,0,0-3.13-14.28,80.86,80.86,0,0,0-7.75-13.47,135.09,135.09,0,0,0-10.2-12.65q-5.58-6.12-10.48-11.83-7.34-8.43-13.87-16.73a138.84,138.84,0,0,1-11.69-17.4A88.94,88.94,0,0,1,3.54,86.63a85.38,85.38,0,0,1-3-23.53,77.69,77.69,0,0,1,3.13-22A63.57,63.57,0,0,1,12.92,21.9,49.62,49.62,0,0,1,48.69,1.09,39.88,39.88,0,0,1,55.22.54h6.52q16.59,0,28.43,5.17a52.23,52.23,0,0,1,19.31,14A57.19,57.19,0,0,1,120.5,40,80.78,80.78,0,0,1,124,63.92q0,5.17-.13,9.93c-.1,3.17-.14,6.3-.14,9.38q0,5.72-4.9,5.71-10.33,0-20.8.14t-20.81.14c-1.46,0-2.41-.86-2.86-2.59a26.31,26.31,0,0,1-.68-6.53V71.54A50.82,50.82,0,0,0,73,63a15.31,15.31,0,0,0-2.58-6.53q-1.9-2.58-6-2.58A8.68,8.68,0,0,0,57,58.07q-2.85,4.23-2.85,11.29a33.73,33.73,0,0,0,3.13,14,71.23,71.23,0,0,0,8,13.46,136.27,136.27,0,0,0,10.61,12.51q5.72,6,10.88,11.43a184.29,184.29,0,0,1,26.79,36.17A81.89,81.89,0,0,1,124,197.47q0,16.32-4.76,28.43A53.41,53.41,0,0,1,86,258.13a77.16,77.16,0,0,1-25.57,4.08,66.14,66.14,0,0,1-19.44-2.86,58.15,58.15,0,0,1-17.82-9.11,43.89,43.89,0,0,1-12.78-14.42A72.41,72.41,0,0,1,3.4,217.87,108.64,108.64,0,0,1,.54,198Q0,187.69,0,177.89c0-3.44,1.54-5.17,4.62-5.17,1.27,0,2.54.05,3.81.14s2.54.13,3.81.13c2.18,0,4.39,0,6.66-.13S23.39,172.72,25.57,172.72Zm3-59.3-.27-.27-.55.27h-.27c0,.19.09.28.27.28a.8.8,0,0,1,.55.27A.78.78,0,0,0,28.56,113.42Zm9-12.24a23,23,0,0,0-.68-3.26,3.22,3.22,0,0,0-3.4-2.72A2.88,2.88,0,0,0,31,96.29a3.31,3.31,0,0,0-.82,1.9,4.32,4.32,0,0,0,.55,1.91,4.83,4.83,0,0,1,.54,2.17,3.66,3.66,0,0,1-1.63,3.27A3.18,3.18,0,0,0,28,108.26a2.59,2.59,0,0,0,.54,1.36,1.83,1.83,0,0,0,1.63.81,4.72,4.72,0,0,0,4.63-3Q36.17,104.46,37.54,101.18Zm6,14.69a6,6,0,0,1-1.9.27,2.64,2.64,0,0,1-2.32-1,5.91,5.91,0,0,1-.95-2.17,17.46,17.46,0,0,0-.68-2.32c-.27-.72-.68-1.08-1.22-1.08a8.66,8.66,0,0,0-3.54,3.26,8.54,8.54,0,0,0-1.36,4.62c0,1.46.36,2.18,1.09,2.18.54,0,1.4,0,2.58-.14a20.45,20.45,0,0,0,3.4-.54,14.18,14.18,0,0,0,3-1.09A3.82,3.82,0,0,0,43.52,115.87Zm-10.06,102c1.45,0,2.17-.63,2.17-1.9,0-.91-.64-1.36-1.9-1.36-1.09,0-1.63.72-1.63,2.17C32.1,217.51,32.55,217.87,33.46,217.87ZM38.9,88.94c0-1.44-.82-2.17-2.45-2.17-1.09,0-1.82.73-2.18,2.17a2.16,2.16,0,0,0,2.45,2.45,4.66,4.66,0,0,0,1.63-.68A2.16,2.16,0,0,0,38.9,88.94Zm0,160.48-.28.28.55.54q.27,0,.27-.54C39.44,249.52,39.26,249.42,38.9,249.42Zm6.8-127.84a1.86,1.86,0,0,1-2,1.5c-1-.09-1.5.14-1.5.68a20.57,20.57,0,0,0,.14,2.18c.09.9.22,1.9.4,3a10.28,10.28,0,0,0,1,3,2.81,2.81,0,0,0,2,1.63,4.43,4.43,0,0,0,1.08-.13c.37-.09.55-.23.55-.41A3.16,3.16,0,0,1,49,130.42a29.61,29.61,0,0,1,2.86-1.22c1-.36,1.9-.72,2.72-1.09a1.92,1.92,0,0,0,1.22-1.9q0-.54-3.81-2T45.7,121.58Zm4.35,18.77A8,8,0,0,1,49,139a1.85,1.85,0,0,0-1.63-.81c-.55,0-1,.45-1.36,1.36,0,1.08.72,1.81,2.17,2.17C49.23,141.71,49.87,141.26,50.05,140.35Zm0-43.25a1.64,1.64,0,0,0,0,3.27c.9,0,1.36-.36,1.36-1.09C51.41,98,51,97.29,50.05,97.1Zm5.71,13.6a25.67,25.67,0,0,0-4.22.55q-2.85.54-2.85,3.81c0,.18.45.27,1.36.27a4.5,4.5,0,0,1,4.21,2A15.08,15.08,0,0,0,57.39,121a1.93,1.93,0,0,0,1.91-1.36,6.31,6.31,0,0,0,.54-2.18,21.46,21.46,0,0,0-.54-4.62c-.37-1.63-1-2.45-1.91-2.45A4,4,0,0,0,55.76,110.7Zm2.45-96.28a1.5,1.5,0,0,0-1.09-1.5,5.33,5.33,0,0,0-1.63-.41c-.55,0-.82.37-.82,1.09a1.07,1.07,0,0,0,.82,1.09,4.44,4.44,0,0,0,1.36.27A4.86,4.86,0,0,0,58.21,14.42ZM62,23.66a.55.55,0,0,1-.41-.13,1.1,1.1,0,0,0-.68-.14.72.72,0,0,0,.81.82A.8.8,0,0,0,62,23.66Zm.81,93.84-.27.55.82.81.27-.54Zm7.35,19.59c0-1.27-.37-1.91-1.09-1.91a10.07,10.07,0,0,0-2.45.82c-1.45.73-2.18,1.54-2.18,2.45a1.69,1.69,0,0,0,1.23,1.77,7.29,7.29,0,0,0,2.31.4c1.45,0,2.08-.4,1.9-1.22A3.34,3.34,0,0,1,70.18,137.09ZM77.52,13.6A1.44,1.44,0,0,0,75.89,12C74.62,12,74,12.51,74,13.6c0,1.27.55,1.9,1.64,1.9C76.52,15.5,77.15,14.87,77.52,13.6Zm0,128.38-.82-.81c-.36,0-.59.09-.68.27a1.37,1.37,0,0,1-.68.54c.37.73.82,1.09,1.36,1.09S77.52,142.71,77.52,142ZM80,148.51c0-1.45-.46-2.17-1.36-2.17-.37,0-.64.27-.82.81a4.55,4.55,0,0,0-.27,1.36,1,1,0,0,0,1.09,1.09.91.91,0,0,0,.81-.41A4.5,4.5,0,0,1,80,148.51Zm.81,83a.58.58,0,0,1,.14-.41.54.54,0,0,0,.14-.4c0-.55-.37-.82-1.09-.82a1.16,1.16,0,0,0-1,.54,1.79,1.79,0,0,0-.41,1.09c0,.37.36.55,1.09.55A1.53,1.53,0,0,0,80.78,231.47ZM82.14,142q0-.54-.81-.54c.36.37.5.54.41.54Zm9,35.64c0-.91-.18-1.36-.54-1.36-1.27,0-2.91.72-4.9,2.17s-3,2.54-3,3.27c0,.91.54,1.36,1.63,1.36a4.33,4.33,0,0,0,3.94-1.91A21.35,21.35,0,0,1,91.12,177.62ZM88.4,170l-.82-.82-.27.55.82.81c0-.17,0-.27.13-.27S88.4,170.18,88.4,170Zm9.79-15.5a3.47,3.47,0,0,0-1.9-1.64l-2.72-1.08a20.09,20.09,0,0,0-3.81-.82.24.24,0,0,0-.27.27c0-.18,0,.05.13.68a9.74,9.74,0,0,0,.55,2,12.73,12.73,0,0,0,1,2,1.75,1.75,0,0,0,1.63.95,10,10,0,0,0,2.86-.54A4.31,4.31,0,0,0,98.19,154.5Zm-6.8-78.88a.8.8,0,0,1-.27-.55L90,75.62a.78.78,0,0,1,.27.54Zm0,156.67a.93.93,0,0,1,.68-.27c.27,0,.41-.09.41-.28a1,1,0,0,0-1.09-1.08c-.36,0-.64.27-.81.81ZM97.92,25.84c0-.91-.37-1.36-1.09-1.36a5.34,5.34,0,0,0-2,.54,1.77,1.77,0,0,0-1.22,1.64,1,1,0,0,0,1.09,1.08c.72-.17,1.36-.36,1.9-.54A2.49,2.49,0,0,0,97.92,25.84ZM96.83,70.45a1.2,1.2,0,0,0-1.36-1.36c-.91,0-1.36.18-1.36.54,0,.91.55,1.54,1.63,1.91A1,1,0,0,0,96.83,70.45Zm12.24,140.08c-.18-1.27-1.09-2.08-2.72-2.45-1.27,0-1.9.45-1.9,1.36,0,2.18,1,3.26,3,3.26C108.53,212.7,109.07,212,109.07,210.53Zm1.63,17.95c0-1.45-.81-2.18-2.44-2.18-.91,0-1.36.37-1.36,1.09a2.57,2.57,0,0,0,2.17,2.72A1.44,1.44,0,0,0,110.7,228.48Zm1.09-160.75a2.45,2.45,0,0,0-2.17-1.36c-.91,0-1.36.36-1.36,1.09a1.74,1.74,0,0,0,1.9,1.63C111.25,69.09,111.79,68.64,111.79,67.73Z"/><path class="cls-2" d="M204.27,193.94a38.38,38.38,0,0,0-5-19,109.17,109.17,0,0,0-12.65-17.82Q179,148.25,170,138.86a166.36,166.36,0,0,1-16.59-20.4,112.18,112.18,0,0,1-12.65-24.35q-5-13.32-5-30.19a82.12,82.12,0,0,1,3.67-24.75,56,56,0,0,1,11.29-20.4A52.86,52.86,0,0,1,170.14,5Q182,0,198.29,0t28.15,5a52.94,52.94,0,0,1,19.45,13.74,56.17,56.17,0,0,1,11.29,20.4,82.43,82.43,0,0,1,3.67,24.75V90.58H209.17V68.82q0-6.25-2-9.93a7,7,0,0,0-6.67-3.67,7.64,7.64,0,0,0-6.93,3.67q-2.31,3.68-2.31,9.93a37.63,37.63,0,0,0,5.16,19,112.46,112.46,0,0,0,12.92,17.81q7.75,8.85,16.73,18.09A167.32,167.32,0,0,1,242.76,144a114.73,114.73,0,0,1,12.92,24.21A81.28,81.28,0,0,1,260.85,198a78.63,78.63,0,0,1-4,25.29,59.64,59.64,0,0,1-11.69,20.54,53.35,53.35,0,0,1-19.59,13.87q-11.82,5-27.33,5-16.32,0-28.15-5.17a50,50,0,0,1-19.45-14.68,62.86,62.86,0,0,1-11.29-22.72,109.9,109.9,0,0,1-3.67-29.51V172.18h50.59v21.76q0,6.26,2,9.92a7,7,0,0,0,6.66,3.68,7.65,7.65,0,0,0,6.94-3.68Q204.27,200.2,204.27,193.94Z"/><path class="cls-1" d="M405,0a142,142,0,0,1,48.55,8.3,139.41,139.41,0,0,1,40.53,22.44,110.25,110.25,0,0,1,27.88,33A82.43,82.43,0,0,1,532.3,103.9,50.28,50.28,0,0,1,529,122a46.79,46.79,0,0,1-9.25,15.1,43.69,43.69,0,0,1-14.41,10.33,46.44,46.44,0,0,1-36.18.28A46.49,46.49,0,0,1,445,123.49a45.71,45.71,0,0,1,0-35.23A46,46,0,0,1,469.2,63.92a45.81,45.81,0,0,1,33.59-.68,45,45,0,0,1,13.47,8A114.42,114.42,0,0,0,498,45.56,113.23,113.23,0,0,0,473.14,25.7,120.83,120.83,0,0,0,442,12.92a145.73,145.73,0,0,0-37-4.49q-28.83,0-52.09,9.79a116.6,116.6,0,0,0-64.74,65.83,127.32,127.32,0,0,0-8.84,47.33,125.58,125.58,0,0,0,9,47.32,117.87,117.87,0,0,0,65.14,65.83q23.27,9.79,52.09,9.79a132.77,132.77,0,0,0,45.7-7.62,112,112,0,0,0,36.45-21.35,106.1,106.1,0,0,0,24.88-32.64,117.71,117.71,0,0,0,11.56-41.48h8.16a128.21,128.21,0,0,1-12,44.07,113.92,113.92,0,0,1-26.25,35.36,121.77,121.77,0,0,1-38.9,23.52q-22.44,8.58-49.64,8.57-30.19,0-54.94-10.33a129,129,0,0,1-42.43-28.16,126.61,126.61,0,0,1-27.48-41.75,133.84,133.84,0,0,1-9.79-51.13,135.38,135.38,0,0,1,9.66-51.14A124.88,124.88,0,0,1,307.9,38.49a129.41,129.41,0,0,1,42.3-28.15Q374.82,0,405,0Z"/><path class="cls-2" d="M742,5.17q13.05,0,26.11-.14t26.11-.13c2.54,0,4.22.4,5,1.22s1.23,2.49,1.23,5c0,3.45,0,6.8-.14,10.07s-.14,6.62-.14,10.06q0,4.89.14,9.93c.09,3.36.14,6.66.14,9.93a9.58,9.58,0,0,1-.82,4.62,4.37,4.37,0,0,1-2.72,1.9,26,26,0,0,1-4.62.82,45,45,0,0,0-6.8,1.36Q776,62.57,772.75,69t-3.26,18.91q0,12.51,6.12,18.22t16.45,6.53c2.18.18,3.81.36,4.9.54a3.94,3.94,0,0,1,2.45,1.23,4.64,4.64,0,0,1,1,2.72c.09,1.18.14,2.85.14,5q0,3.81-.14,7.48t-.14,7.48c0,1.27,0,2.49.14,3.67s.14,2.41.14,3.67c0,2-.37,3.4-1.09,4.22a5.35,5.35,0,0,1-2.86,1.63,25,25,0,0,1-4.35.54,26.89,26.89,0,0,0-5.58,1Q776.29,154,773,160.34t-3.26,18.36a48.68,48.68,0,0,0,1,9.66,20,20,0,0,0,3.81,8.43,20.61,20.61,0,0,0,7.89,6q5,2.31,13.19,2.31c3.26,0,4.9,1.54,4.9,4.62v43.52q0,3.81-1.91,4.35a15.58,15.58,0,0,1-4.35.55H690.88c-2,0-3.54-.05-4.62-.14a3.8,3.8,0,0,1-2.45-.95,3.93,3.93,0,0,1-.95-2.58c-.1-1.18-.14-2.77-.14-4.76V211.07a8.18,8.18,0,0,1,1.09-4.76q1.08-1.49,4.62-1.49a30.93,30.93,0,0,0,15.23-4.08,16.63,16.63,0,0,0,8.71-12.52q.54-3,.81-6c.18-2,.28-4,.28-6q0-9.25-3.27-14.69a20.22,20.22,0,0,0-8.57-8,36.11,36.11,0,0,0-12.37-3.26q-7.08-.67-14.69-.68a139.16,139.16,0,0,0-17.27,1,31,31,0,0,0-12.51,4.08,19,19,0,0,0-7.48,8.71c-1.64,3.71-2.45,8.66-2.45,14.82q0,13.6,5.3,19.58t19.18,7.08A11.41,11.41,0,0,1,664,206c1.09.64,1.63,1.86,1.63,3.67,0,2.18-.09,4.35-.27,6.53s-.27,4.26-.27,6.26q0,7.06.41,14.28t.41,14.28q0,7.06-7.08,7.07-13,0-26-.14t-26-.13q-13.05,0-26,.13t-26,.14c-2.72,0-4.58-.55-5.58-1.63s-1.49-2.9-1.49-5.44c0-3.27,0-6.57.13-9.93s.14-6.67.14-9.93c0-3.44-.05-6.8-.14-10.06s-.13-6.62-.13-10.07a7.54,7.54,0,0,1,1.22-4.76c.82-1,2.31-1.49,4.49-1.49a22.8,22.8,0,0,0,6-.82l6-1.63q8.7-2.18,10.88-8.71a49.22,49.22,0,0,0,2.17-15.5q0-12-3.4-18.09t-13.73-8.57a69.24,69.24,0,0,1-9.11-2.72A5.4,5.4,0,0,1,549,144.7a34.67,34.67,0,0,1-.41-8.7,122.81,122.81,0,0,0-.81-16.59c0-2.18.31-3.72,1-4.63a4.47,4.47,0,0,1,2.86-1.76,40,40,0,0,1,4.89-.68,37.74,37.74,0,0,0,6.8-1.36,21.52,21.52,0,0,0,8.16-3.81,15.11,15.11,0,0,0,4.49-6.12,29.33,29.33,0,0,0,1.9-8.57c.28-3.26.41-7,.41-11.15Q578.27,62,558.69,59a53.09,53.09,0,0,1-6.12-1.08,6.2,6.2,0,0,1-3.13-1.77,5.46,5.46,0,0,1-1.22-3.4c-.1-1.45-.14-3.54-.14-6.26V10.61c0-2,.36-3.4,1.09-4.22s2.17-1.22,4.35-1.22H661.23q4.08.27,4.08,4.35c0,3.45,0,6.8.14,10.06s.13,6.63.13,10.07q0,12.24-.81,24.48a2.91,2.91,0,0,1-1.5,2.58,12.24,12.24,0,0,1-3.67,1.5,36,36,0,0,1-4.49.81c-1.54.19-3,.37-4.21.55q-9.79,1.63-13.2,8.43t-3.4,17.14a48.9,48.9,0,0,0,.82,9,26.85,26.85,0,0,0,2.72,7.89,18.07,18.07,0,0,0,4.9,5.85,17,17,0,0,0,7.34,3.13q7.06,1.08,13.6,1.9a110.31,110.31,0,0,0,13.6.82,106.84,106.84,0,0,0,15.1-1,34.15,34.15,0,0,0,11.28-3.4,16.84,16.84,0,0,0,7.08-6.93q2.44-4.48,2.44-11.83a106.09,106.09,0,0,0-.68-12.65,26.6,26.6,0,0,0-2.72-9.39,16.87,16.87,0,0,0-5.84-6.25,27.77,27.77,0,0,0-10.34-3.54,57.86,57.86,0,0,1-6.26-1.09,5.48,5.48,0,0,1-3.12-1.76A6.8,6.8,0,0,1,683,52.5a54.57,54.57,0,0,1-.27-6.26V10.34q0-5.18,4.62-5.17ZM576.37,223.58a1.51,1.51,0,0,1,1.36-1.63,1.51,1.51,0,0,0,1.36-1.63c0-.9-.37-1.36-1.09-1.36-1.09,0-1.77.37-2,1.09a22.7,22.7,0,0,1-1,2.17A1.2,1.2,0,0,0,576.37,223.58Zm4.89,4.9c1.09,0,1.64-.45,1.64-1.36a2.57,2.57,0,0,1-.68-1c-.1-.27-.41-.41-1-.41s-.81.37-.81,1.09a1.84,1.84,0,0,0,.13,1Zm1.36-83,1.09.54A1.56,1.56,0,0,1,584,145l-.27-.28h-.27Zm5.17,72.9c0-.91-.27-1.36-.81-1.36-.37,0-.87.45-1.5,1.36a4.33,4.33,0,0,0-1,1.9.72.72,0,0,0,.81.82C586.61,221,587.43,220.05,587.79,218.42Zm-.27-92.48-.27-.55c-.37,0-.55.1-.55.27a.76.76,0,0,0,.28.55C587,126,587.15,125.94,587.52,125.94Zm7.62,37.8c0-.72-.46-1.08-1.36-1.08s-1.36.36-1.36,1.08a1.36,1.36,0,0,0,2.72,0Zm2.44-29.37a2.8,2.8,0,0,0-2.72-1.63q-1.08.27-1.08,1.08A1.92,1.92,0,0,0,596,136,1.44,1.44,0,0,0,597.58,134.37Zm-1.08,10.88a1.75,1.75,0,0,0,1.63-1.91c-.37-1.08-.91-1.63-1.63-1.63a1.45,1.45,0,0,0-1.64,1.63C594.86,144.61,595.41,145.25,596.5,145.25Zm1.9,60.11c0-.91-.37-1.36-1.09-1.36-.91,0-1.36.37-1.36,1.09s.45,1.09,1.36,1.09C597.67,206.18,598,205.9,598.4,205.36Zm4.35,25a.82.82,0,0,0-.54-.27l-.27.27c0,.37.17.55.54.55ZM609,120.5a9.23,9.23,0,0,1-4,.27c-1.54-.18-2.4.27-2.58,1.36a3.76,3.76,0,0,0,.68,1.9c.45.73.86,1.09,1.22,1.09q3,0,3.81-2.31c.55-1.54,1.27-2.31,2.18-2.31a1.27,1.27,0,0,0,1.36-.82c0-.36-.37-.54-1.09-.54a.87.87,0,0,0-.82.54A1.74,1.74,0,0,1,609,120.5Zm6.8,32.36a4.61,4.61,0,0,1-2.59.41c-1-.09-1.49.5-1.49,1.77a2.91,2.91,0,0,0,1.36,2.72,5.26,5.26,0,0,0,2.72.82,2.9,2.9,0,0,0,2-1.5,5.27,5.27,0,0,0,.68-2.58c0-1.27-.55-1.91-1.63-1.91a1.21,1.21,0,0,0-.55.14A1.19,1.19,0,0,1,615.81,152.86Zm2.72-108a3.86,3.86,0,0,0,3.81-3.54,6.86,6.86,0,0,0-.82-3,3,3,0,0,0-3-1.63c-1.27,0-2,.54-2.18,1.63a20,20,0,0,0-.27,3.27C616.08,43.61,616.9,44.7,618.53,44.88Zm-1.09,65.28a1.14,1.14,0,0,0-.27-.82.49.49,0,0,0-.55.55l.55.54Zm13.33,43.52a7,7,0,0,0-.27-1.77,1.89,1.89,0,0,0-1.64-1.22c-1.27,0-1.9.73-1.9,2.17,0,2,.72,3,2.18,3C630.22,155.86,630.77,155.13,630.77,153.68ZM632.4,46.24l.82.54c0-.17,0-.27.13-.27s.14-.09.14-.27c-.18,0-.46-.18-.82-.54,0,.18,0,.27-.13.27S632.4,46.06,632.4,46.24Zm74.26-6.53c-.37.37-.55.64-.55.82,0,.36.27.54.82.54q.54,0,.54-.81C707.47,40.44,707.2,40.26,706.66,39.71Zm5.44-7.07-.28.54.55.28a.8.8,0,0,0,.27-.55A.76.76,0,0,1,712.1,32.64ZM717,24.48l-.54-.82a.77.77,0,0,1-.55.28q-.27,0-.27.54a.24.24,0,0,1,.27.27c0,.37.09.55.28.55ZM716.45,37l-.55.27.55.28Zm4.62,163.47c-.18,0-.45-.17-.81-.54l-.28.27c0,.18.18.46.55.82ZM723,23.39l.27-.27-.27-.27Zm1.63,133.83c.18,1.27,1.09,2.08,2.72,2.44.72,0,1.09-.27,1.09-.81a4.59,4.59,0,0,0-.55-2.31,2.28,2.28,0,0,0-2.17-1C725,155.58,724.61,156.13,724.61,157.22ZM730.05,29.1c0-.9-.37-1.36-1.09-1.36l-1.36,1.09c.36.73.82,1.09,1.36,1.09C729.68,29.92,730.05,29.65,730.05,29.1Zm1.36,12.79c-.91-.91-1.54-1.36-1.91-1.36s-.54.27-.54.81.45,1,1.36,1.36a.45.45,0,0,0,.41-.27A1.43,1.43,0,0,1,731.41,41.89Zm-.55-7.62a6.11,6.11,0,0,1-1,.82.91.91,0,0,0-.41.81c0,.73.45,1.09,1.36,1.09.73,0,1.18-.18,1.36-.54a2.17,2.17,0,0,0,.28-.82C732.5,35.09,732,34.64,730.86,34.27Zm-.54,72.35c0,.19-.18.46-.54.82a.76.76,0,0,0,.54.27.24.24,0,0,1,.27-.27.82.82,0,0,0,.55-.27Zm3.54,120.77a.8.8,0,0,0,.54-.27l.27-.27a2.47,2.47,0,0,0-.27-1.09l-1.09.54A1.53,1.53,0,0,0,733.86,227.39Zm1.63-112.61a.76.76,0,0,0,.27-.54h-.54a.48.48,0,0,0-.55.54ZM737.66,133c0-.91-.27-1.36-.81-1.36a1.44,1.44,0,0,0-1.63,1.63c0,.37.27.54.81.54a1.08,1.08,0,0,0,.82-.27A3.14,3.14,0,0,1,737.66,133Zm-1.08,72.62-.55-.54c-.36.36-.64.54-.81.54l.27.55A1.57,1.57,0,0,0,736.58,205.63Zm-.82-171.09c-.18,0-.27.19-.27.55l.27.54.54-.27C736.3,34.82,736.12,34.54,735.76,34.54Zm2.45,180.07,1.09-1.09c0-.91-.37-1.36-1.09-1.36a4.89,4.89,0,0,0-1.36,1.36C736.85,214.25,737.3,214.61,738.21,214.61Zm2.17-134.1a1.69,1.69,0,0,1-.54-1.22c0-.45-.37-.68-1.09-.68a.72.72,0,0,0-.81.81c.17.55.36,1.09.54,1.64a1.25,1.25,0,0,0,1.36.81C740.2,81.87,740.38,81.42,740.38,80.51Zm-.27,25c0-.91-.36-1.36-1.09-1.36q-.54,0-.81.81c0,.91.36,1.36,1.09,1.36C739.47,106.35,739.75,106.08,740.11,105.54Zm0,51.13c0-.36-.36-.54-1.09-.54.37.36.5.54.41.54Zm5.17-25.29c0-1.45-.54-2.18-1.63-2.18A2.31,2.31,0,0,0,742,130a2.58,2.58,0,0,0-.82,1.9c0,.91.63,1.36,1.9,1.36C743.83,133.28,744.55,132.65,745.28,131.38ZM742,31.82a1,1,0,0,1-.14,1.09,1.85,1.85,0,0,0-.41,1.09c0,.37.45.54,1.36.54s1.4-.27,1.5-.81a14.1,14.1,0,0,0,.13-2.18,10.27,10.27,0,0,0-.27-2.45A1.29,1.29,0,0,0,742.83,28c-.72,0-1.09.45-1.09,1.36a5.8,5.8,0,0,0,.14,1.36A4.45,4.45,0,0,1,742,31.82Zm9.24,4.9q-4.62,0-4.62,2.18a2.84,2.84,0,0,0,1.22,2.31c.82.63,1.23,1.95,1.23,3.94a.48.48,0,0,1-.55.55,2.83,2.83,0,0,1-1.76-.82,2.88,2.88,0,0,0-1.77-.82,3.3,3.3,0,0,0-.82.55,1.84,1.84,0,0,0-.54,1.36,2.86,2.86,0,0,0,.81,2.31,2.54,2.54,0,0,0,1.64.68c.9,0,2.4-1,4.48-3.13a10.84,10.84,0,0,0,3.13-8,1.2,1.2,0,0,0-1.36-1.36,1.34,1.34,0,0,0-.54.13A1.12,1.12,0,0,1,751.26,36.72Zm-4.89,20.4c0-.91-.37-1.36-1.09-1.36a1.44,1.44,0,0,0-1.63,1.63c.36.73.81,1.09,1.36,1.09A1.2,1.2,0,0,0,746.37,57.12ZM745,152.05c-.55.18-.82.72-.82,1.63a1.29,1.29,0,0,0,1.36,1.09,1.07,1.07,0,0,0,.82-1.09C746.37,152.59,745.91,152.05,745,152.05Zm3.26,80.78a4.57,4.57,0,0,1-2.31.95,1.3,1.3,0,0,0-1.22,1.5c0,2.36,1.26,3.54,3.8,3.54,1.45,0,2.18-.82,2.18-2.45a7.37,7.37,0,0,0-.41-2.31A1.88,1.88,0,0,0,748.27,232.83Zm2.45-98.19c-.37-.54-.73-.82-1.09-.82a4.09,4.09,0,0,0-2.17.68,2.25,2.25,0,0,0-1.09,2c0,.55.36.82,1.09.82C749.09,137.36,750.18,136.45,750.72,134.64Zm-1.36-102a1.59,1.59,0,0,0-1.09-.54q.27,0-.54.81l.54.55C748.45,33.46,748.82,33.18,749.36,32.64Zm.27,126.21-.81-.82-.28.27c0,.19.18.46.55.82A.78.78,0,0,1,749.63,158.85Zm0-16.87.55.28.81-.82-.54-.27Zm2.45-26.11c-.73.37-1.09.64-1.09.82,0,.73.55,1.09,1.63,1.09.55,0,.82-.36.82-1.09C753.44,116.14,753,115.87,752.08,115.87Zm6.26,126.48c0-.72-.28-1.09-.82-1.09a1.61,1.61,0,0,0-.27,1.09Zm-.28-211.61.55-.28-.55-1.08-.54.27Zm2.45,8.16a2,2,0,0,1,.55-.41,1.55,1.55,0,0,0,.54-.68c0-.73-.27-1.09-.82-1.09a1.8,1.8,0,0,0-1.08.41,1.16,1.16,0,0,0-.55.95C759.15,38.62,759.6,38.9,760.51,38.9Zm1.09,195.84c0-.37.09-.55.27-.55a1.1,1.1,0,0,1-.68-.13.56.56,0,0,0-.41-.14l-.27.54A2.3,2.3,0,0,0,761.6,234.74Zm.82-184.15c0-.36-.28-.54-.82-.54,0,.18-.05.27-.14.27s-.13.09-.13.27.27.27.81.27Zm-.28,84.59q0-.54-.27-.54l-.27.27.27.55Z"/><path class="cls-2" d="M816,252.42V16.32q0-6.8.68-9t4.49-2.17a53.86,53.86,0,0,1,5.85.41,65.55,65.55,0,0,0,7.2.4,61.64,61.64,0,0,0,8-.54A61.3,61.3,0,0,1,850,4.9c2.35,0,3.67.95,3.94,2.85A96.55,96.55,0,0,1,854.35,19q0,5.72-.13,11.42c-.1,3.81-.14,7.62-.14,11.43q0,16.32.27,32.77t.27,32.78c0,2.18.55,3.49,1.64,3.94a10.47,10.47,0,0,0,4.08.68H896q3.81,0,4.89-1.63T902,105q0-7.87-.13-15.37t-.14-15.36q0-15.51.14-30.88T902,12.51q0-5.43.82-6.53c.54-.72,2.54-1.08,6-1.08q4.35,0,8.43.13c2.72.1,5.53.14,8.44.14,1.45,0,2.85,0,4.21-.14s2.76-.13,4.22-.13q6.53,0,6.53,6.52,0,6.81-.14,13.47t-.14,13.46q0,15.51.14,30.47T940.58,99q0,7.08-.28,14.28T940,127.57q0,8.7.27,17.27t.28,17.27q0,7.08-.55,13.87t-.54,13.88c0,3.63.18,7.34.54,11.15s.55,7.52.55,11.15v38.08q0,5.72-1.23,6.8c-.81.73-3.13,1.09-6.93,1.09q-6.27,0-12.11.13t-11.83.14q-3.54,0-5.17-1.36t-1.63-5.44q0-23.92.27-47.19t.27-47.19c0-3.27-.36-5.17-1.08-5.72s-3-.81-6.8-.81q-8.45,0-16.6.13t-16.59.14c-3.08,0-5,1-5.71,3a21.57,21.57,0,0,0-1.09,7.35q0,22.3.14,44.74t.13,44.74q0,5.45-1.36,6.53c-.91.73-3.35,1.09-7.34,1.09q-4.89,0-11.42-.14T822,258.13a8.48,8.48,0,0,1-4.48-.95C816.5,256.54,816,255,816,252.42ZM850.54,145l-.27.27H850l.54,1.09.55-.28ZM902,136.27c.36-.36.55-.63.55-.81l-.82-.82c-.73,0-1.09.27-1.09.82C900.59,135.64,901,135.91,902,136.27Zm6.8-12.78c.36.72.72,1.09,1.09,1.09.72,0,1.09-.28,1.09-.82,0-.72-.27-1.09-.82-1.09A2.23,2.23,0,0,0,908.75,123.49Zm6.26,16c0-1.27-.55-1.91-1.63-1.91a1.45,1.45,0,0,0-1.64,1.63,1.69,1.69,0,0,0,1.91,1.91C914.55,141.17,915,140.62,915,139.54Zm-1.36-25c0-.36,0-.5-.14-.41s-.13,0-.13-.4l-.28.54C913.1,114.42,913.28,114.51,913.65,114.51Zm2.72-4.89a8.14,8.14,0,0,0,3.81-3.27,9.21,9.21,0,0,0,1.63-5.17,4.83,4.83,0,0,0-.82-2.44,2.66,2.66,0,0,0-2.45-1.36A1.44,1.44,0,0,0,916.91,99a6.57,6.57,0,0,0,.27,1.77,5.92,5.92,0,0,1,.28,1.49,4.93,4.93,0,0,1-1.36,3.4,4.37,4.37,0,0,0-1.36,2.86C914.74,109.25,915.28,109.62,916.37,109.62Zm8.16,6.39a7.13,7.13,0,0,1-1.5-.41,2.27,2.27,0,0,1-1.09-.95,5.64,5.64,0,0,1-.4-2.59c0-.72-.1-1.08-.28-1.08-.36,0-.81.31-1.36,1s-1.18,1.36-1.9,2.17a10.78,10.78,0,0,0-1.77,2.72,6.25,6.25,0,0,0-.68,2.32,1.84,1.84,0,0,0,.55,1.36,1.56,1.56,0,0,0,1.08.54,7.41,7.41,0,0,0,2-.54c1-.37,2-.77,3-1.23s2.31-1.13,3.94-2A2.78,2.78,0,0,0,924.53,116Zm-5.44,101.32a.78.78,0,0,1,.54-.27.8.8,0,0,1-.27-.55c-.37,0-.54.1-.54.27A.78.78,0,0,0,919.09,217.33Zm3.53-127.57-.54-.82-.82.82.55.27a.58.58,0,0,0,.41-.13A.54.54,0,0,1,922.62,89.76Zm9,39.71c1.81-.36,2.72-1.09,2.72-2.17a3.89,3.89,0,0,0-.82-2,2.49,2.49,0,0,0-2.17-1.23c-.91,0-1.5.23-1.77.68a2.51,2.51,0,0,0-.41,1.23,4.83,4.83,0,0,0,1.09,2,19.85,19.85,0,0,0,1.36,1.76,2.28,2.28,0,0,1-1.09-.27,2.41,2.41,0,0,0-1.09-.27c-.91,0-1.36.54-1.36,1.63a1.6,1.6,0,0,0,.82,1.36,2.87,2.87,0,0,0,1.63.55c.72,0,1.09-.32,1.09-1Zm1.63,10.61-.81-.82-1.09.82c0,.73.27,1.09.81,1.09.37,0,.55-.09.55-.27S932.87,140.45,933.23,140.08Z"/><path class="cls-2" d="M955.54,4.62H1209V79.7H1082.29v23.93h66.91v55.49h-66.91v23.94H1209v75.07H955.54Z"/><path class="cls-3" d="M1223.73,4.62h62q16.32,0,28.16,4.9a58.4,58.4,0,0,1,19.58,12.78A51.68,51.68,0,0,1,1345,40.12a54.73,54.73,0,0,1,3.81,19.72V202.91a54.73,54.73,0,0,1-3.81,19.72,51.59,51.59,0,0,1-11.56,17.82,58.25,58.25,0,0,1-19.58,12.78q-11.84,4.91-28.16,4.9h-62Zm87,60.66q0-10.33-6-16.46t-19-6.12H1262.9V220.05h22.84q13.07,0,19-6.12t6-16.46Z"/><path class="cls-3" d="M1359.73,4.62h62.56q16.05,0,27.88,5a54.07,54.07,0,0,1,19.58,13.73,55.18,55.18,0,0,1,11.43,20.4,82.43,82.43,0,0,1,3.67,24.75V194.21a82.38,82.38,0,0,1-3.67,24.75,55,55,0,0,1-11.43,20.4,54.09,54.09,0,0,1-19.58,13.74q-11.84,5-27.88,5h-62.56Zm52.77,55.22V202.91h9.79c2.9,0,5.07-.86,6.53-2.58a9.19,9.19,0,0,0,2.17-6.12V68.54a9.22,9.22,0,0,0-2.17-6.12c-1.46-1.72-3.63-2.58-6.53-2.58Z"/><path class="cls-2" d="M1744.88,4.62H1753V161q0,23.4-8,42.16a86.76,86.76,0,0,1-23.53,32.1q-15.51,13.33-38.08,20.4t-51.68,7.07q-29.12,0-53.31-6.12t-41.76-19.58a91,91,0,0,1-27.33-34.68q-9.8-21.23-9.79-51.14V4.62h126.75v164q0,16.88,4.49,28.83a48.54,48.54,0,0,0,32,30.74,80.53,80.53,0,0,0,24.48,3.53,57.19,57.19,0,0,0,22.16-4.35,51,51,0,0,0,18.36-13,63.34,63.34,0,0,0,12.52-22q4.62-13.32,4.62-31.28Z"/><path class="cls-1" d="M1892.85,4.62v186a110.3,110.3,0,0,1-3.67,29.51,63,63,0,0,1-11.29,22.72,50,50,0,0,1-19.45,14.68q-11.84,5.18-28.15,5.17t-28.15-5.17a50,50,0,0,1-19.45-14.68,62.86,62.86,0,0,1-11.29-22.72,109.9,109.9,0,0,1-3.67-29.51V4.62H1821V193.94q0,13.59,9.25,13.6t9.25-13.6V4.62Z"/><path class="cls-4" d="M2084.34,175.44q14.68,0,24.88-.54a55.76,55.76,0,0,0,16.87-3.13,22.21,22.21,0,0,0,10.47-8q3.81-5.43,5.58-15.23a170.23,170.23,0,0,0,2.17-24.75q.41-15,.41-36.45H2161V258.13h-253.5V175.44q29.64,0,46-.82t23.94-5a17.14,17.14,0,0,0,9-13.05q1.35-8.83,1.36-25.16,0-10.62-.41-18.09a33.35,33.35,0,0,0-2.72-12.38,16.73,16.73,0,0,0-7.21-7.61q-4.89-2.72-13.87-4.08A179.88,179.88,0,0,0,1941,87.58q-13.6-.26-33.45-.27V4.62h176.8V87.31q-19.86,0-33.46.27a179.88,179.88,0,0,0-22.58,1.64q-9,1.36-13.87,4.08a16.73,16.73,0,0,0-7.21,7.61,33.55,33.55,0,0,0-2.72,12.38q-.4,7.49-.4,18.09,0,10.88.4,18.36a33.44,33.44,0,0,0,2.72,12.37,16.7,16.7,0,0,0,7.21,7.62q4.9,2.72,13.87,3.94a200.67,200.67,0,0,0,22.58,1.5Q2064.48,175.44,2084.34,175.44Z"/><path class="cls-1" d="M2175.73,4.62h125.12v59.3h-40.8v41.62h27.2v51.68h-27.2v41.61h40.8v59.3H2175.73Z"/><path class="cls-1" d="M2311.73,4.62h125.12v59.3h-40.8v41.62h27.2v51.68h-27.2v41.61h40.8v59.3H2311.73Z"/><path class="cls-5" d="M2447.73,4.62h125.12v59.3h-68v41.62h54.4v51.68h-54.4v41.61h68v59.3H2447.73Z"/><path class="cls-5" d="M2583.73,4.62h125.12v59.3h-68v41.62h54.4v51.68h-54.4v41.61h68v59.3H2583.73Z"/><path class="cls-5" d="M2723.54,131.38a123.47,123.47,0,0,1,9.92-49.24,127.09,127.09,0,0,1,67.6-67.59,127,127,0,0,1,98.46,0,127.12,127.12,0,0,1,67.59,67.59,123.48,123.48,0,0,1,9.93,49.24,123.43,123.43,0,0,1-9.93,49.23,127.12,127.12,0,0,1-67.59,67.59,127,127,0,0,1-98.46,0,127.09,127.09,0,0,1-67.6-67.59A123.42,123.42,0,0,1,2723.54,131.38Zm95.2,70.44a30.71,30.71,0,0,0,2.44,12.24,28.94,28.94,0,0,0,6.8,9.8,34.29,34.29,0,0,0,10.07,6.52,31.8,31.8,0,0,0,24.48,0,34.24,34.24,0,0,0,10.06-6.52,28.8,28.8,0,0,0,6.8-9.8,30.72,30.72,0,0,0,2.45-12.24,33,33,0,0,0-2-12.37,39,39,0,0,0-5.17-9.11,92.75,92.75,0,0,0-6.8-7.89,61.39,61.39,0,0,1-6.93-8.71,51.18,51.18,0,0,1-8.44-28.56,63,63,0,0,1,13.2,10.88,54.17,54.17,0,0,1,7.48,10.75,53.42,53.42,0,0,1,4.08,10.33,86.57,86.57,0,0,0,3.26,9.8,39.72,39.72,0,0,0,5.17,9.11,29.61,29.61,0,0,0,9.79,7.89,30.49,30.49,0,0,0,11.83,3.94,31.31,31.31,0,0,0,12-.95,30.82,30.82,0,0,0,10.74-5.44,33.47,33.47,0,0,0,12.24-21.35,30.29,30.29,0,0,0-.68-11.84,32.07,32.07,0,0,0-5.16-10.74,29.78,29.78,0,0,0-9.39-8.3,34.85,34.85,0,0,0-11.56-4.35,36.2,36.2,0,0,0-10.33-.13,102.84,102.84,0,0,0-10.2,1.9,67.89,67.89,0,0,1-11,1.63,50.14,50.14,0,0,1-12.92-.95,57.72,57.72,0,0,1-15.78-6,53.66,53.66,0,0,1,15.78-5.85,59.67,59.67,0,0,1,12.92-1,52.62,52.62,0,0,1,11,1.63,68.3,68.3,0,0,0,10.2,1.9,43.65,43.65,0,0,0,10.33-.13,35.46,35.46,0,0,0,21-12.79,31.88,31.88,0,0,0,5.16-10.74,30.24,30.24,0,0,0,.68-11.83A33.46,33.46,0,0,0,2930,71.26a31,31,0,0,0-10.74-5.44,31.51,31.51,0,0,0-12-.95,30.51,30.51,0,0,0-11.83,3.95,33.6,33.6,0,0,0-9.79,8,37.14,37.14,0,0,0-5.17,9,86.41,86.41,0,0,0-3.26,9.79,53.17,53.17,0,0,1-4.08,10.33,54.17,54.17,0,0,1-7.48,10.75,62.72,62.72,0,0,1-13.2,10.88,54.73,54.73,0,0,1,2.72-16.87A54.17,54.17,0,0,1,2860.9,99a61.39,61.39,0,0,1,6.93-8.71,91.1,91.1,0,0,0,6.8-7.88,39.06,39.06,0,0,0,5.17-9.12,33,33,0,0,0,2-12.37,30.79,30.79,0,0,0-2.45-12.24,28.76,28.76,0,0,0-6.8-9.79,34.27,34.27,0,0,0-10.06-6.53,31.8,31.8,0,0,0-24.48,0A34.32,34.32,0,0,0,2828,38.9a28.9,28.9,0,0,0-6.8,9.79,30.78,30.78,0,0,0-2.44,12.24,33,33,0,0,0,2,12.37,39,39,0,0,0,5.16,9.12,92.87,92.87,0,0,0,6.8,7.88,62.15,62.15,0,0,1,6.94,8.71,50.22,50.22,0,0,1,5.58,11.69,64.22,64.22,0,0,1,2.85,16.87,57.44,57.44,0,0,1-13.33-10.88,56.66,56.66,0,0,1-7.34-10.75,59.81,59.81,0,0,1-4.22-10.33q-1.48-5-3.4-9.79a37.43,37.43,0,0,0-5.16-9,34.75,34.75,0,0,0-9.52-8,30.56,30.56,0,0,0-11.84-3.95,31.44,31.44,0,0,0-12,.95,31,31,0,0,0-10.75,5.44,33.46,33.46,0,0,0-12.24,21.36,30.43,30.43,0,0,0,.68,11.83,31.72,31.72,0,0,0,5.17,10.74A35.4,35.4,0,0,0,2785.14,128a43.74,43.74,0,0,0,10.34.13,64.74,64.74,0,0,0,10.06-1.9,50.89,50.89,0,0,1,11-1.63,58.9,58.9,0,0,1,12.92,1,57.18,57.18,0,0,1,15.91,5.85,61.81,61.81,0,0,1-15.91,6,49.61,49.61,0,0,1-12.92.95,65,65,0,0,1-11-1.63,96.16,96.16,0,0,0-10.06-1.9,36.27,36.27,0,0,0-10.34.13,34.93,34.93,0,0,0-11.56,4.35,29.86,29.86,0,0,0-9.38,8.3A31.9,31.9,0,0,0,2759,158.3a30.48,30.48,0,0,0-.68,11.84,32.53,32.53,0,0,0,4.08,11.83,32.13,32.13,0,0,0,8.16,9.52,30.87,30.87,0,0,0,10.75,5.44,31.24,31.24,0,0,0,12,.95,33.69,33.69,0,0,0,21.36-11.83,40,40,0,0,0,5.16-9.11q1.91-4.75,3.4-9.8a60.13,60.13,0,0,1,4.22-10.33,56.66,56.66,0,0,1,7.34-10.75,57.69,57.69,0,0,1,13.33-10.88,64.14,64.14,0,0,1-2.85,16.87,50.22,50.22,0,0,1-5.58,11.69,62.15,62.15,0,0,1-6.94,8.71,94.58,94.58,0,0,0-6.8,7.89,39,39,0,0,0-5.16,9.11A33,33,0,0,0,2818.74,201.82Z"/></g></g></svg>