<svg xmlns="http://www.w3.org/2000/svg" viewBox="0 0 2977.31 262.75"><defs><style>.cls-1{fill:#88bba5;}.cls-2{fill:#559184;}.cls-3{fill:#487169;}.cls-4{fill:#db713f;}.cls-5{fill:#acceed;}.cls-6{fill:#7396c5;}.cls-7{fill:#290a3b;}</style></defs><title>Asset 1</title><g id="Layer_2" data-name="Layer 2"><g id="Layer_1-2" data-name="Layer 1"><path class="cls-1" d="M62.56,102.82l6.53-98.2h56V258.13h-37V131.38L78.34,258.13H46.78L37,131.38V258.13H0V4.62H56Z"/><path class="cls-1" d="M198.56,163.74,216,4.62h45.15V258.13H229.57V131.38L214.34,258.13H182.78L167.55,131.38V258.13H136V4.62h45.15Z"/><path class="cls-2" d="M402.56,249.42q-31.83,0-56.17,1.36t-41.21,3q-19.57,1.91-34,4.35V214.88q23.67,4.08,44.07.68t35.49-14a72.34,72.34,0,0,0,23.67-28.29Q383,155.59,383,131.38t-8.57-41.89A72.34,72.34,0,0,0,350.74,61.2q-15.09-10.61-35.49-14t-44.07.68V4.62q14.42,2.46,34,4.36,16.88,1.62,41.21,3t56.17,1.36q31.83,0,56.17-1.36t41.21-3q19.57-1.91,34-4.36V47.87q-23.67-4.08-44.07-.68t-35.49,14a72.34,72.34,0,0,0-23.67,28.29q-8.56,17.69-8.57,41.89t8.57,41.88a72.34,72.34,0,0,0,23.67,28.29q15.09,10.6,35.49,14t44.07-.68v43.25q-14.43-2.44-34-4.35-16.87-1.64-41.21-3T402.56,249.42Z"/><path class="cls-3" d="M582.08,177.62v13q0,15.51,5.71,24.75t18.77,9.25q12.24,0,18.36-7.75T631,198a34.09,34.09,0,0,0-6.39-19.45,129.11,129.11,0,0,0-16.19-19q-9.78-9.66-20.94-20a220.53,220.53,0,0,1-20.94-22.31,119.79,119.79,0,0,1-16.19-25.84A71.92,71.92,0,0,1,544,60.93a72.2,72.2,0,0,1,3.67-23A54.27,54.27,0,0,1,559,18.5,54.46,54.46,0,0,1,578.41,5q11.83-5,28.15-5t28.15,5a52.94,52.94,0,0,1,19.45,13.74,56.17,56.17,0,0,1,11.29,20.4,82.12,82.12,0,0,1,3.67,24.75V85.14H631V63.92a29.47,29.47,0,0,0-5.71-18.22q-5.72-7.62-18.77-7.62T587.79,45.7a29.47,29.47,0,0,0-5.71,18.22,34.11,34.11,0,0,0,6.39,19.45,134.49,134.49,0,0,0,16.19,19.17q9.78,9.79,20.94,20.27a233.27,233.27,0,0,1,20.94,22.44,118.72,118.72,0,0,1,16.19,26,72.92,72.92,0,0,1,6.39,30.6,67.91,67.91,0,0,1-3.94,23,56.64,56.64,0,0,1-11.7,19.45,55.84,55.84,0,0,1-19.58,13.46q-11.83,5-27.34,5-16.32,0-28.15-5.17A50,50,0,0,1,559,242.9a62.86,62.86,0,0,1-11.29-22.72A109.9,109.9,0,0,1,544,190.67v-13Z"/><path class="cls-3" d="M705.84,172.72c2.18,0,4.35.05,6.53.14s4.35.13,6.53.13c1.08,0,2.17,0,3.26-.13s2.18-.14,3.26-.14c1.81,0,3,.41,3.54,1.22a6.12,6.12,0,0,1,.82,3.4q0,3-.14,6.12t-.14,6.12a44.13,44.13,0,0,0,1.77,13.06q1.77,5.72,8.3,5.71a7.65,7.65,0,0,0,7.21-4.35c1.53-2.9,2.31-6.71,2.31-11.42A34.45,34.45,0,0,0,746,178.3a80.86,80.86,0,0,0-7.75-13.47A135.09,135.09,0,0,0,728,152.18q-5.58-6.12-10.47-11.83-7.35-8.43-13.88-16.73A138.84,138.84,0,0,1,692,106.22a88.94,88.94,0,0,1-8.16-19.59,85.39,85.39,0,0,1-3-23.53,77.68,77.68,0,0,1,3.12-22,63.8,63.8,0,0,1,9.25-19.17A49.62,49.62,0,0,1,729,1.09a40,40,0,0,1,6.53-.55H742q16.58,0,28.42,5.17a52.23,52.23,0,0,1,19.31,14,57.19,57.19,0,0,1,11,20.26,80.78,80.78,0,0,1,3.53,23.94q0,5.17-.13,9.93c-.1,3.17-.14,6.3-.14,9.38q0,5.72-4.89,5.71-10.35,0-20.81.14t-20.81.14c-1.45,0-2.41-.86-2.86-2.59A26.31,26.31,0,0,1,754,80.1V71.54A50.82,50.82,0,0,0,753.3,63a15.19,15.19,0,0,0-2.58-6.53q-1.9-2.58-6-2.58a8.66,8.66,0,0,0-7.48,4.21q-2.87,4.23-2.86,11.29a33.73,33.73,0,0,0,3.13,14,71.23,71.23,0,0,0,8,13.46,137.86,137.86,0,0,0,10.61,12.51q5.72,6,10.88,11.43a184.29,184.29,0,0,1,26.79,36.17,81.89,81.89,0,0,1,10.47,40.53q0,16.32-4.76,28.43a53.41,53.41,0,0,1-33.32,32.23,77.1,77.1,0,0,1-25.56,4.08,66.21,66.21,0,0,1-19.45-2.86,58.15,58.15,0,0,1-17.82-9.11,43.89,43.89,0,0,1-12.78-14.42,72.41,72.41,0,0,1-6.94-17.95A107.78,107.78,0,0,1,680.82,198q-.55-10.34-.55-20.13c0-3.44,1.54-5.17,4.63-5.17,1.26,0,2.53.05,3.8.14s2.54.13,3.81.13q3.27,0,6.67-.13T705.84,172.72Zm3-59.3-.27-.27-.54.27h-.28a.24.24,0,0,0,.28.28.8.8,0,0,1,.54.27A.78.78,0,0,0,708.83,113.42Zm9-12.24a23,23,0,0,0-.68-3.26,3.22,3.22,0,0,0-3.4-2.72,2.88,2.88,0,0,0-2.45,1.09,3.38,3.38,0,0,0-.82,1.9,4.32,4.32,0,0,0,.55,1.91,4.83,4.83,0,0,1,.54,2.17,3.66,3.66,0,0,1-1.63,3.27,3.18,3.18,0,0,0-1.63,2.72,2.68,2.68,0,0,0,.54,1.36,1.83,1.83,0,0,0,1.63.81,4.72,4.72,0,0,0,4.63-3Q716.44,104.46,717.81,101.18Zm6,14.69a6,6,0,0,1-1.9.27,2.62,2.62,0,0,1-2.31-1,5.77,5.77,0,0,1-1-2.17,16.08,16.08,0,0,0-.68-2.32c-.27-.72-.68-1.08-1.22-1.08a8.72,8.72,0,0,0-3.54,3.26,8.54,8.54,0,0,0-1.36,4.62c0,1.46.37,2.18,1.09,2.18.55,0,1.4,0,2.59-.14a20.79,20.79,0,0,0,3.4-.54,14.3,14.3,0,0,0,3-1.09A3.79,3.79,0,0,0,723.79,115.87Zm-10.06,102c1.45,0,2.17-.63,2.17-1.9,0-.91-.63-1.36-1.9-1.36-1.09,0-1.63.72-1.63,2.17C712.37,217.51,712.82,217.87,713.73,217.87Zm5.44-128.93c0-1.44-.82-2.17-2.45-2.17-1.09,0-1.81.73-2.18,2.17A2.16,2.16,0,0,0,717,91.39a4.66,4.66,0,0,0,1.63-.68C719,90.44,719.17,89.85,719.17,88.94Zm0,160.48-.27.28.54.54q.27,0,.27-.54C719.71,249.52,719.53,249.42,719.17,249.42ZM726,121.58a1.86,1.86,0,0,1-2,1.5c-1-.09-1.5.14-1.5.68a20.57,20.57,0,0,0,.14,2.18c.09.9.22,1.9.41,3a10,10,0,0,0,.95,3,2.81,2.81,0,0,0,2,1.63,4.57,4.57,0,0,0,1.09-.13c.36-.09.54-.23.54-.41a3.16,3.16,0,0,1,1.63-2.59,29.61,29.61,0,0,1,2.86-1.22c1-.36,1.9-.72,2.72-1.09a1.92,1.92,0,0,0,1.22-1.9q0-.54-3.81-2T726,121.58Zm4.35,18.77a8,8,0,0,1-1.09-1.36,1.83,1.83,0,0,0-1.63-.81c-.54,0-1,.45-1.36,1.36,0,1.08.72,1.81,2.18,2.17A1.67,1.67,0,0,0,730.32,140.35Zm0-43.25a1.64,1.64,0,0,0,0,3.27c.91,0,1.36-.36,1.36-1.09C731.68,98,731.23,97.29,730.32,97.1ZM736,110.7a25.45,25.45,0,0,0-4.21.55q-2.87.54-2.86,3.81c0,.18.45.27,1.36.27a4.53,4.53,0,0,1,4.22,2,14.82,14.82,0,0,0,3.12,3.67,1.93,1.93,0,0,0,1.91-1.36,6.31,6.31,0,0,0,.54-2.18,21.46,21.46,0,0,0-.54-4.62c-.37-1.63-1-2.45-1.91-2.45A4,4,0,0,0,736,110.7Zm2.45-96.28a1.5,1.5,0,0,0-1.09-1.5,5.26,5.26,0,0,0-1.63-.41c-.54,0-.82.37-.82,1.09a1.08,1.08,0,0,0,.82,1.09,4.44,4.44,0,0,0,1.36.27A4.86,4.86,0,0,0,738.48,14.42Zm3.81,9.24a.56.56,0,0,1-.41-.13,1.08,1.08,0,0,0-.68-.14.72.72,0,0,0,.82.82A.82.82,0,0,0,742.29,23.66Zm.81,93.84-.27.55.82.81.27-.54Zm7.35,19.59c0-1.27-.37-1.91-1.09-1.91a10.07,10.07,0,0,0-2.45.82c-1.45.73-2.17,1.54-2.17,2.45a1.68,1.68,0,0,0,1.22,1.77,7.39,7.39,0,0,0,2.31.4c1.45,0,2.08-.4,1.91-1.22A3.28,3.28,0,0,1,750.45,137.09ZM757.79,13.6A1.44,1.44,0,0,0,756.16,12c-1.27,0-1.9.54-1.9,1.63,0,1.27.54,1.9,1.63,1.9C756.79,15.5,757.43,14.87,757.79,13.6Zm0,128.38-.81-.81c-.37,0-.59.09-.68.27a1.47,1.47,0,0,1-.68.54c.36.73.81,1.09,1.36,1.09S757.79,142.71,757.79,142Zm2.45,6.53c0-1.45-.45-2.17-1.36-2.17-.37,0-.64.27-.82.81a4.55,4.55,0,0,0-.27,1.36,1,1,0,0,0,1.09,1.09.94.94,0,0,0,.82-.41A3.94,3.94,0,0,1,760.24,148.51Zm.82,83a.58.58,0,0,1,.13-.41.54.54,0,0,0,.14-.4c0-.55-.37-.82-1.09-.82a1.16,1.16,0,0,0-1,.54,1.85,1.85,0,0,0-.41,1.09c0,.37.36.55,1.09.55A1.57,1.57,0,0,0,761.06,231.47ZM762.42,142c0-.36-.28-.54-.82-.54.36.37.5.54.41.54Zm9,35.64c0-.91-.18-1.36-.54-1.36q-1.9,0-4.9,2.17c-2,1.46-3,2.54-3,3.27,0,.91.54,1.36,1.63,1.36a4.36,4.36,0,0,0,3.95-1.91A20.79,20.79,0,0,1,771.39,177.62ZM768.67,170l-.81-.82-.28.55.82.81c0-.17,0-.27.14-.27S768.67,170.18,768.67,170Zm9.79-15.5a3.43,3.43,0,0,0-1.9-1.64l-2.72-1.08A20.09,20.09,0,0,0,770,151a.24.24,0,0,0-.27.27c0-.18,0,.05.14.68a9.68,9.68,0,0,0,.54,2,13.65,13.65,0,0,0,.95,2,1.75,1.75,0,0,0,1.63.95,10,10,0,0,0,2.86-.54A4.31,4.31,0,0,0,778.46,154.5Zm-6.8-78.88a.8.8,0,0,1-.27-.55l-1.09.55a.79.79,0,0,1,.28.54Zm0,156.67a.93.93,0,0,1,.68-.27c.28,0,.41-.09.41-.28a1,1,0,0,0-1.09-1.08q-.54,0-.81.81Zm6.53-206.45c0-.91-.36-1.36-1.09-1.36a5.34,5.34,0,0,0-2,.54,1.77,1.77,0,0,0-1.22,1.64,1,1,0,0,0,1.09,1.08c.72-.17,1.36-.36,1.9-.54A2.43,2.43,0,0,0,778.19,25.84ZM777.1,70.45a1.2,1.2,0,0,0-1.36-1.36c-.91,0-1.36.18-1.36.54,0,.91.55,1.54,1.64,1.91A1,1,0,0,0,777.1,70.45Zm12.24,140.08c-.18-1.27-1.08-2.08-2.72-2.45-1.27,0-1.9.45-1.9,1.36,0,2.18,1,3.26,3,3.26C788.8,212.7,789.34,212,789.34,210.53ZM791,228.48c0-1.45-.82-2.18-2.45-2.18-.91,0-1.36.37-1.36,1.09a2.57,2.57,0,0,0,2.17,2.72A1.45,1.45,0,0,0,791,228.48Zm1.08-160.75a2.45,2.45,0,0,0-2.17-1.36c-.91,0-1.36.36-1.36,1.09a1.74,1.74,0,0,0,1.9,1.63C791.52,69.09,792.06,68.64,792.06,67.73Z"/><path class="cls-1" d="M921.81,84.32h-9.93a14.64,14.64,0,0,1-5.58-.82,4.06,4.06,0,0,1-2.44-2.85,25.1,25.1,0,0,1-.55-6.12c0-1.45,0-3.08.14-4.9s.13-4,.13-6.53q0-11.41-6.66-18.9t-18.09-7.48a27.25,27.25,0,0,0-18.09,6.53Q853,49.78,853,63.1a33.77,33.77,0,0,0,3.67,15.24,75.75,75.75,0,0,0,9.25,14.14,127,127,0,0,0,12.24,12.92q6.66,6.12,12.65,11.56,9.53,8.72,18.5,18.5a167.2,167.2,0,0,1,16,20.4,105.07,105.07,0,0,1,11.29,22A66.31,66.31,0,0,1,940.85,201a64.15,64.15,0,0,1-4.63,24.61,58.4,58.4,0,0,1-32.5,32.51,63.65,63.65,0,0,1-24.34,4.62q-18.78,0-31-6.25a49.6,49.6,0,0,1-19.31-17,69.89,69.89,0,0,1-9.93-25.16,156.13,156.13,0,0,1-2.86-30.47c0-2,.36-3.35,1.09-4.08s2.08-1.09,4.08-1.09h28a2.89,2.89,0,0,1,2.58,1.77,11.81,11.81,0,0,1,1.22,4.35,49.9,49.9,0,0,1,.28,5.17v4.22q0,14.41,7.07,23.25t18.77,8.84a21.91,21.91,0,0,0,17.27-8,28.37,28.37,0,0,0,6.93-19.18,37.42,37.42,0,0,0-6.66-20.94,107.38,107.38,0,0,0-14.82-17.95q-10.89-10.07-22.44-21a218.17,218.17,0,0,1-21.22-23,117.61,117.61,0,0,1-15.78-26,73.92,73.92,0,0,1-6.12-30.19q0-15.49,5.17-26.93a53,53,0,0,1,13.74-18.76A55.93,55.93,0,0,1,855,3.54,74.67,74.67,0,0,1,878,0a71.15,71.15,0,0,1,35.49,9.11q16.18,9.12,23.26,29a68.48,68.48,0,0,1,3.67,19.45q.4,9.93.41,19.72a8.91,8.91,0,0,1-1.36,5q-1.37,2-4.63,2a13.94,13.94,0,0,1-2.72-.27,13.94,13.94,0,0,0-2.72-.27c-.72,0-2.17,0-4.35.13S921.81,84.14,921.81,84.32Zm.27,144.16-.27-.54-.27.27Z"/><path class="cls-1" d="M972.4,4.62h84.32V258.13H972.4Z"/><path class="cls-1" d="M1088,4.62h125.12V35.36h-40.26v192h40.26v30.74H1088V227.39h40.26v-192H1088Z"/><path class="cls-1" d="M1224,4.62h125.12V35.36h-40.26v192h40.26v30.74H1224V227.39h40.26v-192H1224Z"/><path class="cls-4" d="M1359.18,119.14a128.42,128.42,0,0,1,8.3-46.38,110.37,110.37,0,0,1,61.34-63.38q22-9.38,49.5-9.38,27.2,0,49.23,9.38a110.37,110.37,0,0,1,61.34,63.38,128.42,128.42,0,0,1,8.29,46.38,128.71,128.71,0,0,1-8.29,46.24,110.36,110.36,0,0,1-23.8,37.8,113,113,0,0,1-37.54,25.44q-22,9.38-49.23,9.38-27.48,0-49.5-9.38a113,113,0,0,1-37.54-25.44,110.06,110.06,0,0,1-23.8-37.8A128.72,128.72,0,0,1,1359.18,119.14Zm49.24,0a74.37,74.37,0,0,0,4.89,27.06,66.41,66.41,0,0,0,14,22.17,65,65,0,0,0,22,15,79.14,79.14,0,0,0,57.67,0,65.05,65.05,0,0,0,22-15,66.56,66.56,0,0,0,14-22.17,74.37,74.37,0,0,0,4.89-27.06,75.47,75.47,0,0,0-4.89-27.2,66.28,66.28,0,0,0-14-22.31,65.2,65.2,0,0,0-22-15,79.14,79.14,0,0,0-57.67,0,65.1,65.1,0,0,0-22,15,66.12,66.12,0,0,0-14,22.31A75.47,75.47,0,0,0,1408.42,119.14Zm12.24,0a61.61,61.61,0,0,1,4.08-22.31,54,54,0,0,1,11.56-18.36,55.16,55.16,0,0,1,18.22-12.37,63,63,0,0,1,44.88-1,54.06,54.06,0,0,1,16.73,9.93q-3-.54-6.39-.81c-2.27-.18-4.59-.28-6.94-.28a74.09,74.09,0,0,0-29,5.44,63.64,63.64,0,0,0-21.89,15,67.53,67.53,0,0,0-13.88,22.17,74.42,74.42,0,0,0-4.89,27.07,110.59,110.59,0,0,0,.81,13.6,59,59,0,0,1-9.79-17.28A59.93,59.93,0,0,1,1420.66,119.14Zm82.14,143.61a129.75,129.75,0,0,1-35.9-4.76,118.32,118.32,0,0,1-30.47-13.46,148.9,148.9,0,0,0,41.89,5.71q30.2,0,54.4-10.34a121.29,121.29,0,0,0,67.46-69.63,140.71,140.71,0,0,0,9.24-51.13,147.9,147.9,0,0,0-5.71-41.62,127.19,127.19,0,0,1,18.23,66.1A126.5,126.5,0,0,1,1613.5,190a113.82,113.82,0,0,1-23.93,37.81A112.18,112.18,0,0,1,1552,253.37Q1530,262.75,1502.8,262.75Z"/><path class="cls-5" d="M1632,63.92a82.12,82.12,0,0,1,3.67-24.75A56,56,0,0,1,1647,18.77,52.86,52.86,0,0,1,1666.41,5q11.83-5,28.15-5t28.15,5a52.94,52.94,0,0,1,19.45,13.74,56.17,56.17,0,0,1,11.29,20.4,82.12,82.12,0,0,1,3.67,24.75V190.67a109.9,109.9,0,0,1-3.67,29.51,63,63,0,0,1-11.29,22.72,50,50,0,0,1-19.45,14.68q-11.84,5.18-28.15,5.17t-28.15-5.17A50,50,0,0,1,1647,242.9a62.86,62.86,0,0,1-11.29-22.72,109.9,109.9,0,0,1-3.67-29.51Zm53.31,130q0,13.59,9.25,13.6t9.25-13.6V68.82q0-13.6-9.25-13.6t-9.25,13.6Z"/><path class="cls-6" d="M1768,63.92a82.12,82.12,0,0,1,3.67-24.75A56,56,0,0,1,1783,18.77,52.86,52.86,0,0,1,1802.41,5q11.83-5,28.15-5t28.15,5a52.94,52.94,0,0,1,19.45,13.74,56.17,56.17,0,0,1,11.29,20.4,82.12,82.12,0,0,1,3.67,24.75V190.67a109.9,109.9,0,0,1-3.67,29.51,63,63,0,0,1-11.29,22.72,50,50,0,0,1-19.45,14.68q-11.84,5.18-28.15,5.17t-28.15-5.17A50,50,0,0,1,1783,242.9a62.86,62.86,0,0,1-11.29-22.72,109.9,109.9,0,0,1-3.67-29.51Zm53.31,130q0,13.59,9.25,13.6t9.25-13.6V68.82q0-13.6-9.25-13.6t-9.25,13.6Z"/><path class="cls-2" d="M1904,63.92a82.12,82.12,0,0,1,3.67-24.75A56,56,0,0,1,1919,18.77,52.86,52.86,0,0,1,1938.41,5q11.83-5,28.15-5t28.15,5a52.94,52.94,0,0,1,19.45,13.74,56.17,56.17,0,0,1,11.29,20.4,82.12,82.12,0,0,1,3.67,24.75V198.83a82,82,0,0,1-3.67,24.75,56.17,56.17,0,0,1-11.29,20.4,52.71,52.71,0,0,1-19.45,13.74q-11.84,5-28.15,5t-28.15-5A52.63,52.63,0,0,1,1919,244a56,56,0,0,1-11.29-20.4,82,82,0,0,1-3.67-24.75Zm84.32,0a26.23,26.23,0,0,0-5.17-16.32q-5.16-6.8-16.59-6.8T1950,47.6a26.17,26.17,0,0,0-5.17,16.32V198.83a26.15,26.15,0,0,0,5.17,16.32q5.16,6.81,16.59,6.8t16.59-6.8a26.21,26.21,0,0,0,5.17-16.32Z"/><path class="cls-1" d="M2040,63.92a82.12,82.12,0,0,1,3.67-24.75A56,56,0,0,1,2055,18.77,52.86,52.86,0,0,1,2074.41,5q11.84-5,28.15-5t28.15,5a52.94,52.94,0,0,1,19.45,13.74,56.17,56.17,0,0,1,11.29,20.4,82.12,82.12,0,0,1,3.67,24.75V198.83a82,82,0,0,1-3.67,24.75,56.17,56.17,0,0,1-11.29,20.4,52.71,52.71,0,0,1-19.45,13.74q-11.84,5-28.15,5t-28.15-5A52.63,52.63,0,0,1,2055,244a56,56,0,0,1-11.29-20.4,82,82,0,0,1-3.67-24.75Zm84.32,0a26.23,26.23,0,0,0-5.17-16.32q-5.16-6.8-16.59-6.8T2086,47.6a26.17,26.17,0,0,0-5.17,16.32V198.83a26.15,26.15,0,0,0,5.17,16.32q5.16,6.81,16.59,6.8t16.59-6.8a26.21,26.21,0,0,0,5.17-16.32Z"/><path class="cls-1" d="M2179.81,258.13V4.62h87l52.22,57.67V4.62h114.24V258.13h-87l-52.22-57.67v57.67Zm65.82-52.23V77L2367.49,205.9h13.6v-149h-13.6V185.78L2245.63,56.85H2232V205.9Z"/><path class="cls-7" d="M2448,4.62h52.22l33.19,142V4.62h39.71V258.13H2520.9l-33.19-141.71V258.13H2448Z"/><path class="cls-7" d="M2584,4.62h52.22l30.47,110.16V4.62h42.43V258.13H2656.9l-30.47-109.89V258.13H2584Z"/><path class="cls-7" d="M2723.81,131.38a123.31,123.31,0,0,1,9.93-49.24,127.12,127.12,0,0,1,67.59-67.59,127,127,0,0,1,98.46,0,127.12,127.12,0,0,1,67.59,67.59,123.48,123.48,0,0,1,9.93,49.24,123.43,123.43,0,0,1-9.93,49.23,127.12,127.12,0,0,1-67.59,67.59,127,127,0,0,1-98.46,0,127.12,127.12,0,0,1-67.59-67.59A123.26,123.26,0,0,1,2723.81,131.38ZM2832.06,182a30.07,30.07,0,0,0-2-11.15,36,36,0,0,0-5.57-9.52l26.11-26.12,26.11,26.12a35.76,35.76,0,0,0-5.57,9.52,31.2,31.2,0,0,0,.54,23.52,32,32,0,0,0,16.86,16.87,31,31,0,0,0,24.76,0,34.8,34.8,0,0,0,10.2-6.8,31.67,31.67,0,0,0,6.93-10.07,30.86,30.86,0,0,0,0-24.75,32.88,32.88,0,0,0-17.13-17.13,30.84,30.84,0,0,0-23.4-.55,31.41,31.41,0,0,0-9.38,5.58l-26.11-26.11,26.11-26.12a31.41,31.41,0,0,0,9.38,5.58,30.89,30.89,0,0,0,23.4-.54,34.8,34.8,0,0,0,10.2-6.8,31.78,31.78,0,0,0,6.93-10.07,30.86,30.86,0,0,0,0-24.75,32.95,32.95,0,0,0-17.13-17.14,31,31,0,0,0-24.76,0,31.76,31.76,0,0,0-10.06,6.94,34.54,34.54,0,0,0-6.8,10.2,30.87,30.87,0,0,0-.54,23.39,31.31,31.31,0,0,0,5.57,9.39l-26.11,26.11-26.11-26.11a31.52,31.52,0,0,0,5.57-9.39,30.87,30.87,0,0,0-.54-23.39,33,33,0,0,0-17.14-17.14,31,31,0,0,0-24.75,0,31.76,31.76,0,0,0-10.06,6.94,34.35,34.35,0,0,0-6.8,10.2,30.86,30.86,0,0,0,0,24.75,32,32,0,0,0,16.86,16.87,31.23,31.23,0,0,0,23.53.54,36,36,0,0,0,9.52-5.58l26.11,26.12-26.11,26.11a36,36,0,0,0-9.52-5.58,31.17,31.17,0,0,0-23.53.55,31.57,31.57,0,0,0-10.06,6.93,34.35,34.35,0,0,0-6.8,10.2,30.86,30.86,0,0,0,0,24.75,32,32,0,0,0,16.86,16.87,31,31,0,0,0,24.75,0,34.54,34.54,0,0,0,10.2-6.8,31.69,31.69,0,0,0,6.94-10.07A30.27,30.27,0,0,0,2832.06,182Z"/></g></g></svg>