<svg xmlns="http://www.w3.org/2000/svg" viewBox="0 0 2440.38 262.75"><defs><style>.cls-1{fill:#acceed;}.cls-2{fill:#db713f;}.cls-3{fill:#b03e32;}.cls-4{fill:#7396c5;}.cls-5{fill:#559184;}.cls-6{fill:#487169;}.cls-7{fill:#88bba5;}.cls-8{fill:#290a3b;}</style></defs><title>Asset 9</title><g id="Layer_2" data-name="Layer 2"><g id="Layer_1-2" data-name="Layer 1"><path class="cls-1" d="M0,4.62H253.5V79.7H126.75v23.93h66.91v55.49H126.75v23.94H253.5v75.07H0Z"/><path class="cls-1" d="M268.19,4.62H393.31v59.3h-40.8v41.62h27.2v51.68h-27.2v41.61h40.8v59.3H268.19Z"/><path class="cls-2" d="M404.19,4.62H529.31v59.3h-68v41.62h54.4v51.68h-54.4v41.61h68v59.3H404.19Z"/><path class="cls-3" d="M534.75,258.13,608.19,4.62H733.31l73.44,253.51H643.82L633.49,222.5H562.22l-10.33,35.63Zm32.1-51.95h62l-31-106.9Z"/><path class="cls-4" d="M848.1,4.62h53.31l41.34,253.51H900.59l-5.71-39.71H850l-6,39.71H806.75ZM856,178.7h33.46L873.39,63.38Z"/><path class="cls-4" d="M995,4.62h53.31l41.34,253.51h-63.92L1019.46,213h-27.2l-6.8,45.15H953.63Zm2.44,174.08h17.14l-8.16-59.29Z"/><path class="cls-1" d="M1163.62,193.94a38.29,38.29,0,0,0-5-19,109.09,109.09,0,0,0-12.64-17.82q-7.62-8.84-16.6-18.22a167.29,167.29,0,0,1-16.59-20.4,112.62,112.62,0,0,1-12.65-24.35,85.06,85.06,0,0,1-5-30.19,82.43,82.43,0,0,1,3.67-24.75A56,56,0,0,1,1110,18.77,52.94,52.94,0,0,1,1129.48,5q11.83-5,28.15-5t28.15,5a52.94,52.94,0,0,1,19.45,13.74,56,56,0,0,1,11.29,20.4,82.12,82.12,0,0,1,3.67,24.75V90.58h-51.68V68.82q0-6.25-2-9.93a7,7,0,0,0-6.66-3.67,7.65,7.65,0,0,0-6.94,3.67q-2.31,3.68-2.31,9.93a37.54,37.54,0,0,0,5.17,19,111.21,111.21,0,0,0,12.92,17.81q7.75,8.85,16.73,18.09A167.26,167.26,0,0,1,1202.1,144,114.28,114.28,0,0,1,1215,168.23a81.07,81.07,0,0,1,5.17,29.79,78.86,78.86,0,0,1-3.94,25.29,59.67,59.67,0,0,1-11.7,20.54A53.31,53.31,0,0,1,1185,257.72q-11.84,5-27.34,5-16.32,0-28.15-5.17A50,50,0,0,1,1110,242.9a62.86,62.86,0,0,1-11.29-22.72,110.3,110.3,0,0,1-3.67-29.51V172.18h50.59v21.76q0,6.26,2,9.92a7,7,0,0,0,6.67,3.68,7.65,7.65,0,0,0,6.93-3.68Q1163.61,200.2,1163.62,193.94Z"/><path class="cls-2" d="M1269.15,177.62v13q0,15.51,5.71,24.75t18.77,9.25q12.24,0,18.36-7.75t6.12-18.9a34.09,34.09,0,0,0-6.39-19.45,129.61,129.61,0,0,0-16.18-19q-9.8-9.66-21-20a221.67,221.67,0,0,1-20.94-22.31,119.79,119.79,0,0,1-16.19-25.84,71.92,71.92,0,0,1-6.39-30.46,72.48,72.48,0,0,1,3.67-23A54.27,54.27,0,0,1,1246,18.5,54.55,54.55,0,0,1,1265.48,5q11.83-5,28.15-5t28.15,5a52.94,52.94,0,0,1,19.45,13.74,56,56,0,0,1,11.29,20.4,82.12,82.12,0,0,1,3.67,24.75V85.14h-38.08V63.92a29.47,29.47,0,0,0-5.71-18.22q-5.72-7.62-18.77-7.62t-18.77,7.62a29.54,29.54,0,0,0-5.71,18.22,34.11,34.11,0,0,0,6.39,19.45,134.49,134.49,0,0,0,16.19,19.17q9.8,9.79,20.94,20.27a233.37,233.37,0,0,1,20.95,22.44,119.06,119.06,0,0,1,16.18,26,72.92,72.92,0,0,1,6.39,30.6,67.91,67.91,0,0,1-3.94,23,56.64,56.64,0,0,1-11.7,19.45A55.75,55.75,0,0,1,1321,257.72q-11.84,5-27.34,5-16.32,0-28.15-5.17A50,50,0,0,1,1246,242.9a62.86,62.86,0,0,1-11.29-22.72,110.3,110.3,0,0,1-3.67-29.51v-13Z"/><path class="cls-5" d="M1364.35,4.62h130.56V58.48h-31.28V258.13h-68V58.48h-31.28Z"/><path class="cls-6" d="M1506.88,4.62h253.5V79.7H1633.63v23.93h66.91v55.49h-66.91v23.94h126.75v75.07h-253.5Z"/><path class="cls-7" d="M1775.07,4.62h62q16.32,0,28.15,5a54,54,0,0,1,19.58,13.73,56.74,56.74,0,0,1,11.56,20.4,79.44,79.44,0,0,1,3.81,24.75v27.2q0,20.15-5.57,35.5a52.52,52.52,0,0,1-17.82,24.62l28.83,102.27h-52l-22.85-90.31h-9.52v90.31h-46.24Zm46.24,46.52v70.17h21q6,0,8.84-3.94t2.85-12.92V68q0-9-2.85-12.92t-8.84-3.94Z"/><path class="cls-8" d="M1911.07,4.62h52.23l33.18,142V4.62h39.71V258.13H1984l-33.19-141.71V258.13h-39.71Z"/><path class="cls-8" d="M2047.07,4.62h52.23l30.46,110.16V4.62h42.43V258.13H2120L2089.5,148.24V258.13h-42.43Z"/><path class="cls-8" d="M2186.88,131.38a123.48,123.48,0,0,1,9.93-49.24,127.12,127.12,0,0,1,67.59-67.59,127,127,0,0,1,98.46,0,127.09,127.09,0,0,1,67.6,67.59,123.64,123.64,0,0,1,9.92,49.24,123.59,123.59,0,0,1-9.92,49.23,127.09,127.09,0,0,1-67.6,67.59,127,127,0,0,1-98.46,0,127.12,127.12,0,0,1-67.59-67.59A123.43,123.43,0,0,1,2186.88,131.38ZM2295.14,182a30.07,30.07,0,0,0-2-11.15,36.06,36.06,0,0,0-5.58-9.52l26.11-26.12,26.11,26.12a35.76,35.76,0,0,0-5.57,9.52,31.2,31.2,0,0,0,.54,23.52,31.93,31.93,0,0,0,16.87,16.87,31,31,0,0,0,24.75,0,34.67,34.67,0,0,0,10.2-6.8,31.51,31.51,0,0,0,6.93-10.07,30.86,30.86,0,0,0,0-24.75,32.88,32.88,0,0,0-17.13-17.13,30.81,30.81,0,0,0-23.39-.55,31.34,31.34,0,0,0-9.39,5.58l-26.11-26.11,26.11-26.12a31.34,31.34,0,0,0,9.39,5.58,30.87,30.87,0,0,0,23.39-.54,34.87,34.87,0,0,0,10.2-6.8,31.62,31.62,0,0,0,6.93-10.07,30.86,30.86,0,0,0,0-24.75,32.95,32.95,0,0,0-17.13-17.14,31,31,0,0,0-24.75,0,31.69,31.69,0,0,0-10.07,6.94,34.54,34.54,0,0,0-6.8,10.2,30.87,30.87,0,0,0-.54,23.39,31.31,31.31,0,0,0,5.57,9.39l-26.11,26.11-26.11-26.11a31.55,31.55,0,0,0,5.58-9.39,30.81,30.81,0,0,0-.55-23.39,32.95,32.95,0,0,0-17.13-17.14,31,31,0,0,0-24.76,0,31.76,31.76,0,0,0-10.06,6.94,34.54,34.54,0,0,0-6.8,10.2,31,31,0,0,0,0,24.75,32,32,0,0,0,16.86,16.87,31.23,31.23,0,0,0,23.53.54,36,36,0,0,0,9.52-5.58l26.11,26.12-26.11,26.11a36,36,0,0,0-9.52-5.58,31.17,31.17,0,0,0-23.53.55,31.57,31.57,0,0,0-10.06,6.93,34.54,34.54,0,0,0-6.8,10.2,31,31,0,0,0,0,24.75,32,32,0,0,0,16.86,16.87,31,31,0,0,0,24.76,0,34.8,34.8,0,0,0,10.2-6.8,31.67,31.67,0,0,0,6.93-10.07A30.28,30.28,0,0,0,2295.14,182Z"/></g></g></svg>