<svg xmlns="http://www.w3.org/2000/svg" viewBox="0 0 3381.5 262.75"><defs><style>.cls-1{fill:#559184;}.cls-2{fill:#487169;}.cls-3{fill:#e29d88;}.cls-4{fill:#db713f;}.cls-5{fill:#88bba5;}.cls-6{fill:#7396c5;}.cls-7{fill:#557fb5;}.cls-8{fill:#acceed;}.cls-9{fill:#290a3b;}</style></defs><title>Asset 8</title><g id="Layer_2" data-name="Layer 2"><g id="Layer_1-2" data-name="Layer 1"><path class="cls-1" d="M131.65,190.67l-2.18-59.29H124l-2.17,59.29-7.08,67.46H24.48L0,4.62H68.82l4.89,76.16v50.6h5.44l3.54-50.6L92.75,4.62h68l10.07,76.16,3.53,50.6h5.44V80.78l4.9-76.16H253.5L229,258.13h-90.3Z"/><path class="cls-2" d="M330.75,137.09l-12,121H287.23L264.11,4.62h34.27l9.25,114.79L317.7,4.62h26.11l10.06,114.79L363.12,4.62h34.27L374.27,258.13H342.72Z"/><path class="cls-3" d="M404.19,63.92a82.43,82.43,0,0,1,3.67-24.75,56,56,0,0,1,11.29-20.4A52.94,52.94,0,0,1,438.6,5q11.83-5,28.15-5T494.9,5a52.94,52.94,0,0,1,19.45,13.74,56,56,0,0,1,11.29,20.4,82.12,82.12,0,0,1,3.67,24.75V190.67a109.9,109.9,0,0,1-3.67,29.51,62.86,62.86,0,0,1-11.29,22.72,50,50,0,0,1-19.45,14.68q-11.82,5.18-28.15,5.17t-28.15-5.17a50,50,0,0,1-19.45-14.68,62.86,62.86,0,0,1-11.29-22.72,110.3,110.3,0,0,1-3.67-29.51Zm53.31,130q0,13.59,9.25,13.6t9.25-13.6V68.82q0-13.6-9.25-13.6t-9.25,13.6Z"/><path class="cls-4" d="M540.19,63.92a82.43,82.43,0,0,1,3.67-24.75,56,56,0,0,1,11.29-20.4A52.94,52.94,0,0,1,574.6,5q11.83-5,28.15-5T630.9,5a52.94,52.94,0,0,1,19.45,13.74,56,56,0,0,1,11.29,20.4,82.12,82.12,0,0,1,3.67,24.75V198.83a82,82,0,0,1-3.67,24.75A56,56,0,0,1,650.35,244a52.71,52.71,0,0,1-19.45,13.74q-11.82,5-28.15,5t-28.15-5A52.71,52.71,0,0,1,555.15,244a56,56,0,0,1-11.29-20.4,82.34,82.34,0,0,1-3.67-24.75Zm84.32,0a26.17,26.17,0,0,0-5.17-16.32q-5.16-6.8-16.59-6.8t-16.59,6.8A26.17,26.17,0,0,0,581,63.92V198.83a26.15,26.15,0,0,0,5.17,16.32q5.16,6.81,16.59,6.8t16.59-6.8a26.15,26.15,0,0,0,5.17-16.32Z"/><path class="cls-1" d="M676.19,63.92a82.43,82.43,0,0,1,3.67-24.75,56,56,0,0,1,11.29-20.4A52.94,52.94,0,0,1,710.6,5q11.83-5,28.15-5T766.9,5a52.94,52.94,0,0,1,19.45,13.74,56,56,0,0,1,11.29,20.4,82.12,82.12,0,0,1,3.67,24.75V198.83a82,82,0,0,1-3.67,24.75A56,56,0,0,1,786.35,244a52.71,52.71,0,0,1-19.45,13.74q-11.82,5-28.15,5t-28.15-5A52.71,52.71,0,0,1,691.15,244a56,56,0,0,1-11.29-20.4,82.34,82.34,0,0,1-3.67-24.75Zm84.32,0a26.17,26.17,0,0,0-5.17-16.32q-5.16-6.8-16.59-6.8t-16.59,6.8A26.17,26.17,0,0,0,717,63.92V198.83a26.15,26.15,0,0,0,5.17,16.32q5.16,6.81,16.59,6.8t16.59-6.8a26.15,26.15,0,0,0,5.17-16.32Z"/><path class="cls-1" d="M811.38,119.14a128.42,128.42,0,0,1,8.29-46.38A110.37,110.37,0,0,1,881,9.38Q903,0,930.51,0q27.19,0,49.23,9.38a110.37,110.37,0,0,1,61.34,63.38,128.42,128.42,0,0,1,8.3,46.38,128.72,128.72,0,0,1-8.3,46.24,110.06,110.06,0,0,1-23.8,37.8,113,113,0,0,1-37.54,25.44q-22,9.38-49.23,9.38Q903,238,881,228.62a113,113,0,0,1-37.54-25.44,110.21,110.21,0,0,1-23.8-37.8A128.71,128.71,0,0,1,811.38,119.14Zm49.23,0a74.37,74.37,0,0,0,4.89,27.06,66.41,66.41,0,0,0,14,22.17,65,65,0,0,0,22,15,79.14,79.14,0,0,0,57.67,0,65.05,65.05,0,0,0,22-15,66.56,66.56,0,0,0,14-22.17,74.37,74.37,0,0,0,4.89-27.06,75.47,75.47,0,0,0-4.89-27.2,66.28,66.28,0,0,0-14-22.31,65.2,65.2,0,0,0-22-15,79.14,79.14,0,0,0-57.67,0,65.1,65.1,0,0,0-22,15,66.12,66.12,0,0,0-14,22.31A75.47,75.47,0,0,0,860.61,119.14Zm12.24,0a61.61,61.61,0,0,1,4.08-22.31,54,54,0,0,1,11.56-18.36A55.26,55.26,0,0,1,906.71,66.1a63,63,0,0,1,44.88-1,53.94,53.94,0,0,1,16.73,9.93q-3-.54-6.39-.81c-2.27-.18-4.58-.28-6.94-.28a74.09,74.09,0,0,0-29,5.44,63.64,63.64,0,0,0-21.89,15,67.34,67.34,0,0,0-13.87,22.17,74.22,74.22,0,0,0-4.9,27.07,108.62,108.62,0,0,0,.82,13.6,58.78,58.78,0,0,1-9.8-17.28A60.16,60.16,0,0,1,872.85,119.14ZM955,262.75a129.8,129.8,0,0,1-35.9-4.76,118.47,118.47,0,0,1-30.47-13.46,148.9,148.9,0,0,0,41.89,5.71q30.19,0,54.4-10.34a121.29,121.29,0,0,0,67.46-69.63,140.71,140.71,0,0,0,9.25-51.13,147.9,147.9,0,0,0-5.72-41.62A130.06,130.06,0,0,1,1065.7,190a113.84,113.84,0,0,1-23.94,37.81,112.18,112.18,0,0,1-37.54,25.57Q982.2,262.75,955,262.75Z"/><path class="cls-5" d="M1084.19,63.92a82.43,82.43,0,0,1,3.67-24.75,56,56,0,0,1,11.29-20.4A52.94,52.94,0,0,1,1118.6,5q11.84-5,28.15-5t28.15,5a52.94,52.94,0,0,1,19.45,13.74,56,56,0,0,1,11.29,20.4,82.12,82.12,0,0,1,3.67,24.75V190.67a109.9,109.9,0,0,1-3.67,29.51,62.86,62.86,0,0,1-11.29,22.72,50,50,0,0,1-19.45,14.68q-11.82,5.18-28.15,5.17t-28.15-5.17a50,50,0,0,1-19.45-14.68,62.86,62.86,0,0,1-11.29-22.72,110.3,110.3,0,0,1-3.67-29.51Zm53.31,130q0,13.59,9.25,13.6t9.25-13.6V68.82q0-13.6-9.25-13.6t-9.25,13.6Z"/><path class="cls-5" d="M1477.5,258.13q-26.1,3.81-46.64,1.77t-36.18-8.16a99.13,99.13,0,0,1-26.93-15.37,113.33,113.33,0,0,1-19-19.59,104.54,104.54,0,0,1-12.37-20.94,168.29,168.29,0,0,1-7.21-19.31,121.3,121.3,0,0,1-3.54-14.55c-.64-3.9-.95-6.21-.95-6.94V258.13H1224V4.62h170.54A96.31,96.31,0,0,1,1429,10.47a78.93,78.93,0,0,1,26.25,16,68,68,0,0,1,16.59,24.21,79.53,79.53,0,0,1,5.71,30.33,76.48,76.48,0,0,1-5.71,29.92,64.91,64.91,0,0,1-16.59,23.39A75.41,75.41,0,0,1,1429,149.46a104.91,104.91,0,0,1-34.41,5.31h-.27a75.6,75.6,0,0,0,13.87,6.8,92,92,0,0,0,18.09,4.62,137,137,0,0,0,23,1.5,174.8,174.8,0,0,0,28.28-2.86ZM1371.15,83.78q0-12.24-7.07-18.5T1344,59h-19.31v49.51H1344q13.07,0,20.13-6.26T1371.15,83.78Z"/><path class="cls-2" d="M1683.68,140.62V258.13H1496V4.62h187.68v117l51.41-117h19l-55.76,126.76,60.38,126.75h-19Z"/><path class="cls-6" d="M1764.19,4.62h53.31V111L1838.72,4.62h56l-28,126.76,28,126.75h-56L1817.5,151.78V258.13h-53.31Z"/><path class="cls-7" d="M1968.74,193.94a38.29,38.29,0,0,0-5-19,109.09,109.09,0,0,0-12.64-17.82q-7.62-8.84-16.6-18.22a167.29,167.29,0,0,1-16.59-20.4,112.62,112.62,0,0,1-12.65-24.35,85.06,85.06,0,0,1-5-30.19,82.43,82.43,0,0,1,3.67-24.75,56,56,0,0,1,11.29-20.4A52.94,52.94,0,0,1,1934.6,5q11.84-5,28.15-5t28.15,5a52.94,52.94,0,0,1,19.45,13.74,56,56,0,0,1,11.29,20.4,82.12,82.12,0,0,1,3.67,24.75V90.58h-51.68V68.82q0-6.25-2-9.93a7,7,0,0,0-6.66-3.67,7.65,7.65,0,0,0-6.94,3.67q-2.31,3.68-2.31,9.93a37.54,37.54,0,0,0,5.17,19,111.21,111.21,0,0,0,12.92,17.81q7.76,8.85,16.73,18.09A167.26,167.26,0,0,1,2007.22,144a114.28,114.28,0,0,1,12.92,24.21,81.07,81.07,0,0,1,5.17,29.79,78.9,78.9,0,0,1-3.94,25.29,59.67,59.67,0,0,1-11.7,20.54,53.31,53.31,0,0,1-19.58,13.87q-11.83,5-27.34,5-16.32,0-28.15-5.17a50,50,0,0,1-19.45-14.68,62.86,62.86,0,0,1-11.29-22.72,110.3,110.3,0,0,1-3.67-29.51V172.18h50.59v21.76q0,6.26,2,9.92a7,7,0,0,0,6.67,3.68,7.65,7.65,0,0,0,6.93-3.68Q1968.73,200.2,1968.74,193.94Z"/><path class="cls-8" d="M2104.74,193.94a38.29,38.29,0,0,0-5-19,109.09,109.09,0,0,0-12.64-17.82q-7.62-8.84-16.6-18.22a167.29,167.29,0,0,1-16.59-20.4,112.62,112.62,0,0,1-12.65-24.35,85.06,85.06,0,0,1-5-30.19,82.43,82.43,0,0,1,3.67-24.75,56,56,0,0,1,11.29-20.4A52.94,52.94,0,0,1,2070.6,5q11.83-5,28.15-5t28.15,5a52.94,52.94,0,0,1,19.45,13.74,56,56,0,0,1,11.29,20.4,82.12,82.12,0,0,1,3.67,24.75V90.58h-51.68V68.82q0-6.25-2-9.93a7,7,0,0,0-6.66-3.67,7.65,7.65,0,0,0-6.94,3.67q-2.31,3.68-2.31,9.93a37.54,37.54,0,0,0,5.17,19,111.21,111.21,0,0,0,12.92,17.81q7.76,8.85,16.73,18.09A167.26,167.26,0,0,1,2143.22,144a114.28,114.28,0,0,1,12.92,24.21,81.07,81.07,0,0,1,5.17,29.79,78.9,78.9,0,0,1-3.94,25.29,59.67,59.67,0,0,1-11.7,20.54,53.31,53.31,0,0,1-19.58,13.87q-11.84,5-27.34,5-16.32,0-28.15-5.17a50,50,0,0,1-19.45-14.68,62.86,62.86,0,0,1-11.29-22.72,110.3,110.3,0,0,1-3.67-29.51V172.18h50.59v21.76q0,6.26,2,9.92a7,7,0,0,0,6.67,3.68,7.65,7.65,0,0,0,6.93-3.68Q2104.73,200.2,2104.74,193.94Z"/><path class="cls-5" d="M2210.27,177.62v13q0,15.51,5.71,24.75t18.77,9.25q12.24,0,18.36-7.75t6.12-18.9a34.09,34.09,0,0,0-6.39-19.45,129.61,129.61,0,0,0-16.18-19q-9.79-9.66-20.95-20a221.67,221.67,0,0,1-20.94-22.31,119.79,119.79,0,0,1-16.19-25.84,71.92,71.92,0,0,1-6.39-30.46,72.48,72.48,0,0,1,3.67-23,54.27,54.27,0,0,1,11.29-19.44A54.55,54.55,0,0,1,2206.6,5q11.83-5,28.15-5t28.15,5a52.94,52.94,0,0,1,19.45,13.74,56,56,0,0,1,11.29,20.4,82.12,82.12,0,0,1,3.67,24.75V85.14h-38.08V63.92a29.47,29.47,0,0,0-5.71-18.22q-5.71-7.62-18.77-7.62T2216,45.7a29.54,29.54,0,0,0-5.71,18.22,34.11,34.11,0,0,0,6.39,19.45,134.49,134.49,0,0,0,16.19,19.17q9.8,9.79,20.94,20.27a233.37,233.37,0,0,1,20.95,22.44,119.06,119.06,0,0,1,16.18,26,72.92,72.92,0,0,1,6.39,30.6,67.91,67.91,0,0,1-3.94,23,56.64,56.64,0,0,1-11.7,19.45,55.75,55.75,0,0,1-19.58,13.46q-11.84,5-27.34,5-16.32,0-28.15-5.17a50,50,0,0,1-19.45-14.68,62.86,62.86,0,0,1-11.29-22.72,110.3,110.3,0,0,1-3.67-29.51v-13Z"/><path class="cls-5" d="M2308.19,63.92a82.43,82.43,0,0,1,3.67-24.75,56,56,0,0,1,11.29-20.4A52.94,52.94,0,0,1,2342.6,5q11.83-5,28.15-5t28.15,5a52.94,52.94,0,0,1,19.45,13.74,56,56,0,0,1,11.29,20.4,82.12,82.12,0,0,1,3.67,24.75V198.83a82,82,0,0,1-3.67,24.75,56,56,0,0,1-11.29,20.4,52.71,52.71,0,0,1-19.45,13.74q-11.82,5-28.15,5t-28.15-5A52.71,52.71,0,0,1,2323.15,244a56,56,0,0,1-11.29-20.4,82.34,82.34,0,0,1-3.67-24.75Zm84.32,0a26.17,26.17,0,0,0-5.17-16.32q-5.16-6.8-16.59-6.8t-16.59,6.8A26.17,26.17,0,0,0,2349,63.92V198.83a26.15,26.15,0,0,0,5.17,16.32q5.16,6.81,16.59,6.8t16.59-6.8a26.15,26.15,0,0,0,5.17-16.32Z"/><path class="cls-5" d="M2628.88,258.13H2448v-59.3h51.68V63.92H2448V4.62h169.18q20.4,0,36.86,6.12a83.28,83.28,0,0,1,28,16.87,73.23,73.23,0,0,1,17.81,25.7,83.12,83.12,0,0,1,6.26,32.37q0,18.5-6.53,33.18a71.93,71.93,0,0,1-18.22,25,81.66,81.66,0,0,1-28,15.91,111.29,111.29,0,0,1-36.18,5.58H2570.4v33.45h58.48ZM2570.4,63.92v46.51h29.38q14.13,0,21.62-6.39t7.48-17.27q0-11.16-7.48-17t-21.62-5.85Z"/><path class="cls-9" d="M2716.19,4.62h62q16.32,0,28.15,5a54,54,0,0,1,19.58,13.73,56.74,56.74,0,0,1,11.56,20.4,79.44,79.44,0,0,1,3.81,24.75v46.24a106.35,106.35,0,0,1-3.81,29.52A63.32,63.32,0,0,1,2825.94,167a51.19,51.19,0,0,1-19.58,14.69q-11.84,5.16-28.15,5.16H2769v71.27h-52.77ZM2769,59.84v71.81h9.25q9.24,0,9.25-13.6V73.44q0-13.6-9.25-13.6Z"/><path class="cls-9" d="M2989,262.75q-64.2,0-98.6-17.95T2856,188.5a50.91,50.91,0,0,1,3.67-19.72,45.65,45.65,0,0,1,9.79-15,42.14,42.14,0,0,1,14.28-9.39,45.13,45.13,0,0,1,16.87-3.26,49,49,0,0,1,18.49,3.4,43.88,43.88,0,0,1,27.75,41.48,46.6,46.6,0,0,1-3.4,17.81,43.42,43.42,0,0,1-9.52,14.42,45.72,45.72,0,0,1-14.28,9.66,43.46,43.46,0,0,1-17.41,3.53,46.7,46.7,0,0,1-13.74-2,42.55,42.55,0,0,1-12.1-5.85q13.88,17.14,42.16,24.08t70.45,6.93a217.37,217.37,0,0,0,45-4.35q20.54-4.35,35.5-12.38t23.39-19.17a40.1,40.1,0,0,0,8.43-24.75q0-18.78-10.2-29.24t-26.79-15.78a170.89,170.89,0,0,0-37.81-7.07q-21.21-1.77-43.52-3.13t-43.52-3.94a146,146,0,0,1-37.8-9.39,64.41,64.41,0,0,1-26.8-19.72Q2864.7,92.76,2864.7,71a50.64,50.64,0,0,1,7.76-26.65q7.74-12.8,22.71-22.58T2932,6q21.9-6,50.19-6a266.34,266.34,0,0,1,50.45,4.35Q3055.1,8.7,3070.88,18t24.21,23.26q8.43,14,8.43,33.05a50.62,50.62,0,0,1-3.67,19.85,45.91,45.91,0,0,1-9.79,14.83,42.11,42.11,0,0,1-14.28,9.38,45,45,0,0,1-16.87,3.26,48.87,48.87,0,0,1-18.49-3.4,43.38,43.38,0,0,1-24.21-23.52,44.66,44.66,0,0,1-3.54-18,46.45,46.45,0,0,1,3.4-17.81,43.52,43.52,0,0,1,9.52-14.42,45.87,45.87,0,0,1,14.15-9.65,42.92,42.92,0,0,1,17.54-3.54A44.08,44.08,0,0,1,3071,33.46a45.69,45.69,0,0,1,12.1,6q-13.6-17.4-39.71-24.34t-61.2-6.94q-25.3,0-45.43,4.9t-34.4,13.46q-14.28,8.56-21.9,20A43.33,43.33,0,0,0,2872.86,71q0,16,6.67,26.52a51.16,51.16,0,0,0,17.95,17,88.11,88.11,0,0,0,26.52,9.66,307.23,307.23,0,0,0,32.23,4.76q17,1.63,34.95,2.58t35,2.59a261.66,261.66,0,0,1,32.23,5,91,91,0,0,1,26.52,10.06,51.81,51.81,0,0,1,18,17.41q6.66,10.76,6.66,27.34a49,49,0,0,1-8.16,27.06q-8.16,12.65-23.66,21.9t-37.81,14.55Q3017.57,262.75,2989,262.75Z"/><path class="cls-9" d="M3128,131.38a123.48,123.48,0,0,1,9.93-49.24,127.12,127.12,0,0,1,67.59-67.59,127,127,0,0,1,98.46,0,127.09,127.09,0,0,1,67.6,67.59,123.64,123.64,0,0,1,9.92,49.24,123.59,123.59,0,0,1-9.92,49.23A127.09,127.09,0,0,1,3304,248.2a127,127,0,0,1-98.46,0,127.12,127.12,0,0,1-67.59-67.59A123.43,123.43,0,0,1,3128,131.38Zm162.93-73.44a34.19,34.19,0,0,0-2.86-13.88,36.7,36.7,0,0,0-19.17-19.17,36.41,36.41,0,0,0-28.29,0,36.67,36.67,0,0,0-19.18,19.17,34.34,34.34,0,0,0-2.85,13.88A32.69,32.69,0,0,0,3221,71.13a53,53,0,0,0,6,10.33,89.87,89.87,0,0,0,7.75,9.12,86.07,86.07,0,0,1,8,9.65,54.12,54.12,0,0,1,6.4,12,52,52,0,0,1,3.12,15.64,50.31,50.31,0,0,1-23.39-17.41,81.45,81.45,0,0,1-6.66-10.61A98.44,98.44,0,0,0,3216,89.49a48.39,48.39,0,0,0-7.89-8.84,34.17,34.17,0,0,0-11.56-6.39,34.6,34.6,0,0,0-14.41-1.77,36,36,0,0,0-24.07,12.37,37.22,37.22,0,0,0-7.21,12.52,37,37,0,0,0,2.31,27.6,37.38,37.38,0,0,0,8.43,10.88A32.57,32.57,0,0,0,3174,142.8a31.16,31.16,0,0,0,13.05,1.9,45.29,45.29,0,0,0,11.56-2.58q5.58-2,11.16-4.62a109.8,109.8,0,0,1,11.69-4.63,48.8,48.8,0,0,1,29.51-.41,46.35,46.35,0,0,1-11.83,11.16,57.72,57.72,0,0,1-12.24,5.84,76.88,76.88,0,0,1-12.1,3,98.15,98.15,0,0,0-11.7,2.58,47.21,47.21,0,0,0-11,4.76,32.54,32.54,0,0,0-9.66,9.11,36.51,36.51,0,0,0-5.85,13.19,37.71,37.71,0,0,0-.41,13.88A36.24,36.24,0,0,0,3180.9,209a35.25,35.25,0,0,0,9.66,10.47,35.92,35.92,0,0,0,39.85,1.77,36.94,36.94,0,0,0,10.74-9.93q6.53-9,6.67-17.68a150,150,0,0,0-.82-17.81,121.2,121.2,0,0,1-.41-19.18q.54-10,8.16-21.49,7.62,11.43,8.16,21.49a121.2,121.2,0,0,1-.41,19.18,147.88,147.88,0,0,0-.81,17.81q.14,8.72,6.66,17.68a33.43,33.43,0,0,0,10.61,9.93,37.15,37.15,0,0,0,13.19,4.76,35.81,35.81,0,0,0,26.79-6.53A35.25,35.25,0,0,0,3328.6,209a36.05,36.05,0,0,0,4.76-13.05,37.71,37.71,0,0,0-.41-13.88,36.51,36.51,0,0,0-5.85-13.19,32.63,32.63,0,0,0-9.65-9.11,47.47,47.47,0,0,0-11-4.76,96.48,96.48,0,0,0-11.83-2.58,71.79,71.79,0,0,1-12.1-3,58.74,58.74,0,0,1-12.11-5.84,46.51,46.51,0,0,1-11.83-11.16,49,49,0,0,1,15.91-2,51.53,51.53,0,0,1,13.33,2.45,110.83,110.83,0,0,1,11.7,4.63q5.57,2.58,11.15,4.62a45.29,45.29,0,0,0,11.56,2.58,32.87,32.87,0,0,0,13.33-1.9,32.53,32.53,0,0,0,12.37-6.94,37.21,37.21,0,0,0,8.43-10.88,37.1,37.1,0,0,0,2.32-27.6,37.56,37.56,0,0,0-7.21-12.52,36,36,0,0,0-24.07-12.37A34.65,34.65,0,0,0,3313,74.26a35.92,35.92,0,0,0-11.7,6.39,42.5,42.5,0,0,0-7.88,8.84,113.3,113.3,0,0,0-6.12,10.33,75.71,75.71,0,0,1-6.8,10.61,58.47,58.47,0,0,1-9.39,9.66,49.52,49.52,0,0,1-14.14,7.75,48.62,48.62,0,0,1,3.26-15.78,64.3,64.3,0,0,1,6.39-11.83,70.28,70.28,0,0,1,8-9.65,82,82,0,0,0,7.89-9.12,53,53,0,0,0,6-10.33A32.69,32.69,0,0,0,3290.93,57.94Z"/></g></g></svg>