<svg xmlns="http://www.w3.org/2000/svg" viewBox="0 0 3522.13 262.75"><defs><style>.cls-1{fill:#557fb5;}.cls-2{fill:#acceed;}.cls-3{fill:#db713f;}.cls-4{fill:#b03e32;}.cls-5{fill:#e29d88;}.cls-6{fill:#7396c5;}.cls-7{fill:#290a3b;}</style></defs><title>Asset 6</title><g id="Layer_2" data-name="Layer 2"><g id="Layer_1-2" data-name="Layer 1"><path class="cls-1" d="M170.82,4.62v8.16H135.18A8.17,8.17,0,0,0,129.34,15a7.8,7.8,0,0,0-2.32,6v222a8.16,8.16,0,0,0,2.72,5.3,8.35,8.35,0,0,0,5.44,1.77,86.89,86.89,0,0,0,27.07-4.49,119.87,119.87,0,0,0,26.38-12.38,141.47,141.47,0,0,0,23.94-18.9A131.54,131.54,0,0,0,232.15,190a123.39,123.39,0,0,0,13.06-28,99.65,99.65,0,0,0,4.76-30.6h8.16V258.13H0V250H35.63a7.41,7.41,0,0,0,6-2.59,8.46,8.46,0,0,0,2.17-5.57V20.13A9.55,9.55,0,0,0,41.07,15a7.38,7.38,0,0,0-5.44-2.18H0V4.62Z"/><path class="cls-2" d="M272.82,4.62h70.72V212.43h54.4v45.7H272.82Z"/><path class="cls-2" d="M589.42,175.44q14.7,0,24.89-.54a55.76,55.76,0,0,0,16.87-3.13,22.21,22.21,0,0,0,10.47-8q3.81-5.43,5.57-15.23a168.66,168.66,0,0,0,2.18-24.75q.4-15,.41-36.45h16.32V258.13H412.62V175.44q29.65,0,46-.82t23.94-5a17.13,17.13,0,0,0,9-13.05q1.37-8.83,1.36-25.16,0-10.62-.4-18.09a33.75,33.75,0,0,0-2.72-12.38,16.78,16.78,0,0,0-7.21-7.61q-4.9-2.72-13.87-4.08a179.88,179.88,0,0,0-22.58-1.64q-13.6-.26-33.46-.27V4.62h176.8V87.31q-19.84,0-33.45.27a179.88,179.88,0,0,0-22.58,1.64q-9,1.36-13.87,4.08a16.73,16.73,0,0,0-7.21,7.61,33.35,33.35,0,0,0-2.72,12.38q-.4,7.49-.41,18.09,0,10.88.41,18.36a33.25,33.25,0,0,0,2.72,12.37,16.7,16.7,0,0,0,7.21,7.62q4.89,2.72,13.87,3.94a200.67,200.67,0,0,0,22.58,1.5Q569.56,175.44,589.42,175.44Z"/><path class="cls-2" d="M680.82,63.92a82.12,82.12,0,0,1,3.67-24.75,56,56,0,0,1,11.29-20.4A52.9,52.9,0,0,1,715.22,5q11.84-5,28.16-5t28.15,5A52.94,52.94,0,0,1,791,18.77a56,56,0,0,1,11.28,20.4,82.12,82.12,0,0,1,3.68,24.75V190.67a109.88,109.88,0,0,1-3.68,29.51A62.85,62.85,0,0,1,791,242.9a50,50,0,0,1-19.45,14.68q-11.84,5.18-28.15,5.17t-28.16-5.17a50,50,0,0,1-19.44-14.68,62.86,62.86,0,0,1-11.29-22.72,109.9,109.9,0,0,1-3.67-29.51Zm53.31,130q0,13.59,9.25,13.6t9.24-13.6V68.82q0-13.6-9.24-13.6t-9.25,13.6Z"/><path class="cls-3" d="M941.94,142.26v48.41a109.88,109.88,0,0,1-3.68,29.51A62.85,62.85,0,0,1,927,242.9a50,50,0,0,1-19.45,14.68q-11.84,5.18-28.15,5.17t-28.16-5.17a50,50,0,0,1-19.44-14.68,62.86,62.86,0,0,1-11.29-22.72,109.9,109.9,0,0,1-3.67-29.51V63.92a82.12,82.12,0,0,1,3.67-24.75,56,56,0,0,1,11.29-20.4A52.9,52.9,0,0,1,851.22,5q11.84-5,28.16-5t28.15,5A52.94,52.94,0,0,1,927,18.77a56,56,0,0,1,11.28,20.4,82.12,82.12,0,0,1,3.68,24.75V120.5H888.08v-49c0-3.09-.64-5.21-1.9-6.4a6.6,6.6,0,0,0-4.63-1.76q-3.54,0-5,2.31a10.54,10.54,0,0,0-1.5,5.85V191.22a9.21,9.21,0,0,0,1.77,6,5.81,5.81,0,0,0,4.76,2.18q3.54,0,5-2.18a10.39,10.39,0,0,0,1.5-6v-49Z"/><path class="cls-3" d="M1077.94,158.58v40.25a82,82,0,0,1-3.68,24.75A56,56,0,0,1,1063,244a52.71,52.71,0,0,1-19.45,13.74q-11.83,5-28.15,5t-28.16-5A52.67,52.67,0,0,1,967.78,244a56,56,0,0,1-11.29-20.4,82,82,0,0,1-3.67-24.75V63.92a82.12,82.12,0,0,1,3.67-24.75,56,56,0,0,1,11.29-20.4A52.9,52.9,0,0,1,987.22,5q11.84-5,28.16-5t28.15,5A52.94,52.94,0,0,1,1063,18.77a56,56,0,0,1,11.28,20.4,82.12,82.12,0,0,1,3.68,24.75v40.26h-40.8V63.92A26.23,26.23,0,0,0,1032,47.6q-5.17-6.8-16.59-6.8t-16.6,6.8a26.22,26.22,0,0,0-5.16,16.32V198.83a26.2,26.2,0,0,0,5.16,16.32q5.18,6.81,16.6,6.8t16.59-6.8a26.21,26.21,0,0,0,5.17-16.32V158.58Z"/><path class="cls-4" d="M1213.94,158.58v40.25a82,82,0,0,1-3.68,24.75A56,56,0,0,1,1199,244a52.71,52.71,0,0,1-19.45,13.74q-11.83,5-28.15,5t-28.16-5A52.67,52.67,0,0,1,1103.78,244a56,56,0,0,1-11.29-20.4,82,82,0,0,1-3.67-24.75V63.92a82.12,82.12,0,0,1,3.67-24.75,56,56,0,0,1,11.29-20.4A52.9,52.9,0,0,1,1123.22,5q11.83-5,28.16-5t28.15,5A52.94,52.94,0,0,1,1199,18.77a56,56,0,0,1,11.28,20.4,82.12,82.12,0,0,1,3.68,24.75v40.26h-40.8V63.92A26.23,26.23,0,0,0,1168,47.6q-5.17-6.8-16.59-6.8t-16.6,6.8a26.22,26.22,0,0,0-5.16,16.32V198.83a26.2,26.2,0,0,0,5.16,16.32q5.17,6.81,16.6,6.8t16.59-6.8a26.21,26.21,0,0,0,5.17-16.32V158.58Z"/><path class="cls-5" d="M1224,131.38a140.59,140.59,0,0,1,9.25-51.14A122.21,122.21,0,0,1,1301,10.34Q1325.17,0,1355.38,0q28.56,0,51.81,9.25a122.22,122.22,0,0,1,67.32,63.37,139.33,139.33,0,0,1,12.24,46.79H1412.5q-5.71-9-20.27-15.1t-36.31-6.12a102.51,102.51,0,0,0-24.75,2.72,65.57,65.57,0,0,0-18.23,7.21,35.13,35.13,0,0,0-11.28,10.47,22.67,22.67,0,0,0,0,25.57,35,35,0,0,0,11.28,10.47,65.26,65.26,0,0,0,18.23,7.21,102,102,0,0,0,24.75,2.72q21.75,0,36.31-6.12t20.27-15.1h74.25a140.5,140.5,0,0,1-12.24,46.92,121.3,121.3,0,0,1-27.06,38,125.38,125.38,0,0,1-40.26,25.29q-23.25,9.25-51.81,9.25-30.2,0-54.4-10.33a122.26,122.26,0,0,1-67.73-69.91A140.5,140.5,0,0,1,1224,131.38Z"/><path class="cls-6" d="M1532.72,4.62H1586l41.35,253.51h-63.92L1557.2,213H1530l-6.8,45.15h-31.82Zm2.45,174.08h17.13l-8.16-59.29Z"/><path class="cls-6" d="M1763.38,252.69q-24.48,0-44.88.81t-35.64,1.91q-17.68,1.08-32.36,2.72a103.78,103.78,0,0,0,1.22-13.47c.09-4.25,0-8-.14-11.28a91.57,91.57,0,0,0-1.08-10.61q30.18,3,49,1.36t29-11.29q10.2-9.65,13.74-29.24t3.54-52.22q0-37-1.23-60.93t-2.31-37q-25.85,1.62-41.48,8t-23.53,18.77q-7.89,12.38-9.38,31.69t1.49,47.05a103.39,103.39,0,0,0-10.33-1.09c-3.09-.17-6.53-.22-10.34-.13a81.81,81.81,0,0,0-12,1.22q.56-7.61,1.36-17.41.55-8.42,1-20.26t.4-26.52q0-12.78-.4-25.57t-1-23.39q-.81-12.24-1.36-23.94,13.07,1.64,31.83,2.72,16,1.09,39.57,1.91t55.36.81q31.81,0,55.35-.81t39.57-1.91q18.78-1.08,31.83-2.72-.83,11.7-1.36,23.94-.55,10.6-1,23.39t-.41,25.57q0,14.69.41,26.52t1,20.26q.54,9.8,1.36,17.41a93.15,93.15,0,0,0-10.07-1.09c-3.08-.17-6.57-.22-10.47-.13a82.28,82.28,0,0,0-12.1,1.22q2.71-27.74,1.36-47.05t-9.39-31.69q-8-12.37-23.66-18.77t-41.48-8q-1.36,13-2.31,36.44t-1,61.48q0,32.64,3.53,52.22t13.74,29.24q10.2,9.66,29,11.29t49-1.36a88.75,88.75,0,0,0-1.23,12.78c-.09,4.18,0,8,.14,11.43a99.16,99.16,0,0,0,1.09,11.15q-14.7-1.63-32.37-2.72-15.24-1.08-35.77-1.91T1763.38,252.69Z"/><path class="cls-6" d="M1908.62,4.62h253.51V59h-43V203.73h43v54.4H1908.62v-54.4h41.89V59h-41.89Z"/><path class="cls-2" d="M2176.82,4.62h125.12V35.36h-40.26v192h40.26v30.74H2176.82V227.39h40.25v-192h-40.25Z"/><path class="cls-2" d="M2312,119.14a128.21,128.21,0,0,1,8.3-46.38,110.4,110.4,0,0,1,61.33-63.38q22-9.38,49.51-9.38,27.2,0,49.23,9.38a110.4,110.4,0,0,1,61.33,63.38,128.42,128.42,0,0,1,8.3,46.38,128.72,128.72,0,0,1-8.3,46.24,110.06,110.06,0,0,1-23.8,37.8,112.9,112.9,0,0,1-37.53,25.44q-22,9.38-49.23,9.38-27.48,0-49.51-9.38a112.9,112.9,0,0,1-37.53-25.44,110.06,110.06,0,0,1-23.8-37.8A128.5,128.5,0,0,1,2312,119.14Zm49.23,0a74.16,74.16,0,0,0,4.9,27.06,66.25,66.25,0,0,0,14,22.17,64.86,64.86,0,0,0,22,15,79.11,79.11,0,0,0,57.66,0,65,65,0,0,0,22-15,66.25,66.25,0,0,0,14-22.17,74.16,74.16,0,0,0,4.9-27.06,75.26,75.26,0,0,0-4.9-27.2,66,66,0,0,0-14-22.31,65.1,65.1,0,0,0-22-15,79.11,79.11,0,0,0-57.66,0,65,65,0,0,0-22,15,66,66,0,0,0-14,22.31A75.26,75.26,0,0,0,2361.23,119.14Zm12.24,0a61.61,61.61,0,0,1,4.08-22.31,54,54,0,0,1,11.56-18.36,55.31,55.31,0,0,1,18.23-12.37,63,63,0,0,1,44.88-1,53.89,53.89,0,0,1,16.72,9.93q-3-.54-6.39-.81c-2.27-.18-4.58-.28-6.93-.28a74.06,74.06,0,0,0-29,5.44,63.69,63.69,0,0,0-21.9,15,67.5,67.5,0,0,0-13.87,22.17,74.43,74.43,0,0,0-4.9,27.07,110.55,110.55,0,0,0,.82,13.6,58.75,58.75,0,0,1-9.79-17.28A59.93,59.93,0,0,1,2373.47,119.14Zm82.15,143.61a129.87,129.87,0,0,1-35.91-4.76,118.4,118.4,0,0,1-30.46-13.46,148.85,148.85,0,0,0,41.89,5.71q30.18,0,54.4-10.34A121.31,121.31,0,0,0,2553,170.27a140.71,140.71,0,0,0,9.25-51.13,147.9,147.9,0,0,0-5.71-41.62A130.1,130.1,0,0,1,2566.32,190a113.68,113.68,0,0,1-23.94,37.81,112,112,0,0,1-37.53,25.57Q2482.81,262.75,2455.62,262.75Z"/><path class="cls-7" d="M2584.82,63.92a82.12,82.12,0,0,1,3.67-24.75,56,56,0,0,1,11.29-20.4A52.9,52.9,0,0,1,2619.22,5q11.84-5,28.16-5t28.15,5A52.94,52.94,0,0,1,2695,18.77a56,56,0,0,1,11.28,20.4,82.12,82.12,0,0,1,3.68,24.75V198.83a82,82,0,0,1-3.68,24.75A56,56,0,0,1,2695,244a52.71,52.71,0,0,1-19.45,13.74q-11.84,5-28.15,5t-28.16-5A52.67,52.67,0,0,1,2599.78,244a56,56,0,0,1-11.29-20.4,82,82,0,0,1-3.67-24.75Zm40.8,93.84,43.52-93.84A26.23,26.23,0,0,0,2664,47.6q-5.17-6.8-16.59-6.8t-16.6,6.8a26.22,26.22,0,0,0-5.16,16.32ZM2647.38,222q11.41,0,16.59-6.8a26.21,26.21,0,0,0,5.17-16.32V105l-43.52,93.84a26.2,26.2,0,0,0,5.16,16.32Q2636,222,2647.38,222Z"/><path class="cls-7" d="M2982.75,131.38a140.5,140.5,0,0,1-9.25,51.13,122.29,122.29,0,0,1-67.72,69.91q-24.22,10.34-54.4,10.33T2797,252.42a122.26,122.26,0,0,1-67.73-69.91,140.5,140.5,0,0,1-9.25-51.13,140.59,140.59,0,0,1,9.25-51.14A122.21,122.21,0,0,1,2797,10.34Q2821.18,0,2851.38,0t54.4,10.34a122.23,122.23,0,0,1,67.72,69.9A140.59,140.59,0,0,1,2982.75,131.38Zm-41.07,68q0-12-8.3-28.43a211.87,211.87,0,0,0-21.89-34,384.89,384.89,0,0,0-65.42-65.41,210.84,210.84,0,0,0-34-21.9q-16.46-8.3-28.42-8.3-10.07,0-16.19,5.85t-6.12,16.19q0,9,4.76,20.67a147.2,147.2,0,0,0,13.06,24.48,282.1,282.1,0,0,0,19.45,26.25q11.14,13.46,23.66,26t26,23.67a281.06,281.06,0,0,0,26.25,19.44A146.46,146.46,0,0,0,2899,216.92q11.68,4.76,20.67,4.76,10.33,0,16.18-6.12T2941.68,199.38Z"/><path class="cls-7" d="M3137.79,148.24h40.26V114.51h-49.23a132.62,132.62,0,0,0,2.72-15.23q1.08-7.07,1.9-17.27t.82-22.44q0-12.24-.82-22.31t-1.9-17.4a149.26,149.26,0,0,0-2.72-15.24h121.31a128.24,128.24,0,0,0-4.35,15.24q-1.64,7.34-3,17.4a166.93,166.93,0,0,0-1.36,22.31A169.93,169.93,0,0,0,3242.78,82q1.36,10.2,3,17.27a110.64,110.64,0,0,0,4.35,15.23h-55.76v33.73h55.76a143.29,143.29,0,0,0-2.72,15.23q-1.1,7.35-1.91,17.41t-.81,22.3q0,12.24.81,22.44t1.91,17.28a128.41,128.41,0,0,0,2.72,15.23h-85.68l-56-143.62H3068.7v33.73h49.24a143.29,143.29,0,0,0-2.72,15.23q-1.09,7.35-1.91,17.41t-.81,22.3q0,12.24.81,22.44t1.91,17.28a128.41,128.41,0,0,0,2.72,15.23H2996.62A110.56,110.56,0,0,0,3001,242.9q1.62-7.08,3-17.28a171.66,171.66,0,0,0,1.36-22.44,168.46,168.46,0,0,0-1.36-22.3q-1.36-10.06-3-17.41a127.45,127.45,0,0,0-4.36-15.23h55.76V114.51h-55.76a128.41,128.41,0,0,0,2.72-15.23q1.1-7.07,1.91-17.27t.81-22.44q0-12.24-.81-22.31t-1.91-17.4a144,144,0,0,0-2.72-15.24H3082Z"/><path class="cls-7" d="M3268.62,131.38a123.48,123.48,0,0,1,9.93-49.24,127.12,127.12,0,0,1,67.59-67.59,127,127,0,0,1,98.47,0,127.12,127.12,0,0,1,67.59,67.59,123.48,123.48,0,0,1,9.93,49.24,123.43,123.43,0,0,1-9.93,49.23,127.12,127.12,0,0,1-67.59,67.59,127,127,0,0,1-98.47,0,127.12,127.12,0,0,1-67.59-67.59A123.43,123.43,0,0,1,3268.62,131.38ZM3376.88,182a30.07,30.07,0,0,0-2-11.15,35.79,35.79,0,0,0-5.58-9.52l26.12-26.12,26.11,26.12a35.79,35.79,0,0,0-5.58,9.52,31.14,31.14,0,0,0,.55,23.52,32,32,0,0,0,16.86,16.87,31,31,0,0,0,24.75,0,34.54,34.54,0,0,0,10.2-6.8,31.69,31.69,0,0,0,6.94-10.07,31,31,0,0,0,0-24.75,32.95,32.95,0,0,0-17.14-17.13,30.81,30.81,0,0,0-23.39-.55,31.29,31.29,0,0,0-9.38,5.58l-26.12-26.11,26.12-26.12a31.29,31.29,0,0,0,9.38,5.58,30.87,30.87,0,0,0,23.39-.54,34.54,34.54,0,0,0,10.2-6.8,31.81,31.81,0,0,0,6.94-10.07,31,31,0,0,0,0-24.75,33,33,0,0,0-17.14-17.14,31,31,0,0,0-24.75,0,31.76,31.76,0,0,0-10.06,6.94,34.35,34.35,0,0,0-6.8,10.2,30.81,30.81,0,0,0-.55,23.39,31.34,31.34,0,0,0,5.58,9.39l-26.11,26.11-26.12-26.11a31.34,31.34,0,0,0,5.58-9.39,30.87,30.87,0,0,0-.54-23.39,33,33,0,0,0-17.14-17.14,31,31,0,0,0-24.75,0,31.81,31.81,0,0,0-10.07,6.94,34.73,34.73,0,0,0-6.8,10.2,31,31,0,0,0,0,24.75,31.93,31.93,0,0,0,16.87,16.87,31.23,31.23,0,0,0,23.53.54,36.11,36.11,0,0,0,9.52-5.58l26.11,26.12-26.11,26.11a36.11,36.11,0,0,0-9.52-5.58,31.17,31.17,0,0,0-23.53.55,31.62,31.62,0,0,0-10.07,6.93,34.73,34.73,0,0,0-6.8,10.2,31,31,0,0,0,0,24.75,31.93,31.93,0,0,0,16.87,16.87,31,31,0,0,0,24.75,0,34.54,34.54,0,0,0,10.2-6.8,31.69,31.69,0,0,0,6.94-10.07A30.27,30.27,0,0,0,3376.88,182Z"/></g></g></svg>