<?xml version="1.0" encoding="UTF-8" standalone="no"?><!DOCTYPE svg PUBLIC "-//W3C//DTD SVG 1.1//EN" "http://www.w3.org/Graphics/SVG/1.1/DTD/svg11.dtd"><svg width="100%" height="100%" viewBox="0 0 10 10" version="1.1" xmlns="http://www.w3.org/2000/svg" xmlns:xlink="http://www.w3.org/1999/xlink" xml:space="preserve" xmlns:serif="http://www.serif.com/" style="fill-rule:evenodd;clip-rule:evenodd;stroke-linejoin:round;stroke-miterlimit:1.41421;"><g><circle cx="4.8" cy="4.8" r="4.8" style="fill:#2a1c35;"/><clipPath id="_clip1"><circle cx="4.8" cy="4.8" r="4.8"/></clipPath><g clip-path="url(#_clip1)"><g><path d="M-0.418,-0.064l2.904,0l0,0.886l-1.452,0l0,0.282l0.766,0l0,0.655l-0.766,0l0,0.283l1.452,0l0,0.886l-2.904,0l0,-2.992Z" style="fill:#fff;fill-rule:nonzero;"/><path d="M2.685,-0.064l1.433,0l0,0.7l-0.467,0l0,0.491l0.311,0l0,0.61l-0.311,0l0,0.491l0.467,0l0,0.7l-1.433,0l0,-2.992Z" style="fill:#fff;fill-rule:nonzero;"/><path d="M4.685,-0.064l0.611,0l0.473,2.992l-0.732,0l-0.072,-0.533l-0.311,0l-0.078,0.533l-0.365,0l0.474,-2.992Zm0.028,2.054l0.196,0l-0.093,-0.699l-0.103,0.699Z" style="fill:#fff;fill-rule:nonzero;"/><path d="M6.274,-0.064l0.611,0l0.473,2.992l-0.483,0l-0.065,-0.469l-0.514,0l-0.069,0.469l-0.427,0l0.474,-2.992Zm0.09,2.054l0.384,0l-0.184,-1.361l-0.2,1.361Z" style="fill:#fff;fill-rule:nonzero;"/><path d="M0.323,5.492c0,-0.079 -0.019,-0.154 -0.057,-0.225c-0.039,-0.071 -0.087,-0.141 -0.145,-0.21c-0.058,-0.07 -0.122,-0.141 -0.19,-0.215c-0.069,-0.074 -0.132,-0.154 -0.19,-0.241c-0.058,-0.087 -0.107,-0.182 -0.145,-0.287c-0.039,-0.105 -0.058,-0.224 -0.058,-0.357c0,-0.102 0.014,-0.2 0.042,-0.292c0.028,-0.092 0.071,-0.172 0.13,-0.241c0.058,-0.068 0.132,-0.122 0.222,-0.162c0.091,-0.039 0.198,-0.059 0.323,-0.059c0.124,0 0.232,0.02 0.322,0.059c0.091,0.04 0.165,0.094 0.223,0.162c0.058,0.069 0.101,0.149 0.129,0.241c0.028,0.092 0.042,0.19 0.042,0.292l0,0.315l-0.592,0l0,-0.257c0,-0.049 -0.007,-0.088 -0.023,-0.117c-0.015,-0.029 -0.041,-0.043 -0.076,-0.043c-0.036,0 -0.062,0.014 -0.08,0.043c-0.017,0.029 -0.026,0.068 -0.026,0.117c0,0.079 0.02,0.154 0.059,0.225c0.039,0.07 0.089,0.141 0.148,0.21c0.059,0.07 0.123,0.141 0.192,0.214c0.068,0.072 0.132,0.152 0.191,0.239c0.059,0.086 0.109,0.182 0.148,0.285c0.04,0.104 0.059,0.221 0.059,0.352c0,0.107 -0.015,0.206 -0.045,0.298c-0.03,0.092 -0.075,0.173 -0.134,0.243c-0.059,0.069 -0.134,0.124 -0.224,0.163c-0.09,0.04 -0.195,0.06 -0.313,0.06c-0.125,0 -0.232,-0.021 -0.323,-0.061c-0.09,-0.041 -0.164,-0.099 -0.222,-0.174c-0.059,-0.074 -0.102,-0.164 -0.13,-0.268c-0.028,-0.103 -0.042,-0.219 -0.042,-0.348l0,-0.218l0.58,0l0,0.257c0,0.049 0.008,0.088 0.023,0.117c0.016,0.029 0.041,0.043 0.076,0.043c0.036,0 0.062,-0.014 0.08,-0.043c0.018,-0.029 0.026,-0.068 0.026,-0.117Z" style="fill:#fff;fill-rule:nonzero;"/><path d="M1.563,5.299l0,0.154c0,0.122 0.022,0.22 0.066,0.292c0.043,0.073 0.115,0.109 0.215,0.109c0.093,0 0.163,-0.03 0.21,-0.091c0.047,-0.061 0.07,-0.135 0.07,-0.223c0,-0.079 -0.024,-0.156 -0.073,-0.23c-0.049,-0.073 -0.111,-0.148 -0.185,-0.224c-0.075,-0.076 -0.155,-0.155 -0.24,-0.236c-0.086,-0.082 -0.165,-0.169 -0.24,-0.264c-0.075,-0.094 -0.137,-0.195 -0.186,-0.304c-0.048,-0.11 -0.073,-0.229 -0.073,-0.36c0,-0.094 0.014,-0.185 0.042,-0.271c0.028,-0.087 0.071,-0.163 0.13,-0.23c0.058,-0.066 0.132,-0.119 0.222,-0.159c0.091,-0.039 0.198,-0.059 0.323,-0.059c0.124,0 0.232,0.02 0.322,0.059c0.091,0.04 0.165,0.094 0.223,0.162c0.058,0.069 0.101,0.149 0.129,0.241c0.028,0.092 0.042,0.19 0.042,0.292l0,0.251l-0.436,0l0,-0.251c0,-0.083 -0.022,-0.155 -0.065,-0.215c-0.044,-0.06 -0.116,-0.09 -0.215,-0.09c-0.1,0 -0.172,0.03 -0.215,0.09c-0.044,0.06 -0.066,0.132 -0.066,0.215c0,0.08 0.025,0.156 0.074,0.23c0.048,0.074 0.11,0.149 0.185,0.226c0.075,0.077 0.155,0.157 0.24,0.239c0.085,0.083 0.165,0.171 0.24,0.265c0.074,0.094 0.136,0.196 0.185,0.307c0.049,0.11 0.073,0.23 0.073,0.361c0,0.094 -0.015,0.184 -0.045,0.271c-0.03,0.087 -0.075,0.163 -0.134,0.23c-0.059,0.066 -0.134,0.119 -0.224,0.158c-0.091,0.04 -0.195,0.06 -0.313,0.06c-0.125,0 -0.232,-0.021 -0.323,-0.061c-0.09,-0.041 -0.164,-0.099 -0.222,-0.174c-0.059,-0.074 -0.102,-0.164 -0.13,-0.268c-0.028,-0.103 -0.042,-0.219 -0.042,-0.348l0,-0.154l0.436,0Z" style="fill:#fff;fill-rule:nonzero;"/><path d="M2.81,3.258l1.495,0l0,0.635l-0.358,0l0,2.356l-0.779,0l0,-2.356l-0.358,0l0,-0.635Z" style="fill:#fff;fill-rule:nonzero;"/><path d="M4.473,3.258l2.904,0l0,0.886l-1.452,0l0,0.282l0.766,0l0,0.655l-0.766,0l0,0.282l1.452,0l0,0.886l-2.904,0l0,-2.991Z" style="fill:#fff;fill-rule:nonzero;"/><path d="M2.486,9.571c-0.2,0.03 -0.378,0.037 -0.535,0.021c-0.157,-0.016 -0.295,-0.049 -0.414,-0.097c-0.12,-0.048 -0.222,-0.108 -0.309,-0.181c-0.086,-0.073 -0.158,-0.15 -0.218,-0.231c-0.059,-0.081 -0.106,-0.164 -0.141,-0.247c-0.036,-0.084 -0.063,-0.16 -0.083,-0.228c-0.02,-0.069 -0.033,-0.126 -0.04,-0.172c-0.008,-0.046 -0.011,-0.073 -0.011,-0.082l0,1.217l-1.153,0l0,-2.992l1.953,0c0.146,0 0.277,0.023 0.394,0.069c0.118,0.046 0.218,0.109 0.301,0.189c0.083,0.081 0.146,0.176 0.19,0.286c0.044,0.11 0.066,0.23 0.066,0.358c0,0.128 -0.022,0.246 -0.066,0.353c-0.044,0.107 -0.107,0.199 -0.19,0.276c-0.083,0.077 -0.183,0.137 -0.301,0.178c-0.117,0.042 -0.248,0.063 -0.394,0.063l-0.003,0c0.046,0.03 0.099,0.057 0.159,0.08c0.06,0.024 0.129,0.042 0.207,0.055c0.078,0.013 0.166,0.019 0.264,0.017c0.097,-0.001 0.205,-0.012 0.324,-0.033l0,1.101Zm-1.219,-2.058c0,-0.096 -0.027,-0.169 -0.081,-0.218c-0.054,-0.049 -0.13,-0.074 -0.23,-0.074l-0.221,0l0,0.584l0.221,0c0.1,0 0.176,-0.024 0.23,-0.074c0.054,-0.049 0.081,-0.122 0.081,-0.218Z" style="fill:#fff;fill-rule:nonzero;"/><path d="M2.841,6.579l0.71,0c0.125,0 0.232,0.02 0.322,0.059c0.091,0.04 0.166,0.094 0.225,0.163c0.059,0.068 0.103,0.148 0.132,0.24c0.029,0.092 0.044,0.19 0.044,0.292l0,0.386c0,0.141 -0.024,0.264 -0.07,0.37c-0.047,0.106 -0.114,0.19 -0.201,0.252l0.333,1.23l-0.688,0l-0.203,-1.04l0,1.04l-0.604,0l0,-2.992Zm0.604,0.652l0,0.687l0.106,0c0.071,0 0.106,-0.054 0.106,-0.161l0,-0.366c0,-0.107 -0.035,-0.16 -0.106,-0.16l-0.106,0Z" style="fill:#fff;fill-rule:nonzero;"/><path d="M4.473,9.571l0,-2.992l0.997,0l0.598,0.681l0,-0.681l1.309,0l0,2.992l-0.997,0l-0.598,-0.681l0,0.681l-1.309,0Zm0.754,-0.617l0,-1.521l1.396,1.521l0.156,0l0,-1.759l-0.156,0l0,1.522l-1.396,-1.522l-0.156,0l0,1.759l0.156,0Z" style="fill:#fff;fill-rule:nonzero;"/></g></g></g></svg>