<svg xmlns="http://www.w3.org/2000/svg" viewBox="0 0 3521.31 263.02"><defs><style>.cls-1{fill:#7396c5;}.cls-2{fill:#acceed;}.cls-3{fill:#557fb5;}.cls-4{fill:#b03e32;}.cls-5{fill:#e29d88;}.cls-6{fill:#290a3b;}</style></defs><title>Asset 2</title><g id="Layer_2" data-name="Layer 2"><g id="Layer_1-2" data-name="Layer 1"><path class="cls-1" d="M68.54,194.21a38.28,38.28,0,0,0-5-19,109.6,109.6,0,0,0-12.65-17.82q-7.61-8.83-16.59-18.22a166.36,166.36,0,0,1-16.59-20.4A112.62,112.62,0,0,1,5,94.38Q0,81.06,0,64.19A82.12,82.12,0,0,1,3.67,39.44,56.19,56.19,0,0,1,15,19,52.86,52.86,0,0,1,34.41,5.3q11.84-5,28.15-5t28.15,5A52.94,52.94,0,0,1,110.16,19a56.33,56.33,0,0,1,11.29,20.4,82.12,82.12,0,0,1,3.67,24.75V90.85H73.44V69.09q0-6.26-2-9.93a7,7,0,0,0-6.66-3.67,7.65,7.65,0,0,0-6.94,3.67q-2.31,3.68-2.31,9.93a37.54,37.54,0,0,0,5.17,19,111.21,111.21,0,0,0,12.92,17.81Q81.32,114.79,90.3,124A166.66,166.66,0,0,1,107,144.3,114,114,0,0,1,120,168.5a81.28,81.28,0,0,1,5.17,29.79,78.86,78.86,0,0,1-3.94,25.29,59.67,59.67,0,0,1-11.7,20.54A53.28,53.28,0,0,1,89.9,258q-11.84,5-27.34,5-16.32,0-28.15-5.16A50.08,50.08,0,0,1,15,243.17,62.89,62.89,0,0,1,3.67,220.46,110,110,0,0,1,0,190.94V172.45H50.59v21.76q0,6.25,2,9.93a7.05,7.05,0,0,0,6.67,3.67,7.66,7.66,0,0,0,6.93-3.67Q68.54,200.47,68.54,194.21Z"/><path class="cls-1" d="M204.54,194.21a38.28,38.28,0,0,0-5-19,109.6,109.6,0,0,0-12.65-17.82q-7.61-8.83-16.59-18.22a166.36,166.36,0,0,1-16.59-20.4A112.62,112.62,0,0,1,141,94.38q-5-13.32-5-30.19a82.12,82.12,0,0,1,3.67-24.75A56.19,56.19,0,0,1,151,19,52.86,52.86,0,0,1,170.41,5.3q11.84-5,28.15-5t28.15,5A52.94,52.94,0,0,1,246.16,19a56.33,56.33,0,0,1,11.29,20.4,82.12,82.12,0,0,1,3.67,24.75V90.85H209.44V69.09q0-6.26-2-9.93a7,7,0,0,0-6.66-3.67,7.65,7.65,0,0,0-6.94,3.67q-2.31,3.68-2.31,9.93a37.54,37.54,0,0,0,5.17,19,111.21,111.21,0,0,0,12.92,17.81q7.74,8.85,16.72,18.09A166.66,166.66,0,0,1,243,144.3,114,114,0,0,1,256,168.5a81.28,81.28,0,0,1,5.17,29.79,78.86,78.86,0,0,1-3.94,25.29,59.67,59.67,0,0,1-11.7,20.54A53.28,53.28,0,0,1,225.9,258q-11.84,5-27.34,5-16.32,0-28.15-5.16A50.08,50.08,0,0,1,151,243.17a62.89,62.89,0,0,1-11.29-22.71A110,110,0,0,1,136,190.94V172.45h50.59v21.76q0,6.25,2,9.93a7.05,7.05,0,0,0,6.67,3.67,7.66,7.66,0,0,0,6.93-3.67Q204.54,200.47,204.54,194.21Z"/><path class="cls-2" d="M310.08,177.89v13.05q0,15.51,5.71,24.76t18.77,9.24q12.24,0,18.36-7.75t6.12-18.9a34.11,34.11,0,0,0-6.39-19.45,129.11,129.11,0,0,0-16.19-19q-9.78-9.65-20.94-20a219.48,219.48,0,0,1-20.94-22.31,119.55,119.55,0,0,1-16.19-25.84A71.89,71.89,0,0,1,272,61.2a72.09,72.09,0,0,1,3.67-23A54.23,54.23,0,0,1,287,18.77,54.46,54.46,0,0,1,306.41,5.3q11.83-5,28.15-5t28.15,5A52.94,52.94,0,0,1,382.16,19a56.33,56.33,0,0,1,11.29,20.4,82.12,82.12,0,0,1,3.67,24.75V85.41H359V64.19A29.49,29.49,0,0,0,353.33,46q-5.71-7.62-18.77-7.62T315.79,46a29.49,29.49,0,0,0-5.71,18.22,34.11,34.11,0,0,0,6.39,19.45,134.53,134.53,0,0,0,16.19,19.18q9.78,9.78,20.94,20.26a233.27,233.27,0,0,1,20.94,22.44,118.55,118.55,0,0,1,16.19,26,72.86,72.86,0,0,1,6.39,30.6,67.85,67.85,0,0,1-3.94,23,56.64,56.64,0,0,1-11.7,19.45A55.84,55.84,0,0,1,361.9,258q-11.83,5-27.34,5-16.32,0-28.15-5.16A50.08,50.08,0,0,1,287,243.17a62.89,62.89,0,0,1-11.29-22.71A110,110,0,0,1,272,190.94V177.89Z"/><path class="cls-2" d="M446.08,177.89v13.05q0,15.51,5.71,24.76t18.77,9.24q12.24,0,18.36-7.75t6.12-18.9a34.11,34.11,0,0,0-6.39-19.45,129.11,129.11,0,0,0-16.19-19q-9.78-9.65-20.94-20a219.48,219.48,0,0,1-20.94-22.31,119.55,119.55,0,0,1-16.19-25.84A71.89,71.89,0,0,1,408,61.2a72.09,72.09,0,0,1,3.67-23A54.23,54.23,0,0,1,423,18.77,54.46,54.46,0,0,1,442.41,5.3q11.83-5,28.15-5t28.15,5A52.94,52.94,0,0,1,518.16,19a56.33,56.33,0,0,1,11.29,20.4,82.12,82.12,0,0,1,3.67,24.75V85.41H495V64.19A29.49,29.49,0,0,0,489.33,46q-5.71-7.62-18.77-7.62T451.79,46a29.49,29.49,0,0,0-5.71,18.22,34.11,34.11,0,0,0,6.39,19.45,134.53,134.53,0,0,0,16.19,19.18q9.78,9.78,20.94,20.26a233.27,233.27,0,0,1,20.94,22.44,118.55,118.55,0,0,1,16.19,26,72.86,72.86,0,0,1,6.39,30.6,67.85,67.85,0,0,1-3.94,23,56.64,56.64,0,0,1-11.7,19.45A55.84,55.84,0,0,1,497.9,258q-11.83,5-27.34,5-16.32,0-28.15-5.16A50.08,50.08,0,0,1,423,243.17a62.89,62.89,0,0,1-11.29-22.71A110,110,0,0,1,408,190.94V177.89Z"/><path class="cls-3" d="M728.69,258.4H547.81V199.1h51.68V64.19H547.81V4.9H717q20.4,0,36.86,6.12a83.22,83.22,0,0,1,28,16.86,73.22,73.22,0,0,1,17.82,25.7A83.12,83.12,0,0,1,805.94,86q0,18.51-6.53,33.19a71.89,71.89,0,0,1-18.23,25,81.36,81.36,0,0,1-28,15.91A111.29,111.29,0,0,1,717,165.65H670.21V199.1h58.48ZM670.21,64.19v46.52h29.37q14.14,0,21.63-6.4T728.69,87q0-11.15-7.48-17t-21.63-5.85Z"/><path class="cls-2" d="M816,4.9h62q16.32,0,28.15,5a54.19,54.19,0,0,1,19.58,13.73,56.74,56.74,0,0,1,11.56,20.4,79.45,79.45,0,0,1,3.81,24.76v46.24a106.22,106.22,0,0,1-3.81,29.51,63.16,63.16,0,0,1-11.56,22.71A51.17,51.17,0,0,1,906.17,182q-11.83,5.17-28.15,5.17h-9.25V258.4H816Zm52.77,55.21v71.81H878q9.24,0,9.24-13.6V73.71q0-13.59-9.24-13.6Z"/><path class="cls-2" d="M956.35,245.62V15q0-6.8,1.5-8.3c1-1,3.67-1.49,8-1.49q19.59,0,39-.14t39-.13q21.48,0,42.84.27t42.56,1.63a200.89,200.89,0,0,1,21.22,2.31A92,92,0,0,1,1171.23,15a72.41,72.41,0,0,1,18.23,11,54,54,0,0,1,13.87,17.81,86.53,86.53,0,0,1,8.57,29.92q1.49,15.51,1.49,30.47,0,12-.81,23.66a207.52,207.52,0,0,1-3,23.39q-7.33,41.09-47.6,51.14a194.55,194.55,0,0,1-42.43,5.71q-21.77.55-43,.54c-3.27,0-5.35.41-6.26,1.23s-1.36,3-1.36,6.39V249.7c0,3.8-.54,6.21-1.63,7.2s-3.45,1.5-7.07,1.5q-23.13,0-45.7-.14t-45.7-.13a44.36,44.36,0,0,1-6.66-.41,6.78,6.78,0,0,1-3.81-1.63,6.63,6.63,0,0,1-1.63-3.67A44,44,0,0,1,956.35,245.62Zm9-202.1a1.2,1.2,0,0,0,1.36-1.36.8.8,0,0,0-.55-.27.24.24,0,0,1-.27-.27,1.48,1.48,0,0,0-.68.54,3.89,3.89,0,0,1-.68.82C964.87,43.34,965.15,43.52,965.33,43.52Zm8.43,120.77c-.73.73-1.36,1.32-1.9,1.77a2.48,2.48,0,0,0-.82,2,3.38,3.38,0,0,0,1.22,2,3.67,3.67,0,0,0,2.59,1.22,2.82,2.82,0,0,0,1.77-.82,2.44,2.44,0,0,0,1-1.9c0-.72-.55-1.54-1.63-2.45S974.12,164.65,973.76,164.29Zm22.85,9a4.43,4.43,0,0,1,.13-1.08,4.59,4.59,0,0,0,.14-1.09c0-.91-.64-1.5-1.9-1.77s-1.91-.86-1.91-1.77a5.16,5.16,0,0,1,.27-1.63,5.17,5.17,0,0,0,.28-1.63c0-1.27-.73-1.91-2.18-1.91a10.33,10.33,0,0,0-6.12,2.32,38.42,38.42,0,0,0-5.71,5.16,32.75,32.75,0,0,0-4.22,5.72,10.25,10.25,0,0,0-1.63,3.94,1.35,1.35,0,0,0,1.36,1.5c.91.09,1.86.13,2.86.13a10,10,0,0,1,2.85.41,1.88,1.88,0,0,1,1.36,2,8.41,8.41,0,0,1-.13,1.36,9,9,0,0,0-.14,1.63,3.45,3.45,0,0,0,.68,2,2.32,2.32,0,0,0,2,1,12.3,12.3,0,0,0,3.54-.68,29.81,29.81,0,0,0,4.35-1.76,16.69,16.69,0,0,0,3.81-2.59,4.29,4.29,0,0,0,1.63-3.13,4.15,4.15,0,0,0-1.09-2.44,4.08,4.08,0,0,1-1.09-2.45,3.61,3.61,0,0,1,.41-1.63A3.68,3.68,0,0,0,996.61,173.26Zm-22.85-9q.54,0,.54-.27v-.55C974.3,163.66,974.12,163.93,973.76,164.29Zm1.9-18.5a.72.72,0,0,0,.82-.81c0-1.09-.45-1.64-1.36-1.64-.73.37-1.09.82-1.09,1.37A1.45,1.45,0,0,0,975.66,145.79Zm5.72,94.66a8.52,8.52,0,0,1,1.49.13,7,7,0,0,0,1.5.14c.72,0,1.09-.45,1.09-1.36,0-.54-.55-1.09-1.64-1.63s-2.22-1.09-3.4-1.63a50.72,50.72,0,0,0-5-1.91c-.91,0-1.36.64-1.36,1.91a3.38,3.38,0,0,0,2.59,3.53A15.67,15.67,0,0,0,981.38,240.45Zm-1.91-139.27c-.91,0-1.36.37-1.36,1.09,0,.37.45,1,1.36,1.91a1.45,1.45,0,0,0,1.63-1.64C981.1,101.64,980.56,101.18,979.47,101.18Zm0-60.65a2.36,2.36,0,0,0-1.09,1.9c0,1.27.37,1.91,1.09,1.91.55,0,.91-.41,1.09-1.23a9.24,9.24,0,0,0,.27-1.77C980.83,40.8,980.38,40.53,979.47,40.53ZM980.83,31l-1.09-.55c0,.37-.09.59-.27.68a.45.45,0,0,0-.27.41l1.09.55Zm.27,145.52a.78.78,0,0,1-.27.54,2.37,2.37,0,0,0-.68-.27c-.09,0-.13-.27-.13-.82Zm4.63-131.11c-1.09,0-1.63.64-1.63,1.91a1.92,1.92,0,0,0,2.17,2.17c1.09,0,1.63-.72,1.63-2.17C987.9,46.42,987.18,45.79,985.73,45.42Zm.81,48.69a1.57,1.57,0,0,0,.28-1.09c0-.54-.46-.81-1.36-.81a1.2,1.2,0,0,0-1.36,1.36c0,.54.36.91,1.08,1.09a1.07,1.07,0,0,0,.82-.28A.82.82,0,0,1,986.54,94.11Zm-1.9-37.53c0,.72.27,1.08.82,1.08.72,0,1.13-.27,1.22-.81a10.51,10.51,0,0,1,.41-1.63c-.55.18-1,.32-1.36.4A2.06,2.06,0,0,0,984.64,56.58Zm1.09,55.48-.27-.27a1.57,1.57,0,0,0-.55,1.09.78.78,0,0,0,.55.27.58.58,0,0,1,.13-.41C985.68,112.66,985.73,112.43,985.73,112.06Zm3.81,21.49a8.65,8.65,0,0,0-2.18,1.63,3.39,3.39,0,0,0-1.09,2.45c0,.55.64,1,1.91,1.36,1.08,0,1.76-.36,2-1.09a7.85,7.85,0,0,0,.4-2.72A1.46,1.46,0,0,0,989.54,133.55Zm-2.18,80.24.27-.54-.54.27Zm1.36-158.57a.73.73,0,0,0,.82-.82c0-.18-.19-.27-.55-.27a2.25,2.25,0,0,0-1.36.81A1.54,1.54,0,0,0,988.72,55.22Zm.54-15c1.09,0,1.64-.37,1.64-1.09a1.61,1.61,0,0,0-.55-1.09,1.56,1.56,0,0,0-1.09-.54c-.72,0-1.08.45-1.08,1.36a.9.9,0,0,0,.4.81A4,4,0,0,1,989.26,40.26Zm.28-9.25a1.56,1.56,0,0,0-1.09.54.74.74,0,0,0,.54.27C989.35,31.82,989.54,31.55,989.54,31Zm.81,66.09q0-1.08-.81-1.08a.82.82,0,1,0,0,1.63.44.44,0,0,0,.4-.27A.45.45,0,0,1,990.35,97.1Zm.27,108.8A2.59,2.59,0,0,0,992.8,207c.72-.36,1.09-.63,1.09-.81,0-.91-.18-1.41-.55-1.5a5.68,5.68,0,0,0-1.36-.14C991.07,204.91,990.62,205.36,990.62,205.9ZM992,73.44c.18,0,.45-.18.82-.54v-.28l-.27-.27a1.15,1.15,0,0,0-.82.27.51.51,0,0,0,.14.41A.58.58,0,0,1,992,73.44Zm.82,142.8c-.37-.36-.54-.63-.54-.82l-.55.55c.36.36.55.64.55.81ZM993.62,49l-.82-.82L992,49c.37.37.64.54.82.54S993.25,49.33,993.62,49Zm.54,162.66a1.61,1.61,0,0,0-1.09-.55.48.48,0,0,0-.54.55c0,.72.27,1.09.81,1.09.37,0,.5-.09.41-.28S993.79,212,994.16,211.62Zm-.27,15.5-.82.82c.36.36.64.54.82.54s.45-.18.81-.54ZM995,60.93a1.13,1.13,0,0,0-.28-.82,1.6,1.6,0,0,0-1.08.27.55.55,0,0,0,.13.41,1.1,1.1,0,0,1,.14.68Zm-.55,58.75-.27-.54-.27.54Zm1.63,24.21c0-.91-.36-1.36-1.08-1.36l-.82.81a.82.82,0,0,0-.27.55c0,.54.36.82,1.09.82S996.06,144.43,996.06,143.89Zm3-9.79a2.56,2.56,0,0,1-1.36-.55,3,3,0,0,0-1.64-.54,2.05,2.05,0,0,0-1.22.54,2.34,2.34,0,0,0-.68,1.91,2.61,2.61,0,0,0,1,1.76,9.59,9.59,0,0,0,2.18,1.64c.81.45,1.63.86,2.45,1.22a5.59,5.59,0,0,0,1.49.54,4.23,4.23,0,0,0,2.59-1.36,4,4,0,0,0,1.49-3,2,2,0,0,0-.95-1.9,3.65,3.65,0,0,0-1.77-.55,10,10,0,0,0-1.63.14A11.71,11.71,0,0,1,999.06,134.1Zm-4.9,109.61.54-.27-.54-.27Zm3.26-86.49c0-.73-.45-1.09-1.36-1.09q-1.08,0-1.08.81c0,.73.45,1.27,1.36,1.64C997.06,158.58,997.42,158.13,997.42,157.22Zm1.64-105.81c-.37-1.45-.82-2.18-1.36-2.18-.91,0-1.55.73-1.91,2.18a22.68,22.68,0,0,0-.54,2.45,1,1,0,0,0,1.09,1.08,1.92,1.92,0,0,0,1.9-1.22A15.79,15.79,0,0,0,999.06,51.41Zm.54,167a13.41,13.41,0,0,1-1.09-1.23,1.67,1.67,0,0,0-1.36-.68.48.48,0,0,0-.54.55,6,6,0,0,0,.41,2.17,1.67,1.67,0,0,0,1.76,1.09c.37,0,.59-.22.68-.68A6.34,6.34,0,0,0,999.6,218.42Zm4.9,7.34c0-.9-.32-1.45-1-1.63a6.45,6.45,0,0,0-1.76-.27,5.59,5.59,0,0,0-2.45.68,2.17,2.17,0,0,0-1.36,2c0,.72.63,1.08,1.9,1.08A7.71,7.71,0,0,0,1004.5,225.76Zm-5.72-17.68a.56.56,0,0,1-.13.41c-.1.09-.14.32-.14.68l.55.27.81-1.09a1.1,1.1,0,0,1-.68-.13A.56.56,0,0,0,998.78,208.08Zm4.9-24.48a2.42,2.42,0,0,1-1.22-.41,2.51,2.51,0,0,0-1.23-.41,2.21,2.21,0,0,0-1.63,1.09c0,1.09.45,1.63,1.36,1.63a12,12,0,0,0,2.45-1.49c1.45-1,2.08-1.4,1.9-1.23l.27-.27a.24.24,0,0,0-.27-.27C1005.13,182.24,1004.59,182.7,1003.68,183.6Zm1.09-144.43c-.73.18-1.09.54-1.09,1.09,0,.91.27,1.36.82,1.36a2,2,0,0,0,.81-.28.86.86,0,0,0,.55-.81C1005.86,39.62,1005.49,39.17,1004.77,39.17Zm.27,126.21.27.54v-.54Zm1.63-109.62-.54-.27-.55.54c0,.18.09.27.28.27h.81Zm3.27,40.53c-1.82.36-2.72,1.36-2.72,3a1.92,1.92,0,0,0,2.17,2.18,3.25,3.25,0,0,0,3-3.54C1012.38,97.2,1011.57,96.65,1009.94,96.29Zm-1.09,122.13c-.55.54-.82.91-.82,1.08,0,.55.36.82,1.09.82a1.56,1.56,0,0,0,.54-1.09Zm0,21.21.81-1.09q-.54-.54-.81-.54c-.18,0-.46.18-.82.54Zm2.45-13c-1.27,0-1.91.27-1.91.81A1.44,1.44,0,0,0,1011,229a.72.72,0,0,0,.82-.81,5.9,5.9,0,0,0-.14-1C1011.61,226.81,1011.47,226.58,1011.3,226.58Zm3.53-166.2c0-1.81-.45-2.72-1.36-2.72a2.74,2.74,0,0,0-3,2.18,14.86,14.86,0,0,0-.54,3.54c0,1.08.27,1.63.81,1.63.72,0,1.5-.63,2.31-1.91Zm-3,56c-1.27,0-1.9.45-1.9,1.36a2.13,2.13,0,0,0,2.17,1.63,1.2,1.2,0,0,0,1.36-1.36C1013.47,117.33,1012.93,116.78,1011.84,116.42Zm-.27,93c1.45-.36,2.26-1,2.45-1.9a1.45,1.45,0,0,0-1.64-1.64c-1.63,0-2.44.91-2.44,2.72C1009.94,209.17,1010.48,209.44,1011.57,209.44Zm-.27-137.36.54-.54a.55.55,0,1,0-1.09,0Zm.81,123.76a.78.78,0,0,1-.54.27l-.27.27c0,.37.17.55.54.55a.24.24,0,0,1,.27-.27c.36,0,.55-.09.55-.28ZM1014.83,31c-.36-.36-.54-.59-.54-.68s-.18-.14-.55-.14-.54.27-.54.82a.72.72,0,0,0,.82.81Zm-1.63,93.84c0,.91.36,1.36,1.09,1.36a1.07,1.07,0,0,0,.81-1.09.78.78,0,0,0-.27-.54,1.11,1.11,0,0,1-.27-.82C1013.65,124.13,1013.2,124.49,1013.2,124.85Zm1.36-87.59-.82-.81a.78.78,0,0,0-.27.54.51.51,0,0,0,.14.41.56.56,0,0,1,.13.41C1014.11,37.45,1014.38,37.26,1014.56,37.26Zm-.82,3.81-.27.27a.78.78,0,0,0,.27.55c0,.18.09.27.28.27l.54-.54C1014.56,41.25,1014.29,41.07,1013.74,41.07Zm3.27,52.5c-.37-.55-.73-.82-1.09-.82-.54,0-.82.37-.82,1.09.37.73.73,1.09,1.09,1.09C1016.74,94.93,1017,94.48,1017,93.57Zm0,28.83c-.37-.36-.55-.63-.55-.82l-1.36,1.36ZM1026.8,201a5,5,0,0,0-1.22-2.72,22.11,22.11,0,0,0-2.72-3,35.88,35.88,0,0,0-3-2.45,4.7,4.7,0,0,0-2.58-1.09,1.43,1.43,0,0,0-1.22.54,1.63,1.63,0,0,0-.41.82A5.26,5.26,0,0,0,1017,196a33.84,33.84,0,0,0,3,3.4,24.82,24.82,0,0,0,3.4,2.85,5.61,5.61,0,0,0,2.58,1.23c.37,0,.59-.32.68-1A11.39,11.39,0,0,0,1026.8,201Zm-4.9,31.82a2.11,2.11,0,0,1-1.49-1.09,5.74,5.74,0,0,1-.55-1.76,4.4,4.4,0,0,0-.54-1.64,1.61,1.61,0,0,0-1.5-.68c-1.27,0-2,.73-2,2.18s-.13,2.63-.13,3.54c0,1.81,1,2.72,3,2.72Q1021.36,236.1,1021.9,232.83ZM1019.18,79.7a.56.56,0,0,1,.14-.41.56.56,0,0,0,.14-.41c0-.91-.55-1.36-1.64-1.36a1.44,1.44,0,0,0-1.63,1.63c0,.91.55,1.36,1.63,1.36A1.59,1.59,0,0,0,1019.18,79.7Zm.28,143.07c0-.91-.37-1.36-1.09-1.36-.91,0-1.36.36-1.36,1.09,0,.91.36,1.36,1.09,1.36Zm2.72-86.77a1.07,1.07,0,0,1-.28-.82,4.45,4.45,0,0,1,.14-1.08,4.53,4.53,0,0,0,.14-1.09,1.2,1.2,0,0,0-1.36-1.36,1.57,1.57,0,0,0-1.64,1.49c-.18,1-.36,1.87-.54,2.59a7.9,7.9,0,0,0,.68,3,2.35,2.35,0,0,0,2.31,1.63c.55,0,.82-.36.82-1.09a11.54,11.54,0,0,0-.14-1.49A12.73,12.73,0,0,1,1022.18,136Zm-.55,8.71a13.93,13.93,0,0,0-2,.67,1.72,1.72,0,0,0-1,1.77c0,.55.63.82,1.9.82l1.64-.55c.54-.17.81-.72.81-1.63C1023,145.07,1022.54,144.71,1021.63,144.71ZM1020.27,22a1.19,1.19,0,0,1-.54-.13,1.25,1.25,0,0,0-.55-.14.8.8,0,0,0-.27.54.76.76,0,0,0,.55.28h.54A.8.8,0,0,1,1020.27,22Zm.27,65.83,2.72-3.4a6,6,0,0,0,1.64-3.4c0-.91-.37-1.36-1.09-1.36a4,4,0,0,0-3.54,2.17,7.48,7.48,0,0,0-1.36,3.81A2.47,2.47,0,0,0,1020.54,87.86Zm.55,25.84c-.73,0-1.09.27-1.09.81a.64.64,0,0,0,.54.68,3.36,3.36,0,0,0,.82.14h1.36a4,4,0,0,1-.82-1.09A.86.86,0,0,0,1021.09,113.7Zm4.62,62.56a9,9,0,0,0-1-2.59,2.7,2.7,0,0,0-2.58-1.22c-1.27,0-1.91.54-1.91,1.63a4.64,4.64,0,0,0,1.09,3,3.33,3.33,0,0,0,2.72,1.36C1025.17,178.43,1025.71,177.71,1025.71,176.26Zm-3.53-112.34-.28-.27a.58.58,0,0,0-.4.13,1,1,0,0,1-.68.14l.54.54C1021.54,64.46,1021.81,64.29,1022.18,63.92ZM1021.9,96a1.28,1.28,0,0,0-1.08,1.36c0,.36.22.63.68.81a3.11,3.11,0,0,0,1.22.27q.54,0,.54-.81C1023.26,96.56,1022.81,96,1021.9,96Zm1.36,19.85a.8.8,0,0,0,.55-.27,1.11,1.11,0,0,1-.82-.27Q1023,115.87,1023.26,115.87ZM1024.62,226c-.36.37-.63.55-.81.55l.54.54.82-.54ZM1026,92.21c-.36-.55-.72-.82-1.08-.82-.55,0-.82.37-.82,1.09.36.73.63,1.09.82,1.09.36,0,.54-.14.54-.41A1.49,1.49,0,0,1,1026,92.21Zm.82-62.56A2.18,2.18,0,0,0,1025,31a5.62,5.62,0,0,0-.41,1.9c0,.73.28,1.09.82,1.09a1.68,1.68,0,0,0,1.77-1.09,6.18,6.18,0,0,0,.41-2.17A1.07,1.07,0,0,0,1026.8,29.65Zm-1.63,162.93q0,1.08.54,1.08a.48.48,0,0,0,.55-.54v-.82A1.55,1.55,0,0,1,1025.17,192.58Zm1.36-26.66c-.73,0-1.09.09-1.09.27,0,.37.09.5.27.41a.46.46,0,0,1,.55.14A1.15,1.15,0,0,0,1026.53,165.92Zm1.09-25.84-.55-1.09-.81.82a.56.56,0,0,0,.13.41.56.56,0,0,1,.14.4Zm2.17,89.76a1.8,1.8,0,0,1,.14-.82,1.86,1.86,0,0,0,.13-.81,3.43,3.43,0,0,0-.27-1.23,1.06,1.06,0,0,0-1.09-.68c-.72,0-1.08.46-1.08,1.36C1027.62,228.39,1028.34,229.12,1029.79,229.84Zm.82-53.31c0-.72-.18-1.09-.55-1.09-.72,0-1.08.27-1.08.82a.72.72,0,0,0,.81.81.44.44,0,0,0,.41-.27A.44.44,0,0,1,1030.61,176.53Zm5.71-81.06c-.91-.36-1.86-.72-2.86-1.09a8.37,8.37,0,0,0-2.85-.54c-.91,0-1.36.37-1.36,1.09a3.11,3.11,0,0,0,1.36,2.45,4.35,4.35,0,0,0,2.72,1.08A4.15,4.15,0,0,0,1036.32,95.47Zm-6,97.38-.28-.27-.27.27Zm.81,7.07a1.14,1.14,0,0,1-.41-1.09c.09-.36-.23-.54-1-.54a13.84,13.84,0,0,1,1.77,2.31,2.72,2.72,0,0,0,2.31,1.5,2.51,2.51,0,0,0,1.23-.41,1.34,1.34,0,0,0,.68-1.23,2.21,2.21,0,0,0-1.64-1.08,4.55,4.55,0,0,0-1.36.27,4.44,4.44,0,0,1-1.36.27Zm-1.36,29.92a8.34,8.34,0,0,0,.27,2.45.8.8,0,0,1,.55-.27c.18,0,.27-.18.27-.55S1030.51,230.57,1029.79,229.84Zm2.18-91.39h.54l-.27-.27Zm9.79,93.57a2.5,2.5,0,0,1-.68-1.5c-.09-.63-.32-1-.68-1a4.35,4.35,0,0,0-1.9,1,27.62,27.62,0,0,0-2.72,2.18l-2.45,2.17c-.73.64-1.09,1-1.09,1.23a.72.72,0,0,0,.82.81,6.32,6.32,0,0,0,2.17-.54,27,27,0,0,0,2.86-1.36,22.82,22.82,0,0,0,2.58-1.63C1041.39,232.83,1041.76,232.38,1041.76,232Zm-6.8-18.5a10,10,0,0,0-1.63.14.87.87,0,0,0-.82,1,9.52,9.52,0,0,0,1,3,3.08,3.08,0,0,0,2.86,2.18,1.7,1.7,0,0,0,1.9-1.5,16.09,16.09,0,0,0,.28-2.86c0-1.08-.41-1.67-1.23-1.76A21.15,21.15,0,0,0,1035,213.52Zm-1.09-145-.27.28h.54ZM1035,87.86a.82.82,0,0,0-.27-.55l-.55.55.28.27c.17,0,.27,0,.27-.14S1034.78,87.86,1035,87.86Zm0-56.58.54.54c.18,0,.55-.27,1.09-.81l-1.09-.55C1035.14,30.83,1035,31.1,1035,31.28Zm.82,103.63.54-.27a.73.73,0,0,0-.82-.82l-.27.55a.24.24,0,0,0,.27.27Zm2.17,47.33-.81-.82c-1.09.37-1.64,1-1.64,1.91a.72.72,0,0,0,.82.81C1037,184.14,1037.59,183.51,1038,182.24Zm3.27,12.51a3.68,3.68,0,0,0-3.54-2.45,1.68,1.68,0,0,0-1.36,1.91c0,1.09.31,1.77,1,2a5.89,5.89,0,0,0,2.31.41C1040.67,196.66,1041.22,196,1041.22,194.75Zm-1.64,9.79-1.08,1.64q0,1.08.81,1.08c.91,0,1.36-.54,1.36-1.63C1040.67,205.27,1040.31,204.91,1039.58,204.54Zm1.09-96.28a.43.43,0,0,1-.41-.28.45.45,0,0,0-.4-.27.25.25,0,0,0-.28.27c.73,0,1.27.6,1.64,1.77a36.48,36.48,0,0,1,1,4c.27,1.45.54,2.76.81,3.94s.77,1.77,1.5,1.77c1.27,0,2.31-.86,3.13-2.59a15,15,0,0,0,1.22-6.39c0-2-.36-3.3-1.09-3.94a3.33,3.33,0,0,0-2.17-.95,3.2,3.2,0,0,0-2.45,1.22A4.41,4.41,0,0,1,1040.67,108.26Zm0-35.36-.27-.28v.28Zm3-38.63a1.56,1.56,0,0,1-1.08-.54,1.08,1.08,0,0,1-.14.68.56.56,0,0,0-.14.41c0,.18.09.27.28.27l.27.27Zm-.54,156.4c0-.36-.27-.54-.82-.54,0,.54.09.81.28.81A.8.8,0,0,1,1043.12,190.67Zm2.72-64.46a1.75,1.75,0,0,0,1.63-1.91c-.36-1.08-.91-1.63-1.63-1.63-1.27,0-1.9.82-1.9,2.45C1044.11,125.85,1044.75,126.21,1045.84,126.21Zm.54,26.93a3,3,0,0,1,1.77-.68,1.3,1.3,0,0,0,1.23-1.5,2.22,2.22,0,0,0-.28-.82c-.18-.36-.63-.54-1.36-.54-2,.37-3,1.36-3,3a.72.72,0,0,0,.82.82.54.54,0,0,0,.41-.14A.54.54,0,0,1,1046.38,153.14Zm4.08-72.63a3.45,3.45,0,0,0-1.36-2.17,3.57,3.57,0,0,0-2.17-.82c-1.27,0-1.91.54-1.91,1.63q0,3.81,3.27,3.81C1049.38,83,1050.1,82.14,1050.46,80.51Zm-3.8,138.72c-.73,0-1.09.19-1.09.55a.24.24,0,0,0,.27.27h.54C1046.56,220.05,1046.66,219.78,1046.66,219.23ZM1047.47,40a8.75,8.75,0,0,0,3.54-2,5.07,5.07,0,0,0,1.63-3.94,1,1,0,0,0-1.09-1.09,5.29,5.29,0,0,0-3.94,1.91,5.91,5.91,0,0,0-1.77,4.08C1045.84,39.62,1046.38,40,1047.47,40Zm0-21.76a1.21,1.21,0,0,0-.54.14,1.25,1.25,0,0,1-.55.14c0,1.08.28,1.63.82,1.63.18,0,.45-.27.82-.82,0-.36-.1-.58-.28-.68A.43.43,0,0,1,1047.47,18.22Zm1.36,29.65c-1.27,0-1.9.91-1.9,2.72a5.11,5.11,0,0,0,.27,1.63c.18.55.72.82,1.63.82.55,0,.86-.45,1-1.36s.14-1.54.14-1.9A2.38,2.38,0,0,0,1048.83,47.87Zm-1.09,24.21a.78.78,0,0,1-.27-.54l-.54.27c0,.18,0,.27.13.27s.14.09.14.27c.18,0,.27,0,.27-.13S1047.56,72.08,1047.74,72.08Zm1.36-14.42c-.54,0-.81.19-.81.55q0,.27.54.27l.55-.27C1049.38,57.85,1049.28,57.66,1049.1,57.66Zm1.36,44.88c.37,0,.55-.08.55-.27a.48.48,0,0,0-.55-.54q-.27,0-.27.54A.23.23,0,0,0,1050.46,102.54Zm2.72,112.88c-.18-.17-.4-.4-.68-.68a1.3,1.3,0,0,0-1-.4,1,1,0,0,0-1.09,1.08c0,.91.55,1.36,1.64,1.36C1052.46,216.78,1052.82,216.33,1053.18,215.42Zm.82-49.23q0-.81-.54-.81a.48.48,0,0,0-.55.54l.55.54c.17,0,.27,0,.27-.13S1053.82,166.19,1054,166.19Zm.82-102.81c.54-.55.81-.91.81-1.09,0-.55-.36-.82-1.09-.82s-1.08.27-1.08.82C1053.46,63,1053.91,63.38,1054.82,63.38ZM1061.34,164h.55l-.55-1.09a.78.78,0,0,1-.54.27C1060.8,163.38,1061,163.66,1061.34,164Zm3.27-21.76a10,10,0,0,1-1.36-.55,3.08,3.08,0,0,0-1.36-.27c-.55,0-.82.18-.82.54a1.3,1.3,0,0,0,.82,1.23,12.53,12.53,0,0,0,1.63.68C1064.24,143.89,1064.61,143.34,1064.61,142.26Zm.81,41.34a1.53,1.53,0,0,0,.55-1.09l-1.09-.54c0,.18-.05.27-.14.27s-.13.09-.13.27l-.27.27Zm4.36-154.5c-1.09,0-1.64.73-1.64,2.18,0,.37.18.54.55.54,1.26,0,1.9-.54,1.9-1.63C1070.59,29.83,1070.32,29.47,1069.78,29.1Zm-.82,77c0,1.81,0,3.86-.14,6.12s-.13,4.58-.13,6.94c0,6,.58,10,1.77,12.1s3.85,3.13,8,3.13q11.43,0,16.59-7.75t5.17-18.64q0-15.76-4.49-21.76t-15.91-6q-6,0-8.43,1c-1.63.64-2.45,2.31-2.45,5Zm3.26-57.94-.27.28.27.27ZM1076,158.58l-.54-.82c-.55.54-.82.73-.82.54,0,.19.18.46.55.82C1075.39,159.12,1075.67,158.94,1076,158.58Zm1.36-15.78c0-.72-.27-1.09-.81-1.09a3.4,3.4,0,0,0-1,.27c-.45.19-.68.46-.68.82,0,.73.45,1.09,1.36,1.09C1076.67,143.89,1077,143.53,1077.39,142.8Zm.55,25.57c0-.18-.19-.27-.55-.27a.49.49,0,0,0,.14.4.58.58,0,0,1,.13.41A.79.79,0,0,0,1077.94,168.37Zm1.36-130.56a.64.64,0,0,0-.68.54,3.36,3.36,0,0,0-.14.82,1.26,1.26,0,0,0,.82,1.36c.54.18,1.26.45,2.17.81a9.83,9.83,0,0,0-1-2.31C1080.07,38.22,1079.66,37.81,1079.3,37.81Zm1.9,29.92c-.91,0-1.36.36-1.36,1.09,0,1.27.45,1.9,1.36,1.9a.89.89,0,0,0,.82-.54,2.61,2.61,0,0,0,.27-1.09C1082.29,68.54,1081.92,68.09,1081.2,67.73Zm1.63-25a1.21,1.21,0,0,0,1.36-1.37c0-.54-.36-.81-1.09-.81-.54,0-1,.36-1.36,1.09C1081.92,42.34,1082.29,42.71,1082.83,42.71ZM1085,172.45c-.91,0-1.36.18-1.36.54a2.2,2.2,0,0,0,.81,1.36,2.23,2.23,0,0,0,1.36.82,1,1,0,0,0,1.09-1.09C1086.91,173.36,1086.27,172.81,1085,172.45Zm4.62-31a2.23,2.23,0,0,1,1.63-.54,1,1,0,0,0,1.09-1.09c0-.91-.32-1.45-.95-1.63a8.59,8.59,0,0,0-2.31-.28,7.66,7.66,0,0,1-1.91.28c-.54,0-.81.45-.81,1.36A3.18,3.18,0,0,0,1089.63,141.44Zm-1.9-74.8.54-.54c-.18,0-.27-.09-.27-.28l-.27-.27a.24.24,0,0,0-.27.27.55.55,0,0,0,.13.41A.58.58,0,0,1,1087.73,66.64Zm3.26-9.52a.78.78,0,0,0,.55.27.82.82,0,0,0,.27-.54l-.55-.27A.78.78,0,0,0,1091,57.12Zm3,116.42c1.64,0,2.45-.64,2.45-1.91,0-.9-.72-1.36-2.17-1.36a3.68,3.68,0,0,0-1.64.41,1.3,1.3,0,0,0-.81,1.22,1.25,1.25,0,0,0,.81,1.36A4.31,4.31,0,0,0,1094,173.54Zm-.54-146.88,1.09-.55c0-.72-.27-1.09-.82-1.09a.76.76,0,0,1-.54.28l-.55.54Zm-.82,21.76a7.44,7.44,0,0,0,3.13,5.44A9.57,9.57,0,0,0,1101.6,56a13.55,13.55,0,0,0,3.67-.68q2.31-.68,2.31-2a2.12,2.12,0,0,0-.81-1.9,3,3,0,0,0-1.63-.55,10.09,10.09,0,0,0-1.64.14,9.87,9.87,0,0,1-1.63.14,6,6,0,0,1-4.89-2.32c-1.27-1.53-2.36-2.31-3.27-2.31-.72,0-1.09.27-1.09.82Zm2.72,16q0-.81-.54-.81Q1094.8,64.46,1095.34,64.46Zm8.16,75.62-1-1a1.31,1.31,0,0,0-1-.41q-.27,0-.27.54a2.2,2.2,0,0,0,.81,1.36A4.44,4.44,0,0,0,1103.5,140.08Zm0-73.71q-1.08,0-1.08.81a6.57,6.57,0,0,0,1.36,3.4c.9,1.36,1.81,2,2.72,2a1,1,0,0,0,1.08-1.08A8.15,8.15,0,0,0,1103.5,66.37Zm.28,89.49h-.55l.27.54Zm1.36-133a.82.82,0,0,0-.55-.27.24.24,0,0,0-.27.27l.27.27A.82.82,0,0,0,1105.14,22.85Zm4.62,122.4a1.07,1.07,0,0,0-1.09-.82,4,4,0,0,0-2.72,1.36,5.48,5.48,0,0,0-1.63,3c0,.55.36.82,1.09.82a3.32,3.32,0,0,0,2.58-1.77C1108.81,146.66,1109.39,145.79,1109.76,145.25Zm-4.9-112.88c.18,0,.28.05.28.13s.09.14.27.14v-.27a.78.78,0,0,0,.27-.55C1105.5,31.82,1105.23,32,1104.86,32.37Zm2.72-4.9-.27.27.27.28Zm3.81,10.61v-.54l-1.09.54a.81.81,0,0,1,.28.54Zm1.91,101.18-.28.55.55.54c.36,0,.54-.36.54-1.09Zm8.16-9.24c-.19-.73-.37-1.45-.55-2.18a1.29,1.29,0,0,0-1.36-1.09,2.68,2.68,0,0,0-1.49.82c-.64.54-1.32,1.18-2,1.9l-2.72,2.72c0,.55.54.91,1.63,1.09a16.85,16.85,0,0,0,2.17.27A4.09,4.09,0,0,0,1121.46,130Zm-3.54-57.4c-.37.37-.54.64-.54.82,0,.73.27,1.09.81,1.09.72,0,1.09-.18,1.09-.55A1.2,1.2,0,0,0,1117.92,72.62Zm-.27,85.14,1.09-.54c0-.18-.19-.45-.55-.82q-.81,0-.81.54a.55.55,0,0,0,.13.41A.58.58,0,0,1,1117.65,157.76Zm4.89,21.76c0-1.63-.63-2.45-1.9-2.45-1.09,0-1.63.64-1.63,1.91,0,1.08.72,1.63,2.17,1.63C1122.09,180.61,1122.54,180.25,1122.54,179.52Zm0-86c1.45-.18,2.18-.63,2.18-1.36,0-1.09-.45-1.63-1.36-1.63s-1.36.63-1.36,1.9Zm1.36-72.63a3.08,3.08,0,0,1,1,.14,3,3,0,0,0,1,.14c1.81,0,2.72-.82,2.72-2.45a1.44,1.44,0,0,0-1.63-1.63c-.73,0-1.41.54-2,1.63a29.56,29.56,0,0,1-1.77,2.72ZM1125.54,71a4.59,4.59,0,0,0-.14-1.09.64.64,0,0,0-.68-.54c-.73,0-1.27.45-1.63,1.36,0,.73.45,1.09,1.36,1.09C1125.17,71.81,1125.54,71.54,1125.54,71Zm1.63,69.91c-.37-.91-.82-1.36-1.36-1.36-1.09,0-1.63.45-1.63,1.36a1.06,1.06,0,0,0,.54,1.08,2.3,2.3,0,0,0,1.09.28A1.2,1.2,0,0,0,1127.17,140.9Zm-1.91,45.42.28-.27-.28-.27Zm1.91-156.13c-.18,0-.27.19-.27.55a.24.24,0,0,0,.27.27h.27l.27-.55Zm6.25,72.63c.73.72,1.27,1.08,1.64,1.08a.72.72,0,0,0,.81-.81,3.28,3.28,0,0,1-2.17-.68c-.55-.45-1.09-1-1.64-1.5s-1.13-1.09-1.76-1.63a5.36,5.36,0,0,0-2.59-1.09.72.72,0,0,0-.81.82,4.42,4.42,0,0,0,2.58,2.85A9.22,9.22,0,0,0,1133.42,102.82ZM1132.06,167a8.57,8.57,0,0,0-2.31.27c-.64.18-1,1-1,2.45a1,1,0,0,0,1.09,1.09c1.45,0,2.17-.41,2.17-1.23Zm-2.72-84c.37,0,.55-.27.55-.82l-.82.55Zm1.64,74.8a1.56,1.56,0,0,1-1.09-.54l-.55,1.08a1.57,1.57,0,0,0,1.09.55Zm-1.09,6.26c-.18,0-.23-.09-.14-.28s0-.27-.41-.27A.48.48,0,0,0,1129.89,164Zm5.17-51.41c-.19-.91-1-1.36-2.45-1.36-.91,0-1.36.36-1.36,1.09a2,2,0,0,0,2.17,1.9C1134.51,114.06,1135.06,113.52,1135.06,112.61Zm-1.91-80.51c-.91.36-1.36.81-1.36,1.36,0,1.08.45,1.63,1.36,1.63s1.36-.63,1.36-1.91C1134.51,32.46,1134.06,32.1,1133.15,32.1Zm.27,95.2c-.18,0-.45-.18-.81-.55l-.27.27-.28.28c.37.36.55.63.55.81Zm.28,21.21a1.45,1.45,0,0,0-1.64,1.63c0,1.09.64,1.64,1.91,1.64,1.09-.36,1.63-.91,1.63-1.64A2.06,2.06,0,0,0,1133.7,148.51Zm-1.64,18.5a6.88,6.88,0,0,1,2-.68q1-.14,1-1.5c0-1.26-.46-1.9-1.36-1.9-1.09.36-1.64.95-1.64,1.77Zm2.18-34.55c0-.72-.27-1.08-.82-1.08a1.56,1.56,0,0,0-1.08.54c0,.91.27,1.36.81,1.36C1133.51,133.28,1133.87,133,1134.24,132.46Zm0-52.22a.82.82,0,1,0-.82-.82ZM1137,183.6a1,1,0,0,0-1.09-1.09,1.2,1.2,0,0,0-1.36,1.36c0,.55.45.82,1.36.82A1,1,0,0,0,1137,183.6Zm4.62-17.95a3,3,0,0,1-.54-3c.36-1.09-.18-1.81-1.63-2.18-.73,0-1.09.54-1.09,1.63a9,9,0,0,0,.82,3.54c.54,1.27,1.26,1.9,2.17,1.9C1141.49,167.55,1141.58,166.92,1141.58,165.65Zm-.27-119.41a4.75,4.75,0,0,1-1.36-.54c-.72,0-1.09.27-1.09.81a1.81,1.81,0,0,0,.41,1.09,1.15,1.15,0,0,0,1,.54C1140.77,48.14,1141.13,47.51,1141.31,46.24Zm-.54,92.48c-1.09.54-1.63,1.18-1.63,1.9a4.34,4.34,0,0,0,.68,2,2.19,2.19,0,0,0,2,1.23c.72,0,1.08-.55,1.08-1.63a10.21,10.21,0,0,0-.27-2.45C1142.49,139.09,1141.86,138.72,1140.77,138.72Zm.27-38.62a1.75,1.75,0,0,0,1.63-1.91,4.89,4.89,0,0,0-1.36-1.36,1.74,1.74,0,0,0-1.9,1.63A1.45,1.45,0,0,0,1141,100.1Zm.27,22h.55l-.28-.55Zm1.63-37.81c-.91.54-1.36,1.09-1.36,1.63a.48.48,0,0,0,.55.55,5.9,5.9,0,0,0,.95-.14c.45-.09.68-.31.68-.68A2.21,2.21,0,0,0,1142.94,84.32Zm2.18-29.38c-1.09,0-1.63.46-1.63,1.36a1.93,1.93,0,0,0,1.36,1.91c.72,0,1.26-.45,1.63-1.36A1.93,1.93,0,0,0,1145.12,54.94Zm-.27,59.3c-.73,0-1.09.18-1.09.54l.54.55a.48.48,0,0,0,.55-.55Zm-.55-85.14.28.55.27-.55Zm.28,121.32.27-.28a.84.84,0,0,0-.55-.27v.55Zm2.17-47.33c-.72.36-1.09.81-1.09,1.36a4.27,4.27,0,0,0,.28,1.09c.17.54.72.81,1.63.81.72,0,1.09-.54,1.09-1.63S1148,103.09,1146.75,103.09Zm.55,19.31c-.19,0-.28,0-.28-.14s-.09-.13-.27-.13a.78.78,0,0,1-.27.54c.18,0,.27,0,.27.14s.09.13.27.13A.78.78,0,0,0,1147.3,122.4Zm1.36-87.31c-.37-.36-.55-.59-.55-.68s-.18-.14-.54-.14-.55.27-.55.82a.72.72,0,0,0,.82.81Zm-.82,123.21a.84.84,0,0,0-.54-.27.25.25,0,0,0-.28.27l.28.28A.77.77,0,0,0,1147.84,158.3Zm3.81-87.85a1.69,1.69,0,0,0-1.09-1.77,6.23,6.23,0,0,0-2.18-.41.72.72,0,0,0-.81.82c0,1.63.9,2.45,2.72,2.45A1.29,1.29,0,0,0,1151.65,70.45Zm-.82,70.72c-.36-1.09-1-1.63-1.9-1.63-.73,0-1.09.45-1.09,1.36,0,.72.63,1.27,1.9,1.63C1150.47,142.53,1150.83,142.08,1150.83,141.17Zm-1.36-112.88a.24.24,0,0,0-.27.27v.54l.54.28c.18,0,.28-.18.28-.55A.48.48,0,0,0,1149.47,28.29Zm.27,118.05v.54l.55-.27Zm.55-122.68c0,.19.18.46.54.82l.27-.27a1.59,1.59,0,0,0-.54-1.09c0,.18,0,.27-.14.27S1150.29,23.49,1150.29,23.66Zm3.81,59c0-1.45-.46-2.18-1.36-2.18a1.94,1.94,0,0,0-2.18,1.77,19.26,19.26,0,0,0-.27,2.58,1.2,1.2,0,0,0,1.36,1.36c1.09,0,1.72-.36,1.9-1.08S1153.91,83.6,1154.1,82.69Zm-2.45-23.12.81-.82-.54-.54a.76.76,0,0,1-.54-.27c-.37,0-.55.27-.55.81,0,.37,0,.5.14.41S1151.28,59.21,1151.65,59.57Zm.27,36.72a.8.8,0,0,1-.54.27c-.19,0-.28.09-.28.27a1.53,1.53,0,0,0,.55,1.09q.81-.81.81-.54A1.58,1.58,0,0,0,1151.92,96.29Zm.82,57.66a.82.82,0,1,0-.82.82Zm.81,28.83-1.09.82.82.82.82-.82C1153.73,183.24,1153.55,183,1153.55,182.78Zm5.71-65a8.38,8.38,0,0,0-1.49-2.45,3,3,0,0,0-2.31-1.09c-.73,0-1.09.64-1.09,1.9a2.2,2.2,0,0,0,1.22,2,5.2,5.2,0,0,0,2.59.68Q1159,118.86,1159.26,117.78Zm-4.08-64.2-.27.28h.55Zm4.08,10.88c-.36-.9-.81-1.36-1.36-1.36a2.89,2.89,0,0,0-1.9.68c-.54.46-.82.87-.82,1.23a.88.88,0,0,0,.82.95,8.57,8.57,0,0,0,1.36.14C1158.27,66.1,1158.9,65.55,1159.26,64.46Zm-1.9,33.19a2.57,2.57,0,0,0-2.18,2.72,1.2,1.2,0,0,0,1.36,1.36c2,0,3-.72,3-2.18C1159.54,98.29,1158.81,97.65,1157.36,97.65Zm1.09-22.85a1.59,1.59,0,0,0-1.09-.27c0,.72.09,1.09.27,1.09A.73.73,0,0,0,1158.45,74.8Zm2.72,36.18c0-1.27-.55-1.91-1.63-1.91s-1.64.37-1.64,1.09c0,.91.64,1.54,1.91,1.9a.9.9,0,0,0,.81-.4A4,4,0,0,1,1161.17,111Zm-1.36-19.32c-1.09,0-1.63.46-1.63,1.36,0,.73.63,1.27,1.9,1.64a1.45,1.45,0,0,0,1.63-1.64C1161.71,92.12,1161.07,91.66,1159.81,91.66Zm.54,81.33a2.23,2.23,0,0,0-1.36-.81q-.81,0-.81,1.08c.36.73.72,1.09,1.08,1.09s.55-.13.55-.41A1.51,1.51,0,0,1,1160.35,173Zm-.81-47.05,1,1a1.66,1.66,0,0,0,1.22.41.49.49,0,0,0,.55-.55,1.69,1.69,0,0,0-1.91-1.9C1160.17,124.85,1159.9,125.21,1159.54,125.94ZM1168,74.53a10.24,10.24,0,0,0-1.77,1.36,26.5,26.5,0,0,0-2.31,2.31c-.73.82-1.36,1.54-1.91,2.18s-.81.86-.81.68c0,.72.58,1.54,1.77,2.44a5.23,5.23,0,0,0,2.85,1.36c.55,0,1.72-.68,3.54-2s2.72-2.85,2.72-4.48a3.51,3.51,0,0,0-1.36-2.18A18.05,18.05,0,0,0,1168,74.53Zm-4.9-4.08c0-.91-.27-1.36-.81-1.36-.19,0-.28,0-.28.13s-.09.14-.27.14l-.27.27a2.85,2.85,0,0,0,1.09,1.36Zm.27-22c.55-.18.82-.73.82-1.64,0-.72-.45-1.08-1.36-1.08-.54.36-.82.63-.82.81C1162,47.78,1162.43,48.42,1163.34,48.42ZM1165,162.93l.81-.82a.82.82,0,0,0-1.63,0c0,.37,0,.5.14.41S1164.61,162.57,1165,162.93Zm5.16-65c1.45,0,2.18-.82,2.18-2.45,0-1.09-.91-1.81-2.72-2.17-1.63,0-2.45.54-2.45,1.63C1167.15,96.56,1168.15,97.56,1170.14,97.92Zm-.81,23.39c.72-.36,1.09-.72,1.09-1.09a1.44,1.44,0,0,0-.55-1.22,1.81,1.81,0,0,0-1.09-.41.72.72,0,0,0-.81.82,1.18,1.18,0,0,0,.54,1A2.73,2.73,0,0,1,1169.33,121.31Zm0,27.2a1.85,1.85,0,0,1,.68-.41c.27-.08.41-.31.41-.68a.72.72,0,0,0-.82-.81,1,1,0,0,0-1.09,1.09C1168.51,148.06,1168.78,148.33,1169.33,148.51Zm.27,18.5a1.56,1.56,0,0,0,.54-1.09q0,.27-.81-.54a1.53,1.53,0,0,0-.55,1.08C1169,166.46,1169.23,166.65,1169.6,167Zm1.36-9.52c0,1.09.27,1.63.82,1.63,1.26,0,1.9-.54,1.9-1.63a1.2,1.2,0,0,0-1.36-1.36C1171.78,156.13,1171.32,156.58,1171,157.49Zm1.36-26.39a30,30,0,0,0,.82,4.22,2.53,2.53,0,0,0,2.72,2c1.45,0,2.17-.45,2.17-1.36,0-.36-.36-.82-1.09-1.36a2.35,2.35,0,0,1-1.08-1.9,2.44,2.44,0,0,1,.27-1.09,4.71,4.71,0,0,0,.27-1.91,1.92,1.92,0,0,0-2.18-2.17c-1.08.18-1.63.68-1.63,1.49A6.54,6.54,0,0,1,1172.32,131.1ZM1175.86,77a4.23,4.23,0,0,1,.81,1.08,1.09,1.09,0,0,0,1.09.55c.54,0,.82-.18.82-.55a1,1,0,0,0-1.09-1.08.8.8,0,0,1-.55.27.84.84,0,0,1-1-.68,7.69,7.69,0,0,1-.13-1.5,7.62,7.62,0,0,0-.14-1.49.84.84,0,0,0-1-.68c-.55.36-.82.72-.82,1.08a2.21,2.21,0,0,0,.55,1.64Zm.27,63.92c-.37-.36-.55-.64-.55-.82s-.18-.27-.54-.27c-.54,0-.82.36-.82,1.09.55.54.91.81,1.09.81Zm2.72-55.76a4.09,4.09,0,0,0-2.45,2.17,6.52,6.52,0,0,0-.82,2.72c0,.91.64,1.36,1.91,1.36a2.11,2.11,0,0,0,2.17-1.49,8.22,8.22,0,0,0,.55-2.86A2.3,2.3,0,0,0,1178.85,85.14Zm.54-25.84c0-.91-.54-1.36-1.63-1.36-.54,0-.82.36-.82,1.08,0,.91.37,1.36,1.09,1.36C1178.94,60.38,1179.39,60,1179.39,59.3Zm-1.36,52c-.72.18-1.09.54-1.09,1.09a1.8,1.8,0,0,0,.41,1.08,1.16,1.16,0,0,0,1,.55,1,1,0,0,0,1.09-1.09c0-.72-.13-1.09-.41-1.09A1.49,1.49,0,0,1,1178,111.25Zm3.27,38.35c-1.27,0-1.91.37-1.91,1.09,0,1.81,1,2.72,3,2.72a1.45,1.45,0,0,0,1.64-1.63c0-.91-.28-1.45-.82-1.64S1182,149.78,1181.3,149.6Zm.81-5.44c-.72,0-1.09.46-1.09,1.36a1,1,0,0,0,1.09,1.09c.36,0,.72-.36,1.09-1.09A1.29,1.29,0,0,0,1182.11,144.16Zm1.09-23.39c0-.18-.18-.45-.54-.82l-.82.82.27.54Zm-.54,14.69c-.37,0-.55.09-.55.27s.18.27.55.27Zm1.08-55.22c-.72.18-1.08.54-1.08,1.09,0,.91.63,1.36,1.9,1.36a.73.73,0,0,0,.82-.82,1.19,1.19,0,0,0-.55-1A6.75,6.75,0,0,0,1183.74,80.24Zm-.54-20.67.27.27q.27,0,.27-.54c0-.18-.18-.28-.54-.28Zm.82,56.57q.81-.81.81-1.08a.72.72,0,0,0-.81-.82h-.55c-.18,0-.27.27-.27.82A1,1,0,0,0,1184,116.14Zm1.9-44.06a1.55,1.55,0,0,0-.54,1.09l.27.27q.27,0,.81-.54Zm-.27,68v-.54l-.27.27Zm4.08-28.83c-.55,0-.82.18-.82.54,0,.18.27.27.82.27l.27-.27c0-.18,0-.27-.14-.27S1189.73,111.43,1189.73,111.25Zm1.9-59.57a9.28,9.28,0,0,0-1.63.54c-.37.19-.54.73-.54,1.64a1.27,1.27,0,0,0,1.36,1.08,2.3,2.3,0,0,0,2.44-1.63A1.44,1.44,0,0,0,1191.63,51.68Zm1.91,74.8-.28-.27-.27.27Zm2.17,10.61c-.36.36-.59.54-.68.54s-.13.18-.13.55a.47.47,0,0,0,.54.54c.72,0,1.09-.27,1.09-.82,0-.36-.1-.54-.27-.54A.78.78,0,0,1,1195.71,137.09Z"/><path class="cls-4" d="M1224.82,130.83V21.22a42.48,42.48,0,0,0-.28-4.63,44.52,44.52,0,0,1-.27-4.89c0-4.36,1.81-6.53,5.44-6.53a73.09,73.09,0,0,1,7.75.41,78.64,78.64,0,0,0,8,.4q8.16,0,16.32-.4t16.59-.41q7.06,0,14.42.27a55.86,55.86,0,0,1,14.41,2.45,54.79,54.79,0,0,1,28.56,19A58.51,58.51,0,0,1,1348,59.57q.83,13,.82,26.11,0,14.14-1.23,28.7a69.57,69.57,0,0,1-8.29,27.6q-9.25,17.15-24.48,23T1280,170.82a23.35,23.35,0,0,1-2.58-.14,23.68,23.68,0,0,0-2.59-.14c-2.35,0-3.85.68-4.48,2a13.36,13.36,0,0,0-1,5.58q0,18.5.14,36.18t.14,35.63q0,5.72-1,6.8c-.63.73-3,1.09-6.93,1.09q-6.27,0-12.38.27t-12.37.27c-5.44,0-8.94-.36-10.48-1.09s-2.31-2.72-2.31-6V157.08q0-11.55.14-18.9C1224.5,133.28,1224.63,130.83,1224.82,130.83Zm7.07,92.21a2.28,2.28,0,0,0-1.36-.82c-.18,0-.27.19-.27.55a2.33,2.33,0,0,1,.68.13A2.72,2.72,0,0,0,1231.89,223Zm1.09-8.43.27.27.27-.54Zm7.61-151.23c-1.81,0-2.72,1-2.72,3,0,1.09.64,1.63,1.91,1.63a2,2,0,0,0,1.9-1,4,4,0,0,0,.54-2C1242.22,64.29,1241.68,63.74,1240.59,63.38Zm4.35-13.6c0-1.27-.72-1.91-2.17-1.91-.91,0-1.36.55-1.36,1.63s.72,1.64,2.17,1.64C1244.13,51.14,1244.58,50.69,1244.94,49.78Zm1.64,99a1.29,1.29,0,0,0-1.36-1.08c-1.09,0-1.64.45-1.64,1.36s.37,1.36,1.09,1.36C1245.94,150.42,1246.58,149.87,1246.58,148.78Zm.27-89.76c-.37-1.26-.91-1.9-1.63-1.9a1,1,0,0,0-1.09,1.09,2.05,2.05,0,0,0,.54,1.22,1.44,1.44,0,0,0,1.09.68C1246.12,60.11,1246.48,59.75,1246.85,59Zm.54,74c-.91,0-1.45.18-1.63.54a9.86,9.86,0,0,0-.54,1.36c0,1.27.36,1.91,1.08,1.91a1.86,1.86,0,0,0,1.5-1.09,3.76,3.76,0,0,0,.68-1.91C1248.48,133.28,1248.11,133,1247.39,133Zm-1.09,9.52.55-.27-.82-1.09-.54.81C1245.85,142.35,1246.12,142.53,1246.3,142.53Zm4.36-53.59v-.81c0-.55-.19-.82-.55-.82a7,7,0,0,0-2.45.41,1.68,1.68,0,0,0-1.08,1.77c0,1.63.63,2.45,1.9,2.45,1.09,0,1.63-.36,1.63-1.09A3.34,3.34,0,0,1,1250.66,88.94Zm-1.91,7.62a2.12,2.12,0,0,0-.81-1.9c-.91,0-1.36.36-1.36,1.08a1.2,1.2,0,0,0,1.36,1.36C1248.11,97.1,1248.39,96.93,1248.75,96.56Zm3-58.48a.58.58,0,0,1,.14-.41.55.55,0,0,0,.14-.41c0-.9-.82-1.36-2.45-1.36a2.92,2.92,0,0,0-1.63.55,1.82,1.82,0,0,0-.82,1.63,1.7,1.7,0,0,0,1,1.77,4.19,4.19,0,0,0,1.5.41C1250.29,40.26,1251,39.53,1251.74,38.08Zm2.18,39.71a4.55,4.55,0,0,1-2.58-2.45,13,13,0,0,0-1.77-3,6.46,6.46,0,0,0-1.77,2.86,32,32,0,0,0-.68,3.13c0,2,.54,3,1.63,3a9.72,9.72,0,0,0,3-.68A3.19,3.19,0,0,0,1253.92,77.79Zm-6,47.33-.82,2.18a.73.73,0,0,0,.82-.82Zm-.28-103.36-.27.54.55-.27Zm1.09,213.52-.81-.82-.55.28a1.09,1.09,0,0,0,.14.54,1.22,1.22,0,0,1,.13.54Zm-.81-110.16c.17.37.72.54,1.63.54C1249.57,125.3,1249,125.12,1247.94,125.12Zm6.8-20.4a.58.58,0,0,1,.13-.41.55.55,0,0,0,.14-.41c0-.72-.46-1.08-1.36-1.08-1.82,0-2.72,1-2.72,3a1.44,1.44,0,0,0,1.63,1.63c.91,0,1.4-.36,1.5-1.09A2.7,2.7,0,0,1,1254.74,104.72Zm-2.18,34.82a4.06,4.06,0,0,0-.82,1.08l-.54,1.09a.48.48,0,0,0,.54.55,2.3,2.3,0,0,1,.28-1.09,9.07,9.07,0,0,0,.4-.95,7.61,7.61,0,0,1,.41-1Zm-.82,74-.27.27.55.82.27-.27C1252.29,214.16,1252.11,213.89,1251.74,213.52Zm.28-25.84c0,.91.27,1.36.81,1.36a3.24,3.24,0,0,0,1.36-.41c.55-.27.82-.58.82-.95,0-.54-.37-.82-1.09-.82a1.66,1.66,0,0,0-1,.28A8.93,8.93,0,0,1,1252,187.68ZM1256.1,46a2.09,2.09,0,0,1-1.91.27c-.91-.18-1.36.37-1.36,1.63,0,1.63.64,2.45,1.91,2.45a9.5,9.5,0,0,0,3.8-.82c1.27-.54,1.91-1,1.91-1.36,0-.9-.5-1.4-1.5-1.49A10.06,10.06,0,0,1,1256.1,46Zm-1.36,24.21c-.37-.37-.64-.55-.82-.55l-.54.27.54,1.09Zm1.36,15.5a.58.58,0,0,1,.13-.41.55.55,0,0,0,.14-.41,1.65,1.65,0,0,0-1.09-.27A1.06,1.06,0,0,0,1256.1,85.68Zm4.35,54.13a24.91,24.91,0,0,0,2.72-.14c.9-.09,1.36-.86,1.36-2.31s-.91-2.18-2.72-2.18a5.26,5.26,0,0,0-2.72.82,2.66,2.66,0,0,0-1.36,2.45C1257.73,139.36,1258.63,139.81,1260.45,139.81Zm5.44-105.27a2.63,2.63,0,0,0-2.45-1.63,25.81,25.81,0,0,0-2.72.68c-1.63.46-2.45,1.32-2.45,2.59,0,.54.18.81.55.81a28.75,28.75,0,0,0,3.8-.41Q1265.34,36.18,1265.89,34.54Zm-7.62,171.09c0,.55.09.82.27.82l.55-.55A1.17,1.17,0,0,0,1258.27,205.63Zm3.27-16.32c0-.54-.19-.81-.55-.81q-.27,0-.27.54v.54A1.1,1.1,0,0,0,1261.54,189.31Zm1.63-17.13v-.28a.48.48,0,0,0-.55-.54q-.27,0-.27.54l.27.55A.8.8,0,0,1,1263.17,172.18Zm40.25-84.6c0-2.53,0-5,.14-7.48s.14-4.85.14-7.2a66.37,66.37,0,0,0-.55-8.71,22.25,22.25,0,0,0-2-7.07,11.36,11.36,0,0,0-4.49-4.76,15.35,15.35,0,0,0-7.88-1.77H1276.5q-4.08,0-5.72,1.5t-1.76,5c-.1,2.36-.14,5.81-.14,10.34q0,4.89.27,9.65t.27,9.39q0,7.89-.13,15.5t-.14,15.23a17.87,17.87,0,0,0,.82,5.71c.54,1.64,1.9,2.45,4.08,2.45a14.68,14.68,0,0,0,2-.13,14.42,14.42,0,0,1,2-.14c1.63,0,3.26,0,4.89.14s3.27.13,4.9.13q7.89,0,11.42-3.4t3.81-11.28q.27-6,.27-11.7Zm-31,69.36a1.45,1.45,0,0,0-1.64-1.63,1.2,1.2,0,0,0-1.36,1.36,1.45,1.45,0,0,0,1.64,1.63A1.2,1.2,0,0,0,1272.42,156.94ZM1270,24.75a1.63,1.63,0,0,1-.27,1.09,3,3,0,0,1,1,.14,3,3,0,0,0,.95.13A7.26,7.26,0,0,1,1270,24.75Zm2.17,1.63h-.27a11.51,11.51,0,0,0-.54,1.91c0,.54.45.95,1.36,1.22s1.9.55,3,.82,2.22.54,3.4.81a4.33,4.33,0,0,1,2.58,1.5,3,3,0,0,0,2.45-1.63,5.91,5.91,0,0,0,1.09-3.27,6.26,6.26,0,0,0-.68-2.31c-.45-1-1-1.49-1.77-1.49a3.66,3.66,0,0,0-2.72,1.77,4.24,4.24,0,0,1-3.53,1.76A12.45,12.45,0,0,1,1272.14,26.38Zm.28,5.44-.82.82.82.82.81-.82Zm8.16-10.88a2.38,2.38,0,0,0-1.91-1.08,4.09,4.09,0,0,0-1.49.4,1.33,1.33,0,0,0-1,1.23,1.09,1.09,0,0,0,.55,1.09,2.41,2.41,0,0,0,1.09.27C1279.67,22.85,1280.58,22.21,1280.58,20.94Zm-3,130c-.72,0-1.08.27-1.08.82,0,1.45.54,2.17,1.63,2.17a1.44,1.44,0,0,0,1.63-1.63C1279.58,151.78,1278.85,151.33,1277.58,151Zm6.8-113.42h.28a.83.83,0,0,0-.28-.55.24.24,0,0,0-.27.27C1284.11,37.45,1284.2,37.54,1284.38,37.54ZM1292.27,154l-.81-.81a1.15,1.15,0,0,0-.82-.28,1.2,1.2,0,0,0-1.36,1.36c0,.91.36,1.36,1.09,1.36.54,0,.86-.13,1-.4A4,4,0,0,1,1292.27,154Zm2.72-5.17-.81,1.09a.76.76,0,0,0,.54.27h.27c.18,0,.55-.27,1.09-.81Zm13.06-105.53c0-.72-.27-1.09-.82-1.09a9.8,9.8,0,0,0-2.58.55q-1.77.54-1.77,1.08c0,.37.27.55.82.55.36,0,1.08-.05,2.17-.14A2.77,2.77,0,0,0,1308.05,43.25Zm1.9,8.43-.81-1.09c-.19,0-.28.46-.28,1.36A1.59,1.59,0,0,1,1310,51.68Zm0,49.78a.25.25,0,0,1,.27-.28l-.54-.27-.27.27C1309.41,101.37,1309.59,101.46,1310,101.46Zm.82,50.86a1.57,1.57,0,0,0-.55,1.09.61.61,0,0,1,.41.13.53.53,0,0,0,.41.14.24.24,0,0,0,.27-.27v-.27a.44.44,0,0,0-.27-.41A.44.44,0,0,1,1310.77,152.32Zm4.35-21.49c0-1.81-1-2.72-3-2.72-.73,0-1.09.46-1.09,1.36.18.73.36,1.36.54,1.91s.73.91,1.64,1.08C1314.48,132.46,1315.12,131.92,1315.12,130.83Zm11.15-41.89c-1.45,0-2.63,0-3.53-.13s-1.36-.77-1.36-2a1,1,0,0,1,1.08-1.09,1.89,1.89,0,0,1,.82.14,1.91,1.91,0,0,0,.82.13c1.08,0,1.76-.36,2-1.09a6.9,6.9,0,0,0,.4-2.44,9.7,9.7,0,0,0-.27-2,1.47,1.47,0,0,0-1.63-1.23q-.81,0-2,1.77t-1.77,1.77a1.32,1.32,0,0,1-1.22-1c-.27-.64-.55-1.27-.82-1.91l-.81-1.9c-.28-.64-.59-1-1-1a3.34,3.34,0,0,0-1.49.54,1.58,1.58,0,0,0-1,1.36c0,.18,0,.27.13.27s.14.1.14.27a9.61,9.61,0,0,1,1.63,5.44,11.36,11.36,0,0,0,1.09,5.17,10.54,10.54,0,0,1,.81,3.27c0,.91-.77,1.49-2.31,1.76s-2.31.87-2.31,1.77c0,1.27.36,2,1.09,2.31a6.73,6.73,0,0,0,2.45.41,3.46,3.46,0,0,0,2.31-.81,3.89,3.89,0,0,0,1.22-1.64,5.25,5.25,0,0,1,2.31-4.08,13.53,13.53,0,0,1,4.36-1.9l4.08-1c1.17-.27,1.76-.68,1.76-1.23,0-1.26-.45-1.9-1.36-1.9a5.34,5.34,0,0,0-2.85.95A5.31,5.31,0,0,1,1326.27,88.94Zm-9.25,20.4q-.54-.54-.81-.54l-.27.27c0,.18.17.46.54.82A.48.48,0,0,0,1317,109.34Zm7.08,16.6a9.64,9.64,0,0,0-2.59-2.72,6,6,0,0,0-3.4-1.64c-.91,0-1.36.64-1.36,1.91a4.15,4.15,0,0,0,1.91,3.53,6.46,6.46,0,0,0,3.8,1.36C1323.19,128.38,1323.73,127.57,1324.1,125.94Zm-6.26-53.32-.54.28a.72.72,0,0,0,.81.81q.27,0,.27-.54l-.27-.55Zm2.18,63.92v-1.08c0-.36-.28-.55-.82-.55s-1,.37-1.22,1.09a5,5,0,0,0-.41,1.63c0,.55.36.82,1.09.82C1319.56,138.45,1320,137.81,1320,136.54ZM1321.92,34c0-1.09-.64-1.81-1.9-2.18-1.46,0-2.18.91-2.18,2.72,0,1.09.63,1.64,1.9,1.64C1320.47,36.18,1321.19,35.45,1321.92,34Zm-.82,82.14a2.34,2.34,0,0,0-1.63-.81c-.54,0-.81.36-.81,1.09.17.72.72,1.08,1.63,1.08C1320.83,117.5,1321.1,117.05,1321.1,116.14Zm-.54-64.46a2.41,2.41,0,0,1-.27-1.09.72.72,0,0,0-.82.82A1.58,1.58,0,0,1,1320.56,51.68ZM1321.92,68l-.54-.27v.54Zm9,43a10.29,10.29,0,0,1-2.45-3,3.35,3.35,0,0,0-3-1.9,2.57,2.57,0,0,0-1.77,1.09,13.94,13.94,0,0,1-2,1.9,30.75,30.75,0,0,1,3.81,2,8.34,8.34,0,0,0,4.08,1.5C1330.44,112.61,1330.9,112.06,1330.9,111Zm-4.63,20.94a14.57,14.57,0,0,1,3.27-.27,2.37,2.37,0,0,0-2.18-1.5c-1.09-.09-1.9-.13-2.45-.13-.72,0-1.09.27-1.09.81,0,.91.28,1.36.82,1.36A3.81,3.81,0,0,0,1326.27,131.92Zm.55-13.87-.55-1.09c-.18,0-.27.05-.27.14s-.09.13-.27.13h-.55a4.49,4.49,0,0,0,.55,1.36A1.56,1.56,0,0,1,1326.82,118.05Zm.54-46.51c-.91,0-1.36.36-1.36,1.08,0,.91.36,1.36,1.09,1.36,1.09,0,1.63-.27,1.63-.81a.94.94,0,0,0-.41-.82A6.54,6.54,0,0,1,1327.36,71.54Zm6,52.22c0-1.27-.36-1.9-1.08-1.9a5.35,5.35,0,0,0-3.27,1.76c-1.27,1.19-1.9,2.14-1.9,2.86s.45,1.09,1.36,1.09a3.72,3.72,0,0,0,3.13-1.23A24.9,24.9,0,0,0,1333.34,123.76Zm-5.44,13.33a.8.8,0,0,0,.55-.27c-.18,0-.27,0-.27-.14s-.1-.14-.28-.14a.23.23,0,0,1-.27-.27.24.24,0,0,0-.27.27Zm3-87.31a1.22,1.22,0,0,1-.68-.68.63.63,0,0,0-.68-.41.72.72,0,0,0-.82.81,1.81,1.81,0,0,0,.41,1.09,1.15,1.15,0,0,0,.95.55C1330.62,51.14,1330.9,50.69,1330.9,49.78Zm.81,29.64a.52.52,0,0,1,.14-.4.56.56,0,0,0,.13-.41.24.24,0,0,0-.27-.27Zm.82,1.36c0,.19-.27-.17-.82-1.08a2.07,2.07,0,0,1,.27.81C1332,80.7,1332.16,80.78,1332.53,80.78Z"/><path class="cls-5" d="M1363.81,4.9h253.5V80H1490.56V103.9h66.91v55.49h-66.91v23.94h126.75V258.4h-253.5Z"/><path class="cls-5" d="M1632,4.9h125.12V64.19h-40.8v41.62h27.2v51.68h-27.2V199.1h40.8v59.3H1632Z"/><path class="cls-3" d="M1762.56,258.4,1836,4.9h125.12l73.44,253.5H1871.63l-10.33-35.63H1790L1779.7,258.4Zm32.1-51.95h62l-31-106.9Z"/><path class="cls-2" d="M2231.49,140.9V258.4H2043.81V4.9h187.68v117l51.41-117h19l-55.76,126.75,60.38,126.75h-19Z"/><path class="cls-3" d="M2312,4.9h53.31V111.25L2386.53,4.9h56l-28,126.75,28,126.75h-56l-21.22-106.35V258.4H2312Z"/><path class="cls-1" d="M2631.87,150.42q16.32,6,25.84,14.82a75.52,75.52,0,0,1,14.83,18.36,91.21,91.21,0,0,1,8,18.9q2.71,9.39,5.3,17a34.34,34.34,0,0,0,6.8,12.24q4.22,4.63,12.65,4.63a4.27,4.27,0,0,1,3.54,1.36,5.11,5.11,0,0,1,1.09,3.26c0,2.36-1.09,4.86-3.27,7.48a31.22,31.22,0,0,1-9.25,7.21,58.58,58.58,0,0,1-14.68,5.3,86.18,86.18,0,0,1-19.59,2q-20.94,0-35.22-7.34a83.91,83.91,0,0,1-24.21-18.36,114.09,114.09,0,0,1-16.59-23.8q-6.68-12.78-12.11-23.8a140.14,140.14,0,0,0-10.6-18.36q-5.18-7.35-12.24-7.34c-3.63,0-6.31,1.08-8,3.26s-2.58,5.17-2.58,9v54.12q0,7.08,2.85,11.43t10.75,4.35a2.89,2.89,0,0,1,2.58,1.9,9.85,9.85,0,0,1,0,8.44,2.88,2.88,0,0,1-2.58,1.9H2449.9a2.88,2.88,0,0,1-2.58-1.9,9.85,9.85,0,0,1,0-8.44,2.89,2.89,0,0,1,2.58-1.9q7.89,0,10.75-4.35t2.85-11.43V32.91q0-7.06-2.85-11.42t-10.75-4.35a2.89,2.89,0,0,1-2.58-1.91,9.18,9.18,0,0,1-1-4.21,9.25,9.25,0,0,1,1-4.22,2.88,2.88,0,0,1,2.58-1.9h105.27a2.88,2.88,0,0,1,2.58,1.9,9.25,9.25,0,0,1,.95,4.22,9.18,9.18,0,0,1-.95,4.21,2.89,2.89,0,0,1-2.58,1.91q-7.89,0-10.75,4.35t-2.85,11.42V134.1a14.65,14.65,0,0,0,3.26,9.65,10.74,10.74,0,0,0,8.71,3.95q6.26,0,9.52-3.68t3.26-9.92a37.54,37.54,0,0,0-1.22-9q-1.23-4.89-2.72-11.15t-2.72-14a112.78,112.78,0,0,1-1.23-17.54A92.27,92.27,0,0,1,2564,50.18a77.63,77.63,0,0,1,15.91-26.24,74.55,74.55,0,0,1,24.75-17.55A78.36,78.36,0,0,1,2636.77,0a80.31,80.31,0,0,1,29,5.17A66.18,66.18,0,0,1,2704.36,43a79,79,0,0,1,5.58,30.19q0,13.6-4.76,23.93a55.73,55.73,0,0,1-12.24,17.41,51.57,51.57,0,0,1-17,10.75,52.57,52.57,0,0,1-19,3.67,62.09,62.09,0,0,1-20.81-3.4,50.4,50.4,0,0,1-16.87-9.79,46.33,46.33,0,0,1-11.42-15.64,50.68,50.68,0,0,1-4.22-21.22q0-19.84,12.38-32.5t36.58-15.64q5.45-.54,7.89-1.91c1.63-.9,2.45-2.54,2.45-4.89q0-4.62-6.53-7.62t-19.58-3a63.79,63.79,0,0,0-26.11,5.17,59.15,59.15,0,0,0-19.86,14,62.87,62.87,0,0,0-12.65,20.81,72.27,72.27,0,0,0-4.49,25.57q0,25.58,13.74,42.84T2631.87,150.42Z"/><path class="cls-6" d="M2720,4.9h125.12V64.19h-40.8v41.62h27.2v51.68h-27.2V199.1h40.8v59.3H2720Z"/><path class="cls-6" d="M2856,4.9h62q16.32,0,28.15,5a54.19,54.19,0,0,1,19.58,13.73,56.74,56.74,0,0,1,11.56,20.4,79.45,79.45,0,0,1,3.81,24.76V96q0,20.13-5.58,35.49a52.38,52.38,0,0,1-17.81,24.62l28.83,102.27h-51.95l-22.85-90.3h-9.52v90.3H2856Zm46.24,46.51v70.17h20.94q6,0,8.84-3.94t2.86-12.92V68.27q0-9-2.86-12.92t-8.84-3.94Z"/><path class="cls-6" d="M2992,4.9h62q16.32,0,28.15,5a54.19,54.19,0,0,1,19.58,13.73,56.74,56.74,0,0,1,11.56,20.4,79.45,79.45,0,0,1,3.81,24.76v32.64q0,17.94-6.12,31.41a50.89,50.89,0,0,1-17.54,21.35l29.1,104.18h-60.11l-17.68-88.13V258.4H2992Zm52.77,55.21v58.21H3054q9.24,0,9.24-13.6v-31q0-13.59-9.24-13.6Z"/><path class="cls-6" d="M3166.08,177.89v13.05q0,15.51,5.71,24.76t18.77,9.24q12.24,0,18.36-7.75t6.12-18.9a34.11,34.11,0,0,0-6.39-19.45,129.11,129.11,0,0,0-16.19-19q-9.78-9.65-20.94-20a219.48,219.48,0,0,1-20.94-22.31,119.55,119.55,0,0,1-16.19-25.84A71.89,71.89,0,0,1,3128,61.2a72.09,72.09,0,0,1,3.67-23A54.23,54.23,0,0,1,3143,18.77,54.46,54.46,0,0,1,3162.41,5.3q11.84-5,28.15-5t28.15,5A52.94,52.94,0,0,1,3238.16,19a56.33,56.33,0,0,1,11.29,20.4,82.12,82.12,0,0,1,3.67,24.75V85.41H3215V64.19A29.49,29.49,0,0,0,3209.33,46q-5.72-7.62-18.77-7.62T3171.79,46a29.49,29.49,0,0,0-5.71,18.22,34.11,34.11,0,0,0,6.39,19.45,134.53,134.53,0,0,0,16.19,19.18q9.78,9.78,20.94,20.26a233.27,233.27,0,0,1,20.94,22.44,118.55,118.55,0,0,1,16.19,26,72.86,72.86,0,0,1,6.39,30.6,67.85,67.85,0,0,1-3.94,23,56.64,56.64,0,0,1-11.7,19.45A55.84,55.84,0,0,1,3217.9,258q-11.83,5-27.34,5-16.32,0-28.15-5.16A50.08,50.08,0,0,1,3143,243.17a62.89,62.89,0,0,1-11.29-22.71,110,110,0,0,1-3.67-29.52V177.89Z"/><path class="cls-6" d="M3267.81,131.65a123.22,123.22,0,0,1,9.93-49.23,127.09,127.09,0,0,1,67.59-67.6,127.12,127.12,0,0,1,98.46,0,127.09,127.09,0,0,1,67.59,67.6,123.39,123.39,0,0,1,9.93,49.23,123.39,123.39,0,0,1-9.93,49.23,127.12,127.12,0,0,1-67.59,67.59,127,127,0,0,1-98.46,0,127.12,127.12,0,0,1-67.59-67.59A123.22,123.22,0,0,1,3267.81,131.65Zm152.32-75.89a25.46,25.46,0,0,0-1.91-9.79,27.34,27.34,0,0,0-5.16-8.16,23.25,23.25,0,0,0-8-5.58,27.89,27.89,0,0,0-20.94,0,23.15,23.15,0,0,0-8,5.58A27.14,27.14,0,0,0,3370.9,46a25.46,25.46,0,0,0-1.91,9.79q0,9.52,3.54,15.23t7.89,12.51a85.36,85.36,0,0,1,8,17.14q3.67,10.33,3.94,28.83-18.49-.27-28.83-3.94a83.9,83.9,0,0,1-17.13-8c-4.54-2.89-8.71-5.53-12.52-7.88s-8.88-3.54-15.23-3.54a25.64,25.64,0,0,0-9.79,1.9,27.11,27.11,0,0,0-8.16,5.17,23.25,23.25,0,0,0-5.58,8,27.89,27.89,0,0,0,0,20.94,23.11,23.11,0,0,0,5.58,8,26.73,26.73,0,0,0,8.16,5.17,25.46,25.46,0,0,0,9.79,1.91q9.52,0,15.23-3.54t12.52-7.89a84.45,84.45,0,0,1,17.13-8q10.34-3.68,28.83-4-.27,18.51-3.94,28.84a85,85,0,0,1-8,17.13q-4.36,6.81-7.89,12.51T3369,207.54a25.46,25.46,0,0,0,1.91,9.79,27.14,27.14,0,0,0,5.16,8.16,23,23,0,0,0,8,5.57,27.89,27.89,0,0,0,20.94,0,23.09,23.09,0,0,0,8-5.57,27.34,27.34,0,0,0,5.16-8.16,25.46,25.46,0,0,0,1.91-9.79q0-9.53-3.54-15.24t-7.89-12.51a84.45,84.45,0,0,1-8-17.13q-3.67-10.33-3.94-28.84,18.48.28,28.83,4a84.45,84.45,0,0,1,17.13,8q6.8,4.36,12.52,7.89t15.23,3.54a25.49,25.49,0,0,0,9.79-1.91,27,27,0,0,0,8.16-5.17,23.25,23.25,0,0,0,5.58-8,27.89,27.89,0,0,0,0-20.94,23.38,23.38,0,0,0-5.58-8,27.36,27.36,0,0,0-8.16-5.17,25.67,25.67,0,0,0-9.79-1.9q-9.52,0-15.23,3.54c-3.81,2.35-8,5-12.52,7.88a83.9,83.9,0,0,1-17.13,8q-10.35,3.68-28.83,3.94.26-18.5,3.94-28.83a84.81,84.81,0,0,1,8-17.14q4.35-6.8,7.89-12.51T3420.13,55.76Z"/></g></g></svg>