<svg xmlns="http://www.w3.org/2000/svg" viewBox="0 0 3118.75 262.75"><defs><style>.cls-1{fill:#db713f;}.cls-2{fill:#b03e32;}.cls-3{fill:#e29d88;}.cls-4{fill:#acceed;}.cls-5{fill:#290a3b;}</style></defs><title>Asset 7</title><g id="Layer_2" data-name="Layer 2"><g id="Layer_1-2" data-name="Layer 1"><path class="cls-1" d="M41.34,4.62H94.66L136,258.13H93.84l-5.71-39.71H43.25l-6,39.71H0ZM49.23,178.7H82.69l-16-115.32Z"/><path class="cls-1" d="M305.18,211.34H177.34a124.09,124.09,0,0,0-5.3,19.45,117,117,0,0,0-1.77,14.83,53.52,53.52,0,0,0,.82,12.51,57.56,57.56,0,0,1-11.15,2.17,78.1,78.1,0,0,1-11.43.28A44,44,0,0,1,136,258.13L230.66,66.91,198.56,4.62a136.79,136.79,0,0,1,26.38-3q13.88-.27,25.57.27,13.61.83,26.66,2.72L408,258.13q-14.14,1.89-28.29,3-12.24.81-25.7.41a107.75,107.75,0,0,1-24.62-3.4ZM184.42,195H296.75L239.09,83.78Z"/><path class="cls-1" d="M449.34,4.62h53.32L544,258.13H480.08L473.82,213h-27.2l-6.8,45.15H408Zm2.45,174.08h17.14l-8.16-59.29Z"/><path class="cls-1" d="M549.44,4.62h62q16.32,0,28.15,4.9A58.3,58.3,0,0,1,659.19,22.3a51.68,51.68,0,0,1,11.56,17.82,54.73,54.73,0,0,1,3.81,19.72v29.1q0,28.56-17.14,42.44,17.15,14.42,17.14,42.43v29.1a54.73,54.73,0,0,1-3.81,19.72,51.59,51.59,0,0,1-11.56,17.82,58.15,58.15,0,0,1-19.58,12.78q-11.83,4.91-28.15,4.9h-62ZM588.61,42.7v72.36h22.85q12,0,18.49-7.35t6.53-18.77V65.28q0-10.33-6-16.46t-19-6.12Zm0,105v72.35h22.85q13,0,19-6.12t6-16.46V173.81q0-11.43-6.53-18.77t-18.49-7.34Z"/><path class="cls-2" d="M685.44,4.62h62q16.32,0,28.15,4.9A58.3,58.3,0,0,1,795.19,22.3a51.68,51.68,0,0,1,11.56,17.82,54.73,54.73,0,0,1,3.81,19.72v29.1q0,26.94-15.23,42.16A47.23,47.23,0,0,1,806.75,147a46.55,46.55,0,0,1,3.81,18.63v37.26a54,54,0,0,1-15.37,37.4,57.11,57.11,0,0,1-19.58,12.92q-11.83,4.91-28.15,4.9h-62Zm50,55.22v46h12q6.79,0,9.38-3.27t2.58-10.33V73.44q0-7.06-2.58-10.34t-9.38-3.26Zm0,97.1v46h12q6.79,0,9.38-3.26t2.58-10.34V170.54q0-7.06-2.58-10.33t-9.38-3.27Z"/><path class="cls-2" d="M821.44,4.62h62q16.32,0,28.15,4.9A58.3,58.3,0,0,1,931.19,22.3a51.68,51.68,0,0,1,11.56,17.82,54.73,54.73,0,0,1,3.81,19.72v29.1q0,26.94-15.23,42.16A47.23,47.23,0,0,1,942.75,147a46.55,46.55,0,0,1,3.81,18.63v37.26a54,54,0,0,1-15.37,37.4,57.11,57.11,0,0,1-19.58,12.92q-11.83,4.91-28.15,4.9h-62Zm50,55.22v46h12q6.79,0,9.38-3.27t2.58-10.33V73.44q0-7.06-2.58-10.34t-9.38-3.26Zm0,97.1v46h12q6.79,0,9.38-3.26t2.58-10.34V170.54q0-7.06-2.58-10.33t-9.38-3.27Z"/><path class="cls-2" d="M971,4.9h184.14a65.1,65.1,0,0,1,25.71,5,61.23,61.23,0,0,1,20.26,13.73,62,62,0,0,1,13.19,21A72.24,72.24,0,0,1,1219.1,71q0,19.32-8.16,34.27t-25.29,23.12a12.92,12.92,0,0,0-2.18,1.09,2.14,2.14,0,0,0-.81,1.91,2.32,2.32,0,0,0,.95,2,14.67,14.67,0,0,0,2,1.22,47.52,47.52,0,0,1,15.23,10.06,59,59,0,0,1,10.34,13.88,63.42,63.42,0,0,1,6,16,76.42,76.42,0,0,1,1.9,16.87,67.54,67.54,0,0,1-3,20.4,65.06,65.06,0,0,1-8.29,17.27,66.77,66.77,0,0,1-12.52,13.74,68.51,68.51,0,0,1-15.64,9.79,54.53,54.53,0,0,1-14.55,3.94,116.37,116.37,0,0,1-14.82.95q-16.05,0-31.83.28t-31.82.27q-21.21,0-41.89-.41t-41.89-.41c-4.89,0-9.75.1-14.55.27s-9.65.28-14.55.28q-7.08,0-9.38-1t-2.32-6.66v-43q0-21.21.55-43c0-1.45-.05-2.9-.14-4.35s-.13-2.9-.13-4.36q0-4.34,2.44-5.3a21.59,21.59,0,0,1,7.35-.95h26.93q5.43,0,6.8-1.09c.9-.72,1.36-2.9,1.36-6.53,0-1.45-.05-3.13-.14-5s-.14-4.12-.14-6.66c0-1.45,0-3,.14-4.49s.14-3.31.14-5.31q0-4.08-1.64-5.44c-1.08-.9-2.9-1.36-5.44-1.36H970q-5.16,0-6.53-1.36c-.91-.9-1.36-3.08-1.36-6.52V13.33c0-3.81.5-6.16,1.5-7.07S967.05,4.9,971,4.9Zm-2.18,28.56A1,1,0,0,0,970,34.54c.72,0,1.09-.54,1.09-1.63A1,1,0,0,0,970,31.82c-.91,0-1.36.37-1.36,1.09,0,.18,0,.27.14.27S968.86,33.28,968.86,33.46Zm6.8,19.31a5.17,5.17,0,0,1-.27-2,16.79,16.79,0,0,0-.27-3c-.18-1-.37-1.86-.54-2.59s-.55-1.09-1.09-1.09-.82.37-.82,1.09v1.63a28.76,28.76,0,0,0,.55,5.17c.36,2,1.08,3,2.17,3a1.3,1.3,0,0,0,.27-.95Zm5.17,128.65a1.56,1.56,0,0,0-1.09-.54c.18,0,0,.27-.54.82a1.56,1.56,0,0,0,1.09.54C980.11,182.24,980.29,182,980.83,181.42Zm-.27,42.16a1.07,1.07,0,0,1-.82-.27v.82a.48.48,0,0,0,.55.54,1.19,1.19,0,0,1,.13-.54A1.21,1.21,0,0,0,980.56,223.58Zm4.35-54.67c0-1.09-.64-1.63-1.9-1.63-1.09,0-1.63.46-1.63,1.36S981.92,170,983,170A2.34,2.34,0,0,0,984.91,168.91Zm0,41.35c0-.91-.36-1.36-1.09-1.36a1.44,1.44,0,0,0-1.63,1.63c0,.91.36,1.36,1.09,1.36A1.44,1.44,0,0,0,984.91,210.26Zm-.54-142.8c1.26,0,1.9-.46,1.9-1.36,0-.73-.45-1.09-1.36-1.09a1.2,1.2,0,0,0-1.36,1.36C983.55,67.09,983.82,67.46,984.37,67.46Zm1.36,108.8a1,1,0,0,0-1.09,1.08.48.48,0,0,0,.54.55.8.8,0,0,0,.55.27.91.91,0,0,0,.81-.41,6.61,6.61,0,0,1,.82-.95,1.66,1.66,0,0,1-1-.27A1.33,1.33,0,0,0,985.73,176.26Zm8.43,5.16a2.47,2.47,0,0,0,1.09-.27c.36-.18.54-.72.54-1.63a10.82,10.82,0,0,0-1.22-2.31,2.67,2.67,0,0,0-2.31-1,4.39,4.39,0,0,0-1.91.54,5.57,5.57,0,0,1-.27-1.77,1.15,1.15,0,0,0-.82-1.22c-.91,0-1.36.32-1.36.95a5.61,5.61,0,0,1-.27,1.77,2.86,2.86,0,0,1,2.31.81,13.93,13.93,0,0,1,1.23,1.77,11.23,11.23,0,0,0,1.09,1.63A2.28,2.28,0,0,0,994.16,181.42Zm-3.81,56.85c1.27,0,1.91-.72,1.91-2.17a1.2,1.2,0,0,0-1.36-1.36,1.75,1.75,0,0,0-1.91,1.63C989,237.46,989.44,238.09,990.35,238.27Zm2.18-6.53c.18,0,.27-.17.27-.54a.78.78,0,0,0-.27-.54l-.55.27C992,231.47,992.16,231.74,992.53,231.74Zm1.36-11.69a3.89,3.89,0,0,1,1-1.09.92.92,0,0,0,.41-.82,1.21,1.21,0,0,0-1.36-1.36c-.73,0-1.09.46-1.09,1.36a1.71,1.71,0,0,0,.27,1A6.11,6.11,0,0,0,993.89,220.05Zm4.35-29.38.54-.54h-.54Zm4.35-7.61c-.36-1.09-.81-1.64-1.36-1.64a2.4,2.4,0,0,0-1,.41,1.15,1.15,0,0,0-.68.95,1.2,1.2,0,0,0,1.36,1.36C1001.32,184.14,1001.87,183.78,1002.59,183.06ZM1008,219a32.73,32.73,0,0,0-2.31,4.35,5.53,5.53,0,0,1-3.94,3c-1.46.37-2.18,1-2.18,1.91a4.64,4.64,0,0,0,.82,1.9,22.74,22.74,0,0,0,1.9,2.72,21.23,21.23,0,0,0,2.45,2.59,3.9,3.9,0,0,0,2.45,1.22c1.81,0,2.72-.5,2.72-1.5v-3.67c0-2.9.4-4.62,1.22-5.17a2.73,2.73,0,0,0,1.22-2.44,3.26,3.26,0,0,0-1.49-2.72C1009.89,220.41,1008.94,219.69,1008,219Zm-5.71-194.48-.27.27.27.27Zm7.62,165.38a10.4,10.4,0,0,0-3.27-.82c-2,0-3,1.63-3,4.9a28.5,28.5,0,0,0,.41,4.21c.27,1.73.58,3.4.95,5a16,16,0,0,0,1.5,4.22q.94,1.77,2,1.77a3.45,3.45,0,0,0,2.72-.95,2.86,2.86,0,0,0,.81-1.77,8.82,8.82,0,0,0-1.36-4.49,8.82,8.82,0,0,1-1.36-4.49,1.49,1.49,0,0,1,1-1.49c.64-.28,1.32-.55,2-.82a6.7,6.7,0,0,0,2-1.22,3,3,0,0,0,1-2.45c-.19-1.27-.82-1.91-1.91-1.91a7.5,7.5,0,0,0-2,.28A2.08,2.08,0,0,1,1009.94,189.86Zm-3.81-160.48c.72,0,1.09-.28,1.09-.82a.73.73,0,0,0-.82-.82.77.77,0,0,1-.54.28l-.55.54Zm4.62,151.5c.55.91,1.18,1.86,1.91,2.86a3,3,0,0,0,2.44,1.49,2.91,2.91,0,0,0,2.18-1.49,15,15,0,0,0,1.9-3.81,27.5,27.5,0,0,0,1.23-4.76,25.87,25.87,0,0,0,.41-4.08,1.84,1.84,0,0,0-.82-1.63,2.87,2.87,0,0,0-1.63-.55c-1.09,0-1.63.18-1.63.55a4,4,0,0,1-1.5,3,13,13,0,0,1-2.72,1.36,22,22,0,0,0-2.58,1.09,2.17,2.17,0,0,0-1.09,2.17,3.78,3.78,0,0,0,.27,1.63c-.91.37-1.63.64-2.18.82s-.81.73-.81,1.63a3.81,3.81,0,0,0,.68,2.31,2.33,2.33,0,0,0,2,1c1.09,0,1.67-.37,1.77-1.09A20,20,0,0,0,1010.75,180.88ZM1008,219a6.53,6.53,0,0,1,1.23.14,6.19,6.19,0,0,0,1.22.13c1.45,0,2.35-.81,2.72-2.45,0-1.45-.64-2.17-1.9-2.17s-2,.36-2.32,1.09A31.8,31.8,0,0,0,1008,219Zm3-132.19c-.36-.55-.72-.82-1.08-.82a1,1,0,0,0-1.09,1.09c.36.73.72,1.09,1.09,1.09s.54-.09.54-.27A2.8,2.8,0,0,1,1011,86.77Zm4.36-51.68a4,4,0,0,1-1.09-.14,4.57,4.57,0,0,0-1.09-.13c-1.27,0-1.9.72-1.9,2.17,0,2.36,1,3.54,3,3.54a10.53,10.53,0,0,0,3.53-.82,3,3,0,0,0,2.18-3,2.31,2.31,0,0,0-2.45-1.63Zm-2.72,15.77-.82-.81a1.52,1.52,0,0,0-.54,1.09c0,.18.17.45.54.81Zm2.17,152.87a11.54,11.54,0,0,0-.54,1.9l.27.55a.48.48,0,0,0,.54-.55,3,3,0,0,0-.13-.95A2.75,2.75,0,0,1,1014.83,203.73Zm1.91-171.36a1.68,1.68,0,0,0,1.36-1.91c-.19-.72-.37-1.45-.55-2.17s-.81-1.09-1.9-1.09a1,1,0,0,0-1.09,1.09,8.11,8.11,0,0,0,.41,2.58A2.16,2.16,0,0,0,1016.74,32.37Zm-1.91,171.36c.91-.36,1.36-.82,1.36-1.36a.24.24,0,0,0-.27-.27C1015.55,202.1,1015.19,202.64,1014.83,203.73Zm146.61-90.31H1027.07c-3.63,0-5.44,1.82-5.44,5.44,0,2.55.77,4,2.31,4.36a29.58,29.58,0,0,0,6.4.54h131.92a13.48,13.48,0,0,0,5-.82q2-.81,2-4.62,0-3.27-2.45-4.08A17.25,17.25,0,0,0,1161.44,113.42Zm-66.64,25q-16,0-31.55-.14t-32.1-.13a21.18,21.18,0,0,0-6.66.95c-1.91.64-2.86,2.22-2.86,4.76q0,4.35,3.27,4.76a57.43,57.43,0,0,0,7.07.41q15.77,0,31.55.13t31.82.14q16,0,31.69-.14t31.69-.13a39,39,0,0,0,7.34-.68c2.36-.46,3.54-1.95,3.54-4.49s-1.68-4.12-5-4.76a63.16,63.16,0,0,0-11.56-.95q-16.32,0-29.92.13T1094.8,138.45Zm-65-61.2c-.54-1.45-1.36-2.18-2.45-2.18a6.08,6.08,0,0,0-2.72.68,2.39,2.39,0,0,0-1.36,2.31c.18,1.64,1.18,2.45,3,2.45Q1029.78,80.51,1029.79,77.25Zm-4.08-50.87a4.67,4.67,0,0,1,1.5-.95c.63-.27,1-.59,1-.95,0-.54-.37-.82-1.09-.82a5.57,5.57,0,0,0-1.9.41,2,2,0,0,0-1.36,1.23C1023.81,26,1024.44,26.38,1025.71,26.38Zm1.36,41.35a1.2,1.2,0,0,0-1.36-1.36c-.72,0-1.09.45-1.09,1.36,0,.72.45,1.09,1.36,1.09C1026.35,68.82,1026.71,68.45,1027.07,67.73Zm2.18-13.33-.82-.82c-.18,0-.45.19-.81.55l.81.81C1028.61,54.94,1028.88,54.77,1029.25,54.4Zm3.26,179.52a25.2,25.2,0,0,0,4.22-2,4.52,4.52,0,0,0,2-4.22c0-.54-.46-.81-1.36-.81q-3.81,0-4.08,2.58A26.66,26.66,0,0,1,1032.51,233.92Zm3-56.3c-1.27.18-1.9,1-1.9,2.44,0,.55.45,1,1.36,1.36,1.27,0,1.9-.81,1.9-2.44C1036.86,178.43,1036.41,178,1035.5,177.62Zm.82-160.48-.54-1.09c-.91.54-1.36.91-1.36,1.09a.54.54,0,0,0,.13.4.58.58,0,0,1,.14.41Zm.82,22a3.08,3.08,0,0,0,2-.82,2.45,2.45,0,0,0,1-1.9,1.16,1.16,0,0,0-.55-1,1.57,1.57,0,0,0-.81-.41A2.08,2.08,0,0,0,1037,36a4.87,4.87,0,0,1-1.77,1.5,8.92,8.92,0,0,1,1.09,1.22A.92.92,0,0,0,1037.14,39.17Zm-1.36,125.12.81-.82v-.27l-.27-.27a1.16,1.16,0,0,0-.54.13,1.15,1.15,0,0,1-.55.14Zm2.44-140.35v-.55l-.54.27Zm3,24.75c.9,0,1.36-.36,1.36-1.09a2.28,2.28,0,0,0-1.36-.82c-.55,0-.82.37-.82,1.09Zm2.17,160.75a.24.24,0,0,0,.27.27l.28-.54-.28-.27Q1043.39,208.9,1043.39,209.44Zm1.09,5.71a1,1,0,0,0-1.09,1.09,1.08,1.08,0,0,0,1.09.82.73.73,0,0,0,.82-.82c0-.36,0-.54-.14-.54S1044.84,215.52,1044.48,215.15ZM1045,35.09c0-.18,0-.27.14-.27s.14-.09.14-.28a.86.86,0,0,0-.55-.27l-.27.55Q1044.48,35.09,1045,35.09Zm3.54,153.68c-1.27,0-1.9.73-1.9,2.17a1.2,1.2,0,0,0,1.36,1.36c1.08,0,1.72-.31,1.9-1a8.51,8.51,0,0,0,.27-2.31A5.16,5.16,0,0,0,1048.56,188.77Zm3.54,50a1.6,1.6,0,0,0-1.36-.82c-.37,0-.55.37-.55,1.09a.72.72,0,0,0,.82.81A1,1,0,0,0,1052.1,238.82Zm0-139.81c-.37,0-.6,0-.68-.14a.58.58,0,0,0-.41-.13.54.54,0,0,1-.14.4.58.58,0,0,0-.13.41.23.23,0,0,0,.27.27c0,.19.18.28.54.28Zm2.17,88.94q4.62,0,7.07,5.17c-.91.18-1.81.32-2.72.41s-1.45.86-1.63,2.31c0,1.27.36,1.9,1.09,1.9s1.4-.49,2-1.49a14.74,14.74,0,0,0,1.5-3.13c.36-1.09.81-2.54,1.36-4.35a9.25,9.25,0,0,0-1.64-4.08,5.12,5.12,0,0,0-4.62-2.72,4,4,0,0,0-3.54,2.45q-1.37,2.45-2.44,4.08c.72-.18,1.36-.32,1.9-.41A10,10,0,0,1,1054.27,188Zm.82,38.35,1.09-1.08a1.69,1.69,0,0,0-1.91-1.91c-.54,0-.81.55-.81,1.63C1053.46,225.67,1054,226.13,1055.09,226.3Zm5.17-176.25c-.19,0-.28,0-.28.13s-.09.14-.27.14h-.54a.47.47,0,0,0,.54.54C1060.07,50.86,1060.26,50.59,1060.26,50.05Zm1.08,153.41a.78.78,0,0,1-.54.27.78.78,0,0,0,.27.54.78.78,0,0,1,.55-.27C1061.43,204,1061.34,203.82,1061.34,203.46ZM1066.78,15l-1.08-.54v.81c0,.37.17.55.54.55Zm1.36,60.93c0-.91-.18-1.45-.54-1.63a2.41,2.41,0,0,0-1.09.27.86.86,0,0,0-.54.81,1,1,0,0,0,1.09,1.09A1.56,1.56,0,0,0,1068.14,75.89Zm-1.36,106.35.28-.27h-.28Zm1.09-112.61v.55l.55-.28C1068.42,69.73,1068.23,69.63,1067.87,69.63Zm4.35,108-.54-1.09c-.91,0-1.36.27-1.36.81,0,.37.27.64.82.82A1.56,1.56,0,0,0,1072.22,177.62Zm3.27-10.88a1.59,1.59,0,0,0,.54-1.09.24.24,0,0,0-.27-.27c-.37,0-.54-.09-.54-.28l-.55,1.09C1074.67,166,1074.94,166.19,1075.49,166.74Zm3-104.18a1.56,1.56,0,0,1-1.09-.54.78.78,0,0,0-.27.54c0,.18.18.45.54.82Zm0,108a3.09,3.09,0,0,0,1.77-.68,2.08,2.08,0,0,0,1-1.76c0-.73-.54-1.09-1.63-1.09a2.73,2.73,0,0,0-2.18,3C1077.39,170.37,1077.75,170.54,1078.48,170.54Zm-.54,25.84,1.08-.81-.27-.55a1.59,1.59,0,0,0-1.09.28.54.54,0,0,0,.14.4A1.1,1.1,0,0,1,1077.94,196.38Zm2.72-124.3c0-1.09-.28-1.63-.82-1.63-1.27,0-1.9.36-1.9,1.09s.45,1.08,1.36,1.08A1.83,1.83,0,0,0,1080.66,72.08Zm-.82,4.35c-.54-.54-.73-.81-.54-.81a1.2,1.2,0,0,0-.55.13,1.21,1.21,0,0,1-.54.14l.54,1.09A1.57,1.57,0,0,0,1079.84,76.43Zm-1.36-21.76v.55a.58.58,0,0,0,.41-.14.55.55,0,0,1,.41-.14.55.55,0,0,1-.41-.13A.58.58,0,0,0,1078.48,54.67Zm2.18-32.91c-.91,0-1.36.37-1.36,1.09a1.13,1.13,0,0,0,.68.95,2.42,2.42,0,0,0,1.22.41,4.07,4.07,0,0,0,1.63-.55c-.36-.36-.72-.77-1.09-1.22A1.47,1.47,0,0,0,1080.66,21.76Zm2.44,152.32a1.59,1.59,0,0,0-.54-1.09l-.82.55.55,1.08Q1082.83,174.08,1083.1,174.08Zm0,7.34-.54.55a.56.56,0,0,1,.41.13.51.51,0,0,0,.41.14c0-.36-.05-.5-.14-.41S1083.1,181.79,1083.1,181.42Zm.82-131.92c-.73.37-1.09.73-1.09,1.09a1.81,1.81,0,0,0,.41,1.09,1.41,1.41,0,0,0,1.22.54,1,1,0,0,0,.82-1.08C1085.28,50.59,1084.83,50.05,1083.92,49.5ZM1083.38,77l-.28-.55-.27.55Zm2.44-50.32c.73,0,1.09-.45,1.09-1.36,0-.73-.45-1.13-1.36-1.23s-1.72-.13-2.45-.13c.36.54.73,1.13,1.09,1.76A1.76,1.76,0,0,0,1085.82,26.66Zm4.36,204.54c-.37-.91-.87-1.36-1.5-1.36h-2a13.19,13.19,0,0,0-2,.68,1.7,1.7,0,0,0-.95,1.77,1.44,1.44,0,0,0,1.63,1.63,16.5,16.5,0,0,0,2.72-.54C1089.45,233,1090.18,232.29,1090.18,231.2ZM1088,242.62l-.54.28a.74.74,0,0,0,.27.54l.54-.54Zm4.08-163.74a1.85,1.85,0,0,1,.68-.41.63.63,0,0,0,.41-.68c0-.36-.27-.72-.82-1.09-.91,0-1.36.37-1.36,1.09C1091,78.16,1091.35,78.52,1092.08,78.88Zm1.9,13.06a1.1,1.1,0,0,1-.13.68.5.5,0,0,0-.14.4l.55.28a1.52,1.52,0,0,1,.54-1.09A1.11,1.11,0,0,1,1094,91.94Zm2.18-59.57a.53.53,0,0,1-.41-.14,1.1,1.1,0,0,0-.68-.13q0,1.08.27,1.08c.37,0,.55-.09.55-.27A.78.78,0,0,1,1096.16,32.37Zm-.54,151.5v-.54a.78.78,0,0,0-.55.27v.27Zm1.9,34.55c0-.91-.37-1.36-1.09-1.36a1.09,1.09,0,1,0,0,2.17C1096.79,219.23,1097.15,219,1097.52,218.42Zm2.18-154.77c0-.55-.37-.82-1.09-.82a.72.72,0,0,0-.82.82,1,1,0,0,0,1.09,1.09C1099.42,64.74,1099.7,64.37,1099.7,63.65Zm1.36,16.05.54-.55a1.59,1.59,0,0,0-1.09-.54.78.78,0,0,0-.27.54C1100.42,79.15,1100.69,79.33,1101.06,79.7Zm2.17-7.62a1.48,1.48,0,0,1-.68-.54.45.45,0,0,0-.41-.28c-.72,0-1.08.28-1.08.82v.54c0,.19.17.28.54.28a1.1,1.1,0,0,0,.82-.28A3.22,3.22,0,0,1,1103.23,72.08Zm3.4,5.71c.09,0,.23-.18.41-.54a.8.8,0,0,0-.54-.27c-.19,0-.46.18-.82.54l.54.54C1106.4,77.89,1106.54,77.79,1106.63,77.79Zm.95,147.43,1.36-1.36a1.36,1.36,0,0,0-2.72,0,.63.63,0,0,0,.41.68A2.57,2.57,0,0,1,1107.58,225.22Zm2.72-175.44h-1.22c-.46,0-.68.18-.68.54a2.23,2.23,0,0,0,1.09,2,4.54,4.54,0,0,0,2.45.68c.9,0,1.36-.27,1.36-.82,0-1.08-.28-1.76-.82-2A4.93,4.93,0,0,0,1110.3,49.78Zm-1.08-13.88-.28-.27v.55Zm3.53,188.77a.24.24,0,0,1,.27.27c0-.17,0-.27.14-.27s.14-.09.14-.27c-.19,0-.28,0-.28-.14s-.09-.13-.27-.13Zm1.36-149c-.73.18-1.09.54-1.09,1.08,0,1.27.36,1.91,1.09,1.91,1.09,0,1.63-.27,1.63-.82A2.12,2.12,0,0,0,1114.11,75.62Zm2.45-43.25A1.2,1.2,0,0,0,1115.2,31c-.73,0-1.09.45-1.09,1.36,0,.72.45,1.09,1.36,1.09A1,1,0,0,0,1116.56,32.37ZM1116,212.7c0-.54-.1-.81-.28-.81a.48.48,0,0,0-.54.54C1115.2,212.61,1115.47,212.7,1116,212.7Zm1.9-153.95c-1.27.37-1.9,1.09-1.9,2.18,0,.54.45,1,1.36,1.36,1.08,0,1.81-.63,2.17-1.91A1.44,1.44,0,0,0,1117.92,58.75Zm2.45,114.79c.9,0,1.36-.37,1.36-1.09a1.09,1.09,0,1,0-2.18,0A1.07,1.07,0,0,0,1120.37,173.54Zm1.09-108.26a7,7,0,0,0,.54,2,2.12,2.12,0,0,0,2.18,1.5,1.78,1.78,0,0,0,1.76-.82,3.1,3.1,0,0,0,.41-1.36,2.93,2.93,0,0,0-.54-1.63,2.9,2.9,0,0,1-.55-1.63C1122.72,63.74,1121.46,64.37,1121.46,65.28Zm.54,8.43-.27.27h-.27a1.67,1.67,0,0,1,.27,1.09l.81-.81Zm3.26,16.87a1.58,1.58,0,0,0-1.36-.82,1.2,1.2,0,0,0-1.36,1.36,1,1,0,0,0,1.09,1.09A1.44,1.44,0,0,0,1125.26,90.58Zm2.45-69.91a1,1,0,0,0-1.09-1.09c-.36,0-.63.28-.81.82a1,1,0,0,0,1.09,1.09C1127.07,21.49,1127.35,21.22,1127.71,20.67Zm1.36,182.79c0-1.09-.45-1.64-1.36-1.64-.72,0-1.09.46-1.09,1.36a1,1,0,0,0,1.09,1.09C1128.62,204.27,1129.07,204,1129.07,203.46Zm-.81-13.06-.28-.27-.27.27Zm4.62,51.14c0-.91-.54-1.36-1.63-1.36a9.7,9.7,0,0,0-2,.27,1.47,1.47,0,0,0-1.23,1.63c0,.54.32.86,1,.95a9.87,9.87,0,0,0,1.49.14A2.32,2.32,0,0,0,1132.88,241.54Zm-1.9-75.08-.82-.81a.64.64,0,0,0-.68.54,3.94,3.94,0,0,0-.14.82.48.48,0,0,0,.55.54A1,1,0,0,0,1131,166.46Zm.27-140.08c.18,0,.27-.17.27-.54,0-.18-.27-.45-.82-.82l-.54,1.09a1.21,1.21,0,0,1,.54.14A1.23,1.23,0,0,0,1131.25,26.38Zm2.72,156.4c.54,0,.81-.17.81-.54a.56.56,0,0,0-.13-.41.51.51,0,0,1-.14-.41,1.61,1.61,0,0,0-1.09.55.25.25,0,0,1,.28.27C1133.7,182.61,1133.79,182.78,1134,182.78ZM1142.67,49a4.12,4.12,0,0,0-3.26-1.63,6.29,6.29,0,0,0-1.23.13.85.85,0,0,0-.68,1c0,.91.68,1.45,2,1.63s2.13.27,2.32.27C1142.4,50.32,1142.67,49.87,1142.67,49Zm-3.53,178.16c-.37-.36-.64-.54-.82-.54-.37.36-.54.63-.54.81,0,.37.27.55.81.55Zm-.28,18.77a1.59,1.59,0,0,0-.54-1.09l-.27.27-.27.27a.55.55,0,0,0,.13.41.56.56,0,0,1,.14.41A1.1,1.1,0,0,1,1138.86,245.89ZM1140,39.44c-1.27,0-1.9.45-1.9,1.36,0,1.27.72,1.9,2.17,1.9.73,0,1.09-.45,1.09-1.36A1.93,1.93,0,0,0,1140,39.44Zm3.27,155.86c-.91,0-1.36.36-1.36,1.08,0,.91.36,1.36,1.08,1.36a1,1,0,0,0,1.09-1.08A1.59,1.59,0,0,0,1143.22,195.3Zm.27-9a.78.78,0,0,1-.27-.54c-.19,0-.28,0-.28.13s-.09.14-.27.14a.78.78,0,0,0,.27.54A.8.8,0,0,1,1143.49,186.32Zm2.17,31c-1.27,0-2,.45-2.17,1.36,0,.54.36,1,1.09,1.36,1.26,0,1.9-.45,1.9-1.36A2.21,2.21,0,0,0,1145.66,217.33Zm-.54-124.58a1.58,1.58,0,0,1-.27,1.09q.81,0,.81-.27v-.82Zm2.72-51.41a3.59,3.59,0,0,0-2.72,3.81c.18,1.09,1,1.63,2.45,1.63a8.15,8.15,0,0,0,2.58-.4c.82-.28,1.23-1.05,1.23-2.32C1151.38,42.25,1150.19,41.34,1147.84,41.34Zm.82,130a2.79,2.79,0,0,0,2.72,1.9c.9,0,1.94,0,3.12-.13s1.77-.32,1.77-.68c0-.91-.73-1.63-2.17-2.18s-2.55-.9-3.27-1.09A1.92,1.92,0,0,0,1148.66,171.36Zm2.17-109.07c-.72,0-1.09.45-1.09,1.36l.82.81,1.09-1.63a.24.24,0,0,0-.27-.27C1151,62.56,1150.83,62.47,1150.83,62.29Zm3.81,96.29-.27-.55a.84.84,0,0,0-.55.27l.55.55Zm2.18-88.4-.55,1.08c.18,0,.27,0,.27.14s.09.14.28.14a.84.84,0,0,0,.27-.55.78.78,0,0,1,.27-.54A.76.76,0,0,1,1156.82,70.18Zm1.9,10.6a.48.48,0,0,0-.54-.54c-.37,0-.55.09-.55.27a.24.24,0,0,0,.27.27ZM1162,244.26a.81.81,0,0,0,.28-.55c0-.18,0-.27-.14-.27s-.14-.09-.14-.27l-.54.27C1161.44,244,1161.62,244.26,1162,244.26Zm2.45-10.34-1.09.54.82,1.09c.54-.54.82-.72.82-.54A1.61,1.61,0,0,0,1164.43,233.92Zm6.26-25.3c0-.9-.37-1.36-1.09-1.36a5,5,0,0,0-1.36,1.36c0,.73.45,1.09,1.36,1.09A1,1,0,0,0,1170.69,208.62Zm.54-162.38a2.69,2.69,0,0,1,1-.68c.28-.09.41-.31.41-.68,0-.54-.36-.82-1.09-.82-1.08,0-1.63.46-1.63,1.36C1169.87,46,1170.32,46.24,1171.23,46.24Zm1.91,174.35a5.3,5.3,0,0,1,1.22-.41c.45-.09.68-.49.68-1.22a2,2,0,0,0-1.09-1.9,4.72,4.72,0,0,0-2.17-.55,1.45,1.45,0,0,0-1.64,1.63,1.71,1.71,0,0,0,1,1.77A13.19,13.19,0,0,0,1173.14,220.59Zm2.44,13.33a4.48,4.48,0,0,1-.54-.68.93.93,0,0,0-.82-.41c-.18,0-.45.37-.81,1.09a1,1,0,0,0,1.09,1.09C1175,235,1175.4,234.65,1175.58,233.92Zm1.91-5.44c-.18,0-.27,0-.27-.14s-.1-.13-.28-.13l-.27.54.55.27C1177.39,229,1177.49,228.84,1177.49,228.48Zm5.17-23.66a1.36,1.36,0,0,0-2.72,0c0,.91.54,1.36,1.63,1.36C1182.29,206.18,1182.66,205.73,1182.66,204.82ZM1181.57,40a1.21,1.21,0,0,1-.14.55,1.19,1.19,0,0,0-.13.54h.54q.54,0,.54-.27c0-.36-.09-.5-.27-.41S1181.75,40.35,1181.57,40Zm.27,18.5v.82a.24.24,0,0,0,.27.27c.18,0,.27-.18.27-.55A.48.48,0,0,0,1181.84,58.48Zm2.72,124.58c-.73.36-1.09.72-1.09,1.08,0,.55.45.82,1.36.82.55-.18.82-.45.82-.82A1,1,0,0,0,1184.56,183.06Zm5.17-102c-.55-.55-.91-.82-1.09-.82a1.63,1.63,0,0,0-.82,1.36.73.73,0,0,0,.82.82C1189.36,82.42,1189.73,82,1189.73,81.06Zm5.17,117.5c0-.9-.1-1.36-.28-1.36a1.08,1.08,0,0,0-1.08.54l-.55,1.09c0,.73.18,1.09.55,1.09.54,0,.85-.18,1-.54A1.62,1.62,0,0,1,1194.9,198.56Zm1.9-133.82a.94.94,0,0,1,.68-.28c.27,0,.41-.17.41-.54a1,1,0,0,0-1.09-1.09c-.73,0-1.09.27-1.09.82C1195.71,64,1196.07,64.37,1196.8,64.74Z"/><path class="cls-1" d="M1229.44,63.92a82.12,82.12,0,0,1,3.67-24.75,56,56,0,0,1,11.29-20.4A52.86,52.86,0,0,1,1263.85,5q11.84-5,28.15-5t28.15,5a52.94,52.94,0,0,1,19.45,13.74,56.17,56.17,0,0,1,11.29,20.4,82.12,82.12,0,0,1,3.67,24.75V190.67a109.9,109.9,0,0,1-3.67,29.51,63,63,0,0,1-11.29,22.72,50,50,0,0,1-19.45,14.68q-11.84,5.18-28.15,5.17t-28.15-5.17a50,50,0,0,1-19.45-14.68,62.86,62.86,0,0,1-11.29-22.72,109.9,109.9,0,0,1-3.67-29.51Zm53.31,130q0,13.59,9.25,13.6t9.25-13.6V68.82q0-13.6-9.25-13.6t-9.25,13.6Z"/><path class="cls-1" d="M1365.44,63.92a82.12,82.12,0,0,1,3.67-24.75,56,56,0,0,1,11.29-20.4A52.86,52.86,0,0,1,1399.85,5q11.84-5,28.15-5t28.15,5a52.94,52.94,0,0,1,19.45,13.74,56.17,56.17,0,0,1,11.29,20.4,82.12,82.12,0,0,1,3.67,24.75V198.83a82,82,0,0,1-3.67,24.75A56.17,56.17,0,0,1,1475.6,244a52.71,52.71,0,0,1-19.45,13.74q-11.84,5-28.15,5t-28.15-5A52.63,52.63,0,0,1,1380.4,244a56,56,0,0,1-11.29-20.4,82,82,0,0,1-3.67-24.75Zm84.32,0a26.23,26.23,0,0,0-5.17-16.32q-5.16-6.8-16.59-6.8t-16.59,6.8a26.17,26.17,0,0,0-5.17,16.32V198.83a26.15,26.15,0,0,0,5.17,16.32q5.16,6.81,16.59,6.8t16.59-6.8a26.21,26.21,0,0,0,5.17-16.32Z"/><path class="cls-3" d="M1501.44,63.92a82.12,82.12,0,0,1,3.67-24.75,56,56,0,0,1,11.29-20.4A52.86,52.86,0,0,1,1535.85,5q11.84-5,28.15-5t28.15,5a52.94,52.94,0,0,1,19.45,13.74,56.17,56.17,0,0,1,11.29,20.4,82.12,82.12,0,0,1,3.67,24.75V198.83a82,82,0,0,1-3.67,24.75A56.17,56.17,0,0,1,1611.6,244a52.71,52.71,0,0,1-19.45,13.74q-11.84,5-28.15,5t-28.15-5A52.63,52.63,0,0,1,1516.4,244a56,56,0,0,1-11.29-20.4,82,82,0,0,1-3.67-24.75Zm84.32,0a26.23,26.23,0,0,0-5.17-16.32q-5.16-6.8-16.59-6.8t-16.59,6.8a26.17,26.17,0,0,0-5.17,16.32V198.83a26.15,26.15,0,0,0,5.17,16.32q5.16,6.81,16.59,6.8t16.59-6.8a26.21,26.21,0,0,0,5.17-16.32Z"/><path class="cls-3" d="M1784.05,131.38a37.09,37.09,0,0,1,4.62-18.36,38,38,0,0,1,12.51-13.47V72.62q-12.78-7.61-20.26-23.8t-7.48-44.2a57.48,57.48,0,0,1,18.22,2.72,67.11,67.11,0,0,1,15,7.08,42,42,0,0,1,13.06-10.48A36.21,36.21,0,0,1,1836.54,0a36.59,36.59,0,0,1,16.6,3.81,42.11,42.11,0,0,1,13,10.06A63.14,63.14,0,0,1,1881,7.21a62.51,62.51,0,0,1,18.63-2.59q0,28-7.48,44.2t-20.27,23.8V99.55A38.07,38.07,0,0,1,1884.42,113a38.81,38.81,0,0,1-.14,37,39.05,39.05,0,0,1-12.65,13.46,98.65,98.65,0,0,1-9.38,38.76,107.73,107.73,0,0,1-22.44,31.55A103.34,103.34,0,0,1,1807.44,255a104.23,104.23,0,0,1-78.88,0,104.86,104.86,0,0,1-32.5-21.22,106.33,106.33,0,0,1-22.58-31.55,98.65,98.65,0,0,1-9.38-38.76A37.52,37.52,0,0,1,1647,131.38a37.09,37.09,0,0,1,4.62-18.36,38,38,0,0,1,12.52-13.47V72.62q-12.8-7.61-20.27-23.8t-7.48-44.2a61.3,61.3,0,0,1,18.5,2.59,70.07,70.07,0,0,1,15,6.66,42,42,0,0,1,13-10.06,37.75,37.75,0,0,1,33.32.13,41.52,41.52,0,0,1,13.2,10.48,60.86,60.86,0,0,1,14.82-7.08,58.78,58.78,0,0,1,18.36-2.72q0,28-7.48,44.2t-20.26,23.8V99.55A38.13,38.13,0,0,1,1747.33,113a38.79,38.79,0,0,1,0,36.72,39,39,0,0,1-12.24,13.46,31.87,31.87,0,0,0,3.67,11.42,35.09,35.09,0,0,0,7.21,9.12,31.48,31.48,0,0,0,10.06,6.12,33.36,33.36,0,0,0,12,2.17,32.27,32.27,0,0,0,11.83-2.17,34,34,0,0,0,17.41-15.24,31.87,31.87,0,0,0,3.67-11.42,36.68,36.68,0,0,1-12.37-13.46A37.87,37.87,0,0,1,1784.05,131.38Z"/><path class="cls-4" d="M2034.56,4.62v186a109.9,109.9,0,0,1-3.67,29.51,63,63,0,0,1-11.29,22.72,50,50,0,0,1-19.45,14.68q-11.84,5.18-28.15,5.17t-28.15-5.17a50,50,0,0,1-19.45-14.68,62.86,62.86,0,0,1-11.29-22.72,109.9,109.9,0,0,1-3.67-29.51V4.62h39.71V190.94q0,13.06,5.44,20.95t17.41,7.89q12,0,17.41-7.89t5.44-20.95V4.62Z"/><path class="cls-4" d="M2042.72,4.62h130.56V58.48h-39.44V258.13h-51.68V58.48h-39.44Z"/><path class="cls-4" d="M2178.72,4.62h130.56V58.48H2278V258.13h-68V58.48h-31.28Z"/><path class="cls-4" d="M2314.72,4.62h130.56V58.48H2414V258.13h-68V58.48h-31.28Z"/><path class="cls-5" d="M2499.14,258.13V59h-41.89V4.62h253.5V59h-43V258.13Z"/><path class="cls-5" d="M2722.72,4.62h130.56V58.48h-39.44V258.13h-51.68V58.48h-39.44Z"/><path class="cls-5" d="M2865.25,131.38a123.31,123.31,0,0,1,9.93-49.24,127.12,127.12,0,0,1,67.59-67.59,127,127,0,0,1,98.46,0,127.12,127.12,0,0,1,67.59,67.59,123.48,123.48,0,0,1,9.93,49.24,123.43,123.43,0,0,1-9.93,49.23,127.12,127.12,0,0,1-67.59,67.59,127,127,0,0,1-98.46,0,127.12,127.12,0,0,1-67.59-67.59A123.26,123.26,0,0,1,2865.25,131.38Zm34.54-35.09a30.79,30.79,0,0,0,2.45,12.24,32,32,0,0,0,16.86,16.86,30.79,30.79,0,0,0,12.24,2.45,31.56,31.56,0,0,0,14.56-3.4,27.54,27.54,0,0,0,10.74-9.66l28.83,16.6L2956.64,148a29.52,29.52,0,0,0-10.74-9.52,31.75,31.75,0,0,0-26.8-1.09,32,32,0,0,0-16.86,16.86,31.8,31.8,0,0,0,0,24.48,32,32,0,0,0,16.86,16.87,31.8,31.8,0,0,0,24.48,0,31.93,31.93,0,0,0,16.87-16.87,30.72,30.72,0,0,0,2.45-12.24,28.13,28.13,0,0,0-3-12.78l28.84-16.59V170a29.67,29.67,0,0,0-11.16,3.26,32.39,32.39,0,0,0-9,6.94,32,32,0,0,0-6,9.66,31.48,31.48,0,0,0,.28,23.66,32,32,0,0,0,16.86,16.86,31.8,31.8,0,0,0,24.48,0,32,32,0,0,0,16.86-16.86,31.48,31.48,0,0,0,.28-23.66,32,32,0,0,0-15-16.6,29.67,29.67,0,0,0-11.16-3.26V137.09l28.56,16.59a28.31,28.31,0,0,0-2.72,12.78,30.72,30.72,0,0,0,2.45,12.24,31.93,31.93,0,0,0,16.87,16.87,31.8,31.8,0,0,0,24.48,0,32,32,0,0,0,16.86-16.87,31.8,31.8,0,0,0,0-24.48,32,32,0,0,0-16.86-16.86,31.75,31.75,0,0,0-26.8,1.09,31.94,31.94,0,0,0-11,9.52l-28.56-16.59,28.56-16.6a29.63,29.63,0,0,0,11,9.66,31.5,31.5,0,0,0,14.56,3.4,30.79,30.79,0,0,0,12.24-2.45,32,32,0,0,0,16.86-16.86,31.8,31.8,0,0,0,0-24.48,32,32,0,0,0-16.86-16.87,31.92,31.92,0,0,0-24.48,0,31.93,31.93,0,0,0-16.87,16.87,30.79,30.79,0,0,0-2.45,12.24,28.28,28.28,0,0,0,2.72,12.78l-28.56,16.59V92.75a30.84,30.84,0,0,0,11.16-3.13,30,30,0,0,0,9-6.8,32.1,32.1,0,0,0,6-9.65,31.21,31.21,0,0,0,2.17-11.7,30.62,30.62,0,0,0-2.45-12.24,32,32,0,0,0-16.86-16.86,31.8,31.8,0,0,0-24.48,0,32,32,0,0,0-16.86,16.86,30.62,30.62,0,0,0-2.45,12.24,31.21,31.21,0,0,0,2.17,11.7,31.9,31.9,0,0,0,6,9.65,30,30,0,0,0,9,6.8,30.84,30.84,0,0,0,11.16,3.13v32.91l-28.84-16.59a28.13,28.13,0,0,0,3-12.78,30.79,30.79,0,0,0-2.45-12.24,31.93,31.93,0,0,0-16.87-16.87,31.92,31.92,0,0,0-24.48,0,32,32,0,0,0-16.86,16.87A30.79,30.79,0,0,0,2899.79,96.29Z"/></g></g></svg>