<?xml version="1.0" encoding="UTF-8" standalone="no"?>
<!DOCTYPE svg PUBLIC "-//W3C//DTD SVG 1.1//EN" "http://www.w3.org/Graphics/SVG/1.1/DTD/svg11.dtd">
<svg width="100%" height="100%" viewBox="0 0 51 50" version="1.1" xmlns="http://www.w3.org/2000/svg" xmlns:xlink="http://www.w3.org/1999/xlink" xml:space="preserve" xmlns:serif="http://www.serif.com/" style="fill-rule:evenodd;clip-rule:evenodd;stroke-linejoin:round;stroke-miterlimit:1.41421;">
    <g transform="matrix(1,0,0,1,-216.4,-402.674)">
        <path d="M239.295,419.138L239.295,427.44L248.625,427.44L248.625,431.515L239.295,431.515L239.295,439.817L234.954,439.817L234.954,415.063L248.892,415.063L248.892,419.138L239.295,419.138Z" style="fill:rgb(60,70,80);"/>
        <path d="M241.437,402.674C255.265,402.674 266.474,413.768 266.474,427.453C266.474,441.138 255.265,452.232 241.437,452.232C227.609,452.232 216.4,441.138 216.4,427.453C216.4,427.351 216.402,427.249 216.404,427.146L220.113,427.146C220.112,427.248 220.109,427.351 220.109,427.453C220.109,439.11 229.658,448.56 241.437,448.56C253.216,448.56 262.764,439.11 262.764,427.453C262.764,415.796 253.216,406.345 241.437,406.345C241.356,406.345 241.277,406.347 241.196,406.348L241.196,402.677C241.276,402.676 241.356,402.674 241.437,402.674Z" style="fill:rgb(60,70,80);"/>
        <path d="M216.509,425.148C216.53,424.916 216.555,424.685 216.583,424.455L220.272,424.847C220.243,425.077 220.219,425.309 220.198,425.542L216.509,425.148ZM216.881,422.601C216.927,422.372 216.975,422.144 217.028,421.916L220.656,422.686C220.603,422.913 220.555,423.142 220.509,423.371L216.881,422.601ZM217.524,420.088C217.594,419.866 217.668,419.645 217.744,419.425L221.272,420.566C221.195,420.785 221.122,421.006 221.053,421.229L217.524,420.088ZM218.437,417.651C218.53,417.436 218.627,417.224 218.726,417.013L222.113,418.513C222.013,418.724 221.917,418.936 221.824,419.151L218.437,417.651ZM219.596,415.333C219.711,415.131 219.828,414.931 219.948,414.732L223.159,416.573C223.038,416.771 222.921,416.972 222.807,417.174L219.596,415.333ZM220.99,413.151C221.125,412.962 221.262,412.775 221.403,412.59L224.403,414.752C224.262,414.936 224.124,415.123 223.99,415.312L220.99,413.151ZM222.623,411.106C222.777,410.932 222.934,410.761 223.093,410.591L225.846,413.052C225.687,413.221 225.53,413.392 225.376,413.566L222.623,411.106ZM224.449,409.252C224.62,409.096 224.793,408.942 224.968,408.791L227.447,411.522C227.271,411.673 227.099,411.827 226.928,411.984L224.449,409.252ZM226.463,407.592C226.649,407.454 226.838,407.321 227.028,407.188L229.205,410.161C229.015,410.293 228.827,410.428 228.641,410.566L226.463,407.592ZM228.642,406.151C228.841,406.034 229.041,405.92 229.243,405.808L231.094,408.991C230.892,409.102 230.692,409.216 230.494,409.333L228.642,406.151ZM230.952,404.947C231.162,404.851 231.374,404.757 231.587,404.667L233.094,408.022C232.88,408.112 232.669,408.206 232.459,408.303L230.952,404.947ZM233.395,403.98C233.615,403.907 233.835,403.837 234.057,403.769L235.2,407.263C234.978,407.33 234.757,407.401 234.538,407.475L233.395,403.98ZM235.898,403.284C236.123,403.234 236.35,403.187 236.577,403.142L237.348,406.735C237.12,406.779 236.893,406.825 236.669,406.876L235.898,403.284ZM238.479,402.847C238.708,402.82 238.938,402.797 239.169,402.776L239.556,406.428C239.325,406.448 239.095,406.471 238.866,406.498L238.479,402.847Z" style="fill:rgb(60,70,80);"/>
    </g>
</svg>
