<?xml version="1.0" encoding="UTF-8"?>
<svg width="187px" height="292px" viewBox="0 0 187 292" version="1.1" xmlns="http://www.w3.org/2000/svg" xmlns:xlink="http://www.w3.org/1999/xlink">
    <!-- Generator: Sketch 51.3 (57544) - http://www.bohemiancoding.com/sketch -->
    <title>Goethe Insitute Logo Vertical</title>
    <desc>Created with Sketch.</desc>
    <defs></defs>
    <g id="Goethe-Insitute-Logo-Vertical" stroke="none" stroke-width="1" fill="none" fill-rule="evenodd">
        <path d="M178.642,254.9974 L178.642,249.1824 L158.312,249.1824 L158.312,254.9974 L164.968,254.9974 L164.968,281.4864 L171.986,281.4864 L171.986,254.9974 L178.642,254.9974 Z M178.612,39.5184 C178.612,22.3884 164.728,8.5044 147.598,8.5044 C130.468,8.5044 116.582,22.3884 116.582,39.5184 C116.582,56.6484 130.468,70.5324 147.598,70.5324 C164.728,70.5324 178.612,56.6484 178.612,39.5184 Z M171.7,39.5184 C171.7,52.8294 160.907,63.6224 147.598,63.6224 C134.285,63.6224 123.494,52.8294 123.494,39.5184 C123.494,26.2074 134.285,15.4144 147.598,15.4144 C160.907,15.4144 171.7,26.2074 171.7,39.5184 Z M117.344,93.5484 C117.344,106.6534 106.674,117.2784 93.566,117.2784 C80.46,117.2784 69.835,106.6534 69.835,93.5484 C69.835,80.4424 80.46,69.8174 93.566,69.8174 L93.57,63.0394 C76.705,63.0394 63.032,76.6824 63.032,93.5434 C63.032,110.4144 76.705,124.0844 93.568,124.0844 C110.434,124.0844 124.07,110.4144 124.07,93.5484 L117.344,93.5484 Z M158.162,93.5434 C158.162,129.1914 129.219,158.0884 93.57,158.0884 C57.925,158.0884 29.03,129.1914 29.03,93.5434 C29.03,57.9004 57.925,29.0024 93.57,29.0024 L93.57,22.1154 C54.124,22.1154 22.144,54.0944 22.144,93.5434 C22.144,132.9924 54.124,164.9724 93.57,164.9724 C133.019,164.9724 164.951,132.9974 164.951,93.5484 L158.162,93.5434 Z M137.679,93.5434 L130.925,93.5484 C130.925,114.1474 114.165,130.8394 93.568,130.8394 C72.972,130.8394 56.277,114.1424 56.277,93.5434 C56.277,72.9494 72.977,56.2564 93.57,56.2564 L93.568,49.4874 C69.236,49.4874 49.512,69.2124 49.512,93.5434 C49.512,117.8794 69.236,137.6084 93.568,137.6084 C117.902,137.6084 137.679,117.8794 137.679,93.5434 Z M144.441,93.5484 C144.441,121.6214 121.639,144.3734 93.568,144.3734 C65.495,144.3734 42.741,121.6214 42.741,93.5484 C42.741,65.4754 65.495,42.7234 93.568,42.7234 L93.57,35.8764 C61.685,35.8764 35.835,61.6604 35.835,93.5434 C35.835,125.4314 61.685,151.2784 93.568,151.2784 C125.454,151.2784 151.238,125.4354 151.238,93.5484 L144.441,93.5484 Z M93.572,15.2824 L93.57,8.5044 C46.606,8.5044 8.534,46.5794 8.534,93.5434 C8.534,140.5084 46.607,178.5824 93.572,178.5824 C140.54,178.5824 178.612,140.5134 178.612,93.5484 L171.884,93.5434 C171.884,136.7664 136.798,171.8044 93.572,171.8044 C50.347,171.8044 15.307,136.7664 15.307,93.5434 C15.307,50.3204 50.347,15.2824 93.572,15.2824 Z M8.504,221.0504 C8.504,232.7464 14.665,238.3634 25.156,238.3634 C28.551,238.3634 32.732,237.6054 35.007,236.5364 L35.007,218.1084 L23.408,218.1084 L23.408,223.9034 L28.017,223.9034 L28.017,232.1774 C27.208,232.3194 25.985,232.3784 24.978,232.3784 C19.843,232.3784 15.864,229.6664 15.864,220.9594 C15.864,212.3884 19.885,209.6694 25.87,209.6694 C28.371,209.6694 31.664,210.2054 33.759,211.0534 L34.472,205.2054 C32.152,204.2674 28.371,203.6894 25.47,203.6894 C15.155,203.6894 8.504,209.0854 8.504,221.0504 Z M10.914,281.4864 L18.001,281.4864 L18.001,249.1834 L10.914,249.1834 L10.914,281.4864 Z M31.467,249.1834 L25.055,249.1834 L25.055,281.4864 L31.467,281.4864 L31.467,262.6294 L41.399,281.4864 L47.81,281.4864 L47.81,249.1834 L41.399,249.1834 L41.399,268.0414 L31.467,249.1834 Z M54.453,238.6794 C63.961,238.6794 68.552,233.5704 68.552,220.9384 C68.552,208.5734 63.961,203.2444 54.453,203.2444 C44.948,203.2444 40.355,208.5734 40.355,220.9384 C40.355,233.3024 45.125,238.6794 54.453,238.6794 Z M54.499,232.7644 C49.943,232.7644 47.712,229.8244 47.712,220.9384 C47.712,212.0984 49.943,209.2004 54.453,209.2004 C59.01,209.2004 61.195,212.0524 61.195,220.9384 C61.195,229.7794 59.01,232.7644 54.499,232.7644 Z M53.509,273.9974 L52.605,279.7654 C55.101,281.2294 58.19,282.0474 61.551,282.0474 C68.53,282.0474 72.48,278.1724 72.48,271.8434 C72.48,261.1094 59.633,262.7834 59.633,257.7924 C59.633,256.1194 60.492,254.4654 64.008,254.4654 C66.209,254.4654 68.164,255.0534 70.121,255.9074 L70.895,250.2614 C68.655,249.2294 66.334,248.6684 63.403,248.6684 C55.95,248.6684 52.735,252.9744 52.735,258.4444 C52.735,268.8374 65.58,266.8494 65.58,272.6204 C65.58,274.8384 64.182,276.3294 61.246,276.3294 C58.357,276.3294 55.907,275.3524 53.509,273.9974 Z M93.515,249.1824 L73.184,249.1824 L73.184,254.9974 L79.841,254.9974 L79.841,281.4864 L86.859,281.4864 L86.859,254.9974 L93.515,254.9974 L93.515,249.1824 Z M81.345,231.7254 L81.345,223.4494 L93.159,223.4494 L93.159,217.5434 L81.345,217.5434 L81.345,210.1984 L95.26,210.1984 L95.26,204.2254 L74.16,204.2254 L74.16,237.6974 L95.73,237.6974 L95.73,231.7254 L81.345,231.7254 Z M97.104,281.4864 L104.192,281.4864 L104.192,249.1834 L97.104,249.1834 L97.104,281.4864 Z M98.255,210.2504 L105.526,210.2504 L105.526,237.6974 L112.798,237.6974 L112.798,210.2504 L120.069,210.2504 L120.069,204.2254 L98.255,204.2254 L98.255,210.2504 Z M128.112,249.1824 L107.781,249.1824 L107.781,254.9974 L114.438,254.9974 L114.438,281.4864 L121.456,281.4864 L121.456,254.9974 L128.112,254.9974 L128.112,249.1824 Z M131.299,237.6974 L131.299,223.4114 L142.061,223.4114 L142.061,237.6974 L149.244,237.6974 L149.244,204.2254 L142.061,204.2254 L142.061,217.4414 L131.299,217.4414 L131.299,204.2254 L124.115,204.2254 L124.115,237.6974 L131.299,237.6974 Z M138.484,249.1834 L131.458,249.1834 L131.458,270.5074 C131.458,278.2584 135.449,282.0474 143.292,282.0474 C151.048,282.0474 155.037,278.2584 155.037,270.5074 L155.037,249.1834 L148.087,249.1834 L148.087,270.2474 C148.087,273.9944 146.803,276.0674 143.31,276.0674 C139.849,276.0674 138.484,273.9544 138.484,270.2474 L138.484,249.1834 Z M177.457,204.2254 L156.36,204.2254 L156.36,237.6974 L177.929,237.6974 L177.929,231.7254 L163.542,231.7254 L163.542,223.4494 L175.357,223.4494 L175.357,217.5434 L163.542,217.5434 L163.542,210.1984 L177.457,210.1984 L177.457,204.2254 Z" id="Fill-1" fill="#000000"></path>
    </g>
</svg>