<?xml version="1.0" encoding="UTF-8"?>
<svg width="201px" height="108px" viewBox="0 0 201 108" version="1.1" xmlns="http://www.w3.org/2000/svg" xmlns:xlink="http://www.w3.org/1999/xlink">
    <!-- Generator: Sketch 51.3 (57544) - http://www.bohemiancoding.com/sketch -->
    <title>Hotel Yasmin</title>
    <desc>Created with Sketch.</desc>
    <defs>
        <linearGradient x1="35.65075%" y1="22.6016033%" x2="48.33445%" y2="67.9554437%" id="linearGradient-1">
            <stop stop-color="#C7D300" offset="0%"></stop>
            <stop stop-color="#89B21D" offset="100%"></stop>
        </linearGradient>
    </defs>
    <g id="Hotel-Yasmin" stroke="none" stroke-width="1" fill="none" fill-rule="evenodd">
        <g id="Yasmin_logo" fill="#2A1C35" fill-rule="nonzero">
            <g id="SVGID_1_-link" transform="translate(62.000000, 0.000000)">
                <path d="M41.6,0 L41.62,0.29 C41.6,7.2 40.05,12.77 39.95,19.63 C39.79,30.27 42.33,40.35 43.4,50.94 C43.6,52.92 43.82,54.92 44.01,56.91 C39.6,52.17 37.36,45.19 33.26,40.14 C28.88,34.74 25.32,30.28 18.77,26.83 C13.08,23.84 8.22,23.99 2.13,25.05 L0.26,25.55 C4.64,24.94 5.53,26.64 7.37,30.31 C11.58,38.72 14.03,48.93 19.96,56.43 C26.13,64.24 36.35,65.09 44.52,63.46 C44.95,72.23 44.09,80.83 38.65,88.62 C33.21,96.39 22.87,99.6 14.48,103.34 C11.52,104.66 10.25,105.27 6.13,107.28 C24.31,104.15 41.85,90.25 51.52,75.09 C60.07,61.69 63.69,42.47 57.26,27.32 C55.23,22.55 52.03,18.83 49.08,14.65 C45.89,10.16 43.67,5.79 41.6,0 Z" id="SVGID_1_"></path>
            </g>
            <path d="M8.88,57.7 L8.88,48.79 C8.88,46.75 8.2,45.86 6.77,45.86 C5.62,45.86 3.33,47.36 2.35,47.94 L2.35,57.7 L0,57.7 L0,35.86 L2.24,35.86 L2.24,46 C3.94,45.01 5.65,43.79 7.68,43.79 C9.76,43.79 11.22,45.42 11.22,48.35 L11.22,57.7 L8.88,57.7 Z" id="Shape"></path>
            <path d="M21.94,45.69 C19.49,45.79 18.03,48.24 18.13,51.1 C18.24,53.99 19.9,56.24 22.32,56.17 C24.77,56.07 26.27,53.55 26.17,50.73 C26.06,48.07 24.36,45.62 21.94,45.69 M22.11,58.04 C18.33,58.04 15.64,54.87 15.64,50.96 C15.64,47.22 18.37,43.78 22.11,43.78 C25.86,43.78 28.64,47.29 28.64,50.86 C28.65,54.64 25.89,58.04 22.11,58.04" id="Shape"></path>
            <path d="M37.29,58.04 C35.39,58.04 33.58,56.54 33.58,53.99 L33.58,46.24 L31.37,46.24 L31.37,45.69 L35.93,41 L35.93,44.3 L40.32,44.3 L40.32,46.24 L35.93,46.24 L35.93,53.21 C35.93,55.25 36.51,56.04 38.07,56.04 C39.09,56.04 40.01,55.63 40.86,55.22 L41.47,56.92 C40.39,57.49 39.09,58.04 37.29,58.04" id="Shape"></path>
            <path d="M49.81,45.62 C47.7,45.62 46.37,47.66 46.37,50.28 L52.8,48.96 C52.4,47.32 51.82,45.62 49.81,45.62 M50.32,58.04 C46.45,58.04 44.02,54.81 44.02,51.23 C44.02,47.08 46.03,43.82 49.74,43.82 C53.15,43.82 54.71,46.13 55.46,49.37 L54.44,50.66 L46.55,51.99 C46.89,54.44 48.15,56.07 50.6,56.07 C52.6,56.07 53.86,55.25 54.78,54.64 L55.7,56.31 C54.71,56.98 53.01,58.04 50.32,58.04" id="Shape"></path>
            <rect id="Rectangle-path" x="60.12" y="35.85" width="2.34" height="21.84"></rect>
            <path d="M134.84,51.67 L132.25,51.8 C131.03,51.87 129.06,52.38 129.06,54.02 C129.06,55.48 129.88,56.1 131.1,56.1 C132.19,56.1 134.06,55.04 134.84,54.6 L134.84,51.67 Z M134.95,57.7 L134.95,56.24 C133.48,57.12 132.09,58.01 130.28,58.01 C128.44,58.01 126.81,56.55 126.81,54.13 C126.81,51.64 129.13,50.22 131.88,50.08 L134.84,49.94 L134.84,48.44 C134.84,46.4 134.03,45.75 132.56,45.75 C131.13,45.75 129.83,46.19 128.58,46.7 L127.9,44.96 C129.4,44.35 131.17,43.81 132.94,43.81 C135.76,43.81 137.2,45.78 137.2,48.2 L137.2,57.69 L134.95,57.69 L134.95,57.7 Z" id="Shape"></path>
            <path d="M145.9,58 C143.83,58 142.16,57.25 141.47,56.88 L142.4,55.01 C143.08,55.42 144.2,56.1 145.94,56.1 C146.99,56.1 148.12,55.42 148.12,54.4 C148.12,51.33 142.06,51.88 142.06,47.36 C142.06,44.98 144.27,43.79 146.31,43.79 C148.05,43.79 149.11,44.3 150.16,44.81 L149.31,46.58 C148.7,46.24 147.68,45.63 146.25,45.63 C145.33,45.63 144.31,46.24 144.31,47.12 C144.31,49.88 150.5,49.61 150.5,54.2 C150.49,56.27 148.8,58 145.9,58" id="Shape"></path>
            <path d="M171.29,57.7 L171.29,48.79 C171.29,46.95 170.77,45.9 169.32,45.9 C168.33,45.9 166.39,47.22 165.54,47.77 C165.61,47.91 165.61,48.28 165.61,48.59 L165.61,57.7 L163.23,57.7 L163.23,48.79 C163.23,46.95 162.65,45.9 161.22,45.9 C160.31,45.9 158.33,47.36 157.54,47.87 L157.54,57.7 L155.19,57.7 L155.19,44.3 L157.44,44.3 L157.44,46 C158.9,45.05 160.43,43.82 162.27,43.82 C163.59,43.82 164.72,44.67 165.2,46 C166.8,44.98 168.26,43.82 170.27,43.82 C172.31,43.82 173.67,45.66 173.67,48.35 L173.67,57.7 L171.29,57.7 Z" id="Shape"></path>
            <path d="M180.06,44.29 L182.37,44.29 L182.37,57.69 L180.06,57.69 L180.06,44.29 Z M181.22,40.34 C180.23,40.34 179.45,39.56 179.45,38.57 C179.45,37.62 180.23,36.8 181.22,36.8 C182.2,36.8 182.98,37.61 182.98,38.57 C182.99,39.56 182.2,40.34 181.22,40.34 Z" id="Shape"></path>
            <path d="M197.65,57.7 L197.65,48.79 C197.65,46.75 196.97,45.86 195.54,45.86 C194.39,45.86 192.1,47.36 191.12,47.94 L191.12,57.7 L188.78,57.7 L188.78,44.26 L191.03,44.26 L191.03,46 C192.76,44.98 194.47,43.79 196.54,43.79 C198.62,43.79 200.01,45.42 200.01,48.35 L200.01,57.7 L197.65,57.7 Z" id="Shape"></path>
        </g>
    </g>
</svg>