<?xml version="1.0" encoding="UTF-8" standalone="no"?>
<!DOCTYPE svg PUBLIC "-//W3C//DTD SVG 1.1//EN" "http://www.w3.org/Graphics/SVG/1.1/DTD/svg11.dtd">
<svg width="100%" height="100%" viewBox="0 0 226 180" version="1.1" xmlns="http://www.w3.org/2000/svg" xmlns:xlink="http://www.w3.org/1999/xlink" xml:space="preserve" xmlns:serif="http://www.serif.com/" style="fill-rule:evenodd;clip-rule:evenodd;stroke-linejoin:round;stroke-miterlimit:1.41421;">
    <g transform="matrix(1,0,0,1,-137.587,-219.903)">
        <g transform="matrix(1,0,0,1,357.981,276.465)">
            <path d="M0,66.751L-12,66.751L-12,74.751L-27.362,74.751L-27.362,61.608L-14.857,61.608L-14.857,50.177L-27.362,50.177L-27.362,37.611L-12,37.611L-12,45.04L0,45.04L0,25.612L-17.062,25.612C-17.174,25.612 -17.347,26.787 -17.62,27.4C-17.863,27.934 -18.158,28.416 -18.487,28.849L-18.489,28.849C-18.768,29.209 -19.076,29.533 -19.414,29.812C-19.577,29.948 -19.749,30.071 -19.926,30.184C-19.983,30.222 -20.045,30.257 -20.104,30.291C-20.132,30.308 -20.158,30.326 -20.187,30.341C-20.213,30.356 -20.242,30.367 -20.268,30.382C-20.404,30.455 -20.542,30.525 -20.685,30.585C-20.85,30.656 -21.018,30.719 -21.191,30.773C-22.715,31.23 -24.51,31.275 -25.927,30.843C-27.054,30.499 -27.897,30.145 -28.6,29.763L-28.601,29.767L-28.603,29.767L-28.824,31.382C-28.826,31.381 -31.354,30.979 -32.172,30.773C-33.35,30.474 -35.02,30.112 -36.672,29.387C-36.843,29.313 -37.021,29.223 -37.204,29.128C-37.37,29.04 -37.536,28.946 -37.709,28.849L-37.714,28.849C-38.26,28.534 -38.824,28.166 -39.348,27.777L-42.126,27.286C-42.277,27.254 -43.298,27.708 -45.582,26.683L-45.582,37.611L-39.934,37.611L-39.934,74.751L-45.582,74.751L-45.582,86.75L0,86.75L0,66.751ZM-24.781,95.954C-27.753,94.988 -30.741,94.076 -33.739,93.217C-36.736,92.359 -49.377,89.252 -49.483,89.225C-49.377,89.372 -44.772,95.894 -44.227,96.694C-44.227,96.694 -45.891,103.38 -46.722,106.721C-43.89,107.423 -32.639,110.647 -29.852,111.552C-29.68,108.352 -31.213,105.177 -33.364,101.719C-29.708,99.924 -26.879,98.189 -24.781,95.954M-46.527,98.818C-46.5,98.708 -46.477,98.599 -46.449,98.488C-48.371,98.028 -57.689,96.031 -60.432,95.526C-75.782,92.709 -91.321,91.294 -106.862,91.294C-122.405,91.294 -137.946,92.709 -153.298,95.526C-156.038,96.031 -165.36,98.028 -167.278,98.488C-167.256,98.599 -167.226,98.708 -167.198,98.818C-165.728,104.925 -164.249,111.029 -162.775,117.139C-144.403,112.698 -125.635,110.48 -106.862,110.48C-88.097,110.48 -69.325,112.698 -50.953,117.139C-49.478,111.029 -48.005,104.925 -46.527,98.818M-167.359,106.721C-168.191,103.38 -170.075,97.131 -170.075,97.131C-169.502,96.328 -164.703,89.368 -164.597,89.225C-164.701,89.252 -185.974,94.988 -188.947,95.954C-187.253,98.189 -183.538,100.219 -179.883,102.014C-182.034,105.472 -183.716,108.647 -183.88,111.552C-181.089,110.647 -170.19,107.423 -167.359,106.721M-197.061,74.751L-197.061,64.755L-193.447,61.92L-182.348,74.751L-185.569,74.751L-185.569,86.75L-162.271,86.75L-162.271,74.751L-167.138,74.751L-184.382,54.141L-166.4,37.611L-165.485,37.611C-165.583,37.042 -165.622,36.213 -165.596,35.533L-166.599,34.37L-166.6,34.369L-167.121,33.766C-167.207,33.669 -167.642,33.23 -167.932,32.46C-168.303,31.476 -168.39,30.773 -168.39,30.773C-168.422,30.511 -168.438,30.246 -168.444,29.975C-168.447,29.913 -168.448,29.851 -168.448,29.789C-168.447,29.487 -168.43,29.176 -168.39,28.849C-168.37,28.689 -168.351,28.532 -168.323,28.366C-168.219,27.8 -168.047,27.242 -167.848,26.78C-168.996,27.113 -169.804,27.268 -169.887,27.286L-173.072,27.884L-172.914,27.372C-173.703,27.654 -174.599,27.833 -175.501,27.833C-175.669,27.833 -175.911,27.831 -176.075,27.815C-178.144,27.661 -179.54,26.888 -180.248,26.032L-181.227,26.373C-181.369,26.443 -184.488,27.607 -187.348,28.279L-187.348,37.611L-183.769,37.611L-197.061,48.508L-197.061,37.611L-191.98,37.611C-191.98,37.611 -191.762,29.902 -191.762,28.89C-191.762,28.887 -194.321,27.964 -195.481,26.632C-195.764,26.301 -195.991,25.612 -196.175,25.612L-215.279,25.612L-215.279,37.611L-209.631,37.611L-209.631,74.751L-215.279,74.751L-215.279,86.75L-191.98,86.75L-191.98,74.751L-197.061,74.751ZM-194.856,22.74C-194.864,23.2 -194.794,24.369 -193.974,25.31C-193.2,26.197 -191.969,26.668 -190.308,26.708C-190.26,26.709 -190.211,26.715 -190.162,26.722C-190.117,26.728 -190.072,26.734 -190.026,26.734C-186.674,26.734 -183.083,25.27 -181.923,24.753C-182.51,24.66 -183.633,24.451 -184.834,24.065C-186.079,23.663 -186.543,23.377 -186.715,23.228C-187.034,23.431 -188.178,24.024 -190.574,24.024C-192.414,24.024 -194.276,23.066 -194.856,22.74M-191.999,8.561C-191.729,15.142 -188.332,16.804 -187.107,17.19C-188.132,16.14 -191.121,12.666 -190.723,8.238C-190.335,3.984 -188.42,0.651 -186.36,0.651C-185.342,0.651 -185.076,1.436 -184.817,2.196C-184.569,2.93 -184.312,3.688 -183.394,3.896L-183.232,3.938C-183.136,3.966 -183.044,3.993 -182.968,3.993C-182.624,3.993 -182.363,3.877 -182.17,3.639C-181.431,2.728 -181.941,0.301 -182.109,-0.496C-182.184,-0.848 -182.186,-0.862 -182.14,-0.918C-182.116,-0.948 -182.079,-0.966 -182.041,-0.966C-181.99,-0.966 -181.944,-0.945 -181.844,-0.832C-181.783,-0.764 -180.363,0.872 -180.735,4.076C-180.921,5.696 -179.48,6.798 -179.013,7.111C-178.86,6.508 -178.297,4.487 -177.271,3.111C-176.394,1.936 -175.699,-0.148 -176.128,-2.152C-176.426,-3.541 -177.229,-4.634 -178.451,-5.314C-179.421,-5.856 -180.335,-6.131 -181.167,-6.131C-181.662,-6.131 -182.023,-6.031 -182.24,-5.948C-181.963,-5.824 -181.513,-5.602 -181.115,-5.319C-180.518,-4.902 -179.99,-3.923 -179.968,-3.882C-179.938,-3.829 -179.952,-3.763 -179.999,-3.725C-180.022,-3.706 -180.05,-3.696 -180.079,-3.696C-180.107,-3.696 -180.135,-3.706 -180.158,-3.725C-180.177,-3.739 -181.965,-5.186 -184.079,-5.186C-184.641,-5.186 -185.189,-5.081 -185.709,-4.874C-190.328,-3.002 -192.207,3.402 -191.999,8.561M-177.608,16.307C-177.244,16.433 -176.187,16.782 -175.475,16.877C-175.246,16.912 -174.969,16.923 -174.693,16.923C-174.05,16.923 -173.379,16.861 -173.163,16.839L-160.913,-10.339L-164.305,-12.994L-177.608,16.307ZM-168.321,-22.288C-167.303,-19.863 -165.979,-18.051 -165.104,-16.853L-164.767,-16.389C-164.101,-15.463 -162.204,-13.682 -161.376,-12.919C-161.475,-13.229 -161.566,-13.636 -161.534,-14.015C-161.498,-14.414 -161.353,-14.689 -161.266,-14.823C-161.826,-15.458 -165.696,-19.902 -166.935,-22.742C-167.294,-23.568 -167.939,-24.08 -168.331,-24.08C-168.441,-24.08 -168.522,-24.04 -168.577,-23.957C-168.659,-23.835 -168.797,-23.428 -168.321,-22.288M-163.391,-19.737C-162.358,-17.557 -161.042,-16.003 -160.687,-15.604C-160.586,-15.705 -160.407,-15.856 -160.149,-15.985C-159.879,-16.12 -159.609,-16.168 -159.447,-16.187C-159.506,-16.48 -159.634,-17.173 -159.652,-17.754C-159.668,-18.358 -159.463,-18.869 -159.377,-19.055C-159.61,-19.369 -160.647,-20.831 -161.606,-23.259C-161.822,-23.81 -162.036,-24.335 -162.244,-24.846C-163.087,-26.92 -163.814,-28.71 -164.187,-30.968C-164.519,-32.964 -164.893,-33.022 -164.935,-33.022C-165.164,-33.022 -165.581,-32.246 -165.792,-30.52C-166.188,-27.217 -164.529,-22.153 -163.391,-19.737M-161.074,-26.238C-159.917,-22.183 -158.71,-20.656 -158.446,-20.357L-157.882,-20.567L-157.474,-22.659C-157.474,-22.659 -158.377,-26.054 -158.804,-27.72C-159.228,-29.395 -159.792,-34.567 -159.956,-36.441C-160.05,-37.547 -160.435,-38.05 -160.751,-38.05C-161.059,-38.05 -161.396,-37.61 -161.651,-36.872C-162.271,-35.074 -162.493,-31.21 -161.074,-26.238M-156.229,-24.328L-155.193,-24.373C-155.174,-24.579 -155.123,-25.033 -155.005,-25.46C-154.847,-26.027 -154.329,-27.336 -154.316,-27.336C-154.344,-27.718 -155.001,-36.711 -154.559,-39.433C-154.275,-41.221 -154.519,-41.734 -154.637,-41.873C-154.689,-41.935 -154.749,-41.964 -154.822,-41.964C-155.399,-41.964 -156.666,-40.218 -157.415,-37.375C-158.525,-33.147 -156.487,-25.288 -156.229,-24.328M-154.282,-22.456C-154.287,-22.408 -154.318,-22.366 -154.365,-22.35C-154.379,-22.345 -154.394,-22.343 -154.407,-22.343C-154.44,-22.343 -154.473,-22.355 -154.497,-22.379C-154.501,-22.384 -154.988,-22.866 -155.47,-22.866C-155.659,-22.866 -155.82,-22.788 -155.961,-22.626C-156.581,-21.917 -156.746,-19.035 -156.747,-19.006C-156.749,-18.971 -156.766,-18.938 -156.794,-18.916C-156.816,-18.897 -156.845,-18.887 -156.873,-18.887C-156.88,-18.887 -156.885,-18.888 -156.89,-18.888C-156.895,-18.889 -156.957,-18.896 -157.052,-18.896C-157.333,-18.896 -157.844,-18.834 -158.113,-18.416C-158.43,-17.919 -158,-15.783 -157.809,-15.002C-157.8,-14.965 -157.808,-14.926 -157.831,-14.896C-157.854,-14.866 -157.89,-14.847 -157.928,-14.847C-157.945,-14.846 -159.655,-14.791 -160.028,-14.025C-160.298,-13.478 -158.732,-11.423 -157.645,-10.21C-157.287,-10.331 -155.826,-10.796 -154.545,-10.796C-153.978,-10.796 -153.519,-10.703 -153.182,-10.52C-152.275,-10.026 -151.745,-9.082 -151.476,-8.449C-151.382,-9.188 -151.01,-10.315 -149.653,-10.717C-149.298,-10.821 -148.951,-10.873 -148.621,-10.873C-147.56,-10.873 -146.799,-10.38 -146.447,-10.096C-146.424,-10.47 -146.302,-11.145 -145.797,-11.77C-145.221,-12.482 -144.679,-12.656 -144.455,-12.698C-144.387,-13.118 -144.051,-14.742 -142.923,-15.113C-142.359,-15.298 -141.805,-15.337 -141.437,-15.337C-140.95,-15.337 -140.573,-15.29 -140.429,-15.269C-140.238,-15.459 -139.409,-16.401 -139.158,-18.617C-138.867,-21.168 -138.803,-22.084 -139.392,-24.389C-139.629,-25.319 -139.888,-26.11 -140.116,-26.808C-140.462,-27.865 -140.734,-28.699 -140.782,-29.518C-140.825,-30.221 -141.036,-31.401 -142.02,-31.401C-142.523,-31.401 -143.128,-30.077 -143.392,-29.243C-143.408,-29.189 -143.457,-29.155 -143.511,-29.155C-143.521,-29.155 -143.533,-29.156 -143.544,-29.159C-143.609,-29.177 -143.649,-29.243 -143.634,-29.309C-143.632,-29.319 -143.407,-30.333 -143.819,-30.851C-143.981,-31.053 -144.217,-31.152 -144.54,-31.152C-144.634,-31.152 -144.736,-31.142 -144.845,-31.124C-146.609,-30.799 -147.065,-28.514 -147.069,-28.491C-147.079,-28.442 -147.116,-28.403 -147.166,-28.392C-147.175,-28.389 -147.184,-28.389 -147.193,-28.389C-147.232,-28.389 -147.271,-28.407 -147.295,-28.439C-147.301,-28.448 -147.978,-29.35 -148.608,-29.35C-148.731,-29.35 -148.843,-29.315 -148.947,-29.243C-149.704,-28.729 -150.627,-26.027 -150.637,-25.999C-150.653,-25.948 -150.701,-25.914 -150.755,-25.914L-150.756,-25.914C-150.811,-25.914 -150.858,-25.95 -150.875,-26.001C-150.879,-26.01 -151.158,-26.869 -151.847,-26.869C-152.071,-26.869 -152.329,-26.774 -152.609,-26.588C-153.956,-25.682 -154.279,-22.488 -154.282,-22.456M-153.002,-27.985C-152.78,-28.144 -152.396,-28.391 -152.064,-28.458C-151.79,-28.516 -151.479,-28.527 -151.268,-28.527C-151.163,-28.527 -151.076,-28.524 -151.013,-28.521C-150.929,-28.795 -150.648,-29.568 -149.953,-30.377C-149.412,-31.002 -149.032,-31.134 -148.807,-31.134L-148.789,-31.134C-148.935,-32.082 -149.512,-36.517 -148.7,-42.461C-148.522,-43.749 -148.727,-44.207 -148.863,-44.366C-148.935,-44.449 -149.019,-44.489 -149.119,-44.49C-149.522,-44.49 -150.227,-43.839 -150.738,-42.632C-151.652,-40.492 -152.689,-38.065 -153.119,-34.367C-153.39,-32.015 -153.092,-28.84 -153.002,-27.985M-147.153,-31.541C-146.718,-31.952 -145.544,-32.932 -144.185,-33.008C-144.075,-33.015 -143.968,-33.018 -143.864,-33.018C-142.727,-33.018 -141.83,-32.688 -141.433,-32.512C-141.529,-33.164 -141.787,-35.031 -141.795,-36.487C-141.823,-40.295 -141.521,-43.173 -140.923,-44.808C-140.554,-45.81 -140.49,-46.598 -140.749,-46.968C-140.852,-47.115 -141.004,-47.19 -141.2,-47.19C-141.771,-47.19 -142.59,-46.614 -143.391,-45.65C-145.301,-43.356 -146.4,-40.741 -146.958,-37.17C-147.425,-34.185 -147.242,-32.198 -147.153,-31.541M-139.141,-33.571C-138.921,-31.681 -138.567,-29.707 -138.224,-27.797C-137.702,-24.888 -137.208,-22.14 -137.211,-19.881C-137.217,-16.629 -138.411,-15.124 -138.781,-14.735C-138.625,-14.595 -138.35,-14.302 -138.21,-13.877C-138.076,-13.462 -138.121,-13.059 -138.167,-12.837C-137.876,-12.833 -137.312,-12.725 -136.68,-12.076C-135.992,-11.378 -135.815,-10.673 -135.77,-10.373C-135.537,-10.421 -135.045,-10.507 -134.506,-10.507C-134.212,-10.507 -133.943,-10.481 -133.708,-10.43C-132.905,-10.256 -132.368,-9.533 -132.169,-9.22C-131.992,-9.384 -131.613,-9.702 -130.986,-10.062C-130.704,-10.225 -130.332,-10.308 -129.879,-10.308C-129.295,-10.308 -128.735,-10.171 -128.501,-10.107C-128.4,-10.319 -128.1,-10.761 -127.258,-11.134C-126.89,-11.294 -126.486,-11.375 -126.06,-11.375C-125.607,-11.375 -125.24,-11.285 -125.062,-11.232L-123.901,-14.079C-124.478,-14.674 -128.932,-19.518 -127.463,-25.634C-125.779,-32.663 -126.188,-38.098 -128.678,-41.788C-129.777,-43.415 -131.621,-44.239 -134.161,-44.239C-135.819,-44.239 -137.229,-43.867 -137.504,-43.79C-137.752,-43.325 -139.806,-39.265 -139.141,-33.571M-123.852,-34.823C-123.852,-33.4 -122.8,-30.695 -122.459,-29.857L-121.859,-31.054C-121.86,-31.156 -121.86,-33.579 -120.852,-35.428C-120.002,-36.992 -118.922,-37.768 -118.572,-37.99C-118.801,-38.381 -119.499,-39.734 -119.24,-41.312C-118.976,-42.94 -117.984,-43.479 -117.699,-43.603C-117.629,-44.059 -117.165,-46.388 -114.958,-46.883C-114.678,-46.948 -114.386,-46.981 -114.092,-46.981C-112.274,-46.981 -111.004,-45.721 -110.775,-45.478C-110.481,-45.45 -109.048,-45.267 -108.21,-44.293C-107.434,-43.386 -107.408,-41.677 -107.421,-41.136C-107.027,-41.215 -105.958,-41.402 -104.646,-41.402C-102.555,-41.402 -100.809,-40.951 -99.457,-40.061C-96.184,-37.907 -95.47,-33.06 -95.489,-33.06C-95.436,-32.996 -94.161,-31.476 -93.712,-29.854C-93.369,-28.608 -93.156,-26.833 -93.075,-26.079C-92.462,-27.079 -90.594,-30.483 -90.594,-34.823C-90.594,-43.99 -98.053,-51.448 -107.223,-51.448C-116.392,-51.448 -123.852,-43.99 -123.852,-34.823M-92.083,-15.877C-92.097,-15.877 -92.108,-15.877 -92.121,-15.876C-92.182,-15.636 -92.373,-14.962 -92.702,-14.413C-93.096,-13.773 -93.761,-13.678 -94.122,-13.678C-94.344,-13.678 -94.499,-13.714 -94.505,-13.716C-94.548,-13.726 -94.582,-13.757 -94.597,-13.799C-94.61,-13.841 -94.601,-13.886 -94.573,-13.919C-94.558,-13.938 -92.995,-15.816 -93.054,-18.508C-93.089,-20.066 -93.651,-20.471 -93.873,-20.571C-94.066,-20.13 -94.848,-18.485 -95.98,-17.794C-96.493,-17.483 -97.077,-17.319 -97.668,-17.319C-98.063,-17.319 -98.357,-17.391 -98.482,-17.428C-98.589,-17.335 -98.855,-17.022 -98.791,-16.251C-98.749,-15.745 -98.342,-15.297 -97.825,-14.73C-97.354,-14.212 -96.767,-13.567 -96.28,-12.669C-95.774,-11.736 -95.627,-10.577 -95.483,-9.455C-95.335,-8.291 -95.194,-7.192 -94.676,-6.44C-94.155,-5.684 -93.446,-5.375 -92.231,-5.375C-91.686,-5.375 -91.086,-5.435 -90.391,-5.503C-90.109,-5.531 -89.817,-5.56 -89.452,-5.589L-89.326,-5.594C-87.262,-5.594 -83.765,-3.057 -82.327,-1.942C-83.009,-2.953 -84.271,-4.813 -84.808,-5.499C-86.043,-7.09 -87.365,-7.923 -87.379,-7.931C-87.417,-7.955 -87.439,-7.998 -87.438,-8.043C-87.437,-8.089 -87.409,-8.13 -87.368,-8.15L-85.133,-9.269C-85.142,-9.41 -85.188,-9.728 -85.415,-9.962C-85.604,-10.159 -85.882,-10.258 -86.289,-10.258C-86.874,-10.258 -87.419,-9.914 -88.05,-9.517C-88.718,-9.096 -89.475,-8.619 -90.447,-8.458C-90.497,-8.45 -90.56,-8.408 -90.62,-8.367C-90.712,-8.305 -90.807,-8.242 -90.919,-8.242C-92.552,-8.242 -93.292,-9.696 -93.322,-9.758C-93.345,-9.804 -93.338,-9.859 -93.305,-9.897C-93.28,-9.925 -93.245,-9.94 -93.21,-9.94C-93.195,-9.94 -93.183,-9.938 -93.169,-9.934C-93.158,-9.93 -92.12,-9.581 -91.097,-9.581C-90.394,-9.581 -89.869,-9.744 -89.538,-10.065C-88.523,-11.042 -89.014,-13.382 -90.11,-14.743C-90.935,-15.767 -91.764,-15.877 -92.083,-15.877M-87.759,-14.079L-86.598,-11.232C-86.419,-11.286 -86.053,-11.375 -85.602,-11.375C-85.175,-11.375 -84.771,-11.294 -84.402,-11.134C-83.559,-10.761 -83.259,-10.32 -83.159,-10.107C-82.925,-10.171 -82.364,-10.308 -81.78,-10.308C-81.327,-10.308 -80.954,-10.225 -80.675,-10.062C-80.047,-9.702 -79.667,-9.384 -79.49,-9.22C-79.291,-9.533 -78.752,-10.256 -77.949,-10.43C-77.713,-10.481 -77.445,-10.507 -77.153,-10.507C-76.614,-10.507 -76.121,-10.421 -75.889,-10.373C-75.844,-10.673 -75.667,-11.378 -74.983,-12.075C-74.348,-12.723 -73.784,-12.832 -73.492,-12.837C-73.538,-13.06 -73.584,-13.463 -73.448,-13.878C-73.309,-14.302 -73.033,-14.595 -72.876,-14.736C-73.247,-15.125 -74.441,-16.63 -74.45,-19.881C-74.453,-22.137 -73.959,-24.881 -73.436,-27.786C-73.092,-29.699 -72.736,-31.677 -72.517,-33.571C-71.854,-39.265 -73.905,-43.325 -74.154,-43.79C-74.43,-43.867 -75.837,-44.239 -77.499,-44.239C-79.244,-44.239 -81.611,-43.814 -82.979,-41.787C-85.473,-38.099 -85.882,-32.665 -84.197,-25.634C-82.729,-19.518 -87.182,-14.674 -87.759,-14.079M-72.269,-24.251C-72.854,-21.965 -72.796,-21.123 -72.503,-18.551C-72.25,-16.343 -71.43,-15.423 -71.235,-15.233C-71.089,-15.26 -70.709,-15.32 -70.221,-15.32C-69.669,-15.32 -69.17,-15.247 -68.735,-15.103C-67.607,-14.736 -67.272,-13.113 -67.204,-12.692C-66.979,-12.65 -66.437,-12.478 -65.86,-11.767C-65.356,-11.145 -65.234,-10.471 -65.209,-10.096C-64.858,-10.381 -64.101,-10.873 -63.035,-10.873C-62.707,-10.873 -62.362,-10.821 -62.01,-10.717C-60.652,-10.315 -60.279,-9.187 -60.185,-8.448C-59.915,-9.081 -59.384,-10.026 -58.48,-10.52C-58.139,-10.704 -57.679,-10.796 -57.114,-10.796C-55.827,-10.796 -54.356,-10.325 -54.011,-10.207C-53.622,-10.579 -51.301,-12.858 -51.638,-14.047C-51.84,-14.775 -52.987,-14.853 -53.472,-14.853C-53.623,-14.853 -53.721,-14.847 -53.723,-14.847L-53.731,-14.847C-53.769,-14.847 -53.804,-14.863 -53.828,-14.891C-53.854,-14.922 -53.863,-14.963 -53.854,-15.002C-53.661,-15.783 -53.231,-17.919 -53.548,-18.416C-53.813,-18.834 -54.327,-18.896 -54.61,-18.896C-54.708,-18.896 -54.768,-18.889 -54.771,-18.889C-54.778,-18.888 -54.783,-18.887 -54.789,-18.887C-54.817,-18.887 -54.847,-18.897 -54.869,-18.916C-54.896,-18.938 -54.913,-18.971 -54.915,-19.006C-54.917,-19.035 -55.08,-21.917 -55.702,-22.627C-55.841,-22.788 -56.001,-22.866 -56.192,-22.866C-56.668,-22.866 -57.155,-22.384 -57.159,-22.379C-57.184,-22.355 -57.216,-22.343 -57.249,-22.343C-57.263,-22.343 -57.277,-22.345 -57.292,-22.35C-57.338,-22.366 -57.37,-22.408 -57.374,-22.456C-57.378,-22.488 -57.704,-25.682 -59.052,-26.587C-59.337,-26.777 -59.587,-26.869 -59.814,-26.869C-60.496,-26.869 -60.781,-26.01 -60.784,-26.001C-60.801,-25.949 -60.849,-25.914 -60.903,-25.914C-60.958,-25.914 -61.005,-25.948 -61.022,-25.999C-61.032,-26.027 -61.955,-28.728 -62.721,-29.245C-62.816,-29.314 -62.929,-29.35 -63.053,-29.35C-63.682,-29.35 -64.36,-28.479 -64.367,-28.471C-64.392,-28.439 -64.429,-28.421 -64.467,-28.421C-64.477,-28.421 -64.487,-28.422 -64.497,-28.425C-64.545,-28.437 -64.582,-28.475 -64.592,-28.524C-64.596,-28.548 -65.046,-30.866 -66.813,-31.19C-66.881,-31.201 -66.941,-31.226 -66.994,-31.248C-67.041,-31.267 -67.085,-31.285 -67.115,-31.285C-67.425,-31.284 -67.654,-31.187 -67.815,-30.987C-68.258,-30.438 -68.025,-29.318 -68.022,-29.307C-68.009,-29.241 -68.049,-29.176 -68.114,-29.159C-68.125,-29.156 -68.136,-29.155 -68.146,-29.155C-68.2,-29.155 -68.25,-29.189 -68.266,-29.243C-68.529,-30.077 -69.134,-31.401 -69.691,-31.401C-70.625,-31.401 -70.834,-30.221 -70.874,-29.518C-70.926,-28.677 -71.211,-27.774 -71.571,-26.63C-71.791,-25.933 -72.04,-25.143 -72.269,-24.251M-70.735,-44.808C-70.138,-43.168 -69.836,-40.291 -69.862,-36.487C-69.871,-35.031 -70.128,-33.164 -70.224,-32.512C-69.826,-32.688 -68.931,-33.018 -67.797,-33.018C-67.691,-33.018 -67.583,-33.015 -67.475,-33.008C-66.113,-32.932 -64.94,-31.953 -64.506,-31.541C-64.417,-32.199 -64.233,-34.185 -64.703,-37.17C-65.235,-40.613 -65.992,-43.389 -67.953,-45.745C-68.737,-46.685 -69.591,-47.246 -70.236,-47.246C-70.505,-47.246 -70.71,-47.146 -70.848,-46.95C-71.133,-46.541 -71.093,-45.781 -70.735,-44.808M-62.961,-42.461C-62.146,-36.517 -62.727,-32.082 -62.872,-31.133C-62.865,-31.134 -62.857,-31.134 -62.851,-31.134C-62.524,-31.134 -62.141,-30.879 -61.705,-30.377C-61.023,-29.584 -60.744,-28.827 -60.655,-28.538C-60.514,-28.567 -60.265,-28.608 -59.999,-28.608C-59.869,-28.608 -59.739,-28.601 -59.611,-28.576C-59.274,-28.509 -58.883,-28.207 -58.655,-28.011C-58.562,-28.903 -58.271,-32.038 -58.542,-34.367C-58.966,-38.054 -60.006,-40.486 -60.925,-42.633C-61.432,-43.839 -62.134,-44.49 -62.538,-44.49C-62.641,-44.49 -62.725,-44.45 -62.796,-44.369C-62.933,-44.211 -63.137,-43.754 -62.961,-42.461M-57.354,-27.392C-57.332,-27.337 -56.811,-26.026 -56.656,-25.46C-56.534,-25.033 -56.482,-24.58 -56.464,-24.373L-55.429,-24.328C-55.17,-25.288 -53.134,-33.146 -54.241,-37.375C-54.988,-40.218 -56.255,-41.964 -56.835,-41.964C-56.909,-41.964 -56.969,-41.935 -57.022,-41.872C-57.141,-41.732 -57.385,-41.217 -57.098,-39.434C-56.656,-36.711 -57.317,-27.718 -57.354,-27.392M-52.855,-27.72C-53.274,-26.067 -54.171,-22.714 -54.183,-22.714L-53.791,-20.637L-53.204,-20.363C-52.931,-20.675 -51.734,-22.209 -50.587,-26.238C-49.163,-31.214 -49.385,-35.077 -50.008,-36.872C-50.267,-37.621 -50.595,-38.05 -50.909,-38.05C-51.225,-38.05 -51.609,-37.547 -51.706,-36.441C-51.859,-34.649 -52.428,-29.422 -52.855,-27.72M-49.437,-24.798C-49.638,-24.303 -49.846,-23.792 -50.056,-23.259C-51.026,-20.786 -52.087,-19.315 -52.296,-19.038C-52.253,-18.832 -52.102,-18.098 -52.001,-17.474C-51.917,-16.962 -52.056,-16.486 -52.158,-16.223C-52.14,-16.224 -52.12,-16.224 -52.1,-16.224C-51.94,-16.224 -51.701,-16.199 -51.471,-16.079C-51.216,-15.954 -51.067,-15.772 -50.985,-15.638C-50.582,-16.083 -49.272,-17.613 -48.272,-19.737C-47.132,-22.147 -45.47,-27.206 -45.869,-30.52C-46.076,-32.246 -46.492,-33.022 -46.721,-33.022C-46.764,-33.022 -47.144,-32.964 -47.474,-30.968C-47.848,-28.693 -48.583,-26.888 -49.437,-24.798M-50.431,-14.778C-50.35,-14.655 -50.226,-14.403 -50.157,-13.957C-50.104,-13.597 -50.179,-13.222 -50.27,-12.932C-49.435,-13.701 -47.556,-15.468 -46.892,-16.389L-46.54,-16.874C-45.669,-18.07 -44.354,-19.877 -43.34,-22.288C-42.863,-23.428 -43.001,-23.836 -43.083,-23.959C-43.137,-24.04 -43.216,-24.08 -43.324,-24.08C-43.719,-24.08 -44.366,-23.568 -44.723,-22.742C-45.962,-19.904 -49.862,-15.423 -50.431,-14.778M-47.544,-13.365L-50.97,-10.62L-38.521,16.786C-38.288,16.819 -37.492,16.923 -36.79,16.923C-36.574,16.923 -36.365,16.918 -36.184,16.892C-35.472,16.792 -34.416,16.435 -34.053,16.308L-47.544,-13.365ZM-36.02,-2.036C-35.871,-1.739 -35.186,-0.532 -33.812,-0.481C-33.812,-0.481 -33.697,-0.482 -33.695,-0.481C-32.283,-0.481 -30.335,-1.427 -29.718,-1.74C-29.707,-1.743 -29.697,-1.744 -29.687,-1.744C-29.627,-1.744 -29.566,-1.708 -29.554,-1.65C-29.538,-1.582 -29.567,-1.52 -29.636,-1.504C-29.665,-1.489 -32.663,0.093 -33.477,1.777C-34.089,3.05 -33.877,4.13 -33.747,4.562C-33.429,4.194 -32.592,3.33 -31.218,2.643C-29.487,1.778 -28.381,1.489 -28.232,1.489C-28.194,1.489 -28.151,1.51 -28.127,1.54C-28.071,1.609 -28.09,1.688 -28.166,2.02C-28.254,2.404 -28.401,3.046 -28.384,3.613C-28.36,4.247 -27.902,4.869 -27.656,5.16C-27.47,4.499 -26.81,2.687 -25.195,2.687C-23.314,2.687 -21.336,4.735 -21.158,9.313C-21.017,12.917 -23.687,16.198 -24.59,17.199C-23.4,16.835 -19.934,15.206 -19.662,8.561C-19.424,2.675 -21.541,-4.34 -28.298,-4.74C-28.574,-4.76 -28.844,-4.763 -29.104,-4.763C-33.6,-4.763 -35.694,-2.433 -36.02,-2.036M-29.824,24.678L-29.018,26.872C-29.002,26.891 -27.402,28.754 -23.554,28.959L-23.535,28.96C-23.486,28.96 -23.44,28.952 -23.395,28.945C-23.34,28.937 -23.285,28.929 -23.232,28.929C-19.406,28.929 -18.934,24.996 -18.875,24.083C-19.585,24.321 -22.241,25.166 -24.165,25.166C-26.07,25.166 -26.954,24.465 -27.165,24.268L-29.824,24.678ZM-49.313,32.331C-49.021,31.395 -48.448,28.928 -49.675,26.772C-50.268,25.733 -50.901,25.305 -51.572,24.851C-52.149,24.46 -52.746,24.057 -53.324,23.246L-56.028,23.59L-55.397,25.649C-55.338,25.645 -55.256,25.64 -55.154,25.64C-54.486,25.64 -53.158,25.828 -51.78,27.087C-50.497,28.259 -49.606,31.236 -49.313,32.331M-83.031,22.489C-83.695,21.802 -84.767,20.692 -85.92,19.383L-85.239,22.559L-85.187,22.627L-82.897,22.627L-83.031,22.489ZM-73.096,8.017C-72.647,8.017 -72.283,7.652 -72.283,7.204C-72.283,6.757 -72.647,6.393 -73.096,6.393C-73.542,6.393 -73.904,6.757 -73.904,7.204C-73.904,7.652 -73.542,8.017 -73.096,8.017M-63.244,11.619L-64.048,7.911C-64.48,8.257 -65.756,9.157 -67.892,9.662C-68.76,9.87 -69.671,9.975 -70.598,9.975C-71.514,9.975 -72.177,9.869 -72.461,9.813C-72.489,10.222 -72.682,11.307 -73.881,11.962C-74.347,12.215 -75.056,12.349 -75.931,12.349C-77.754,12.349 -80.054,11.806 -81.933,10.933C-84.495,9.74 -87.573,6.798 -88.131,6.254L-89.041,7.134C-88.222,7.785 -83.089,11.807 -79.884,12.822C-77.326,13.636 -75.128,14.015 -72.968,14.015C-71.435,14.015 -69.929,13.827 -68.365,13.439C-64.654,12.517 -63.489,11.796 -63.244,11.619M-63.707,20.846C-66.598,22.383 -69.873,24.126 -72.973,24.126C-76.054,24.126 -76.737,21.272 -76.875,20.375C-77.086,20.604 -77.432,21.03 -77.607,21.528C-77.794,22.059 -78.329,23.897 -77.368,25.252C-76.614,26.317 -75.116,26.856 -72.914,26.856C-68.287,26.856 -63.825,23.867 -60.874,21.888C-59.697,21.099 -58.768,20.477 -58.165,20.275C-56.743,19.804 -55.387,19.733 -54.705,19.733C-54.595,19.733 -54.497,19.735 -54.416,19.738C-54.799,19.37 -55.85,18.645 -58.186,18.645C-59.569,18.645 -61.486,19.665 -63.707,20.846M-58.257,17.236C-58.631,16.812 -59.474,15.826 -59.924,15.077C-60.404,14.27 -60.794,12.797 -60.919,12.286C-61.632,12.752 -64.76,14.685 -68.986,15.538C-70.57,15.859 -72.081,16.022 -73.475,16.022C-75.153,16.022 -76.278,15.793 -76.855,15.633C-76.24,16.4 -75.841,17.422 -75.453,18.416C-74.704,20.329 -73.998,22.137 -71.893,22.137C-71.602,22.137 -71.313,22.106 -71.008,22.043C-68.278,21.51 -66.542,20.433 -65.01,19.483C-64.015,18.867 -63.075,18.284 -62.019,17.963C-60.062,17.368 -58.784,17.255 -58.257,17.236M-82.098,1.573C-84.644,3.143 -86.438,4.733 -86.834,5.095C-86.365,5.709 -83.444,9.326 -79.02,10.286C-78.209,10.462 -77.502,10.552 -76.92,10.552C-76.025,10.552 -75.416,10.35 -75.109,9.951C-74.847,9.611 -74.889,9.214 -74.911,9.085C-75.14,8.92 -76.12,8.109 -75.862,6.604C-75.655,5.432 -74.497,4.549 -73.169,4.549C-72.409,4.549 -71.723,4.826 -71.187,5.349C-69.856,6.644 -70.492,8.021 -70.756,8.463C-70.604,8.505 -70.334,8.559 -69.971,8.559C-69.347,8.559 -68.344,8.399 -67.111,7.644C-65.997,6.961 -65.412,5.89 -65.463,4.628C-65.534,2.894 -66.774,1.213 -68.699,0.24C-69.926,-0.384 -71.557,-0.714 -73.419,-0.714C-76.49,-0.714 -79.816,0.163 -82.098,1.573M-56.359,-3.139L-58.495,0.087C-58.019,0.821 -53.891,7.155 -52.082,9.461C-50.626,11.318 -49.07,12.525 -48.364,13.024L-56.359,-3.139ZM-46.659,12.739C-44.869,15.807 -41.125,16.526 -40.178,16.662L-52.335,-9.393L-55.343,-4.59L-46.659,12.739ZM-81.235,-6.156C-81.228,-6.161 -80.354,-6.767 -80.275,-7.522C-80.241,-7.852 -80.366,-8.168 -80.646,-8.462C-80.912,-8.739 -81.275,-8.874 -81.754,-8.874C-82.835,-8.874 -84.129,-8.145 -84.521,-7.908L-79.598,-1.748C-78.914,-1.999 -74.318,-3.626 -69.695,-3.626C-65.098,-3.626 -60.308,-1.26 -59.54,-0.865L-54.756,-8.725C-55.085,-8.854 -55.972,-9.171 -56.802,-9.171C-57.498,-9.171 -57.992,-8.95 -58.271,-8.515C-58.569,-8.047 -58.664,-7.616 -58.554,-7.234C-58.39,-6.66 -57.81,-6.377 -57.805,-6.374C-57.774,-6.36 -57.751,-6.333 -57.739,-6.302C-57.729,-6.27 -57.731,-6.235 -57.746,-6.204C-57.765,-6.166 -58.228,-5.272 -59.559,-5.272C-59.966,-5.272 -60.41,-5.357 -60.88,-5.525C-63.231,-6.349 -62.984,-7.402 -62.972,-7.446C-62.963,-7.484 -62.936,-7.516 -62.899,-7.531C-62.638,-7.64 -61.895,-8.035 -61.902,-8.408C-61.906,-8.637 -62.201,-8.867 -62.754,-9.072C-63.042,-9.182 -63.285,-9.238 -63.477,-9.238C-63.66,-9.238 -63.78,-9.187 -63.846,-9.08C-64.045,-8.757 -63.747,-8.003 -63.615,-7.74C-63.599,-7.708 -63.598,-7.669 -63.612,-7.636C-63.633,-7.585 -64.148,-6.39 -66.111,-6.39C-66.246,-6.39 -66.391,-6.392 -66.541,-6.408C-68.876,-6.602 -68.965,-9.35 -68.966,-9.377C-68.967,-9.419 -68.947,-9.458 -68.914,-9.482C-68.893,-9.498 -68.866,-9.506 -68.84,-9.506C-68.826,-9.506 -68.813,-9.504 -68.798,-9.499C-68.793,-9.498 -68.258,-9.313 -67.729,-9.313C-67.35,-9.313 -67.072,-9.407 -66.905,-9.592C-66.739,-9.775 -66.676,-10.058 -66.715,-10.431C-66.783,-11.06 -67.074,-11.366 -67.604,-11.366C-68.234,-11.366 -68.965,-10.931 -68.972,-10.926C-68.992,-10.914 -69.015,-10.908 -69.037,-10.908C-69.071,-10.908 -69.104,-10.921 -69.128,-10.947C-69.169,-10.99 -69.174,-11.055 -69.143,-11.104C-69.133,-11.117 -68.269,-12.424 -68.687,-13.206C-68.901,-13.608 -69.435,-13.813 -70.271,-13.813C-71.095,-13.813 -71.608,-13.621 -71.795,-13.241C-72.169,-12.483 -71.184,-11.186 -71.174,-11.172C-71.139,-11.126 -71.14,-11.061 -71.177,-11.016C-71.201,-10.986 -71.237,-10.97 -71.273,-10.97C-71.293,-10.97 -71.312,-10.974 -71.329,-10.982C-71.337,-10.986 -72.151,-11.38 -72.858,-11.38C-73.547,-11.38 -73.881,-11.021 -73.881,-10.284C-73.881,-9.498 -73.521,-9.116 -72.776,-9.116C-72.127,-9.116 -71.435,-9.416 -71.428,-9.419C-71.412,-9.426 -71.395,-9.43 -71.377,-9.43C-71.356,-9.43 -71.336,-9.424 -71.316,-9.414C-71.282,-9.395 -71.258,-9.361 -71.253,-9.323C-71.25,-9.301 -70.938,-7.093 -73.265,-6.342C-73.606,-6.231 -73.941,-6.175 -74.26,-6.175C-75.841,-6.175 -76.405,-7.619 -76.411,-7.722C-76.325,-7.957 -76.145,-8.631 -76.356,-8.935C-76.434,-9.045 -76.559,-9.099 -76.738,-9.099C-76.909,-9.099 -77.128,-9.049 -77.388,-8.95C-77.706,-8.827 -78.087,-8.625 -78.095,-8.364C-78.104,-7.981 -77.344,-7.552 -77.077,-7.432C-77.045,-7.417 -77.02,-7.389 -77.009,-7.355C-77.003,-7.336 -76.456,-5.533 -78.131,-4.574C-78.404,-4.421 -78.688,-4.343 -78.973,-4.343C-80.275,-4.343 -81.232,-5.92 -81.273,-5.987C-81.307,-6.044 -81.291,-6.118 -81.235,-6.156M-110.21,9.644C-110.197,9.585 -110.146,9.545 -110.088,9.545C-110.083,9.545 -110.08,9.545 -110.075,9.546C-110.012,9.552 -109.964,9.605 -109.962,9.668L-109.607,22.627L-99.868,22.627L-100.554,11.561C-100.558,11.498 -100.515,11.442 -100.453,11.43C-100.445,11.428 -100.437,11.427 -100.428,11.427C-100.376,11.427 -100.328,11.459 -100.309,11.51L-96.307,22.627L-87.327,22.627L-89.598,12.122C-89.609,12.065 -89.582,12.007 -89.53,11.982C-89.512,11.973 -89.493,11.969 -89.475,11.969C-89.438,11.969 -89.402,11.985 -89.378,12.014C-89.303,12.104 -81.867,20.967 -80.918,22.008C-80.489,22.478 -80.137,22.577 -79.917,22.577C-79.547,22.577 -79.301,22.308 -79.277,22.047C-79.219,21.47 -79.131,21.324 -78.056,19.531L-78.001,19.439C-76.983,17.731 -78.221,16.679 -80.324,15.104C-82.223,13.682 -91.414,7.563 -91.506,7.502C-91.536,7.482 -91.557,7.45 -91.562,7.414C-91.566,7.378 -91.556,7.342 -91.532,7.315C-91.517,7.296 -89.916,5.427 -88.152,3.978C-86.423,2.552 -84.966,1.57 -83.769,0.798C-83.196,0.43 -82.92,0.158 -82.924,-0.032C-82.927,-0.16 -83.065,-0.301 -83.361,-0.476C-83.863,-0.773 -85.525,-1.816 -86.869,-2.659L-88.222,-3.506C-88.636,-3.764 -89.006,-3.895 -89.321,-3.895C-89.696,-3.895 -89.992,-3.712 -90.228,-3.336C-90.509,-2.887 -90.826,-2.197 -90.922,-1.986L-88.765,1.227C-88.731,1.278 -88.739,1.347 -88.783,1.389C-88.808,1.412 -88.839,1.423 -88.87,1.423C-88.896,1.423 -88.924,1.415 -88.946,1.397L-91.638,-0.653C-91.841,-0.315 -92.467,0.645 -93.653,1.751C-94.872,2.885 -95.732,3.535 -95.974,3.712L-94.094,12.077C-94.08,12.14 -94.115,12.204 -94.177,12.224C-94.19,12.229 -94.204,12.23 -94.217,12.23C-94.265,12.23 -94.311,12.203 -94.331,12.157L-97.804,4.553C-98.117,4.709 -99.054,5.115 -101.029,5.532C-102.901,5.927 -104.011,5.985 -104.506,5.985C-104.597,5.985 -104.67,5.983 -104.725,5.981L-105.743,17.424C-105.75,17.489 -105.805,17.539 -105.869,17.539L-105.87,17.539C-105.937,17.538 -105.99,17.487 -105.995,17.421L-106.809,5.924C-107.212,5.921 -108.516,5.869 -110.541,5.383C-112.134,4.997 -113.027,4.635 -113.343,4.494L-116.692,14.183C-116.709,14.234 -116.758,14.267 -116.811,14.267C-116.821,14.267 -116.831,14.266 -116.841,14.264C-116.904,14.248 -116.945,14.186 -116.936,14.122L-115.274,3.555C-115.58,3.434 -116.537,2.995 -117.755,1.859C-118.9,0.794 -119.472,0.325 -119.655,0.179L-122.001,1.664C-122.021,1.677 -122.045,1.683 -122.068,1.683C-122.099,1.683 -122.129,1.672 -122.153,1.65C-122.195,1.612 -122.206,1.55 -122.181,1.5L-120.73,-1.313C-120.891,-1.567 -121.511,-2.549 -121.81,-3.027C-122.107,-3.509 -122.463,-3.743 -122.895,-3.743C-123.136,-3.743 -123.41,-3.666 -123.707,-3.512C-124.506,-3.099 -125.851,-2.159 -126.931,-1.403C-127.526,-0.987 -128.041,-0.627 -128.296,-0.476C-128.592,-0.302 -128.73,-0.162 -128.733,-0.033C-128.738,0.158 -128.463,0.43 -127.893,0.798C-126.702,1.563 -125.251,2.539 -123.499,3.976C-121.741,5.422 -120.147,7.291 -120.131,7.31C-120.108,7.337 -120.099,7.373 -120.103,7.408C-120.107,7.444 -120.128,7.476 -120.158,7.496C-120.25,7.558 -129.437,13.674 -131.332,15.094C-133.227,16.512 -134.722,17.631 -133.657,19.412L-133.424,19.801C-132.514,21.322 -132.439,21.446 -132.384,21.989C-132.358,22.23 -132.136,22.474 -131.758,22.474C-131.485,22.474 -131.125,22.245 -130.743,21.831C-129.797,20.788 -123.545,11.9 -123.482,11.811C-123.458,11.776 -123.419,11.757 -123.379,11.757C-123.362,11.757 -123.345,11.76 -123.329,11.767C-123.274,11.791 -123.243,11.849 -123.256,11.908L-125.387,22.627L-113.171,22.627L-110.21,9.644ZM-127.537,22.627L-127.501,22.559L-127.078,20.515C-127.808,21.484 -128.421,22.219 -128.771,22.627L-127.537,22.627ZM-165.809,32.141C-165.71,31.587 -165.37,30.348 -164.204,28.411C-162.854,26.158 -161.232,25.706 -160.687,25.616L-161.443,24.083C-161.642,24.211 -162.066,24.48 -162.603,24.77C-163.261,25.142 -163.978,25.495 -164.731,25.818L-164.946,25.907C-164.957,25.918 -166.056,27.09 -166.351,28.688C-166.675,30.464 -166.114,31.651 -165.809,32.141M-159.472,-9.025L-171.588,16.905C-170.73,16.85 -167.305,16.44 -165.818,13.392L-156.731,-4.789L-159.472,-9.025ZM-155.5,-3.443L-164.186,13.75C-163.282,13.098 -161.078,11.414 -159.578,9.462C-157.793,7.143 -153.408,1.046 -152.879,0.311L-155.5,-3.443ZM-124.825,5.095C-125.222,4.733 -127.017,3.143 -129.562,1.573C-131.842,0.163 -135.168,-0.714 -138.241,-0.714C-140.104,-0.714 -141.736,-0.384 -142.963,0.24C-144.887,1.213 -146.126,2.896 -146.196,4.63C-146.247,5.892 -145.662,6.962 -144.549,7.644C-143.315,8.399 -142.313,8.559 -141.69,8.559C-141.325,8.559 -141.056,8.504 -140.902,8.463C-141.166,8.02 -141.803,6.644 -140.476,5.349C-139.938,4.826 -139.253,4.549 -138.491,4.549C-137.161,4.549 -136.003,5.432 -135.797,6.605C-135.54,8.109 -136.519,8.92 -136.746,9.086C-136.77,9.213 -136.812,9.607 -136.55,9.95C-136.244,10.349 -135.636,10.552 -134.74,10.552C-134.158,10.552 -133.452,10.462 -132.639,10.286C-128.22,9.326 -125.295,5.709 -124.825,5.095M-138.565,8.017C-138.116,8.017 -137.751,7.652 -137.751,7.204C-137.751,6.757 -138.116,6.393 -138.565,6.393C-139.012,6.393 -139.375,6.757 -139.375,7.204C-139.375,7.652 -139.012,8.017 -138.565,8.017M-131.774,12.822C-128.573,11.807 -123.438,7.785 -122.62,7.134L-123.525,6.254C-124.084,6.798 -127.164,9.74 -129.727,10.933C-131.602,11.806 -133.902,12.349 -135.731,12.349C-136.607,12.349 -137.314,12.215 -137.778,11.962C-138.978,11.307 -139.17,10.222 -139.198,9.813C-139.482,9.869 -140.146,9.975 -141.06,9.975C-141.986,9.975 -142.897,9.87 -143.766,9.662C-145.904,9.157 -147.179,8.258 -147.611,7.911L-148.418,11.619C-148.172,11.796 -147.008,12.517 -143.296,13.439C-141.73,13.827 -140.224,14.015 -138.689,14.015C-136.531,14.015 -134.333,13.636 -131.774,12.822M-149.643,17.963C-148.585,18.284 -147.646,18.867 -146.65,19.483C-145.117,20.433 -143.38,21.51 -140.651,22.044C-140.35,22.105 -140.052,22.137 -139.767,22.137C-137.659,22.137 -136.954,20.328 -136.206,18.414C-135.818,17.422 -135.419,16.4 -134.806,15.633C-135.382,15.793 -136.505,16.022 -138.182,16.022C-139.578,16.022 -141.088,15.859 -142.671,15.538C-146.897,14.685 -150.029,12.752 -150.742,12.286C-150.867,12.797 -151.255,14.27 -151.739,15.077C-152.187,15.826 -153.03,16.812 -153.404,17.236C-152.88,17.254 -151.604,17.367 -149.643,17.963M-153.679,18.63C-156.019,18.63 -157.068,19.355 -157.451,19.723C-157.369,19.72 -157.271,19.718 -157.162,19.718C-156.321,19.718 -155.038,19.812 -153.699,20.257C-153.096,20.459 -152.165,21.082 -150.987,21.871C-148.037,23.848 -143.578,26.835 -138.948,26.835C-137.265,26.835 -135.895,26.41 -134.761,25.536C-134.746,25.518 -134.729,25.505 -134.707,25.496C-133.463,24.122 -134.049,22.103 -134.261,21.512C-134.434,21.015 -134.777,20.589 -134.988,20.36C-135.126,21.256 -135.811,24.108 -138.896,24.108C-141.993,24.108 -145.268,22.367 -148.156,20.831C-150.378,19.65 -152.295,18.63 -153.679,18.63M-119.883,-28.299C-120.758,-26.694 -121.972,-23.67 -120.263,-21.457C-118.976,-19.788 -118.066,-19.044 -117.313,-19.044C-117.261,-19.044 -117.212,-19.047 -117.163,-19.053C-116.873,-19.197 -117.124,-21.809 -117.726,-24.908C-117.782,-24.894 -117.853,-24.882 -117.929,-24.882C-118.12,-24.882 -118.283,-24.953 -118.399,-25.087C-118.596,-25.314 -118.654,-25.719 -118.572,-26.29C-118.133,-29.34 -115.455,-30.538 -114.168,-31.113L-114.041,-31.169C-113.379,-31.471 -113.128,-31.839 -113.174,-32.055C-113.217,-32.252 -113.513,-32.37 -113.965,-32.37C-114.158,-32.37 -114.387,-32.347 -114.648,-32.304C-116.637,-31.942 -118.789,-30.295 -119.883,-28.299M-116.475,-35.487C-117.563,-34.697 -118.592,-32.7 -119.061,-31.696C-118.542,-32.176 -117.661,-32.92 -116.733,-33.394C-115.617,-33.966 -114.762,-34.115 -114.487,-34.15L-114.175,-35.404L-114.429,-36.723C-114.692,-36.613 -115.361,-36.293 -116.475,-35.487M-98.908,-33.798C-99.212,-34.711 -100.454,-37.698 -103.777,-38.094C-104.41,-38.172 -105.03,-38.211 -105.619,-38.211C-108.171,-38.211 -109.153,-37.451 -109.163,-37.444C-109.187,-37.425 -109.214,-37.416 -109.242,-37.416C-109.268,-37.416 -109.294,-37.424 -109.315,-37.44C-109.32,-37.443 -109.736,-37.744 -110.139,-37.812C-110.21,-37.823 -110.282,-37.828 -110.35,-37.828C-110.567,-37.828 -110.768,-37.782 -110.881,-37.75L-110.727,-36.699C-110.539,-36.661 -110.121,-36.54 -109.742,-36.16C-109.378,-35.795 -109.292,-35.373 -109.274,-35.145C-108.794,-35.24 -107.229,-35.521 -105.579,-35.521C-104.91,-35.521 -104.296,-35.475 -103.754,-35.384C-101.743,-35.045 -99.629,-34.129 -98.908,-33.798M-97.97,-11.204C-97.965,-11.499 -97.982,-12.232 -98.249,-12.91C-98.494,-13.532 -99.052,-14.082 -99.345,-14.343L-99.493,-11.424L-97.97,-11.204ZM-115.432,-17.437C-115.308,-16.928 -114.695,-14.575 -113.594,-12.841C-112.361,-10.905 -111.067,-10.022 -111.054,-10.014C-111.003,-9.979 -110.983,-9.913 -111.011,-9.856C-111.031,-9.811 -111.077,-9.784 -111.124,-9.784C-111.136,-9.784 -111.147,-9.785 -111.159,-9.788L-113.095,-10.349C-113.073,-10.064 -112.98,-9.407 -112.612,-8.373C-112.132,-7.023 -110.414,-5.226 -109.16,-3.914L-108.885,-3.626C-107.838,-2.53 -106.558,-1.002 -106.149,-0.51C-105.91,-1.062 -105.202,-2.66 -104.654,-3.476C-104.394,-3.862 -104.137,-4.214 -103.855,-4.599C-103.429,-5.183 -102.944,-5.846 -102.303,-6.831C-101.492,-8.074 -101.293,-9.386 -101.244,-9.899L-103.239,-8.8C-103.259,-8.789 -103.279,-8.784 -103.3,-8.784C-103.339,-8.784 -103.378,-8.802 -103.402,-8.836C-103.44,-8.889 -103.433,-8.96 -103.386,-9.003C-103.364,-9.022 -101.332,-10.884 -100.916,-12.131C-100.61,-13.059 -100.745,-14.13 -100.833,-14.616C-101.021,-14.381 -101.344,-13.999 -101.729,-13.66C-102.352,-13.107 -103.479,-12.61 -103.526,-12.589C-103.543,-12.582 -103.56,-12.579 -103.577,-12.579C-103.617,-12.579 -103.656,-12.598 -103.681,-12.632C-103.715,-12.681 -103.71,-12.748 -103.669,-12.791C-103.649,-12.812 -101.682,-14.906 -100.887,-16.49C-100.208,-17.841 -100.967,-19.473 -101.147,-19.826C-101.545,-19.795 -103.306,-19.655 -104.84,-19.507C-105.166,-19.476 -105.496,-19.448 -105.838,-19.419C-107.342,-19.294 -109.047,-19.152 -111.69,-18.583C-113.766,-18.137 -115.085,-17.59 -115.432,-17.437M-115.732,-21.203C-115.735,-20.902 -115.728,-20.472 -115.686,-19.999C-115.635,-19.402 -115.551,-19.042 -115.502,-18.874C-115.194,-18.982 -114.37,-19.267 -113.862,-19.422C-113.347,-19.582 -112.542,-19.788 -112.257,-19.86L-112.393,-21.297C-112.669,-20.966 -113.23,-20.457 -114.105,-20.398L-114.233,-20.395C-114.996,-20.395 -115.478,-20.853 -115.732,-21.203M-116.299,-23.601C-116.267,-23.463 -116.161,-23.132 -115.877,-23.033C-115.822,-23.014 -115.764,-23.004 -115.698,-23.004C-115.569,-23.004 -115.428,-23.052 -115.248,-23.113C-115.003,-23.195 -114.698,-23.297 -114.243,-23.352C-114.108,-23.37 -113.982,-23.377 -113.854,-23.377C-113.299,-23.377 -112.831,-23.239 -112.575,-23.144C-112.645,-23.455 -112.909,-24.043 -113.911,-24.272C-114.1,-24.313 -114.286,-24.334 -114.464,-24.334C-115.416,-24.334 -116.116,-23.765 -116.299,-23.601M-111.838,-33.256C-111.23,-33.256 -110.736,-33.751 -110.736,-34.36C-110.736,-34.968 -111.23,-35.463 -111.838,-35.463C-112.447,-35.463 -112.944,-34.968 -112.944,-34.36C-112.944,-33.751 -112.447,-33.256 -111.838,-33.256M-113.912,-29.891C-114.897,-29.536 -115.916,-29.168 -116.428,-28.272C-117.099,-27.097 -116.698,-25.341 -116.543,-24.781C-116.302,-24.954 -115.771,-25.248 -114.828,-25.365C-114.619,-25.389 -114.408,-25.407 -114.202,-25.407C-112.907,-25.407 -112.016,-24.82 -111.624,-23.707C-111.19,-22.466 -111.207,-20.603 -111.223,-20.055C-110.614,-20.146 -108.28,-20.494 -106.229,-20.723C-104.216,-20.95 -102.28,-21.09 -101.722,-21.129C-101.819,-21.478 -102.015,-22.407 -101.959,-24.058C-101.877,-26.291 -102.51,-27.708 -104.074,-28.793C-105.191,-29.572 -106.688,-29.935 -108.007,-30.254C-108.67,-30.415 -109.295,-30.566 -109.775,-30.752C-110.69,-31.106 -111.131,-31.502 -111.332,-31.751C-111.45,-31.479 -111.724,-31.042 -112.352,-30.603C-112.774,-30.301 -113.326,-30.102 -113.912,-29.891M-97.198,1.487C-100.031,2.886 -102.876,3.618 -105.653,3.662L-105.893,3.665C-109.424,3.665 -113.002,2.36 -114.979,1.067C-116.975,-0.236 -119.015,-3.038 -119.832,-4.497C-120.083,-4.942 -120.396,-5.1 -120.588,-5.1C-120.66,-5.1 -120.76,-5.078 -120.82,-4.975C-120.929,-4.793 -120.868,-4.459 -120.662,-4.081C-120.447,-3.689 -118.481,-0.198 -115.539,1.751C-113.06,3.399 -109.153,4.507 -105.818,4.507L-105.586,4.507C-102.063,4.455 -99.022,3.708 -96.791,2.345C-94.401,0.884 -92.645,-1.427 -92.047,-2.624C-91.774,-3.167 -91.862,-3.416 -91.912,-3.498C-91.973,-3.595 -92.067,-3.615 -92.137,-3.615C-92.334,-3.615 -92.616,-3.443 -92.802,-3.061C-93.25,-2.141 -95.15,0.476 -97.198,1.487M-93.807,-4.046C-94.137,-4.234 -95.235,-4.876 -95.815,-5.438C-96.437,-6.043 -96.61,-6.676 -96.875,-7.633L-96.979,-8.004C-97.297,-9.149 -97.456,-9.723 -98.313,-9.904C-98.929,-10.034 -99.33,-10.152 -99.54,-10.222C-99.637,-9.54 -100.164,-6.685 -102.493,-4.097C-103.349,-3.15 -103.887,-1.928 -104.318,-0.947C-104.803,0.154 -105.186,1.023 -105.817,1.098C-105.854,1.101 -105.893,1.101 -105.927,1.101C-106.988,1.101 -108.302,-0.534 -109.82,-2.426C-110.647,-3.456 -111.503,-4.521 -112.358,-5.362C-114.263,-7.237 -114.403,-9.229 -114.397,-9.838L-115.183,-9.599C-115.242,-9.339 -115.486,-8.47 -116.282,-7.444C-116.597,-7.041 -116.992,-6.752 -117.375,-6.473C-118.121,-5.93 -118.711,-5.501 -118.286,-4.463C-117.64,-2.882 -115.079,0.132 -110.959,1.484C-109.221,2.055 -107.571,2.332 -105.913,2.332C-103.906,2.332 -101.843,1.95 -99.223,1.096C-95.452,-0.126 -94.039,-3.438 -93.807,-4.046M-99.074,-22.447C-99.104,-22.492 -99.103,-22.55 -99.071,-22.593C-99.047,-22.625 -99.009,-22.644 -98.97,-22.644C-98.957,-22.644 -98.944,-22.642 -98.933,-22.638C-98.93,-22.637 -98.7,-22.567 -98.393,-22.567C-97.793,-22.567 -97.355,-22.818 -97.096,-23.313C-96.438,-24.566 -95.942,-28.081 -97.771,-30.529C-98.734,-31.819 -99.781,-32.52 -100.422,-32.861C-100.12,-32.525 -99.763,-32.059 -99.604,-31.589C-99.321,-30.733 -99.422,-29.428 -99.427,-29.373C-99.432,-29.311 -99.481,-29.262 -99.544,-29.257C-99.547,-29.257 -99.55,-29.257 -99.553,-29.257C-99.61,-29.257 -99.663,-29.297 -99.676,-29.355C-99.681,-29.377 -100.195,-31.573 -102.127,-32.601C-103.549,-33.359 -105.152,-33.745 -106.894,-33.745C-107.381,-33.745 -107.817,-33.714 -108.167,-33.683C-108.986,-33.617 -109.57,-33.216 -109.602,-32.884C-109.628,-32.604 -109.27,-32.341 -108.62,-32.163C-106.198,-31.5 -103.033,-30.42 -101.697,-29.035C-100.378,-27.663 -100.381,-25.429 -100.384,-23.633C-100.385,-22.84 -100.386,-22.155 -100.275,-21.672C-99.947,-20.239 -98.662,-18.637 -97.43,-18.637C-97.245,-18.637 -97.068,-18.672 -96.893,-18.745C-95.547,-19.314 -94.936,-21.106 -95.027,-22.584C-95.078,-23.482 -95.29,-23.94 -95.448,-24.16C-95.465,-23.497 -95.62,-21.962 -96.695,-21.526C-96.908,-21.446 -97.118,-21.406 -97.317,-21.406C-98.353,-21.406 -99.046,-22.405 -99.074,-22.447M-114.281,-41.605C-114.273,-41.571 -114.28,-41.536 -114.298,-41.507C-114.317,-41.478 -114.348,-41.458 -114.382,-41.452L-115.822,-41.187L-115.51,-39.848L-114.047,-40.227C-114.037,-40.229 -114.026,-40.23 -114.016,-40.23C-113.992,-40.23 -113.97,-40.224 -113.95,-40.212C-113.92,-40.193 -113.899,-40.165 -113.893,-40.13L-113.09,-36.337L-111.923,-36.678L-112.549,-40.41C-112.554,-40.443 -112.547,-40.477 -112.526,-40.504C-112.508,-40.531 -112.479,-40.55 -112.445,-40.555L-110.757,-40.835L-110.943,-42.17C-110.943,-42.17 -112.729,-41.808 -112.737,-41.808C-112.795,-41.808 -112.847,-41.848 -112.86,-41.907L-113.266,-43.784L-114.741,-43.519L-114.281,-41.605ZM-124.969,-7.988C-124.964,-7.955 -124.973,-7.92 -124.993,-7.894C-125.003,-7.88 -126.032,-6.533 -127.489,-5.135C-128.76,-3.92 -130.331,-1.694 -130.704,-1.156L-129.813,-0.712C-129.559,-1.124 -128.483,-2.661 -125.768,-4.345C-124.521,-5.116 -123.103,-5.605 -121.73,-6.079C-119.628,-6.804 -117.641,-7.489 -116.874,-9.072C-116.216,-10.438 -116.546,-11.632 -117.073,-12.293C-117.338,-12.624 -117.611,-12.85 -117.901,-13.088C-118.249,-13.374 -118.607,-13.668 -118.938,-14.154C-119.564,-15.079 -118.967,-16.102 -118.941,-16.145C-118.918,-16.183 -118.878,-16.206 -118.833,-16.206L-118.823,-16.206C-118.776,-16.202 -118.735,-16.172 -118.717,-16.128C-118.713,-16.119 -118.319,-15.172 -117.977,-14.721C-117.83,-14.531 -117.633,-14.382 -117.385,-14.194C-116.967,-13.878 -116.447,-13.485 -115.862,-12.669C-115.476,-12.134 -115.261,-12.093 -115.204,-12.093C-115.177,-12.093 -115.141,-12.1 -115.107,-12.154C-115.016,-12.307 -115.031,-12.68 -115.238,-13.072C-115.479,-13.526 -115.831,-13.86 -116.239,-14.247C-116.599,-14.586 -117.005,-14.971 -117.405,-15.507C-118.143,-16.478 -117.909,-17.622 -117.794,-18.023C-118.085,-18.083 -118.752,-18.287 -119.554,-18.956C-119.802,-19.165 -120.05,-19.271 -120.288,-19.271C-121.004,-19.271 -121.667,-18.321 -122.155,-16.594C-122.611,-14.999 -121.635,-13.61 -120.85,-12.493C-120.416,-11.877 -120.075,-11.391 -120.063,-10.99C-120.035,-9.852 -121.557,-9.457 -121.621,-9.44C-121.631,-9.438 -121.642,-9.437 -121.651,-9.437C-121.683,-9.437 -121.714,-9.448 -121.737,-9.47C-121.769,-9.499 -121.783,-9.542 -121.775,-9.584C-121.771,-9.606 -121.404,-11.763 -122.556,-12.104C-122.625,-12.124 -122.694,-12.134 -122.755,-12.134C-123.72,-12.134 -124.141,-9.907 -124.157,-9.812C-124.169,-9.752 -124.213,-9.69 -124.274,-9.69L-124.275,-9.69C-124.337,-9.691 -124.381,-9.717 -124.391,-9.777C-124.402,-9.79 -124.532,-9.905 -125.434,-10.098C-125.566,-10.127 -125.691,-10.141 -125.816,-10.141C-126.49,-10.141 -126.875,-9.724 -127.016,-9.533L-125.019,-8.072C-124.992,-8.052 -124.974,-8.021 -124.969,-7.988M-153.922,-6.302C-153.911,-6.334 -153.888,-6.36 -153.856,-6.375C-153.851,-6.377 -153.271,-6.656 -153.104,-7.232C-152.995,-7.615 -153.091,-8.046 -153.39,-8.515C-153.669,-8.95 -154.162,-9.171 -154.857,-9.171C-155.689,-9.171 -156.574,-8.854 -156.902,-8.725L-151.903,-0.427C-151.139,-0.901 -146.552,-3.626 -141.961,-3.626C-137.338,-3.626 -132.743,-1.999 -132.06,-1.748L-127.139,-7.908C-127.531,-8.145 -128.825,-8.874 -129.907,-8.874C-130.384,-8.874 -130.745,-8.739 -131.01,-8.462C-131.292,-8.168 -131.417,-7.852 -131.384,-7.522C-131.307,-6.768 -130.434,-6.161 -130.425,-6.155C-130.37,-6.118 -130.354,-6.044 -130.388,-5.987C-130.429,-5.92 -131.386,-4.343 -132.684,-4.343C-132.972,-4.343 -133.255,-4.421 -133.527,-4.575C-135.202,-5.533 -134.658,-7.336 -134.651,-7.354C-134.642,-7.389 -134.616,-7.417 -134.583,-7.432C-134.316,-7.551 -133.556,-7.98 -133.565,-8.363C-133.572,-8.625 -133.955,-8.827 -134.275,-8.95C-134.526,-9.049 -134.743,-9.099 -134.918,-9.099C-135.099,-9.099 -135.225,-9.045 -135.302,-8.935C-135.514,-8.63 -135.333,-7.956 -135.246,-7.723C-135.235,-7.694 -135.235,-7.662 -135.246,-7.634C-135.252,-7.619 -135.82,-6.175 -137.397,-6.175C-137.714,-6.175 -138.05,-6.231 -138.393,-6.342C-140.719,-7.093 -140.409,-9.301 -140.406,-9.323C-140.4,-9.361 -140.377,-9.395 -140.343,-9.414C-140.323,-9.424 -140.303,-9.43 -140.282,-9.43C-140.265,-9.43 -140.247,-9.426 -140.231,-9.419C-140.225,-9.416 -139.534,-9.116 -138.886,-9.116C-138.138,-9.116 -137.775,-9.498 -137.775,-10.284C-137.775,-11.021 -138.11,-11.38 -138.8,-11.38C-139.51,-11.38 -140.324,-10.986 -140.332,-10.982C-140.351,-10.974 -140.369,-10.97 -140.388,-10.97C-140.424,-10.97 -140.461,-10.986 -140.485,-11.016C-140.522,-11.061 -140.523,-11.126 -140.487,-11.172C-140.478,-11.186 -139.491,-12.482 -139.864,-13.242C-140.051,-13.621 -140.563,-13.813 -141.387,-13.813C-142.225,-13.813 -142.758,-13.608 -142.974,-13.205C-143.391,-12.424 -142.525,-11.117 -142.516,-11.104C-142.484,-11.055 -142.489,-10.99 -142.53,-10.947C-142.555,-10.921 -142.587,-10.908 -142.621,-10.908C-142.644,-10.908 -142.666,-10.914 -142.687,-10.926C-142.693,-10.93 -143.426,-11.366 -144.056,-11.366C-144.587,-11.366 -144.876,-11.06 -144.941,-10.432C-144.98,-10.058 -144.917,-9.775 -144.752,-9.592C-144.585,-9.407 -144.309,-9.313 -143.929,-9.313C-143.398,-9.313 -142.864,-9.498 -142.859,-9.499C-142.845,-9.504 -142.831,-9.506 -142.817,-9.506C-142.791,-9.506 -142.766,-9.498 -142.743,-9.482C-142.71,-9.458 -142.69,-9.419 -142.691,-9.377C-142.692,-9.35 -142.781,-6.602 -145.118,-6.408C-145.266,-6.392 -145.413,-6.39 -145.548,-6.39C-147.514,-6.39 -148.023,-7.585 -148.045,-7.636C-148.059,-7.67 -148.057,-7.708 -148.041,-7.74C-147.91,-8.003 -147.614,-8.757 -147.813,-9.08C-147.88,-9.187 -148,-9.238 -148.184,-9.238C-148.375,-9.238 -148.61,-9.184 -148.903,-9.071C-149.456,-8.866 -149.751,-8.637 -149.755,-8.408C-149.762,-8.034 -149.02,-7.64 -148.758,-7.531C-148.722,-7.516 -148.695,-7.484 -148.686,-7.446C-148.673,-7.402 -148.428,-6.349 -150.78,-5.526C-151.248,-5.357 -151.693,-5.272 -152.103,-5.272C-153.432,-5.272 -153.896,-6.166 -153.916,-6.204C-153.931,-6.234 -153.934,-6.27 -153.922,-6.302M-169.032,22.36L-170.037,25.272C-169.424,25.14 -167.589,24.709 -165.661,23.902L-165.496,23.823C-165.139,23.653 -164.579,23.386 -164.011,23.101C-163.852,23.025 -163.702,22.945 -163.562,22.868C-162.965,22.521 -162.431,22.148 -161.974,21.761C-158.955,19.219 -156.441,13.827 -156.416,13.773C-156.395,13.729 -156.35,13.7 -156.301,13.7C-156.298,13.7 -156.294,13.7 -156.29,13.701C-156.237,13.706 -156.192,13.743 -156.18,13.794L-155.326,17.02C-154.935,16.647 -153.86,15.55 -153.05,14.031C-152.033,12.132 -151.775,9.553 -151.773,9.527C-151.769,9.482 -151.741,9.443 -151.699,9.424C-151.683,9.417 -151.665,9.413 -151.647,9.413C-151.622,9.413 -151.595,9.421 -151.573,9.438L-149.689,10.824C-149.549,9.986 -148.941,6.698 -147.555,2.955C-146.264,-0.537 -142.52,-1.725 -141.027,-2.066C-141.337,-2.113 -141.756,-2.155 -142.265,-2.155C-144.527,-2.155 -148.025,-1.374 -151.841,2.345C-153.753,4.211 -155.226,6.171 -156.649,8.067C-159.762,12.209 -162.701,16.122 -169.512,17.799C-171.236,18.226 -172.913,18.443 -174.496,18.443C-180.533,18.443 -184.092,15.376 -186.015,12.803C-187.731,10.499 -188.207,6.631 -188.318,5.396C-188.891,6.407 -190.348,9.73 -187.676,13.84C-184.808,18.247 -179.667,19.665 -179.616,19.679C-179.554,19.695 -179.515,19.756 -179.522,19.819C-179.532,19.881 -179.586,19.926 -179.648,19.926L-179.652,19.926C-179.667,19.926 -181.132,19.869 -183.594,19.539C-185.59,19.273 -187.159,18.64 -187.707,18.397C-187.58,19.273 -186.909,22.508 -183.872,23.135C-183.293,23.254 -182.601,23.314 -181.812,23.314C-178.226,23.314 -173.644,22.076 -173.598,22.063C-173.586,22.061 -173.576,22.059 -173.564,22.059C-173.511,22.059 -173.461,22.094 -173.444,22.148C-173.424,22.212 -173.459,22.282 -173.523,22.304L-178.739,24.136C-178.657,24.481 -178.2,25.636 -175.783,25.819C-175.665,25.826 -175.548,25.833 -175.427,25.833C-172.069,25.833 -169.278,22.278 -169.251,22.242C-169.226,22.21 -169.189,22.193 -169.151,22.193C-169.13,22.193 -169.11,22.198 -169.091,22.208C-169.036,22.237 -169.012,22.301 -169.032,22.36M-162.211,95.526C-162.573,93.858 -162.796,92.16 -163.158,90.495C-163.158,90.495 -167.044,96.434 -167.499,97.029C-166.889,96.967 -163.467,95.891 -162.098,95.593C-162.102,95.577 -162.208,95.539 -162.211,95.526M-161.469,39.595C-161.488,39.534 -161.459,39.468 -161.401,39.441C-161.384,39.434 -161.366,39.43 -161.349,39.43C-161.306,39.43 -161.265,39.452 -161.241,39.49C-161.225,39.517 -159.597,42.154 -157.216,43.242C-156.218,43.696 -155.721,43.746 -155.554,43.746C-155.412,43.746 -155.365,43.714 -155.36,43.706C-155.341,43.652 -155.516,43.3 -156.675,42.671C-158.787,41.52 -160.272,37.82 -160.335,37.663C-160.357,37.605 -160.335,37.539 -160.28,37.507C-160.262,37.496 -160.24,37.491 -160.218,37.491C-160.181,37.491 -160.144,37.508 -160.119,37.539C-160.1,37.563 -158.199,39.975 -155.615,41.848C-154.689,42.516 -154.223,42.616 -154.027,42.616C-153.815,42.616 -153.785,42.506 -153.774,42.47C-153.693,42.176 -154.069,41.472 -154.868,40.993C-156.503,40.012 -159.037,35.693 -159.144,35.51C-159.177,35.453 -159.161,35.381 -159.107,35.343C-159.086,35.328 -159.061,35.32 -159.035,35.32C-158.999,35.32 -158.963,35.336 -158.938,35.366C-158.915,35.394 -156.541,38.235 -153.914,40.017C-153.081,40.582 -152.385,40.905 -152.004,40.905C-151.887,40.905 -151.816,40.875 -151.795,40.814C-151.724,40.617 -152.011,39.976 -153.081,39.094C-155.079,37.445 -158.917,32.91 -158.732,29.9C-158.687,29.126 -158.678,28.188 -159.028,27.816C-159.144,27.695 -159.293,27.636 -159.488,27.636C-159.675,27.636 -159.896,27.688 -160.148,27.789C-161.835,28.471 -163.241,31.484 -163.568,35.116C-163.918,38.999 -161.542,42.485 -159.744,43.721C-159.003,44.231 -158.743,44.301 -158.666,44.308C-158.685,44.181 -158.903,43.793 -159.472,43.159C-160.772,41.713 -161.44,39.681 -161.469,39.595M-122.276,37.611L-122.276,45.04L-110.845,45.04L-110.845,25.612L-132.421,25.612C-132.543,25.612 -132.687,26.129 -132.866,26.383C-134.015,28.005 -136.063,28.835 -138.948,28.835C-142.605,28.835 -146.03,26.754 -148.834,25.612L-155.859,25.612L-155.859,28.393C-155.859,28.92 -156.18,32.354 -155.115,33.909C-155.067,33.98 -155.018,34.051 -154.968,34.12C-154.917,34.191 -154.866,34.263 -154.815,34.334C-154.808,34.345 -154.799,34.355 -154.792,34.366C-154.791,34.366 -154.791,34.367 -154.791,34.369C-153.771,35.803 -152.662,37.097 -151.928,37.611L-150.779,37.611L-150.779,74.751L-155.859,74.751L-155.859,86.75L-110.845,86.75L-110.845,66.751L-122.276,66.751L-122.276,74.751L-137.637,74.751L-137.637,61.608L-125.702,61.608L-125.702,50.177L-137.637,50.177L-137.637,37.611L-122.276,37.611ZM-72.16,74.751L-74.723,74.751L-74.723,86.75L-51.994,86.75L-51.994,74.751L-57.036,74.751L-68.637,60.409C-62.379,58.004 -57.804,52.209 -57.169,45.268C-57.645,45.229 -58.079,45.043 -58.407,44.728C-58.771,44.915 -59.139,45.007 -59.511,45.007C-60.271,45.007 -60.947,44.614 -61.323,43.956C-61.454,43.726 -61.542,43.475 -61.589,43.204C-62.06,43.087 -62.479,42.798 -62.759,42.383C-63.354,41.499 -63.267,40.088 -62.5,38.192C-62.051,37.073 -61.095,35.23 -60.174,33.528C-61.883,31.006 -64.222,28.955 -66.956,27.567C-68.762,28.27 -70.7,28.746 -72.708,28.746C-75.563,28.746 -77.585,27.936 -78.717,26.337C-78.884,26.1 -79.019,25.857 -79.134,25.612L-86.783,25.612L-95.226,25.612L-104.434,25.612L-104.434,37.611L-98.782,37.611L-98.782,74.751L-104.434,74.751L-104.434,86.75L-81.135,86.75L-81.135,74.751L-86.783,74.751L-86.783,62.48L-86.783,61.608L-82.642,61.608L-72.16,74.751ZM-51.043,90.292C-51.395,92.018 -51.92,95.554 -51.926,95.566C-50.52,95.873 -46.98,96.731 -46.533,96.842C-46.94,96.247 -50.067,91.513 -51.043,90.292M-51.02,35.544C-51.023,32.128 -51.92,29.29 -53.304,28.312C-53.803,27.953 -54.271,27.786 -54.776,27.786C-55.231,27.786 -55.66,27.921 -56.114,28.065C-56.615,28.223 -57.132,28.387 -57.734,28.387C-58.061,28.387 -58.366,28.343 -58.671,28.251C-59.246,28.085 -59.754,27.998 -60.142,27.998C-60.518,27.998 -60.762,28.082 -60.813,28.229C-60.844,28.319 -60.869,28.673 -59.885,29.447C-58.81,30.288 -56.626,30.298 -56.604,30.298C-56.559,30.298 -56.518,30.322 -56.494,30.361C-56.472,30.4 -56.472,30.448 -56.494,30.487C-56.53,30.548 -60.003,36.583 -60.94,38.918C-61.428,40.121 -61.55,41.091 -61.321,41.373C-61.251,41.373 -60.849,41.287 -59.854,39.588C-57.908,36.262 -56.336,35.044 -56.27,34.994C-56.247,34.977 -56.22,34.968 -56.193,34.968C-56.165,34.968 -56.136,34.978 -56.112,34.998C-56.067,35.036 -56.055,35.1 -56.081,35.152C-56.1,35.188 -57.949,38.761 -59.29,41.006C-59.898,42.035 -60.02,42.775 -59.876,43.027C-59.84,43.09 -59.791,43.118 -59.718,43.118C-59.476,43.118 -58.988,42.796 -58.346,41.893C-56.747,39.633 -54.343,36.597 -54.319,36.567C-54.294,36.536 -54.258,36.519 -54.221,36.519C-54.202,36.519 -54.183,36.523 -54.166,36.531C-54.112,36.557 -54.084,36.616 -54.098,36.673C-54.128,36.803 -54.85,39.883 -56.408,41.622C-57.222,42.53 -57.396,43.156 -57.316,43.336C-57.309,43.355 -57.29,43.395 -57.203,43.395C-57.073,43.395 -56.681,43.307 -55.834,42.494C-53.966,40.696 -52.961,38.253 -52.95,38.229C-52.931,38.18 -52.884,38.15 -52.834,38.15C-52.824,38.15 -52.813,38.151 -52.805,38.154C-52.743,38.168 -52.703,38.225 -52.708,38.287C-52.716,38.37 -52.897,40.344 -54.146,42.161C-54.714,42.982 -54.771,43.376 -54.722,43.469C-54.717,43.476 -54.714,43.484 -54.684,43.484C-54.527,43.484 -54.067,43.239 -53.337,42.321C-51.943,40.557 -51.015,38.73 -51.02,35.544M-37.444,22.348C-37.43,22.291 -37.379,22.253 -37.322,22.253C-37.313,22.253 -37.303,22.254 -37.293,22.257C-35.977,22.575 -32.616,23.314 -29.849,23.314C-29.059,23.314 -28.366,23.254 -27.789,23.135C-24.755,22.508 -24.078,19.273 -23.95,18.397C-24.498,18.64 -26.071,19.273 -28.063,19.539C-30.526,19.869 -31.993,19.926 -32.008,19.926L-32.012,19.926C-32.074,19.926 -32.127,19.881 -32.137,19.819C-32.146,19.756 -32.106,19.695 -32.044,19.679C-31.994,19.665 -26.904,18.263 -24.109,13.812C-21.849,10.207 -23.189,6.619 -23.776,5.392C-23.799,6.861 -24.008,11.054 -25.656,12.814L-25.814,12.983C-27.456,14.75 -30.874,18.425 -37.295,18.425C-38.832,18.425 -40.465,18.214 -42.147,17.799C-48.958,16.122 -51.898,12.209 -55.013,8.066C-56.437,6.171 -57.91,4.211 -59.821,2.345C-63.63,-1.374 -67.13,-2.155 -69.394,-2.155C-69.904,-2.155 -70.325,-2.113 -70.634,-2.066C-69.142,-1.725 -65.398,-0.536 -64.106,2.955C-62.719,6.698 -62.11,9.986 -61.969,10.824L-60.086,9.438C-60.064,9.421 -60.037,9.413 -60.011,9.413C-59.994,9.413 -59.977,9.417 -59.96,9.424C-59.918,9.443 -59.891,9.482 -59.886,9.527C-59.884,9.553 -59.627,12.131 -58.609,14.031C-57.8,15.55 -56.723,16.647 -56.33,17.02L-55.481,13.794C-55.468,13.743 -55.424,13.706 -55.371,13.701C-55.366,13.7 -55.363,13.7 -55.359,13.7C-55.311,13.7 -55.266,13.729 -55.245,13.773C-55.22,13.827 -52.702,19.219 -49.688,21.761C-47.023,24.004 -42.639,25.052 -41.62,25.272L-42.626,22.36C-42.646,22.304 -42.623,22.243 -42.573,22.211C-42.552,22.199 -42.529,22.193 -42.507,22.193C-42.474,22.193 -42.441,22.206 -42.416,22.231C-42.377,22.272 -38.431,26.355 -35.779,27.518C-33.453,28.54 -31.077,28.856 -30.514,28.919C-30.465,28.28 -30.379,25.308 -32.826,24.167C-34.6,23.338 -36.269,22.803 -37.356,22.501C-37.422,22.482 -37.461,22.414 -37.444,22.348M5.114,91.864L-20.817,91.864L-15.539,93.58L-21.052,99.454C-22.515,101.012 -24.243,102.396 -26.434,103.757C-25.145,106.641 -24.605,109.231 -24.744,111.826L-25.102,118.473L-31.433,116.416C-33.479,115.751 -40.244,113.796 -44.593,112.589L-47.183,123.313L-52.154,122.11C-87.933,113.463 -125.799,113.463 -161.574,122.11L-166.549,123.313L-169.155,112.511C-173.455,113.728 -180.267,115.756 -182.301,116.417L-189.405,118.722L-188.985,111.265C-188.86,109.041 -188.196,106.73 -186.908,104.068C-189.762,102.374 -191.722,100.761 -193.023,99.042L-197.365,93.312L-192.91,91.864L-220.394,91.864L-220.394,69.681L-214.772,69.681L-214.772,42.681L-220.394,42.681L-220.394,20.498L-199.934,20.498L-199.824,14.081L-194.98,16.804C-196.088,14.897 -196.965,12.293 -197.108,8.771C-197.357,2.646 -195.437,-3.127 -191.975,-6.672L-191.869,-6.768L-189.767,-8.495C-189.091,-8.937 -188.372,-9.313 -187.629,-9.614C-186.902,-9.903 -186.159,-10.101 -185.41,-10.207L-184.081,-10.72C-181.667,-11.651 -178.741,-11.335 -175.958,-9.779C-174.651,-9.052 -173.547,-8.053 -172.707,-6.859L-169.421,-14.094C-170.383,-15.412 -171.858,-17.503 -173.036,-20.306C-174.089,-22.831 -174.021,-25.012 -172.833,-26.794C-172.349,-27.519 -171.696,-28.113 -170.938,-28.529C-170.988,-29.46 -170.965,-30.332 -170.869,-31.13C-170.331,-35.552 -168.456,-37.258 -166.698,-37.853C-166.633,-38.089 -166.562,-38.318 -166.486,-38.539C-164.996,-42.832 -161.72,-43.165 -160.751,-43.165C-160.69,-43.165 -160.63,-43.164 -160.568,-43.162C-158.698,-46.374 -156.442,-47.079 -154.822,-47.079C-154.56,-47.079 -154.299,-47.06 -154.041,-47.021C-152.712,-48.674 -150.959,-49.604 -149.119,-49.604C-148.407,-49.598 -147.719,-49.462 -147.081,-49.204C-145.3,-51.234 -143.273,-52.304 -141.2,-52.304C-139.317,-52.304 -137.624,-51.426 -136.556,-49.896C-136.407,-49.684 -136.274,-49.463 -136.156,-49.236C-135.48,-49.314 -134.812,-49.353 -134.161,-49.353C-130.046,-49.353 -127.403,-47.872 -125.736,-46.218C-121.788,-52.645 -114.862,-56.562 -107.223,-56.562C-98.672,-56.562 -91.112,-51.671 -87.562,-44.118C-87.449,-44.299 -87.334,-44.477 -87.215,-44.652C-85.169,-47.684 -81.718,-49.353 -77.499,-49.353C-76.826,-49.353 -76.135,-49.312 -75.436,-49.228C-75.317,-49.453 -75.187,-49.669 -75.041,-49.878C-73.938,-51.456 -72.187,-52.36 -70.236,-52.36C-68.131,-52.36 -66.028,-51.283 -64.281,-49.317C-63.722,-49.506 -63.133,-49.604 -62.538,-49.604C-60.697,-49.604 -58.944,-48.674 -57.618,-47.021C-57.359,-47.06 -57.098,-47.079 -56.835,-47.079C-55.212,-47.079 -52.953,-46.374 -51.085,-43.162C-51.026,-43.164 -50.968,-43.165 -50.909,-43.165C-49.938,-43.165 -46.655,-42.832 -45.174,-38.542C-45.098,-38.323 -45.026,-38.093 -44.96,-37.854C-43.197,-37.261 -41.321,-35.554 -40.791,-31.129C-40.695,-30.33 -40.672,-29.459 -40.72,-28.53C-39.96,-28.113 -39.304,-27.515 -38.82,-26.785C-38.008,-25.562 -37.313,-23.445 -38.621,-20.315C-39.803,-17.504 -41.291,-15.399 -42.25,-14.079L-38.797,-6.482C-37.149,-7.925 -34.014,-9.877 -29.104,-9.877C-28.721,-9.877 -28.326,-9.87 -27.92,-9.84C-19.501,-9.343 -14.121,-1.865 -14.552,8.769C-14.738,13.313 -16.137,16.326 -17.682,18.289L-13.288,16.815L-13.522,20.498L5.114,20.498L5.114,50.177L-9.332,50.177L-9.332,61.608L5.114,61.608L5.114,91.864ZM-99.288,98.853C-99.271,98.215 -99.517,98.003 -99.979,97.995C-100.249,97.984 -100.386,97.98 -100.662,97.977C-100.688,99.186 -100.701,99.788 -100.729,100.997C-100.46,101.005 -100.32,101.007 -100.052,101.014C-99.597,101.024 -99.342,100.829 -99.324,100.193C-99.312,99.655 -99.301,99.388 -99.288,98.853M-97.846,98.986C-97.859,99.45 -97.869,99.681 -97.884,100.145C-97.935,101.573 -98.655,102.323 -100.082,102.286C-100.351,102.279 -100.486,102.275 -100.758,102.272C-100.79,103.613 -100.802,104.286 -100.832,105.626C-101.399,105.612 -101.678,105.605 -102.243,105.6C-102.189,102.623 -102.139,99.647 -102.084,96.674C-101.23,96.688 -100.802,96.694 -99.943,96.718C-98.488,96.755 -97.799,97.556 -97.846,98.986M-111.966,99.75C-111.973,99.398 -111.976,99.223 -111.983,98.869C-111.992,98.233 -112.222,97.957 -112.736,97.966C-113.016,97.974 -113.158,97.977 -113.435,97.984C-113.411,99.081 -113.397,99.627 -113.369,100.725C-113.145,100.717 -113.034,100.717 -112.807,100.71C-112.275,100.701 -111.952,100.464 -111.966,99.75M-110.452,104.493C-110.444,104.932 -110.429,105.249 -110.283,105.579C-110.854,105.585 -111.146,105.587 -111.717,105.603C-111.794,105.373 -111.851,105.231 -111.865,104.508C-111.875,103.947 -111.883,103.667 -111.892,103.105C-111.909,102.275 -112.198,101.974 -112.844,101.986C-113.043,101.993 -113.141,101.993 -113.34,102C-113.303,103.455 -113.286,104.178 -113.251,105.633C-113.813,105.647 -114.11,105.656 -114.672,105.67C-114.766,102.697 -114.865,99.721 -114.952,96.748C-114.074,96.722 -113.663,96.711 -112.788,96.69C-111.279,96.66 -110.685,97.332 -110.663,98.708C-110.66,98.986 -110.657,99.099 -110.652,99.378C-110.64,100.296 -110.982,100.859 -111.556,101.166C-111.556,101.171 -111.677,101.212 -111.677,101.219C-111.107,101.501 -110.497,101.892 -110.485,102.825C-110.479,103.375 -110.458,103.947 -110.452,104.493M-108.279,96.632C-108.264,99.609 -108.252,102.582 -108.236,105.561C-106.697,105.555 -105.936,105.555 -104.401,105.569C-104.397,105.061 -104.401,104.806 -104.397,104.294C-105.374,104.286 -105.878,104.283 -106.856,104.283C-106.856,103.235 -106.889,102.714 -106.889,101.667C-106.107,101.667 -105.778,101.667 -104.998,101.673C-104.994,101.166 -105.001,100.922 -104.998,100.41C-105.785,100.405 -106.378,100.391 -106.946,100.391L-106.946,97.905C-106.378,97.905 -105.367,97.917 -104.368,97.923C-104.361,97.416 -104.314,97.153 -104.312,96.639C-105.896,96.627 -106.693,96.627 -108.279,96.632M-77.688,107.161C-76.156,107.33 -75.392,107.42 -73.867,107.609C-73.801,107.104 -73.768,106.851 -73.704,106.347C-74.679,106.225 -75.162,106.166 -76.138,106.054C-76.017,105.014 -75.957,104.493 -75.839,103.459C-75.055,103.544 -74.668,103.592 -73.882,103.691C-73.822,103.185 -73.793,102.929 -73.732,102.423C-74.513,102.326 -74.907,102.279 -75.689,102.191C-75.576,101.199 -75.52,100.71 -75.404,99.718C-74.408,99.836 -73.911,99.896 -72.913,100.018C-72.853,99.512 -72.82,99.26 -72.754,98.754C-74.336,98.557 -75.125,98.461 -76.705,98.29C-77.034,101.247 -77.361,104.204 -77.688,107.161M-64.244,101.243C-63.645,101.34 -63.342,101.389 -62.747,101.483C-63.155,104 -63.564,106.518 -63.975,109.038C-63.42,109.127 -63.14,109.174 -62.583,109.269C-62.157,106.751 -61.733,104.239 -61.309,101.725C-60.709,101.825 -60.41,101.876 -59.807,101.98C-59.723,101.478 -59.679,101.225 -59.592,100.725C-61.373,100.41 -62.265,100.267 -64.047,99.985C-64.127,100.487 -64.166,100.74 -64.244,101.243M-68.032,104.785C-68.041,104.785 -68.046,104.782 -68.056,104.782C-68.278,102.947 -68.507,101.118 -68.745,99.286C-69.469,99.183 -69.833,99.132 -70.561,99.037C-70.951,101.986 -71.345,104.937 -71.738,107.889C-71.237,107.952 -70.983,107.985 -70.479,108.058C-70.186,105.922 -69.891,103.787 -69.594,101.653C-69.584,101.653 -69.577,101.653 -69.567,101.656C-69.278,103.869 -69.002,106.087 -68.739,108.303C-68.163,108.387 -67.876,108.427 -67.301,108.515C-66.86,105.572 -66.416,102.63 -65.975,99.688C-66.49,99.609 -66.746,99.572 -67.261,99.499C-67.518,101.261 -67.776,103.021 -68.032,104.785M-76.943,37.611L-86.783,37.611L-86.783,50.177L-76.943,50.177C-73.474,50.177 -70.66,47.364 -70.66,43.894C-70.66,40.424 -73.474,37.611 -76.943,37.611M-92.992,99.176C-92.959,98.543 -93.168,98.246 -93.682,98.223C-93.963,98.208 -94.099,98.203 -94.378,98.189C-94.429,99.286 -94.456,99.832 -94.503,100.93C-94.28,100.94 -94.17,100.943 -93.943,100.954C-93.408,100.981 -93.072,100.768 -93.039,100.052C-93.02,99.706 -93.013,99.527 -92.992,99.176M-91.545,99.115C-91.562,99.391 -91.564,99.536 -91.582,99.814C-91.633,100.731 -91.966,101.299 -92.618,101.558C-92.62,101.569 -92.62,101.576 -92.62,101.583C-91.922,101.915 -91.727,102.59 -91.777,103.518C-91.807,104.067 -91.824,104.343 -91.854,104.891C-91.881,105.326 -91.884,105.647 -91.763,105.986C-92.336,105.956 -92.62,105.936 -93.194,105.91C-93.261,105.673 -93.305,105.531 -93.269,104.809C-93.237,104.246 -93.225,103.966 -93.197,103.405C-93.153,102.575 -93.423,102.256 -94.069,102.227C-94.268,102.216 -94.365,102.211 -94.56,102.202C-94.631,103.657 -94.664,104.38 -94.729,105.835C-95.291,105.808 -95.573,105.798 -96.136,105.775C-96.015,102.798 -95.897,99.824 -95.776,96.853C-94.901,96.889 -94.459,96.909 -93.58,96.955C-92.075,97.025 -91.465,97.739 -91.545,99.115M-80.997,97.749C-82.408,97.614 -83.205,98.368 -83.331,99.788C-83.417,100.809 -83.102,101.576 -82,102.714C-81.145,103.599 -80.906,104.111 -80.969,104.758C-81.034,105.391 -81.337,105.593 -81.787,105.552C-82.232,105.508 -82.494,105.254 -82.438,104.619C-82.414,104.363 -82.399,104.239 -82.377,103.983C-82.916,103.936 -83.182,103.91 -83.72,103.866C-83.737,104.084 -83.747,104.192 -83.768,104.411C-83.889,105.835 -83.246,106.704 -81.865,106.837C-80.488,106.965 -79.692,106.228 -79.547,104.813C-79.444,103.794 -79.74,103.013 -80.835,101.876C-81.695,100.987 -81.939,100.479 -81.879,99.828C-81.822,99.194 -81.535,98.976 -81.078,99.022C-80.617,99.065 -80.377,99.33 -80.441,99.963C-80.455,100.111 -80.461,100.185 -80.475,100.333C-79.93,100.383 -79.66,100.41 -79.116,100.469C-79.105,100.356 -79.098,100.3 -79.089,100.193C-78.942,98.771 -79.585,97.882 -80.997,97.749M-89.716,106.11C-88.181,106.209 -87.413,106.263 -85.882,106.389C-85.841,105.876 -85.822,105.623 -85.78,105.115C-86.757,105.037 -87.244,105 -88.218,104.932C-88.147,103.889 -88.109,103.366 -88.035,102.323C-87.256,102.377 -86.861,102.408 -86.081,102.468C-86.04,101.96 -86.019,101.704 -85.983,101.196C-86.768,101.135 -87.161,101.108 -87.948,101.05C-87.878,100.061 -87.845,99.566 -87.776,98.573C-86.776,98.641 -86.275,98.676 -85.278,98.759C-85.236,98.253 -85.215,97.998 -85.178,97.486C-86.765,97.362 -87.556,97.304 -89.141,97.204C-89.332,100.172 -89.524,103.141 -89.716,106.11M-138.431,97.974C-138.027,97.358 -137.825,97.048 -137.415,96.434C-137.912,96.489 -138.161,96.52 -138.659,96.576C-138.865,96.886 -138.97,97.041 -139.172,97.354C-139.437,97.095 -139.572,96.97 -139.838,96.714C-140.337,96.773 -140.589,96.806 -141.084,96.865C-140.543,97.37 -140.271,97.621 -139.737,98.13C-139.212,98.064 -138.952,98.034 -138.431,97.974M-133.007,-20.489C-133.438,-20.038 -133.638,-19.356 -133.597,-18.465C-133.424,-14.577 -128.303,-14.168 -128.251,-14.164L-128.242,-14.164C-128.187,-14.164 -128.138,-14.2 -128.121,-14.252C-128.104,-14.309 -128.128,-14.37 -128.179,-14.399C-128.205,-14.414 -130.793,-15.947 -131.149,-18.246C-131.461,-20.271 -129.741,-20.612 -129.668,-20.626C-129.611,-20.636 -129.568,-20.683 -129.564,-20.74C-129.561,-20.797 -129.595,-20.85 -129.648,-20.869C-129.679,-20.879 -130.402,-21.128 -131.229,-21.128C-132.004,-21.128 -132.602,-20.914 -133.007,-20.489M-83.404,-13.974L-83.396,-13.974C-83.343,-13.978 -78.221,-14.392 -78.047,-18.276C-78.008,-19.168 -78.207,-19.849 -78.64,-20.301C-79.046,-20.725 -79.645,-20.94 -80.418,-20.94C-81.244,-20.94 -81.968,-20.691 -81.998,-20.68C-82.052,-20.662 -82.087,-20.608 -82.082,-20.552C-82.078,-20.495 -82.035,-20.448 -81.979,-20.437C-81.906,-20.424 -80.186,-20.078 -80.498,-18.063C-80.856,-15.76 -83.441,-14.224 -83.468,-14.209C-83.518,-14.179 -83.542,-14.119 -83.524,-14.062C-83.508,-14.009 -83.459,-13.974 -83.404,-13.974M-133.212,-27.249C-133.522,-29.267 -131.806,-29.614 -131.731,-29.627C-131.676,-29.638 -131.634,-29.685 -131.629,-29.742C-131.625,-29.799 -131.66,-29.852 -131.714,-29.87C-131.744,-29.881 -132.467,-30.13 -133.293,-30.13C-134.067,-30.13 -134.667,-29.916 -135.073,-29.491C-135.505,-29.04 -135.703,-28.361 -135.665,-27.471C-135.491,-23.579 -130.367,-23.171 -130.315,-23.167L-130.307,-23.167C-130.252,-23.167 -130.203,-23.203 -130.187,-23.255C-130.169,-23.312 -130.193,-23.372 -130.243,-23.402C-130.27,-23.417 -132.852,-24.951 -133.212,-27.249M-81.714,-22.793L-81.706,-22.793C-81.653,-22.797 -76.533,-23.205 -76.364,-27.093C-76.322,-27.983 -76.52,-28.664 -76.95,-29.115C-77.354,-29.539 -77.952,-29.753 -78.727,-29.753C-79.558,-29.753 -80.28,-29.508 -80.311,-29.498C-80.364,-29.479 -80.398,-29.426 -80.396,-29.369C-80.391,-29.312 -80.349,-29.265 -80.293,-29.254C-80.219,-29.241 -78.498,-28.891 -78.812,-26.877C-79.165,-24.577 -81.752,-23.043 -81.777,-23.028C-81.828,-22.998 -81.853,-22.937 -81.835,-22.881C-81.818,-22.828 -81.769,-22.793 -81.714,-22.793M-67.975,-17.402C-67.883,-17.37 -67.767,-17.353 -67.643,-17.353C-66.902,-17.353 -66.059,-17.963 -65.93,-18.985C-65.874,-19.465 -65.672,-19.74 -65.373,-19.74C-65.077,-19.74 -64.772,-19.468 -64.664,-19.108C-64.575,-18.799 -64.604,-18.471 -64.624,-18.323C-64.849,-18.27 -65.398,-18.087 -65.398,-17.556C-65.398,-17.113 -65.117,-16.848 -64.94,-16.725L-65.794,-15.71C-65.828,-15.669 -65.833,-15.612 -65.807,-15.567L-64.202,-12.736C-64.185,-12.705 -64.154,-12.682 -64.119,-12.674C-64.11,-12.673 -64.102,-12.672 -64.093,-12.672C-64.066,-12.672 -64.04,-12.68 -64.019,-12.696L-61.38,-14.64C-61.336,-14.671 -61.318,-14.728 -61.334,-14.78L-61.714,-15.951C-61.477,-16.03 -61.01,-16.254 -60.974,-16.779C-60.939,-17.338 -61.412,-17.7 -61.601,-17.82C-61.575,-18.027 -61.475,-18.606 -61.122,-18.873C-61.042,-18.933 -60.944,-18.964 -60.832,-18.964C-60.61,-18.964 -60.374,-18.845 -60.215,-18.654C-60.09,-18.502 -59.955,-18.242 -60.028,-17.855C-60.269,-16.63 -60.005,-15.924 -59.248,-15.759C-59.17,-15.744 -59.094,-15.737 -59.02,-15.737C-58.1,-15.737 -57.284,-16.884 -57.249,-16.933C-57.22,-16.975 -57.219,-17.031 -57.247,-17.075C-57.271,-17.11 -57.311,-17.131 -57.353,-17.131C-57.361,-17.131 -57.37,-17.13 -57.379,-17.128C-57.381,-17.128 -57.626,-17.077 -57.879,-17.077C-58.123,-17.077 -58.295,-17.127 -58.351,-17.214C-58.402,-17.295 -58.359,-17.427 -58.314,-17.522C-57.908,-18.398 -57.463,-20.25 -58.694,-20.994C-59.101,-21.235 -59.517,-21.357 -59.935,-21.357C-60.193,-21.357 -60.431,-21.313 -60.637,-21.249L-59.886,-21.944C-59.843,-21.984 -59.833,-22.05 -59.863,-22.101L-61.425,-24.724C-61.443,-24.754 -61.473,-24.775 -61.506,-24.783C-61.515,-24.785 -61.524,-24.786 -61.533,-24.786C-61.559,-24.786 -61.584,-24.778 -61.605,-24.763L-64.138,-23.01C-64.188,-22.975 -64.206,-22.909 -64.181,-22.853L-63.96,-22.379C-64.346,-22.746 -64.881,-23.082 -65.551,-23.082C-67.555,-23.082 -67.671,-21.01 -67.733,-19.897C-67.757,-19.418 -67.916,-19.111 -67.981,-19.093C-68.181,-19.093 -68.462,-19.308 -68.555,-19.391C-68.578,-19.413 -68.608,-19.424 -68.639,-19.424C-68.654,-19.424 -68.669,-19.421 -68.684,-19.416C-68.728,-19.398 -68.759,-19.358 -68.764,-19.311C-68.771,-19.244 -68.913,-17.69 -67.975,-17.402M-130.505,-32.543L-130.496,-32.543C-130.441,-32.543 -130.392,-32.579 -130.375,-32.631C-130.358,-32.687 -130.382,-32.748 -130.433,-32.777C-130.459,-32.793 -133.04,-34.332 -133.397,-36.629C-133.712,-38.646 -131.99,-38.994 -131.917,-39.008C-131.861,-39.018 -131.818,-39.065 -131.814,-39.122C-131.81,-39.179 -131.845,-39.232 -131.898,-39.25C-131.929,-39.261 -132.652,-39.509 -133.482,-39.509C-134.254,-39.509 -134.852,-39.294 -135.258,-38.869C-135.691,-38.416 -135.89,-37.735 -135.851,-36.844C-135.677,-32.958 -130.557,-32.547 -130.505,-32.543M-80.774,-31.792C-80.772,-31.792 -80.769,-31.792 -80.766,-31.792C-80.714,-31.796 -75.594,-32.212 -75.421,-36.092C-75.382,-36.984 -75.581,-37.666 -76.012,-38.117C-76.418,-38.54 -77.017,-38.755 -77.792,-38.755C-78.618,-38.755 -79.341,-38.512 -79.372,-38.501C-79.426,-38.482 -79.46,-38.43 -79.457,-38.373C-79.452,-38.316 -79.41,-38.269 -79.354,-38.258C-79.28,-38.244 -77.56,-37.897 -77.875,-35.878C-78.23,-33.576 -80.813,-32.042 -80.838,-32.027C-80.89,-31.997 -80.913,-31.937 -80.896,-31.88C-80.879,-31.828 -80.829,-31.792 -80.774,-31.792M-154.406,-16.933C-154.372,-16.884 -153.558,-15.737 -152.637,-15.737C-152.565,-15.737 -152.486,-15.744 -152.415,-15.758C-151.655,-15.924 -151.391,-16.629 -151.629,-17.856C-151.703,-18.241 -151.57,-18.501 -151.446,-18.652C-151.287,-18.845 -151.052,-18.964 -150.83,-18.964C-150.716,-18.964 -150.614,-18.932 -150.536,-18.873C-150.184,-18.606 -150.086,-18.027 -150.062,-17.821C-150.249,-17.7 -150.723,-17.338 -150.684,-16.779C-150.651,-16.253 -150.182,-16.03 -149.943,-15.951L-150.324,-14.78C-150.341,-14.728 -150.323,-14.672 -150.279,-14.64L-147.642,-12.696C-147.62,-12.68 -147.594,-12.672 -147.567,-12.672C-147.559,-12.672 -147.55,-12.673 -147.541,-12.674C-147.505,-12.682 -147.475,-12.704 -147.458,-12.736L-145.849,-15.567C-145.822,-15.612 -145.828,-15.669 -145.861,-15.71L-146.717,-16.726C-146.541,-16.849 -146.26,-17.115 -146.26,-17.556C-146.26,-18.087 -146.811,-18.27 -147.034,-18.323C-147.056,-18.472 -147.085,-18.803 -146.995,-19.112C-146.887,-19.471 -146.582,-19.743 -146.285,-19.743C-145.99,-19.743 -145.786,-19.47 -145.727,-18.994C-145.598,-17.979 -144.757,-17.373 -144.02,-17.373C-143.9,-17.373 -143.792,-17.407 -143.697,-17.437C-142.747,-17.73 -142.891,-19.321 -142.897,-19.389C-142.901,-19.433 -142.929,-19.472 -142.969,-19.49C-142.985,-19.499 -143.004,-19.502 -143.022,-19.502C-143.047,-19.502 -143.071,-19.496 -143.093,-19.481C-143.186,-19.418 -143.471,-19.257 -143.681,-19.257C-143.766,-19.257 -143.901,-19.472 -143.927,-19.862C-143.992,-21.014 -144.107,-23.082 -146.041,-23.082C-146.692,-23.082 -147.218,-22.786 -147.606,-22.447L-147.482,-22.685C-147.454,-22.74 -147.471,-22.808 -147.521,-22.844L-150.057,-24.676C-150.078,-24.692 -150.104,-24.7 -150.13,-24.7C-150.139,-24.7 -150.146,-24.699 -150.155,-24.697C-150.19,-24.69 -150.22,-24.669 -150.238,-24.639L-151.794,-22.061C-151.825,-22.009 -151.815,-21.943 -151.771,-21.902L-151.053,-21.247C-151.251,-21.307 -151.478,-21.348 -151.725,-21.348C-152.147,-21.348 -152.564,-21.227 -152.964,-20.988C-154.196,-20.248 -153.749,-18.395 -153.341,-17.519C-153.298,-17.424 -153.257,-17.294 -153.309,-17.214C-153.363,-17.127 -153.537,-17.077 -153.783,-17.077C-154.034,-17.077 -154.274,-17.128 -154.277,-17.128C-154.286,-17.13 -154.295,-17.131 -154.303,-17.131C-154.345,-17.131 -154.385,-17.11 -154.408,-17.075C-154.437,-17.032 -154.437,-16.975 -154.406,-16.933M-122.578,104.744C-122.637,103.699 -122.672,103.179 -122.732,102.135C-121.947,102.088 -121.557,102.063 -120.772,102.024C-120.799,101.52 -120.813,101.263 -120.841,100.754C-121.625,100.792 -122.018,100.815 -122.807,100.861C-122.863,99.869 -122.895,99.371 -122.955,98.379C-121.952,98.32 -121.453,98.293 -120.45,98.243C-120.478,97.735 -120.49,97.479 -120.517,96.967C-122.103,97.048 -122.897,97.091 -124.479,97.192C-124.291,100.167 -124.1,103.134 -123.91,106.105C-122.376,106.007 -121.607,105.959 -120.073,105.885C-120.1,105.377 -120.109,105.121 -120.137,104.612C-121.113,104.66 -121.602,104.686 -122.578,104.744M-126.284,102.929C-126.823,102.97 -127.092,102.989 -127.631,103.03C-127.594,103.538 -127.571,103.794 -127.532,104.301C-127.487,104.937 -127.749,105.189 -128.195,105.224C-128.647,105.257 -128.947,105.054 -129.001,104.422C-129.159,102.495 -129.24,101.54 -129.399,99.613C-129.449,98.98 -129.183,98.715 -128.722,98.676C-128.261,98.641 -127.954,98.858 -127.904,99.499C-127.873,99.875 -127.859,100.067 -127.829,100.449C-127.284,100.407 -127.015,100.387 -126.473,100.347C-126.496,100.003 -126.509,99.828 -126.532,99.481C-126.637,98.058 -127.436,97.293 -128.859,97.409C-130.291,97.523 -130.958,98.405 -130.83,99.828C-130.667,101.676 -130.586,102.598 -130.423,104.452C-130.299,105.876 -129.513,106.623 -128.132,106.512C-126.753,106.401 -126.096,105.535 -126.2,104.111C-126.233,103.64 -126.25,103.401 -126.284,102.929M-143.719,106.05C-143.986,104.141 -144.117,103.185 -144.386,101.276C-144.471,100.643 -144.793,100.442 -145.251,100.509C-145.708,100.573 -145.962,100.856 -145.871,101.483C-145.595,103.394 -145.456,104.348 -145.183,106.256C-145.094,106.885 -144.774,107.084 -144.329,107.02C-143.883,106.959 -143.636,106.68 -143.719,106.05M-142.322,105.766C-142.135,107.185 -142.776,108.089 -144.147,108.286C-145.521,108.48 -146.394,107.788 -146.601,106.377C-146.878,104.539 -147.015,103.618 -147.29,101.784C-147.505,100.37 -146.848,99.444 -145.43,99.247C-144.011,99.045 -143.127,99.75 -142.935,101.168C-142.689,103.006 -142.568,103.929 -142.322,105.766M-134.729,98.044C-134.422,101.007 -134.125,103.966 -133.822,106.925C-133.26,106.869 -132.98,106.841 -132.418,106.786C-132.704,103.825 -132.99,100.861 -133.276,97.903C-133.854,97.959 -134.145,97.987 -134.729,98.044M-138.009,102.418C-139.037,101.727 -139.384,101.284 -139.461,100.636C-139.538,100.003 -139.303,99.732 -138.845,99.678C-138.387,99.623 -138.099,99.832 -138.023,100.469C-138.007,100.612 -137.997,100.687 -137.983,100.835C-137.438,100.771 -137.168,100.74 -136.624,100.684C-136.636,100.573 -136.644,100.515 -136.656,100.405C-136.812,98.983 -137.625,98.253 -139.033,98.413C-140.443,98.584 -141.064,99.485 -140.886,100.903C-140.761,101.915 -140.286,102.598 -138.976,103.482C-137.95,104.168 -137.613,104.619 -137.54,105.266C-137.465,105.9 -137.72,106.159 -138.169,106.212C-138.615,106.263 -138.925,106.07 -138.999,105.436C-139.033,105.182 -139.047,105.058 -139.077,104.806C-139.612,104.868 -139.882,104.901 -140.418,104.97C-140.391,105.189 -140.373,105.296 -140.346,105.51C-140.171,106.929 -139.356,107.647 -137.979,107.485C-136.603,107.321 -135.98,106.435 -136.135,105.014C-136.245,104 -136.7,103.3 -138.009,102.418M-109.551,-23.931C-109.541,-23.928 -109.529,-23.927 -109.519,-23.927C-109.481,-23.927 -109.446,-23.942 -109.422,-23.971C-109.415,-23.979 -108.672,-24.836 -107.194,-25.168C-106.692,-25.282 -106.142,-25.34 -105.557,-25.34C-104.542,-25.34 -103.764,-25.166 -103.756,-25.164C-103.746,-25.162 -103.738,-25.161 -103.729,-25.161C-103.686,-25.161 -103.645,-25.183 -103.621,-25.22C-103.593,-25.266 -103.597,-25.324 -103.63,-25.366C-103.669,-25.415 -104.608,-26.555 -106.519,-26.555C-106.862,-26.555 -107.218,-26.517 -107.575,-26.443C-109.949,-25.955 -109.646,-24.05 -109.643,-24.031C-109.634,-23.983 -109.598,-23.944 -109.551,-23.931M-105.714,-24.498C-105.993,-24.498 -106.298,-24.469 -106.618,-24.412C-108.802,-24.037 -108.78,-22.465 -108.779,-22.449C-108.778,-22.405 -108.753,-22.365 -108.715,-22.343C-108.695,-22.332 -108.674,-22.327 -108.653,-22.327C-108.632,-22.327 -108.609,-22.333 -108.591,-22.344L-108.233,-22.549C-108.064,-22.212 -107.533,-21.349 -106.538,-21.349C-106.358,-21.349 -106.173,-21.378 -105.987,-21.434C-104.907,-21.759 -104.764,-22.395 -104.658,-22.859C-104.613,-23.058 -104.574,-23.229 -104.472,-23.319C-104.248,-23.515 -104.043,-23.557 -103.91,-23.557C-103.849,-23.557 -103.814,-23.546 -103.814,-23.546C-103.802,-23.542 -103.789,-23.541 -103.777,-23.541C-103.737,-23.541 -103.698,-23.56 -103.674,-23.593C-103.643,-23.637 -103.642,-23.696 -103.674,-23.74C-103.696,-23.771 -104.244,-24.498 -105.714,-24.498M-150.729,104.181C-149.806,105.7 -148.891,107.221 -147.986,108.754C-148.561,108.845 -148.847,108.888 -149.423,108.981C-150.19,107.666 -150.577,107.009 -151.365,105.698C-151.486,106.05 -151.544,106.225 -151.665,106.576C-151.483,107.66 -151.393,108.198 -151.207,109.278C-151.766,109.374 -152.043,109.42 -152.602,109.517C-153.113,106.585 -153.625,103.657 -154.137,100.725C-153.563,100.624 -153.271,100.573 -152.694,100.479C-152.439,102 -152.311,102.765 -152.052,104.286C-152.043,104.286 -152.035,104.286 -152.025,104.283C-151.55,102.637 -151.309,101.811 -150.809,100.167C-150.234,100.07 -149.943,100.023 -149.365,99.937C-149.925,101.632 -150.197,102.485 -150.729,104.181" style="fill:rgb(35,31,32);fill-rule:nonzero;"/>
        </g>
    </g>
</svg>
