<?xml version="1.0" encoding="UTF-8"?>
<svg width="318px" height="319px" viewBox="0 0 318 319" version="1.1" xmlns="http://www.w3.org/2000/svg" xmlns:xlink="http://www.w3.org/1999/xlink">
    <!-- Generator: Sketch 51.3 (57544) - http://www.bohemiancoding.com/sketch -->
    <title>Ministri of Culture and national Heritage Poland</title>
    <desc>Created with Sketch.</desc>
    <defs>
        <polygon id="path-1" points="0 318 317.48 318 317.48 0.52 0 0.52"></polygon>
        <polygon id="path-3" points="0 318 317.48 318 317.48 0.52 0 0.52"></polygon>
    </defs>
    <g id="Ministri-of-Culture-and-national-Heritage-Poland" stroke="none" stroke-width="1" fill="none" fill-rule="evenodd">
        <g id="MKiDN_logoeng-mono">
            <g id="Group-68" transform="translate(0.000000, 0.480000)">
                <path d="M41.3667,87.3271 L41.4457,73.1671 C41.4457,72.4471 41.4457,70.7271 41.4847,68.1271 C40.9737,70.5671 40.5407,72.2871 40.3047,73.2471 L36.8067,87.3271 L30.4777,87.3271 L26.9407,73.5671 C26.5477,72.0071 26.1937,70.2071 25.8007,68.1271 C25.8787,70.6071 25.9187,72.3671 25.9187,73.4471 L25.9187,87.3271 L17.7027,87.3271 L17.7027,58.5671 L28.7487,58.5671 L32.6787,72.9271 C32.7577,73.2871 33.0727,74.6871 33.6227,77.1271 C34.0157,75.0471 34.3297,73.6471 34.5267,72.9671 L38.5357,58.5671 L49.5817,58.5671 L49.5817,87.3271 L41.3667,87.3271 Z" id="Fill-1" fill="#889093"></path>
                <mask id="mask-2" fill="white">
                    <use xlink:href="#path-1"></use>
                </mask>
                <g id="Clip-4"></g>
                <path d="M55.478,87.327 L63.851,87.327 L63.851,66.087 L55.478,66.087 L55.478,87.327 Z M55.478,63.927 L63.851,63.927 L63.851,57.847 L55.478,57.847 L55.478,63.927 Z" id="Fill-3" fill="#889093" mask="url(#mask-2)"></path>
                <path d="M83.584,87.3271 L83.584,76.3271 C83.584,73.4071 83.034,72.0871 80.754,72.0871 C78.67,72.0871 77.648,73.4871 77.648,76.3671 L77.648,87.3271 L69.355,87.3271 L69.355,66.0871 L76.901,66.0871 L76.901,69.2071 C78.828,66.7271 81.186,65.5271 84.213,65.5271 C86.768,65.5271 88.773,66.4071 90.148,68.0871 C91.76,70.0471 91.878,72.6071 91.878,76.2871 L91.878,87.3271 L83.584,87.3271 Z" id="Fill-5" fill="#889093" mask="url(#mask-2)"></path>
                <path d="M97.185,87.327 L105.558,87.327 L105.558,66.087 L97.185,66.087 L97.185,87.327 Z M97.185,63.927 L105.558,63.927 L105.558,57.847 L97.185,57.847 L97.185,63.927 Z" id="Fill-6" fill="#889093" mask="url(#mask-2)"></path>
                <path d="M120.1074,88.0869 C113.3464,88.0869 109.8084,85.6069 109.4554,80.6469 L117.5134,80.6469 C117.5134,82.4469 118.4174,83.3269 120.2254,83.3269 C121.9944,83.3269 122.9374,82.6869 122.9374,81.5669 C122.9374,80.0469 121.7584,79.8869 119.4394,79.3669 C112.9924,77.9669 110.0054,76.8069 110.0054,72.3269 C110.0054,67.8069 113.5034,65.3269 120.2644,65.3269 C126.5144,65.3269 129.9344,67.6069 130.4454,72.0069 L122.9774,72.0069 C122.8584,70.7669 121.8364,69.9269 120.3434,69.9269 C118.8494,69.9269 118.1024,70.4869 118.1024,71.4069 C118.1024,72.9269 119.4784,72.9269 122.0724,73.5269 C128.2834,74.9669 131.1534,76.1269 131.1534,80.7269 C131.1534,85.5669 127.4194,88.0869 120.1074,88.0869" id="Fill-7" fill="#889093" mask="url(#mask-2)"></path>
                <path d="M143.7324,87.687 C138.5834,87.687 136.6564,86.207 136.6564,81.607 L136.6564,70.967 L133.7084,70.967 L133.7084,66.087 L136.6564,66.087 L136.6564,59.527 L144.9114,59.527 L144.9114,66.087 L148.8034,66.087 L148.8034,70.967 L144.9114,70.967 L144.9114,79.447 C144.9114,80.967 145.6974,81.407 147.7024,81.407 C148.0564,81.407 148.4494,81.407 148.8814,81.367 L148.8814,87.487 C147.0734,87.607 145.3434,87.687 143.7324,87.687" id="Fill-8" fill="#889093" mask="url(#mask-2)"></path>
                <path d="M166.2168,73.8472 C162.8748,73.8472 161.3418,75.3272 161.3418,78.6072 L161.3418,87.3272 L153.0088,87.3272 L153.0088,66.0872 L160.6738,66.0872 L160.6738,69.9672 C161.7758,66.8472 163.7788,65.5272 167.1598,65.5272 L167.9058,65.5272 L167.9058,73.9672 C167.2778,73.8872 166.7268,73.8472 166.2168,73.8472" id="Fill-9" fill="#889093" mask="url(#mask-2)"></path>
                <path d="M185.9082,87.207 C184.8472,90.487 184.0602,92.847 182.8032,94.087 C181.1912,95.727 179.1482,95.847 176.2382,95.847 C175.2562,95.847 173.8422,95.807 172.0332,95.687 L172.0332,89.407 L174.3922,89.407 C175.9242,89.407 176.6722,88.927 176.6722,87.607 C176.6722,87.007 176.5132,86.327 176.2382,85.527 L169.2422,66.087 L177.6542,66.087 L181.3102,78.967 L184.8472,66.087 L192.6702,66.087 L185.9082,87.207 Z" id="Fill-10" fill="#889093" mask="url(#mask-2)"></path>
                <path d="M220.4258,71.207 C217.9098,71.207 217.0058,72.927 217.0058,76.687 C217.0058,80.447 217.9098,82.207 220.4258,82.207 C222.9418,82.207 223.8848,80.447 223.8848,76.687 C223.8848,72.927 222.9418,71.207 220.4258,71.207 M220.4258,88.087 C213.0758,88.087 208.6328,83.727 208.6328,76.687 C208.6328,69.647 213.0758,65.327 220.4258,65.327 C227.7778,65.327 232.2188,69.647 232.2188,76.687 C232.2188,83.727 227.7778,88.087 220.4258,88.087" id="Fill-11" fill="#889093" mask="url(#mask-2)"></path>
                <path d="M245.4258,70.8872 L245.4258,87.3272 L237.1718,87.3272 L237.1718,70.8872 L234.5778,70.8872 L234.5778,66.0872 L237.1718,66.0872 L237.1718,64.7672 C237.1718,60.0072 239.4508,57.8472 244.3258,57.8472 L248.9648,57.8472 L248.9648,63.1672 C248.6508,63.1672 248.3748,63.1272 248.0998,63.1272 C246.1348,63.1272 245.3868,63.6872 245.3868,65.4472 C245.3868,65.6472 245.4258,65.8472 245.4258,66.0872 L248.9648,66.0872 L248.9648,70.8872 L245.4258,70.8872 Z" id="Fill-12" fill="#889093" mask="url(#mask-2)"></path>
                <path d="M35.6563,138.4072 C23.3983,138.4072 15.9683,130.5772 15.9683,117.9412 C15.9683,105.2512 23.4503,97.4752 35.3913,97.4752 C46.4823,97.4752 53.0093,103.1452 53.7523,113.1892 L42.0243,113.1892 C41.6533,109.2472 39.4773,107.1952 35.5503,107.1952 C30.7213,107.1952 28.3333,110.7592 28.3333,117.9412 C28.3333,125.0152 30.9333,128.6872 35.8683,128.6872 C39.6363,128.6872 41.9713,126.4192 42.3433,122.2612 L53.9643,122.2612 C53.2743,132.4672 46.6413,138.4072 35.6563,138.4072" id="Fill-13" fill="#1A1919" mask="url(#mask-2)"></path>
                <path d="M79.5264,137.3271 L79.5264,133.1151 C76.9264,136.4631 73.7424,138.0831 69.6554,138.0831 C66.2064,138.0831 63.5004,136.8951 61.6424,134.6271 C59.4664,131.9811 59.3604,128.4711 59.3604,123.5031 L59.3604,108.6531 L70.5584,108.6531 L70.5584,123.4491 C70.5584,127.3911 71.3004,129.2271 74.3794,129.2271 C77.1914,129.2271 78.5714,127.2831 78.5714,123.3951 L78.5714,108.6531 L89.7684,108.6531 L89.7684,137.3271 L79.5264,137.3271 Z" id="Fill-14" fill="#1A1919" mask="url(#mask-2)"></path>
                <polygon id="Fill-15" fill="#1A1919" mask="url(#mask-2)" points="97.038 137.327 108.341 137.327 108.341 98.501 97.038 98.501"></polygon>
                <path d="M127.0215,137.813 C120.0695,137.813 117.4695,135.815 117.4695,129.605 L117.4695,115.241 L113.4895,115.241 L113.4895,108.653 L117.4695,108.653 L117.4695,99.797 L128.6135,99.797 L128.6135,108.653 L133.8675,108.653 L133.8675,115.241 L128.6135,115.241 L128.6135,126.689 C128.6135,128.741 129.6745,129.335 132.3815,129.335 C132.8585,129.335 133.3895,129.335 133.9735,129.281 L133.9735,137.543 C131.5325,137.705 129.1975,137.813 127.0215,137.813" id="Fill-16" fill="#1A1919" mask="url(#mask-2)"></path>
                <path d="M159.3384,137.3271 L159.3384,133.1151 C156.7384,136.4631 153.5544,138.0831 149.4674,138.0831 C146.0184,138.0831 143.3124,136.8951 141.4544,134.6271 C139.2784,131.9811 139.1724,128.4711 139.1724,123.5031 L139.1724,108.6531 L150.3704,108.6531 L150.3704,123.4491 C150.3704,127.3911 151.1124,129.2271 154.1914,129.2271 C157.0034,129.2271 158.3834,127.2831 158.3834,123.3951 L158.3834,108.6531 L169.5804,108.6531 L169.5804,137.3271 L159.3384,137.3271 Z" id="Fill-17" fill="#1A1919" mask="url(#mask-2)"></path>
                <path d="M194.4688,119.1294 C189.9568,119.1294 187.8888,121.1274 187.8888,125.5554 L187.8888,137.3274 L176.6368,137.3274 L176.6368,108.6534 L186.9868,108.6534 L186.9868,113.8914 C188.4708,109.6794 191.1778,107.8974 195.7418,107.8974 L196.7498,107.8974 L196.7498,119.2914 C195.9008,119.1834 195.1578,119.1294 194.4688,119.1294" id="Fill-18" fill="#1A1919" mask="url(#mask-2)"></path>
                <path d="M216.3828,114.4312 C213.4648,114.4312 211.6598,116.3752 211.5018,119.7772 L221.4788,119.7772 C221.2658,116.2132 219.5688,114.4312 216.3828,114.4312 Z M211.5018,125.5012 C211.6078,129.1732 213.4648,131.2252 216.7008,131.2252 C218.8768,131.2252 220.3628,130.3612 220.8948,128.8492 L231.6128,128.8492 C230.0738,135.0592 224.7678,138.3532 216.0648,138.3532 C206.3008,138.3532 200.3048,132.3592 200.3048,123.2332 C200.3048,113.6212 206.4588,107.6272 216.4898,107.6272 C226.4668,107.6272 232.5158,113.9992 232.5158,124.7992 L232.5158,125.5012 L211.5018,125.5012 Z" id="Fill-19" fill="#1A1919" mask="url(#mask-2)"></path>
                <path d="M31.3823,167.8477 C27.5293,169.3267 25.0923,169.0467 25.0923,171.0877 C25.0923,172.2867 25.9183,173.0077 27.4513,173.0077 C30.2423,173.0077 31.4213,171.7267 31.4213,168.9277 C31.4213,168.5677 31.4213,168.2067 31.3823,167.8477 Z M32.1293,177.3267 L31.6183,175.2867 C29.4953,177.2067 27.0973,178.0877 24.0313,178.0877 C19.2753,178.0877 16.6413,175.6077 16.6413,171.3267 C16.6413,166.6077 19.5503,165.2867 25.7213,164.4877 C29.7313,163.9667 31.4613,164.1667 31.4613,162.2067 C31.4613,160.9667 30.4783,160.4477 28.4733,160.4477 C26.7433,160.4477 25.8403,161.1267 25.6823,162.5677 L17.5853,162.5677 C17.6633,157.8067 21.4373,155.3267 28.7483,155.3267 C32.5613,155.3267 35.4703,156.1667 36.8853,157.1267 C39.0863,158.6467 39.5583,160.2467 39.5583,163.0877 L39.5583,174.9277 C39.5583,175.6877 39.8723,176.3267 40.4623,176.7267 L40.4623,177.3267 L32.1293,177.3267 Z" id="Fill-20" fill="#889093" mask="url(#mask-2)"></path>
                <path d="M57.3701,177.3271 L57.3701,166.3271 C57.3701,163.4071 56.8201,162.0871 54.5401,162.0871 C52.4561,162.0871 51.4341,163.4871 51.4341,166.3671 L51.4341,177.3271 L43.1411,177.3271 L43.1411,156.0871 L50.6871,156.0871 L50.6871,159.2071 C52.6141,156.7271 54.9721,155.5271 57.9991,155.5271 C60.5541,155.5271 62.5591,156.4071 63.9341,158.0871 C65.5461,160.0471 65.6641,162.6071 65.6641,166.2871 L65.6641,177.3271 L57.3701,177.3271 Z" id="Fill-21" fill="#889093" mask="url(#mask-2)"></path>
                <path d="M79.4663,162.0078 C77.1473,162.0078 76.0853,163.6078 76.0853,166.9278 C76.0853,170.0878 77.3833,171.8478 79.4663,171.8478 C81.5493,171.8478 82.8863,170.0878 82.8863,166.9278 C82.8863,163.6078 81.7853,162.0078 79.4663,162.0078 Z M83.5543,177.3268 L83.5543,174.7278 C81.7463,177.0078 79.5053,178.0878 76.7153,178.0878 C71.4473,178.0878 67.7523,173.7278 67.7523,166.8068 C67.7523,159.8868 71.5263,155.4468 76.6353,155.4468 C79.1523,155.4468 81.1563,156.4068 82.8073,158.3668 L82.8073,148.5678 L90.9043,148.5678 L90.9043,177.3268 L83.5543,177.3268 Z" id="Fill-22" fill="#889093" mask="url(#mask-2)"></path>
                <path d="M124.5156,177.3271 L116.5756,164.0471 C116.1426,163.3271 115.5536,161.9281 114.9246,159.9271 C115.1606,161.3671 115.1606,162.6871 115.1606,163.8481 L115.1606,177.3271 L106.5516,177.3271 L106.5516,148.5671 L115.1606,148.5671 L123.0996,161.9281 C123.5716,162.6871 124.1216,164.0471 124.7516,166.0471 C124.5546,164.8061 124.5156,163.4871 124.5156,162.1271 L124.5156,148.5671 L133.1626,148.5671 L133.1626,177.3271 L124.5156,177.3271 Z" id="Fill-23" fill="#889093" mask="url(#mask-2)"></path>
                <path d="M151.0137,167.8477 C147.1617,169.3267 144.7247,169.0467 144.7247,171.0877 C144.7247,172.2867 145.5507,173.0077 147.0837,173.0077 C149.8747,173.0077 151.0527,171.7267 151.0527,168.9277 C151.0527,168.5677 151.0527,168.2067 151.0137,167.8477 Z M151.7617,177.3267 L151.2497,175.2867 C149.1267,177.2067 146.7297,178.0877 143.6637,178.0877 C138.9077,178.0877 136.2737,175.6077 136.2737,171.3267 C136.2737,166.6077 139.1827,165.2867 145.3537,164.4877 C149.3637,163.9667 151.0937,164.1667 151.0937,162.2067 C151.0937,160.9667 150.1097,160.4477 148.1057,160.4477 C146.3757,160.4477 145.4717,161.1267 145.3147,162.5677 L137.2177,162.5677 C137.2957,157.8067 141.0697,155.3267 148.3807,155.3267 C152.1937,155.3267 155.1017,156.1667 156.5177,157.1267 C158.7187,158.6467 159.1897,160.2467 159.1897,163.0877 L159.1897,174.9277 C159.1897,175.6877 159.5037,176.3267 160.0937,176.7267 L160.0937,177.3267 L151.7617,177.3267 Z" id="Fill-24" fill="#889093" mask="url(#mask-2)"></path>
                <path d="M171.1563,177.6875 C166.0083,177.6875 164.0823,176.2075 164.0823,171.6075 L164.0823,160.9665 L161.1333,160.9665 L161.1333,156.0865 L164.0823,156.0865 L164.0823,149.5265 L172.3363,149.5265 L172.3363,156.0865 L176.2283,156.0865 L176.2283,160.9665 L172.3363,160.9665 L172.3363,169.4475 C172.3363,170.9665 173.1233,171.4075 175.1273,171.4075 C175.4803,171.4075 175.8753,171.4075 176.3063,171.3675 L176.3063,177.4865 C174.4983,177.6075 172.7693,177.6875 171.1563,177.6875" id="Fill-25" fill="#889093" mask="url(#mask-2)"></path>
                <path d="M180.613,177.327 L188.984,177.327 L188.984,156.087 L180.613,156.087 L180.613,177.327 Z M180.613,153.927 L188.984,153.927 L188.984,147.847 L180.613,147.847 L180.613,153.927 Z" id="Fill-26" fill="#889093" mask="url(#mask-2)"></path>
                <path d="M203.6797,161.207 C201.1637,161.207 200.2597,162.927 200.2597,166.687 C200.2597,170.447 201.1637,172.207 203.6797,172.207 C206.1957,172.207 207.1387,170.447 207.1387,166.687 C207.1387,162.927 206.1957,161.207 203.6797,161.207 M203.6797,178.087 C196.3297,178.087 191.8867,173.727 191.8867,166.687 C191.8867,159.647 196.3297,155.327 203.6797,155.327 C211.0317,155.327 215.4727,159.647 215.4727,166.687 C215.4727,173.727 211.0317,178.087 203.6797,178.087" id="Fill-27" fill="#889093" mask="url(#mask-2)"></path>
                <path d="M232.8691,177.3271 L232.8691,166.3271 C232.8691,163.4071 232.3181,162.0871 230.0391,162.0871 C227.9551,162.0871 226.9321,163.4871 226.9321,166.3671 L226.9321,177.3271 L218.6391,177.3271 L218.6391,156.0871 L226.1871,156.0871 L226.1871,159.2071 C228.1131,156.7271 230.4711,155.5271 233.4981,155.5271 C236.0531,155.5271 238.0571,156.4071 239.4321,158.0871 C241.0451,160.0471 241.1641,162.6071 241.1641,166.2871 L241.1641,177.3271 L232.8691,177.3271 Z" id="Fill-28" fill="#889093" mask="url(#mask-2)"></path>
                <path d="M259.3848,167.8477 C255.5328,169.3267 253.0958,169.0467 253.0958,171.0877 C253.0958,172.2867 253.9218,173.0077 255.4548,173.0077 C258.2458,173.0077 259.4238,171.7267 259.4238,168.9277 C259.4238,168.5677 259.4238,168.2067 259.3848,167.8477 Z M260.1328,177.3267 L259.6208,175.2867 C257.4978,177.2067 255.0998,178.0877 252.0348,178.0877 C247.2778,178.0877 244.6448,175.6077 244.6448,171.3267 C244.6448,166.6077 247.5528,165.2867 253.7248,164.4877 C257.7348,163.9667 259.4628,164.1667 259.4628,162.2067 C259.4628,160.9667 258.4808,160.4477 256.4768,160.4477 C254.7458,160.4477 253.8418,161.1267 253.6858,162.5677 L245.5878,162.5677 C245.6658,157.8067 249.4398,155.3267 256.7518,155.3267 C260.5648,155.3267 263.4728,156.1667 264.8888,157.1267 C267.0898,158.6467 267.5608,160.2467 267.5608,163.0877 L267.5608,174.9277 C267.5608,175.6877 267.8748,176.3267 268.4648,176.7267 L268.4648,177.3267 L260.1328,177.3267 Z" id="Fill-29" fill="#889093" mask="url(#mask-2)"></path>
                <polygon id="Fill-30" fill="#889093" mask="url(#mask-2)" points="272.34 177.327 280.713 177.327 280.713 148.567 272.34 148.567"></polygon>
                <polygon id="Fill-31" fill="#889093" mask="url(#mask-2)" points="35.5342 217.0693 35.5342 206.0063 26.9382 206.0063 26.9382 217.0693 17.7022 217.0693 17.7022 188.5613 26.9382 188.5613 26.9382 198.2353 35.5342 198.2353 35.5342 188.5613 44.7692 188.5613 44.7692 217.0693"></polygon>
                <path d="M59.543,200.2578 C57.345,200.2578 55.985,201.6848 55.865,204.1828 L63.381,204.1828 C63.222,201.5668 61.942,200.2578 59.543,200.2578 Z M55.865,208.3858 C55.945,211.0818 57.345,212.5888 59.783,212.5888 C61.422,212.5888 62.542,211.9538 62.941,210.8438 L71.018,210.8438 C69.858,215.4038 65.86,217.8218 59.303,217.8218 C51.948,217.8218 47.43,213.4218 47.43,206.7198 C47.43,199.6618 52.067,195.2618 59.623,195.2618 C67.14,195.2618 71.697,199.9418 71.697,207.8698 L71.697,208.3858 L55.865,208.3858 Z" id="Fill-32" fill="#889093" mask="url(#mask-2)"></path>
                <path d="M87.4482,203.707 C84.0502,203.707 82.4902,205.174 82.4902,208.426 L82.4902,217.069 L74.0142,217.069 L74.0142,196.016 L81.8102,196.016 L81.8102,199.861 C82.9302,196.769 84.9692,195.46 88.4072,195.46 L89.1662,195.46 L89.1662,203.826 C88.5272,203.746 87.9682,203.707 87.4482,203.707" id="Fill-33" fill="#889093" mask="url(#mask-2)"></path>
                <path d="M92.245,217.071 L100.761,217.071 L100.761,196.016 L92.245,196.016 L92.245,217.071 Z M92.245,193.874 L100.761,193.874 L100.761,187.848 L92.245,187.848 L92.245,193.874 Z" id="Fill-34" fill="#889093" mask="url(#mask-2)"></path>
                <path d="M113.9131,217.4258 C108.6761,217.4258 106.7171,215.9588 106.7171,211.3998 L106.7171,200.8518 L103.7181,200.8518 L103.7181,196.0148 L106.7171,196.0148 L106.7171,189.5128 L115.1131,189.5128 L115.1131,196.0148 L119.0701,196.0148 L119.0701,200.8518 L115.1131,200.8518 L115.1131,209.2578 C115.1131,210.7648 115.9121,211.2008 117.9511,211.2008 C118.3111,211.2008 118.7101,211.2008 119.1511,211.1608 L119.1511,217.2278 C117.3111,217.3468 115.5521,217.4258 113.9131,217.4258" id="Fill-35" fill="#889093" mask="url(#mask-2)"></path>
                <path d="M136.6611,207.6719 C132.7431,209.1389 130.2641,208.8609 130.2641,210.8839 C130.2641,212.0729 131.1041,212.7859 132.6621,212.7859 C135.5011,212.7859 136.7011,211.5189 136.7011,208.7419 C136.7011,208.3859 136.7011,208.0279 136.6611,207.6719 Z M137.4201,217.0689 L136.9011,215.0469 C134.7421,216.9499 132.3031,217.8219 129.1841,217.8219 C124.3471,217.8219 121.6691,215.3639 121.6691,211.1219 C121.6691,206.4429 124.6271,205.1349 130.9041,204.3419 C134.9821,203.8259 136.7411,204.0259 136.7411,202.0809 C136.7411,200.8519 135.7411,200.3369 133.7021,200.3369 C131.9431,200.3369 131.0241,201.0109 130.8641,202.4389 L122.6281,202.4389 C122.7081,197.7199 126.5461,195.2619 133.9821,195.2619 C137.8601,195.2619 140.8191,196.0939 142.2581,197.0459 C144.4971,198.5519 144.9761,200.1389 144.9761,202.9529 L144.9761,214.6899 C144.9761,215.4429 145.2961,216.0779 145.8961,216.4749 L145.8961,217.0689 L137.4201,217.0689 Z" id="Fill-36" fill="#889093" mask="url(#mask-2)"></path>
                <path d="M159.4492,201.6455 C157.1682,201.6455 156.0502,203.2315 156.0502,206.4035 C156.0502,209.7335 157.1292,211.3995 159.4492,211.3995 C161.9262,211.3995 163.0062,209.7735 163.0062,206.4435 C163.0062,203.3505 161.6872,201.6455 159.4492,201.6455 M159.2882,225.5535 C153.2112,225.5535 149.6132,223.2145 149.0532,219.3295 L157.4082,219.3295 C157.6092,220.3605 158.3682,220.7555 159.8882,220.7555 C162.6872,220.7555 163.0472,219.5665 163.0472,216.3555 L163.0472,215.2065 C161.6062,216.5925 159.6472,217.2675 157.1292,217.2675 C151.4122,217.2675 147.6542,213.0645 147.6542,206.6015 C147.6542,199.6625 151.3322,195.4585 156.7282,195.4585 C159.7692,195.4585 162.0082,196.4925 163.6862,198.7495 L163.6862,196.0145 L171.1612,196.0145 L171.1612,215.4435 C171.1612,222.7785 167.8842,225.5535 159.2882,225.5535" id="Fill-37" fill="#889093" mask="url(#mask-2)"></path>
                <path d="M185.5137,200.2578 C183.3147,200.2578 181.9557,201.6848 181.8347,204.1828 L189.3517,204.1828 C189.1927,201.5668 187.9127,200.2578 185.5137,200.2578 Z M181.8347,208.3858 C181.9157,211.0818 183.3147,212.5888 185.7547,212.5888 C187.3927,212.5888 188.5127,211.9538 188.9127,210.8438 L196.9877,210.8438 C195.8297,215.4038 191.8307,217.8218 185.2737,217.8218 C177.9177,217.8218 173.4007,213.4218 173.4007,206.7198 C173.4007,199.6618 178.0387,195.2618 185.5927,195.2618 C193.1097,195.2618 197.6667,199.9418 197.6667,207.8698 L197.6667,208.3858 L181.8347,208.3858 Z" id="Fill-38" fill="#889093" mask="url(#mask-2)"></path>
                <path d="M86.8096,278.1523 C85.9906,277.5363 84.8446,277.2273 83.3696,277.2273 L77.5456,277.2273 L77.5456,285.4213 L83.3696,285.4213 C84.8446,285.4213 85.9906,285.0893 86.8096,284.4223 C87.6276,283.7543 88.0376,282.6963 88.0376,281.2493 C88.0376,279.8013 87.6276,278.7693 86.8096,278.1523 M91.7426,288.1773 C89.9316,289.5373 87.3466,290.2153 83.9856,290.2153 L77.5456,290.2153 L77.5456,300.2233 L71.1246,300.2233 L71.1246,272.3933 L84.4046,272.3933 C87.4666,272.3933 89.9076,273.1113 91.7276,274.5473 C93.5486,275.9813 94.4576,278.2033 94.4576,281.2123 C94.4576,284.4963 93.5526,286.8183 91.7426,288.1773" id="Fill-39" fill="#889093" mask="url(#mask-2)"></path>
                <path d="M86.8096,278.1523 C85.9906,277.5363 84.8446,277.2273 83.3696,277.2273 L77.5456,277.2273 L77.5456,285.4213 L83.3696,285.4213 C84.8446,285.4213 85.9906,285.0893 86.8096,284.4223 C87.6276,283.7543 88.0376,282.6963 88.0376,281.2493 C88.0376,279.8013 87.6276,278.7693 86.8096,278.1523 Z M91.7426,288.1773 C89.9316,289.5373 87.3466,290.2153 83.9856,290.2153 L77.5456,290.2153 L77.5456,300.2233 L71.1246,300.2233 L71.1246,272.3933 L84.4046,272.3933 C87.4666,272.3933 89.9076,273.1113 91.7276,274.5473 C93.5486,275.9813 94.4576,278.2033 94.4576,281.2123 C94.4576,284.4963 93.5526,286.8183 91.7426,288.1773 Z" id="Stroke-40" stroke="#889093" stroke-width="1.7" mask="url(#mask-2)"></path>
                <path d="M52.0361,238.834 C53.1501,239.262 54.0651,239.918 54.7821,240.799 C55.3891,241.547 55.7611,242.314 55.8951,243.104 C56.0301,243.893 56.0971,245.182 56.0971,246.969 L56.0971,258.721 L50.1791,258.721 L50.1791,246.543 C50.1791,245.467 49.9751,244.597 49.5721,243.936 C49.0471,243.004 48.0511,242.54 46.5841,242.54 C45.0631,242.54 43.9081,243.002 43.1191,243.926 C42.3331,244.852 41.9391,246.17 41.9391,247.885 L41.9391,258.721 L36.1411,258.721 L36.1411,231.77 L41.9391,231.77 L41.9391,241.311 C42.7761,240.148 43.7451,239.338 44.8461,238.879 C45.9461,238.421 47.1041,238.191 48.3191,238.191 C49.6821,238.191 50.9221,238.406 52.0361,238.834" id="Fill-41" fill="#889093" mask="url(#mask-2)"></path>
                <path d="M52.0361,238.834 C53.1501,239.262 54.0651,239.918 54.7821,240.799 C55.3891,241.547 55.7611,242.314 55.8951,243.104 C56.0301,243.893 56.0971,245.182 56.0971,246.969 L56.0971,258.721 L50.1791,258.721 L50.1791,246.543 C50.1791,245.467 49.9751,244.597 49.5721,243.936 C49.0471,243.004 48.0511,242.54 46.5841,242.54 C45.0631,242.54 43.9081,243.002 43.1191,243.926 C42.3331,244.852 41.9391,246.17 41.9391,247.885 L41.9391,258.721 L36.1411,258.721 L36.1411,231.77 L41.9391,231.77 L41.9391,241.311 C42.7761,240.148 43.7451,239.338 44.8461,238.879 C45.9461,238.421 47.1041,238.191 48.3191,238.191 C49.6821,238.191 50.9221,238.406 52.0361,238.834 Z" id="Stroke-42" stroke="#889093" stroke-width="2.1" mask="url(#mask-2)"></path>
                <path d="M107.3438,236.375 L107.3438,243.641 L114.0878,243.641 C115.4258,243.641 116.4318,243.494 117.1018,243.199 C118.2848,242.687 118.8788,241.672 118.8788,240.154 C118.8788,238.516 118.3048,237.414 117.1588,236.852 C116.5158,236.535 115.5478,236.375 114.2618,236.375 L107.3438,236.375 Z M120.2948,232.375 C121.3998,232.805 122.3328,233.434 123.1028,234.266 C123.7368,234.952 124.2388,235.708 124.6088,236.54 C124.9808,237.371 125.1648,238.32 125.1648,239.385 C125.1648,240.668 124.8058,241.932 124.0868,243.173 C123.3688,244.415 122.1808,245.291 120.5268,245.807 C121.9088,246.307 122.8898,247.02 123.4668,247.943 C124.0418,248.867 124.3298,250.275 124.3298,252.172 L124.3298,253.988 C124.3298,255.223 124.3868,256.062 124.4968,256.502 C124.6618,257.199 125.0468,257.713 125.6528,258.041 L125.6528,258.721 L118.7378,258.721 C118.5448,258.123 118.4108,257.639 118.3288,257.271 C118.1668,256.514 118.0778,255.736 118.0648,254.941 L118.0238,252.428 C117.9968,250.705 117.6668,249.555 117.0338,248.98 C116.3988,248.404 115.2078,248.117 113.4638,248.117 L107.3438,248.117 L107.3438,258.721 L101.2198,258.721 L101.2198,231.68 L115.5618,231.68 C117.6138,231.715 119.1908,231.948 120.2948,232.375 Z" id="Fill-43" fill="#889093" mask="url(#mask-2)"></path>
                <path d="M107.3438,236.375 L107.3438,243.641 L114.0878,243.641 C115.4258,243.641 116.4318,243.494 117.1018,243.199 C118.2848,242.687 118.8788,241.672 118.8788,240.154 C118.8788,238.516 118.3048,237.414 117.1588,236.852 C116.5158,236.535 115.5478,236.375 114.2618,236.375 L107.3438,236.375 Z M120.2948,232.375 C121.3998,232.805 122.3328,233.434 123.1028,234.266 C123.7368,234.952 124.2388,235.708 124.6088,236.54 C124.9808,237.371 125.1648,238.32 125.1648,239.385 C125.1648,240.668 124.8058,241.932 124.0868,243.173 C123.3688,244.415 122.1808,245.291 120.5268,245.807 C121.9088,246.307 122.8898,247.02 123.4668,247.943 C124.0418,248.867 124.3298,250.275 124.3298,252.172 L124.3298,253.988 C124.3298,255.223 124.3868,256.062 124.4968,256.502 C124.6618,257.199 125.0468,257.713 125.6528,258.041 L125.6528,258.721 L118.7378,258.721 C118.5448,258.123 118.4108,257.639 118.3288,257.271 C118.1668,256.514 118.0778,255.736 118.0648,254.941 L118.0238,252.428 C117.9968,250.705 117.6668,249.555 117.0338,248.98 C116.3988,248.404 115.2078,248.117 113.4638,248.117 L107.3438,248.117 L107.3438,258.721 L101.2198,258.721 L101.2198,231.68 L115.5618,231.68 C117.6138,231.715 119.1908,231.948 120.2948,232.375 Z" id="Stroke-44" stroke="#889093" stroke-width="1.9" mask="url(#mask-2)"></path>
                <path d="M171.2979,244.6309 C170.5079,243.4449 169.2329,242.8519 167.4649,242.8519 C165.3419,242.8519 163.8819,243.7519 163.0869,245.5489 C162.6749,246.5029 162.4709,247.7149 162.4709,249.1809 C162.4709,251.5039 163.1599,253.1379 164.5439,254.0799 C165.3649,254.6299 166.3379,254.9049 167.4649,254.9049 C169.0939,254.9049 170.3379,254.3429 171.1939,253.2179 C172.0509,252.0929 172.4789,250.5939 172.4789,248.7229 C172.4789,247.1819 172.0839,245.8189 171.2979,244.6309 M175.7469,240.8699 C177.5569,242.5959 178.4589,245.1269 178.4589,248.4649 C178.4589,251.9889 177.5759,254.6719 175.8089,256.5199 C174.0409,258.3669 171.7649,259.2899 168.9799,259.2899 C167.2049,259.2899 165.7299,258.8929 164.5559,258.0979 C163.9149,257.6559 163.2879,257.0149 162.6729,256.1719 L162.6729,266.5919 L156.9369,266.5919 L156.9369,238.7229 L162.4899,238.7229 L162.4899,241.6779 C163.1179,240.8089 163.7849,240.1239 164.4959,239.6219 C165.7939,238.7309 167.3369,238.2839 169.1249,238.2839 C171.7319,238.2839 173.9389,239.1469 175.7469,240.8699" id="Fill-45" fill="#889093" mask="url(#mask-2)"></path>
                <path d="M171.2979,244.6309 C170.5079,243.4449 169.2329,242.8519 167.4649,242.8519 C165.3419,242.8519 163.8819,243.7519 163.0869,245.5489 C162.6749,246.5029 162.4709,247.7149 162.4709,249.1809 C162.4709,251.5039 163.1599,253.1379 164.5439,254.0799 C165.3649,254.6299 166.3379,254.9049 167.4649,254.9049 C169.0939,254.9049 170.3379,254.3429 171.1939,253.2179 C172.0509,252.0929 172.4789,250.5939 172.4789,248.7229 C172.4789,247.1819 172.0839,245.8189 171.2979,244.6309 Z M175.7469,240.8699 C177.5569,242.5959 178.4589,245.1269 178.4589,248.4649 C178.4589,251.9889 177.5759,254.6719 175.8089,256.5199 C174.0409,258.3669 171.7649,259.2899 168.9799,259.2899 C167.2049,259.2899 165.7299,258.8929 164.5559,258.0979 C163.9149,257.6559 163.2879,257.0149 162.6729,256.1719 L162.6729,266.5919 L156.9369,266.5919 L156.9369,238.7229 L162.4899,238.7229 L162.4899,241.6779 C163.1179,240.8089 163.7849,240.1239 164.4959,239.6219 C165.7939,238.7309 167.3369,238.2839 169.1249,238.2839 C171.7319,238.2839 173.9389,239.1469 175.7469,240.8699 Z" id="Stroke-46" stroke="#889093" stroke-width="1.9" mask="url(#mask-2)"></path>
                <path d="M223.2949,253.3086 C224.1289,252.2206 224.5459,250.7886 224.5459,249.0166 C224.5459,247.5976 224.3409,246.4216 223.9289,245.4946 C223.1509,243.7326 221.7149,242.8516 219.6219,242.8516 C217.5049,242.8516 216.0479,243.7136 215.2529,245.4386 C214.8439,246.3566 214.6389,247.5426 214.6389,248.9976 C214.6389,250.7106 215.0619,252.1286 215.9099,253.2536 C216.7589,254.3786 218.0509,254.9416 219.7869,254.9416 C221.2909,254.9416 222.4619,254.3966 223.2949,253.3086 M228.1409,241.1266 C229.7999,243.0236 230.6289,245.4686 230.6289,248.4646 C230.6289,251.5726 229.8109,254.1476 228.1759,256.1896 C226.5389,258.2326 224.2549,259.2536 221.3239,259.2536 C219.4849,259.2536 218.0059,258.9226 216.8869,258.2626 C216.2209,257.8716 215.4959,257.1876 214.7189,256.2086 L214.7189,258.7206 L209.0039,258.7206 L209.0039,231.7146 L214.8019,231.7146 L214.8019,241.3286 C215.5379,240.3996 216.3499,239.6896 217.2379,239.2016 C218.2899,238.5896 219.6259,238.2846 221.2499,238.2846 C224.1869,238.2846 226.4829,239.2316 228.1409,241.1266" id="Fill-47" fill="#889093" mask="url(#mask-2)"></path>
                <path d="M223.2949,253.3086 C224.1289,252.2206 224.5459,250.7886 224.5459,249.0166 C224.5459,247.5976 224.3409,246.4216 223.9289,245.4946 C223.1509,243.7326 221.7149,242.8516 219.6219,242.8516 C217.5049,242.8516 216.0479,243.7136 215.2529,245.4386 C214.8439,246.3566 214.6389,247.5426 214.6389,248.9976 C214.6389,250.7106 215.0619,252.1286 215.9099,253.2536 C216.7589,254.3786 218.0509,254.9416 219.7869,254.9416 C221.2909,254.9416 222.4619,254.3966 223.2949,253.3086 Z M228.1409,241.1266 C229.7999,243.0236 230.6289,245.4686 230.6289,248.4646 C230.6289,251.5726 229.8109,254.1476 228.1759,256.1896 C226.5389,258.2326 224.2549,259.2536 221.3239,259.2536 C219.4849,259.2536 218.0059,258.9226 216.8869,258.2626 C216.2209,257.8716 215.4959,257.1876 214.7189,256.2086 L214.7189,258.7206 L209.0039,258.7206 L209.0039,231.7146 L214.8019,231.7146 L214.8019,241.3286 C215.5379,240.3996 216.3499,239.6896 217.2379,239.2016 C218.2899,238.5896 219.6259,238.2846 221.2499,238.2846 C224.1869,238.2846 226.4829,239.2316 228.1409,241.1266 Z" id="Stroke-48" stroke="#889093" stroke-width="1.9" mask="url(#mask-2)"></path>
                <path d="M274.7969,245.8965 C274.6899,245.1505 274.4099,244.4785 273.9609,243.8785 C273.3109,243.0725 272.2959,242.6675 270.9229,242.6675 C268.9659,242.6675 267.6249,243.5425 266.9039,245.2915 C266.5259,246.2185 266.3359,247.4515 266.3359,248.9885 C266.3359,250.4525 266.5259,251.6285 266.9039,252.5215 C267.5969,254.1845 268.9049,255.0145 270.8219,255.0145 C272.1819,255.0145 273.1459,254.6835 273.7169,254.0255 C274.2869,253.3655 274.6349,252.5075 274.7569,251.4565 L280.6779,251.4565 C280.5389,253.0465 279.9019,254.5505 278.7629,255.9695 C276.9439,258.2575 274.2479,259.4005 270.6779,259.4005 C267.1069,259.4005 264.4819,258.4455 262.7959,256.5375 C261.1109,254.6295 260.2729,252.1565 260.2729,249.1155 C260.2729,245.6865 261.2009,243.0155 263.0619,241.1075 C264.9199,239.2015 267.4869,238.2475 270.7609,238.2475 C273.5419,238.2475 275.8179,238.8095 277.5909,239.9355 C279.3619,241.0605 280.4109,243.0465 280.7379,245.8965 L274.7969,245.8965 Z" id="Fill-49" fill="#889093" mask="url(#mask-2)"></path>
                <path d="M274.7969,245.8965 C274.6899,245.1505 274.4099,244.4785 273.9609,243.8785 C273.3109,243.0725 272.2959,242.6675 270.9229,242.6675 C268.9659,242.6675 267.6249,243.5425 266.9039,245.2915 C266.5259,246.2185 266.3359,247.4515 266.3359,248.9885 C266.3359,250.4525 266.5259,251.6285 266.9039,252.5215 C267.5969,254.1845 268.9049,255.0145 270.8219,255.0145 C272.1819,255.0145 273.1459,254.6835 273.7169,254.0255 C274.2869,253.3655 274.6349,252.5075 274.7569,251.4565 L280.6779,251.4565 C280.5389,253.0465 279.9019,254.5505 278.7629,255.9695 C276.9439,258.2575 274.2479,259.4005 270.6779,259.4005 C267.1069,259.4005 264.4819,258.4455 262.7959,256.5375 C261.1109,254.6295 260.2729,252.1565 260.2729,249.1155 C260.2729,245.6865 261.2009,243.0155 263.0619,241.1075 C264.9199,239.2015 267.4869,238.2475 270.7609,238.2475 C273.5419,238.2475 275.8179,238.8095 277.5909,239.9355 C279.3619,241.0605 280.4109,243.0465 280.7379,245.8965 L274.7969,245.8965 Z" id="Stroke-50" stroke="#889093" stroke-width="1.9" mask="url(#mask-2)"></path>
                <polygon id="Fill-51" fill="#2A1C35" mask="url(#mask-2)" points="219.704 300.792 232.403 300.792 232.403 288.093 219.704 288.093"></polygon>
                <path d="M247.5459,189.2129 C247.8469,189.2329 248.2579,189.2599 248.7779,189.2969 L248.7779,193.5959 C248.4499,193.5589 247.8989,193.5299 247.1249,193.5119 C246.3509,193.4929 245.8169,193.6489 245.5229,193.9759 C245.2279,194.3029 245.0809,194.6639 245.0809,195.0599 L245.0809,196.7639 L248.9229,196.7639 L248.9229,200.4869 L245.0809,200.4869 L245.0809,216.7739 L239.2669,216.7739 L239.2669,200.4869 L235.9799,200.4869 L235.9799,196.7639 L239.1849,196.7639 L239.1849,195.4669 C239.1849,193.3049 239.5879,191.8169 240.3969,191.0019 C241.2449,189.7909 243.2929,189.1859 246.5389,189.1859 C246.9089,189.1859 247.2439,189.1939 247.5459,189.2129" id="Fill-52" fill="#889093" mask="url(#mask-2)"></path>
                <path d="M247.5459,189.2129 C247.8469,189.2329 248.2579,189.2599 248.7779,189.2969 L248.7779,193.5959 C248.4499,193.5589 247.8989,193.5299 247.1249,193.5119 C246.3509,193.4929 245.8169,193.6489 245.5229,193.9759 C245.2279,194.3029 245.0809,194.6639 245.0809,195.0599 L245.0809,196.7639 L248.9229,196.7639 L248.9229,200.4869 L245.0809,200.4869 L245.0809,216.7739 L239.2669,216.7739 L239.2669,200.4869 L235.9799,200.4869 L235.9799,196.7639 L239.1849,196.7639 L239.1849,195.4669 C239.1849,193.3049 239.5879,191.8169 240.3969,191.0019 C241.2449,189.7909 243.2929,189.1859 246.5389,189.1859 C246.9089,189.1859 247.2439,189.1939 247.5459,189.2129 Z" id="Stroke-53" stroke="#889093" stroke-width="1.7" mask="url(#mask-2)"></path>
                <path d="M221.6797,201.208 C219.1637,201.208 218.2597,202.929 218.2597,206.687 C218.2597,210.448 219.1637,212.208 221.6797,212.208 C224.1957,212.208 225.1387,210.448 225.1387,206.687 C225.1387,202.929 224.1957,201.208 221.6797,201.208 M221.6797,218.088 C214.3297,218.088 209.8867,213.728 209.8867,206.687 C209.8867,199.646 214.3297,195.328 221.6797,195.328 C229.0317,195.328 233.4727,199.646 233.4727,206.687 C233.4727,213.728 229.0317,218.088 221.6797,218.088" id="Fill-54" fill="#889093" mask="url(#mask-2)"></path>
                <path d="M28.4297,284.708 C25.9137,284.708 25.0097,286.429 25.0097,290.188 C25.0097,293.948 25.9137,295.708 28.4297,295.708 C30.9457,295.708 31.8887,293.948 31.8887,290.188 C31.8887,286.429 30.9457,284.708 28.4297,284.708 M28.4297,301.588 C21.0797,301.588 16.6367,297.228 16.6367,290.188 C16.6367,283.147 21.0797,278.828 28.4297,278.828 C35.7817,278.828 40.2227,283.147 40.2227,290.188 C40.2227,297.228 35.7817,301.588 28.4297,301.588" id="Fill-55" fill="#889093" mask="url(#mask-2)"></path>
                <path d="M71.5132,241.9727 C69.3062,241.9727 67.9412,243.4047 67.8212,245.9117 L75.3662,245.9117 C75.2042,243.2867 73.9212,241.9727 71.5132,241.9727 Z M67.8212,250.1307 C67.9012,252.8377 69.3062,254.3497 71.7542,254.3497 C73.3982,254.3497 74.5222,253.7127 74.9242,252.5977 L83.0302,252.5977 C81.8652,257.1767 77.8522,259.6037 71.2722,259.6037 C63.8892,259.6037 59.3542,255.1867 59.3542,248.4587 C59.3542,241.3757 64.0092,236.9587 71.5932,236.9587 C79.1382,236.9587 83.7122,241.6547 83.7122,249.6137 L83.7122,250.1307 L67.8212,250.1307 Z" id="Fill-56" fill="#889093" mask="url(#mask-2)"></path>
                <path d="M141.1177,241.9727 C138.9107,241.9727 137.5447,243.4047 137.4257,245.9117 L144.9697,245.9117 C144.8097,243.2867 143.5237,241.9727 141.1177,241.9727 Z M137.4257,250.1307 C137.5047,252.8377 138.9107,254.3497 141.3557,254.3497 C143.0027,254.3497 144.1267,253.7127 144.5287,252.5977 L152.6337,252.5977 C151.4697,257.1767 147.4577,259.6037 140.8767,259.6037 C133.4927,259.6037 128.9577,255.1867 128.9577,248.4587 C128.9577,241.3757 133.6117,236.9587 141.1967,236.9587 C148.7427,236.9587 153.3167,241.6547 153.3167,249.6137 L153.3167,250.1307 L137.4257,250.1307 Z" id="Fill-57" fill="#889093" mask="url(#mask-2)"></path>
                <path d="M108.0967,284.708 C105.5807,284.708 104.6767,286.429 104.6767,290.188 C104.6767,293.948 105.5807,295.708 108.0967,295.708 C110.6127,295.708 111.5557,293.948 111.5557,290.188 C111.5557,286.429 110.6127,284.708 108.0967,284.708 M108.0967,301.588 C100.7467,301.588 96.3037,297.228 96.3037,290.188 C96.3037,283.147 100.7467,278.828 108.0967,278.828 C115.4487,278.828 119.8897,283.147 119.8897,290.188 C119.8897,297.228 115.4487,301.588 108.0967,301.588" id="Fill-58" fill="#889093" mask="url(#mask-2)"></path>
                <polygon id="Fill-59" fill="#889093" mask="url(#mask-2)" points="234.054 259.824 242.575 259.824 242.575 230.564 234.054 230.564"></polygon>
                <polygon id="Fill-60" fill="#889093" mask="url(#mask-2)" points="122.887 300.992 131.167 300.992 131.167 272.554 122.887 272.554"></polygon>
                <path d="M25.6909,259.6865 C20.5429,259.6865 18.6169,258.2065 18.6169,253.6055 L18.6169,242.9665 L15.6679,242.9665 L15.6679,238.0855 L18.6169,238.0855 L18.6169,231.5265 L26.8709,231.5265 L26.8709,238.0855 L30.7629,238.0855 L30.7629,242.9665 L26.8709,242.9665 L26.8709,251.4465 C26.8709,252.9665 27.6579,253.4065 29.6619,253.4065 C30.0149,253.4065 30.4099,253.4065 30.8409,253.3665 L30.8409,259.4865 C29.0329,259.6065 27.3039,259.6865 25.6909,259.6865" id="Fill-61" fill="#889093" mask="url(#mask-2)"></path>
                <path d="M177.0342,300.8281 L177.0342,289.8281 C177.0342,286.9081 176.4832,285.5881 174.2042,285.5881 C172.1202,285.5881 171.0982,286.9881 171.0982,289.8681 L171.0982,300.8281 L162.8052,300.8281 L162.8052,279.5881 L170.3522,279.5881 L170.3522,282.7081 C172.2782,280.2271 174.6362,279.0281 177.6632,279.0281 C180.2182,279.0281 182.2232,279.9081 183.5982,281.5881 C185.2102,283.5481 185.3292,286.1081 185.3292,289.7881 L185.3292,300.8281 L177.0342,300.8281 Z" id="Fill-62" fill="#889093" mask="url(#mask-2)"></path>
                <path d="M200.4668,285.6748 C198.1468,285.6748 197.0858,287.2748 197.0858,290.5948 C197.0858,293.7538 198.3828,295.5148 200.4668,295.5148 C202.5488,295.5148 203.8868,293.7538 203.8868,290.5948 C203.8868,287.2748 202.7848,285.6748 200.4668,285.6748 Z M204.5548,300.9938 L204.5548,298.3938 C202.7458,300.6748 200.5058,301.7538 197.7148,301.7538 C192.4468,301.7538 188.7518,297.3938 188.7518,290.4738 C188.7518,283.5538 192.5258,279.1138 197.6358,279.1138 C200.1528,279.1138 202.1558,280.0738 203.8078,282.0338 L203.8078,272.2348 L211.9048,272.2348 L211.9048,300.9938 L204.5548,300.9938 Z" id="Fill-63" fill="#889093" mask="url(#mask-2)"></path>
                <path d="M150.0518,291.5137 C146.1998,292.9927 143.7628,292.7127 143.7628,294.7527 C143.7628,295.9527 144.5888,296.6737 146.1218,296.6737 C148.9128,296.6737 150.0908,295.3927 150.0908,292.5937 C150.0908,292.2337 150.0908,291.8727 150.0518,291.5137 Z M150.7998,300.9927 L150.2878,298.9527 C148.1648,300.8727 145.7668,301.7527 142.7018,301.7527 C137.9448,301.7527 135.3118,299.2737 135.3118,294.9927 C135.3118,290.2737 138.2198,288.9527 144.3918,288.1537 C148.4018,287.6327 150.1298,287.8327 150.1298,285.8727 C150.1298,284.6327 149.1478,284.1137 147.1438,284.1137 C145.4128,284.1137 144.5088,284.7927 144.3528,286.2337 L136.2548,286.2337 C136.3328,281.4727 140.1068,278.9927 147.4188,278.9927 C151.2318,278.9927 154.1398,279.8327 155.5558,280.7927 C157.7568,282.3127 158.2278,283.9127 158.2278,286.7527 L158.2278,298.5937 C158.2278,299.3537 158.5418,299.9927 159.1318,300.3927 L159.1318,300.9927 L150.7998,300.9927 Z" id="Fill-64" fill="#889093" mask="url(#mask-2)"></path>
                <path d="M52.8423,284.4707 L52.8423,300.9107 L44.5883,300.9107 L44.5883,284.4707 L41.9943,284.4707 L41.9943,279.6707 L44.5883,279.6707 L44.5883,278.3517 C44.5883,273.5917 46.8673,271.4317 51.7423,271.4317 L56.3813,271.4317 L56.3813,276.7507 C56.0673,276.7507 55.7913,276.7107 55.5163,276.7107 C53.5513,276.7107 52.8033,277.2717 52.8033,279.0317 C52.8033,279.2307 52.8423,279.4317 52.8423,279.6707 L56.3813,279.6707 L56.3813,284.4707 L52.8423,284.4707 Z" id="Fill-65" fill="#889093" mask="url(#mask-2)"></path>
                <path d="M247.363,259.827 L255.734,259.827 L255.734,238.587 L247.363,238.587 L247.363,259.827 Z M247.363,236.428 L255.734,236.428 L255.734,230.348 L247.363,230.348 L247.363,236.428 Z" id="Fill-66" fill="#889093" mask="url(#mask-2)"></path>
                <path d="M197.1133,259.6289 L197.1133,256.4249 C195.1333,258.9729 192.7103,260.2049 189.6023,260.2049 C186.9763,260.2049 184.9173,259.2999 183.5033,257.5749 C181.8463,255.5609 181.7673,252.8899 181.7673,249.1089 L181.7673,237.8099 L190.2883,237.8099 L190.2883,249.0689 C190.2883,252.0679 190.8513,253.4659 193.1953,253.4659 C195.3353,253.4659 196.3853,251.9859 196.3853,249.0269 L196.3853,237.8099 L204.9063,237.8099 L204.9063,259.6289 L197.1133,259.6289 Z" id="Fill-67" fill="#889093" mask="url(#mask-2)"></path>
            </g>
            <polygon id="Fill-69" fill="#2A1C35" points="21.3604 16.6553 21.3604 23.5933 19.5774 23.5933 19.5774 16.6553 17.1384 16.6553 17.1384 15.3093 23.7994 15.3093 23.7994 16.6553"></polygon>
            <g id="Group-161" transform="translate(0.000000, 0.480000)">
                <path d="M28.374,23.1128 L28.374,19.6268 C28.374,18.8098 28.132,18.4188 27.431,18.4188 C26.798,18.4188 26.372,18.8558 26.372,19.5578 L26.372,23.1128 L24.704,23.1128 L24.704,14.8288 L26.372,14.8288 L26.372,18.0848 C26.798,17.4748 27.35,17.1988 28.155,17.1988 C29.444,17.1988 30.042,17.9238 30.042,19.3968 L30.042,23.1128 L28.374,23.1128 Z" id="Fill-70" fill="#2A1C35"></path>
                <path d="M33.9263,18.2578 C33.3623,18.2578 32.9713,18.7068 32.9253,19.5118 L34.9043,19.5118 C34.8923,18.6828 34.5703,18.2578 33.9263,18.2578 M36.6073,20.5818 L32.8793,20.5818 C32.8903,21.6168 33.2473,22.1238 33.9493,22.1238 C34.5013,22.1238 34.8233,21.8588 34.9503,21.3068 L36.4343,21.3068 C36.3423,22.5148 35.4333,23.2388 33.9603,23.2388 C32.2693,23.2388 31.2683,22.1578 31.2683,20.2828 C31.2683,18.3038 32.2923,17.1988 34.0413,17.1988 C35.6753,17.1988 36.6183,18.2688 36.6183,20.2018 C36.6183,20.3288 36.6183,20.4548 36.6073,20.5818" id="Fill-72" fill="#2A1C35"></path>
                <path d="M43.8833,18.3267 C43.1473,18.3267 42.6523,19.0167 42.6523,20.2137 C42.6523,21.4097 43.1473,22.1007 43.8833,22.1007 C44.6083,22.1007 45.0573,21.4327 45.0573,20.2137 C45.0573,18.9937 44.6083,18.3267 43.8833,18.3267 M44.4243,23.2167 C43.6653,23.2167 43.1013,22.9287 42.6873,22.3187 L42.6873,25.2987 L41.0183,25.2987 L41.0183,18.5107 C41.0183,18.0967 41.0073,17.7167 40.9613,17.3377 L42.6063,17.3377 L42.6643,18.1657 C43.0783,17.5447 43.6653,17.2227 44.4013,17.2227 C45.7583,17.2227 46.7593,18.3617 46.7593,20.2247 C46.7593,22.0887 45.7933,23.2167 44.4243,23.2167" id="Fill-74" fill="#2A1C35"></path>
                <path d="M51.1035,18.7871 C50.2175,18.7871 49.7005,19.2471 49.7005,19.9951 L49.7005,23.1131 L47.9975,23.1131 L47.9975,19.1321 C47.9975,18.4761 47.9745,17.8781 47.9285,17.3371 L49.4705,17.3371 L49.5275,18.3721 C49.8265,17.6591 50.4705,17.2911 51.4255,17.2911 L51.4715,17.2911 L51.4715,18.8101 C51.3455,18.7981 51.2185,18.7871 51.1035,18.7871" id="Fill-76" fill="#2A1C35"></path>
                <path d="M55.1387,18.3037 C54.3107,18.3037 53.8617,18.9477 53.8617,20.2137 C53.8617,21.4787 54.3107,22.1237 55.1387,22.1237 C55.9677,22.1237 56.4157,21.4787 56.4157,20.2137 C56.4157,18.9477 55.9677,18.3037 55.1387,18.3037 M55.1387,23.2507 C53.3557,23.2507 52.1597,22.0657 52.1597,20.2247 C52.1597,18.3847 53.3557,17.1997 55.1387,17.1997 C56.9337,17.1997 58.1307,18.3727 58.1307,20.2247 C58.1307,22.0767 56.9337,23.2507 55.1387,23.2507" id="Fill-78" fill="#2A1C35"></path>
                <mask id="mask-4" fill="white">
                    <use xlink:href="#path-3"></use>
                </mask>
                <g id="Clip-81"></g>
                <path d="M59.368,16.29 L61.048,16.29 L61.048,14.829 L59.368,14.829 L59.368,16.29 Z M59.149,25.379 C59.035,25.379 58.862,25.368 58.632,25.356 L58.632,24.194 C59.311,24.16 59.368,23.895 59.368,23.182 L59.368,17.337 L61.048,17.337 L61.048,23.366 C61.048,24.77 60.68,25.379 59.149,25.379 Z" id="Fill-80" fill="#2A1C35" mask="url(#mask-4)"></path>
                <path d="M64.9346,18.2578 C64.3706,18.2578 63.9796,18.7068 63.9336,19.5118 L65.9126,19.5118 C65.9006,18.6828 65.5786,18.2578 64.9346,18.2578 M67.6156,20.5818 L63.8876,20.5818 C63.8986,21.6168 64.2556,22.1238 64.9576,22.1238 C65.5096,22.1238 65.8316,21.8588 65.9586,21.3068 L67.4426,21.3068 C67.3506,22.5148 66.4416,23.2388 64.9686,23.2388 C63.2776,23.2388 62.2766,22.1578 62.2766,20.2828 C62.2766,18.3038 63.3006,17.1988 65.0496,17.1988 C66.6836,17.1988 67.6266,18.2688 67.6266,20.2018 C67.6266,20.3288 67.6266,20.4548 67.6156,20.5818" id="Fill-82" fill="#2A1C35" mask="url(#mask-4)"></path>
                <path d="M71.1201,23.251 C69.5561,23.251 68.5321,22.101 68.5321,20.145 C68.5321,18.304 69.5561,17.199 71.2351,17.199 C72.5811,17.199 73.4561,17.993 73.4791,19.305 L71.8911,19.305 C71.8221,18.58 71.5921,18.269 71.1091,18.269 C70.5341,18.269 70.2691,18.879 70.2691,20.11 C70.2691,21.433 70.4881,22.066 71.1431,22.066 C71.6031,22.066 71.8561,21.686 71.9031,20.927 L73.4791,20.927 C73.4791,22.399 72.6041,23.251 71.1201,23.251" id="Fill-83" fill="#2A1C35" mask="url(#mask-4)"></path>
                <path d="M76.5928,18.4761 L76.5928,21.2951 C76.5928,21.7211 76.8228,21.9511 77.2258,21.9511 C77.4218,21.9511 77.6518,21.9281 77.9268,21.8701 L77.9268,23.0551 C77.4218,23.1701 76.9378,23.2281 76.4548,23.2281 C75.3728,23.2281 74.9358,22.7101 74.9358,21.6051 L74.9358,18.4761 L73.8428,18.4761 L73.8428,17.3371 L74.9358,17.3371 L74.9358,16.2211 L76.6048,15.6001 L76.6048,17.3371 L77.9388,17.3371 L77.9388,18.4761 L76.5928,18.4761 Z" id="Fill-84" fill="#2A1C35" mask="url(#mask-4)"></path>
                <path d="M82.179,23.112 L83.859,23.112 L83.859,17.337 L82.179,17.337 L82.179,23.112 Z M82.179,16.29 L83.859,16.29 L83.859,14.829 L82.179,14.829 L82.179,16.29 Z" id="Fill-85" fill="#2A1C35" mask="url(#mask-4)"></path>
                <path d="M87.3774,23.251 C85.8244,23.251 84.9604,22.572 84.9384,21.376 L86.5024,21.376 C86.5254,21.893 86.8134,22.135 87.4344,22.135 C87.9864,22.135 88.2974,21.882 88.2974,21.479 C88.2974,20.916 87.7334,20.881 86.8134,20.628 C85.6054,20.306 85.0534,19.857 85.0534,18.959 C85.0534,17.981 85.9614,17.199 87.5034,17.199 C88.8384,17.199 89.6434,17.832 89.6434,18.81 L89.6434,18.856 L88.1704,18.856 C88.1134,18.407 87.8494,18.188 87.3654,18.188 C86.8594,18.188 86.5604,18.442 86.5604,18.775 C86.5604,19.247 87.1014,19.293 88.0674,19.535 C89.3214,19.845 89.8974,20.317 89.8974,21.237 C89.8974,22.342 88.8964,23.251 87.3774,23.251" id="Fill-86" fill="#2A1C35" mask="url(#mask-4)"></path>
                <path d="M96.5059,23.251 C94.9419,23.251 93.9179,22.101 93.9179,20.145 C93.9179,18.304 94.9419,17.199 96.6209,17.199 C97.9669,17.199 98.8419,17.993 98.8649,19.305 L97.2769,19.305 C97.2079,18.58 96.9779,18.269 96.4949,18.269 C95.9199,18.269 95.6549,18.879 95.6549,20.11 C95.6549,21.433 95.8739,22.066 96.5289,22.066 C96.9889,22.066 97.2419,21.686 97.2889,20.927 L98.8649,20.927 C98.8649,22.399 97.9899,23.251 96.5059,23.251" id="Fill-87" fill="#2A1C35" mask="url(#mask-4)"></path>
                <path d="M102.6572,18.3037 C101.8292,18.3037 101.3802,18.9477 101.3802,20.2137 C101.3802,21.4787 101.8292,22.1237 102.6572,22.1237 C103.4862,22.1237 103.9342,21.4787 103.9342,20.2137 C103.9342,18.9477 103.4862,18.3037 102.6572,18.3037 M102.6572,23.2507 C100.8742,23.2507 99.6782,22.0657 99.6782,20.2247 C99.6782,18.3847 100.8742,17.1997 102.6572,17.1997 C104.4522,17.1997 105.6492,18.3727 105.6492,20.2247 C105.6492,22.0767 104.4522,23.2507 102.6572,23.2507" id="Fill-88" fill="#2A1C35" mask="url(#mask-4)"></path>
                <polygon id="Fill-89" fill="#2A1C35" mask="url(#mask-4)" points="106.861 20.915 109.829 20.915 109.829 19.396 106.861 19.396"></polygon>
                <path d="M113.6118,15.8877 C113.1288,15.8877 112.8758,16.1177 112.8758,16.5667 L112.8758,17.3377 L113.8998,17.3377 L113.8998,18.4877 L112.8758,18.4877 L112.8758,23.1127 L111.2298,23.1127 L111.2298,18.4877 L110.3558,18.4877 L110.3558,17.3377 L111.2298,17.3377 L111.2298,16.2207 C111.2298,15.1857 111.8048,14.6797 112.9898,14.6797 C113.2438,14.6797 113.5768,14.7137 114.0028,14.7607 L114.0028,15.9217 C113.8538,15.8987 113.7158,15.8877 113.6118,15.8877" id="Fill-90" fill="#2A1C35" mask="url(#mask-4)"></path>
                <path d="M114.863,23.112 L116.543,23.112 L116.543,17.337 L114.863,17.337 L114.863,23.112 Z M114.863,16.29 L116.543,16.29 L116.543,14.829 L114.863,14.829 L114.863,16.29 Z" id="Fill-91" fill="#2A1C35" mask="url(#mask-4)"></path>
                <path d="M121.7412,23.1128 L121.7412,19.6268 C121.7412,18.8098 121.4992,18.4188 120.7982,18.4188 C120.1652,18.4188 119.7272,18.8558 119.7272,19.5578 L119.7272,23.1128 L118.0712,23.1128 L118.0712,18.4418 C118.0712,18.0848 118.0482,17.7168 118.0132,17.3378 L119.6132,17.3378 L119.6472,18.1998 C120.0842,17.4978 120.6592,17.1988 121.5112,17.1988 C122.7992,17.1988 123.3982,17.9238 123.3982,19.3968 L123.3982,23.1128 L121.7412,23.1128 Z" id="Fill-92" fill="#2A1C35" mask="url(#mask-4)"></path>
                <path d="M128.1221,20.3398 L127.9381,20.3398 C126.8331,20.3398 126.2691,20.7198 126.2691,21.3638 C126.2691,21.8008 126.6031,22.1238 127.0751,22.1238 C127.7421,22.1238 128.1331,21.6168 128.1331,20.6508 C128.1331,20.5588 128.1331,20.4548 128.1221,20.3398 Z M128.3751,23.1128 C128.3521,22.9168 128.3171,22.6528 128.3061,22.3308 C127.8111,22.9858 127.2251,23.2968 126.4761,23.2968 C125.3951,23.2968 124.6361,22.5488 124.6361,21.4678 C124.6361,20.1328 125.6941,19.3968 127.7541,19.3968 C127.8801,19.3968 128.0071,19.4078 128.1331,19.4078 C128.1331,19.3278 128.1451,19.2468 128.1451,19.1668 C128.1451,18.4648 127.9031,18.1428 127.3391,18.1428 C126.8451,18.1428 126.5921,18.3838 126.5461,18.9598 L124.8771,18.9598 C124.8891,17.7628 125.7061,17.1878 127.3391,17.1878 C128.1791,17.1878 128.8241,17.4178 129.2151,17.7978 C129.7091,18.2808 129.7321,18.8208 129.7321,19.5918 L129.7321,21.3528 C129.7321,21.6748 129.7671,22.2608 129.8251,23.1128 L128.3751,23.1128 Z" id="Fill-93" fill="#2A1C35" mask="url(#mask-4)"></path>
                <path d="M134.9287,23.1128 L134.9287,19.6268 C134.9287,18.8098 134.6867,18.4188 133.9857,18.4188 C133.3527,18.4188 132.9147,18.8558 132.9147,19.5578 L132.9147,23.1128 L131.2587,23.1128 L131.2587,18.4418 C131.2587,18.0848 131.2357,17.7168 131.2007,17.3378 L132.8007,17.3378 L132.8347,18.1998 C133.2717,17.4978 133.8467,17.1988 134.6987,17.1988 C135.9867,17.1988 136.5857,17.9238 136.5857,19.3968 L136.5857,23.1128 L134.9287,23.1128 Z" id="Fill-94" fill="#2A1C35" mask="url(#mask-4)"></path>
                <path d="M140.3662,23.251 C138.8012,23.251 137.7772,22.101 137.7772,20.145 C137.7772,18.304 138.8012,17.199 140.4812,17.199 C141.8272,17.199 142.7012,17.993 142.7242,19.305 L141.1372,19.305 C141.0682,18.58 140.8382,18.269 140.3542,18.269 C139.7792,18.269 139.5142,18.879 139.5142,20.11 C139.5142,21.433 139.7332,22.066 140.3892,22.066 C140.8492,22.066 141.1022,21.686 141.1482,20.927 L142.7242,20.927 C142.7242,22.399 141.8502,23.251 140.3662,23.251" id="Fill-95" fill="#2A1C35" mask="url(#mask-4)"></path>
                <path d="M146.1953,18.2578 C145.6313,18.2578 145.2403,18.7068 145.1943,19.5118 L147.1733,19.5118 C147.1613,18.6828 146.8393,18.2578 146.1953,18.2578 M148.8763,20.5818 L145.1483,20.5818 C145.1593,21.6168 145.5163,22.1238 146.2183,22.1238 C146.7703,22.1238 147.0923,21.8588 147.2193,21.3068 L148.7033,21.3068 C148.6113,22.5148 147.7023,23.2388 146.2293,23.2388 C144.5383,23.2388 143.5373,22.1578 143.5373,20.2828 C143.5373,18.3038 144.5613,17.1988 146.3103,17.1988 C147.9443,17.1988 148.8873,18.2688 148.8873,20.2018 C148.8873,20.3288 148.8873,20.4548 148.8763,20.5818" id="Fill-96" fill="#2A1C35" mask="url(#mask-4)"></path>
                <path d="M152.7144,18.3496 C151.9894,18.3496 151.5404,19.0166 151.5404,20.2366 C151.5404,21.4556 151.9894,22.1116 152.7144,22.1116 C153.4504,22.1116 153.9454,21.4326 153.9454,20.2366 C153.9454,19.0396 153.4504,18.3496 152.7144,18.3496 Z M153.9914,23.1126 L153.9334,22.2846 C153.5194,22.9056 152.9324,23.2276 152.1964,23.2276 C150.8394,23.2276 149.8384,22.0886 149.8384,20.2246 C149.8384,18.3616 150.8044,17.2336 152.1734,17.2336 C152.9324,17.2336 153.4964,17.5216 153.9104,18.1306 L153.9104,14.8286 L155.5794,14.8286 L155.5794,21.9506 C155.5794,22.4456 155.5904,22.8366 155.6364,23.1126 L153.9914,23.1126 Z" id="Fill-97" fill="#2A1C35" mask="url(#mask-4)"></path>
                <path d="M163.1426,18.3496 C162.4176,18.3496 161.9126,19.0396 161.9126,20.2366 C161.9126,21.4326 162.4176,22.1116 163.1426,22.1116 C163.8676,22.1116 164.3166,21.4556 164.3166,20.2366 C164.3166,19.0166 163.8676,18.3496 163.1426,18.3496 M163.6606,23.2276 C162.9236,23.2276 162.3366,22.9056 161.9226,22.2846 L161.8656,23.1126 L160.2206,23.1126 C160.2546,22.8256 160.2786,22.5026 160.2786,22.1576 L160.2786,14.8286 L161.9466,14.8286 L161.9466,18.1306 C162.3606,17.5216 162.9236,17.2336 163.6836,17.2336 C165.0526,17.2336 166.0186,18.3616 166.0186,20.2246 C166.0186,22.0886 165.0176,23.2276 163.6606,23.2276" id="Fill-98" fill="#2A1C35" mask="url(#mask-4)"></path>
                <polygon id="Fill-99" fill="#2A1C35" mask="url(#mask-4)" points="170.4785 23.1128 169.8105 25.2988 168.1085 25.2988 168.8215 23.1128 166.6355 17.3378 168.4875 17.3378 169.7425 21.1108 171.0065 17.3378 172.6875 17.3378"></polygon>
                <path d="M178.8008,18.4761 L178.8008,21.2951 C178.8008,21.7211 179.0308,21.9511 179.4338,21.9511 C179.6288,21.9511 179.8598,21.9281 180.1358,21.8701 L180.1358,23.0551 C179.6288,23.1701 179.1468,23.2281 178.6628,23.2281 C177.5808,23.2281 177.1448,22.7101 177.1448,21.6051 L177.1448,18.4761 L176.0508,18.4761 L176.0508,17.3371 L177.1448,17.3371 L177.1448,16.2211 L178.8128,15.6001 L178.8128,17.3371 L180.1468,17.3371 L180.1468,18.4761 L178.8008,18.4761 Z" id="Fill-100" fill="#2A1C35" mask="url(#mask-4)"></path>
                <path d="M184.8848,23.1128 L184.8848,19.6268 C184.8848,18.8098 184.6428,18.4188 183.9418,18.4188 C183.3088,18.4188 182.8828,18.8558 182.8828,19.5578 L182.8828,23.1128 L181.2138,23.1128 L181.2138,14.8288 L182.8828,14.8288 L182.8828,18.0848 C183.3088,17.4748 183.8608,17.1988 184.6658,17.1988 C185.9538,17.1988 186.5528,17.9238 186.5528,19.3968 L186.5528,23.1128 L184.8848,23.1128 Z" id="Fill-101" fill="#2A1C35" mask="url(#mask-4)"></path>
                <path d="M190.4365,18.2578 C189.8735,18.2578 189.4815,18.7068 189.4355,19.5118 L191.4155,19.5118 C191.4035,18.6828 191.0815,18.2578 190.4365,18.2578 M193.1175,20.5818 L189.3895,20.5818 C189.4015,21.6168 189.7575,22.1238 190.4595,22.1238 C191.0115,22.1238 191.3335,21.8588 191.4605,21.3068 L192.9455,21.3068 C192.8525,22.5148 191.9445,23.2388 190.4715,23.2388 C188.7805,23.2388 187.7795,22.1578 187.7795,20.2828 C187.7795,18.3038 188.8025,17.1988 190.5515,17.1988 C192.1855,17.1988 193.1285,18.2688 193.1285,20.2018 C193.1285,20.3288 193.1285,20.4548 193.1175,20.5818" id="Fill-102" fill="#2A1C35" mask="url(#mask-4)"></path>
                <polygon id="Fill-103" fill="#2A1C35" mask="url(#mask-4)" points="205.042 23.1128 205.042 16.1058 202.879 23.1128 201.325 23.1128 199.162 16.1058 199.162 23.1128 197.575 23.1128 197.575 14.8288 200.371 14.8288 202.107 20.8118 203.834 14.8288 206.687 14.8288 206.687 23.1128"></polygon>
                <path d="M208.245,23.112 L209.925,23.112 L209.925,17.337 L208.245,17.337 L208.245,23.112 Z M208.245,16.29 L209.925,16.29 L209.925,14.829 L208.245,14.829 L208.245,16.29 Z" id="Fill-104" fill="#2A1C35" mask="url(#mask-4)"></path>
                <path d="M215.1221,23.1128 L215.1221,19.6268 C215.1221,18.8098 214.8811,18.4188 214.1791,18.4188 C213.5461,18.4188 213.1091,18.8558 213.1091,19.5578 L213.1091,23.1128 L211.4521,23.1128 L211.4521,18.4418 C211.4521,18.0848 211.4301,17.7168 211.3941,17.3378 L212.9941,17.3378 L213.0281,18.1998 C213.4661,17.4978 214.0411,17.1988 214.8931,17.1988 C216.1811,17.1988 216.7791,17.9238 216.7791,19.3968 L216.7791,23.1128 L215.1221,23.1128 Z" id="Fill-105" fill="#2A1C35" mask="url(#mask-4)"></path>
                <path d="M218.282,23.112 L219.962,23.112 L219.962,17.337 L218.282,17.337 L218.282,23.112 Z M218.282,16.29 L219.962,16.29 L219.962,14.829 L218.282,14.829 L218.282,16.29 Z" id="Fill-106" fill="#2A1C35" mask="url(#mask-4)"></path>
                <path d="M223.4795,23.251 C221.9265,23.251 221.0635,22.572 221.0415,21.376 L222.6055,21.376 C222.6275,21.893 222.9165,22.135 223.5375,22.135 C224.0895,22.135 224.4005,21.882 224.4005,21.479 C224.4005,20.916 223.8355,20.881 222.9165,20.628 C221.7085,20.306 221.1555,19.857 221.1555,18.959 C221.1555,17.981 222.0645,17.199 223.6065,17.199 C224.9415,17.199 225.7465,17.832 225.7465,18.81 L225.7465,18.856 L224.2735,18.856 C224.2155,18.407 223.9515,18.188 223.4685,18.188 C222.9615,18.188 222.6635,18.442 222.6635,18.775 C222.6635,19.247 223.2045,19.293 224.1695,19.535 C225.4235,19.845 225.9995,20.317 225.9995,21.237 C225.9995,22.342 224.9985,23.251 223.4795,23.251" id="Fill-107" fill="#2A1C35" mask="url(#mask-4)"></path>
                <path d="M229.1709,18.4761 L229.1709,21.2951 C229.1709,21.7211 229.4009,21.9511 229.8039,21.9511 C229.9989,21.9511 230.2299,21.9281 230.5059,21.8701 L230.5059,23.0551 C229.9989,23.1701 229.5159,23.2281 229.0329,23.2281 C227.9509,23.2281 227.5149,22.7101 227.5149,21.6051 L227.5149,18.4761 L226.4209,18.4761 L226.4209,17.3371 L227.5149,17.3371 L227.5149,16.2211 L229.1829,15.6001 L229.1829,17.3371 L230.5169,17.3371 L230.5169,18.4761 L229.1709,18.4761 Z" id="Fill-108" fill="#2A1C35" mask="url(#mask-4)"></path>
                <path d="M234.668,18.7871 C233.782,18.7871 233.264,19.2471 233.264,19.9951 L233.264,23.1131 L231.562,23.1131 L231.562,19.1321 C231.562,18.4761 231.538,17.8781 231.492,17.3371 L233.034,17.3371 L233.092,18.3721 C233.391,17.6591 234.035,17.2911 234.99,17.2911 L235.036,17.2911 L235.036,18.8101 C234.909,18.7981 234.783,18.7871 234.668,18.7871" id="Fill-109" fill="#2A1C35" mask="url(#mask-4)"></path>
                <polygon id="Fill-110" fill="#2A1C35" mask="url(#mask-4)" points="239.209 23.1128 238.541 25.2988 236.839 25.2988 237.552 23.1128 235.366 17.3378 237.218 17.3378 238.473 21.1108 239.737 17.3378 241.418 17.3378"></polygon>
                <path d="M248.2109,18.3037 C247.3829,18.3037 246.9339,18.9477 246.9339,20.2137 C246.9339,21.4787 247.3829,22.1237 248.2109,22.1237 C249.0389,22.1237 249.4879,21.4787 249.4879,20.2137 C249.4879,18.9477 249.0389,18.3037 248.2109,18.3037 M248.2109,23.2507 C246.4279,23.2507 245.2319,22.0657 245.2319,20.2247 C245.2319,18.3847 246.4279,17.1997 248.2109,17.1997 C250.0059,17.1997 251.2019,18.3727 251.2019,20.2247 C251.2019,22.0767 250.0059,23.2507 248.2109,23.2507" id="Fill-111" fill="#2A1C35" mask="url(#mask-4)"></path>
                <path d="M254.9482,15.8877 C254.4652,15.8877 254.2122,16.1177 254.2122,16.5667 L254.2122,17.3377 L255.2352,17.3377 L255.2352,18.4877 L254.2122,18.4877 L254.2122,23.1127 L252.5662,23.1127 L252.5662,18.4877 L251.6922,18.4877 L251.6922,17.3377 L252.5662,17.3377 L252.5662,16.2207 C252.5662,15.1857 253.1412,14.6797 254.3272,14.6797 C254.5802,14.6797 254.9142,14.7137 255.3392,14.7607 L255.3392,15.9217 C255.1892,15.8987 255.0522,15.8877 254.9482,15.8877" id="Fill-112" fill="#2A1C35" mask="url(#mask-4)"></path>
                <path d="M262.8701,23.251 C260.3961,23.251 259.1081,21.79 259.1081,19.005 C259.1081,16.221 260.4661,14.691 262.9051,14.691 C264.9301,14.691 266.1261,15.669 266.2071,17.222 L264.5851,17.222 C264.5391,16.428 263.9171,15.911 262.9741,15.911 C261.6041,15.911 260.8911,16.935 260.8911,18.971 C260.8911,21.042 261.5581,22.043 262.9851,22.043 C263.8941,22.043 264.5271,21.491 264.5851,20.628 L266.2531,20.628 C266.1381,22.331 264.9641,23.251 262.8701,23.251" id="Fill-113" fill="#2A1C35" mask="url(#mask-4)"></path>
                <path d="M271.1943,23.1128 L271.1483,22.2498 C270.7123,22.9518 270.1363,23.2508 269.2853,23.2508 C267.9963,23.2508 267.3983,22.5258 267.3983,21.0528 L267.3983,17.3378 L269.0663,17.3378 L269.0663,20.8118 C269.0663,21.6288 269.3073,22.0198 270.0093,22.0198 C270.6423,22.0198 271.0683,21.5938 271.0683,20.8918 L271.0683,17.3378 L272.7363,17.3378 L272.7363,21.9968 C272.7363,22.3538 272.7483,22.7328 272.7823,23.1128 L271.1943,23.1128 Z" id="Fill-114" fill="#2A1C35" mask="url(#mask-4)"></path>
                <polygon id="Fill-115" fill="#2A1C35" mask="url(#mask-4)" points="274.251 23.113 275.919 23.113 275.919 14.829 274.251 14.829"></polygon>
                <path d="M279.46,18.4761 L279.46,21.2951 C279.46,21.7211 279.69,21.9511 280.093,21.9511 C280.288,21.9511 280.519,21.9281 280.795,21.8701 L280.795,23.0551 C280.288,23.1701 279.805,23.2281 279.322,23.2281 C278.24,23.2281 277.804,22.7101 277.804,21.6051 L277.804,18.4761 L276.71,18.4761 L276.71,17.3371 L277.804,17.3371 L277.804,16.2211 L279.472,15.6001 L279.472,17.3371 L280.806,17.3371 L280.806,18.4761 L279.46,18.4761 Z" id="Fill-116" fill="#2A1C35" mask="url(#mask-4)"></path>
                <path d="M285.6582,23.1128 L285.6122,22.2498 C285.1762,22.9518 284.5992,23.2508 283.7492,23.2508 C282.4602,23.2508 281.8622,22.5258 281.8622,21.0528 L281.8622,17.3378 L283.5302,17.3378 L283.5302,20.8118 C283.5302,21.6288 283.7712,22.0198 284.4732,22.0198 C285.1062,22.0198 285.5322,21.5938 285.5322,20.8918 L285.5322,17.3378 L287.2002,17.3378 L287.2002,21.9968 C287.2002,22.3538 287.2122,22.7328 287.2462,23.1128 L285.6582,23.1128 Z" id="Fill-117" fill="#2A1C35" mask="url(#mask-4)"></path>
                <path d="M291.8096,18.7871 C290.9236,18.7871 290.4056,19.2471 290.4056,19.9951 L290.4056,23.1131 L288.7036,23.1131 L288.7036,19.1321 C288.7036,18.4761 288.6796,17.8781 288.6336,17.3371 L290.1756,17.3371 L290.2336,18.3721 C290.5326,17.6591 291.1766,17.2911 292.1316,17.2911 L292.1776,17.2911 L292.1776,18.8101 C292.0506,18.7981 291.9246,18.7871 291.8096,18.7871" id="Fill-118" fill="#2A1C35" mask="url(#mask-4)"></path>
                <path d="M295.5215,18.2578 C294.9585,18.2578 294.5665,18.7068 294.5205,19.5118 L296.5005,19.5118 C296.4885,18.6828 296.1665,18.2578 295.5215,18.2578 M298.2025,20.5818 L294.4745,20.5818 C294.4865,21.6168 294.8425,22.1238 295.5445,22.1238 C296.0965,22.1238 296.4185,21.8588 296.5455,21.3068 L298.0305,21.3068 C297.9375,22.5148 297.0295,23.2388 295.5565,23.2388 C293.8655,23.2388 292.8645,22.1578 292.8645,20.2828 C292.8645,18.3038 293.8875,17.1988 295.6365,17.1988 C297.2705,17.1988 298.2135,18.2688 298.2135,20.2018 C298.2135,20.3288 298.2135,20.4548 298.2025,20.5818" id="Fill-119" fill="#2A1C35" mask="url(#mask-4)"></path>
                <path d="M20.981,34.1367 L20.797,34.1367 C19.692,34.1367 19.128,34.5167 19.128,35.1607 C19.128,35.5977 19.462,35.9207 19.934,35.9207 C20.601,35.9207 20.992,35.4137 20.992,34.4477 C20.992,34.3557 20.992,34.2517 20.981,34.1367 Z M21.234,36.9097 C21.211,36.7137 21.176,36.4497 21.165,36.1277 C20.67,36.7827 20.084,37.0937 19.335,37.0937 C18.254,37.0937 17.495,36.3457 17.495,35.2647 C17.495,33.9297 18.553,33.1937 20.613,33.1937 C20.739,33.1937 20.866,33.2047 20.992,33.2047 C20.992,33.1247 21.004,33.0437 21.004,32.9637 C21.004,32.2617 20.762,31.9397 20.198,31.9397 C19.704,31.9397 19.451,32.1807 19.405,32.7567 L17.736,32.7567 C17.748,31.5597 18.564,30.9847 20.198,30.9847 C21.038,30.9847 21.683,31.2147 22.074,31.5947 C22.568,32.0777 22.591,32.6177 22.591,33.3887 L22.591,35.1497 C22.591,35.4717 22.626,36.0577 22.684,36.9097 L21.234,36.9097 Z" id="Fill-120" fill="#2A1C35" mask="url(#mask-4)"></path>
                <path d="M27.7876,36.9097 L27.7876,33.4237 C27.7876,32.6067 27.5456,32.2157 26.8446,32.2157 C26.2116,32.2157 25.7736,32.6527 25.7736,33.3547 L25.7736,36.9097 L24.1176,36.9097 L24.1176,32.2387 C24.1176,31.8817 24.0946,31.5137 24.0596,31.1347 L25.6596,31.1347 L25.6936,31.9967 C26.1306,31.2947 26.7056,30.9957 27.5576,30.9957 C28.8456,30.9957 29.4446,31.7207 29.4446,33.1937 L29.4446,36.9097 L27.7876,36.9097 Z" id="Fill-121" fill="#2A1C35" mask="url(#mask-4)"></path>
                <path d="M33.5586,32.1465 C32.8336,32.1465 32.3846,32.8135 32.3846,34.0335 C32.3846,35.2525 32.8336,35.9085 33.5586,35.9085 C34.2946,35.9085 34.7896,35.2295 34.7896,34.0335 C34.7896,32.8365 34.2946,32.1465 33.5586,32.1465 Z M34.8356,36.9095 L34.7776,36.0815 C34.3636,36.7025 33.7776,37.0245 33.0406,37.0245 C31.6836,37.0245 30.6826,35.8855 30.6826,34.0215 C30.6826,32.1585 31.6486,31.0305 33.0176,31.0305 C33.7776,31.0305 34.3406,31.3185 34.7546,31.9275 L34.7546,28.6255 L36.4236,28.6255 L36.4236,35.7475 C36.4236,36.2425 36.4346,36.6335 36.4806,36.9095 L34.8356,36.9095 Z" id="Fill-122" fill="#2A1C35" mask="url(#mask-4)"></path>
                <polygon id="Fill-123" fill="#2A1C35" mask="url(#mask-4)" points="45.9653 36.9097 42.7433 30.0527 42.7433 36.9097 41.1563 36.9097 41.1563 28.6257 43.7103 28.6257 46.8283 35.2877 46.8283 28.6257 48.4163 28.6257 48.4163 36.9097"></polygon>
                <path d="M53.1851,34.1367 L53.0011,34.1367 C51.8961,34.1367 51.3321,34.5167 51.3321,35.1607 C51.3321,35.5977 51.6661,35.9207 52.1381,35.9207 C52.8051,35.9207 53.1961,35.4137 53.1961,34.4477 C53.1961,34.3557 53.1961,34.2517 53.1851,34.1367 Z M53.4381,36.9097 C53.4151,36.7137 53.3801,36.4497 53.3691,36.1277 C52.8741,36.7827 52.2881,37.0937 51.5391,37.0937 C50.4581,37.0937 49.6991,36.3457 49.6991,35.2647 C49.6991,33.9297 50.7571,33.1937 52.8171,33.1937 C52.9431,33.1937 53.0701,33.2047 53.1961,33.2047 C53.1961,33.1247 53.2081,33.0437 53.2081,32.9637 C53.2081,32.2617 52.9661,31.9397 52.4021,31.9397 C51.9081,31.9397 51.6551,32.1807 51.6091,32.7567 L49.9401,32.7567 C49.9521,31.5597 50.7681,30.9847 52.4021,30.9847 C53.2421,30.9847 53.8871,31.2147 54.2781,31.5947 C54.7721,32.0777 54.7951,32.6177 54.7951,33.3887 L54.7951,35.1497 C54.7951,35.4717 54.8301,36.0577 54.8881,36.9097 L53.4381,36.9097 Z" id="Fill-124" fill="#2A1C35" mask="url(#mask-4)"></path>
                <path d="M58.3232,32.2729 L58.3232,35.0919 C58.3232,35.5179 58.5532,35.7479 58.9562,35.7479 C59.1522,35.7479 59.3822,35.7249 59.6572,35.6669 L59.6572,36.8519 C59.1522,36.9669 58.6682,37.0249 58.1852,37.0249 C57.1032,37.0249 56.6662,36.5069 56.6662,35.4019 L56.6662,32.2729 L55.5732,32.2729 L55.5732,31.1339 L56.6662,31.1339 L56.6662,30.0179 L58.3352,29.3969 L58.3352,31.1339 L59.6692,31.1339 L59.6692,32.2729 L58.3232,32.2729 Z" id="Fill-125" fill="#2A1C35" mask="url(#mask-4)"></path>
                <path d="M60.725,36.909 L62.405,36.909 L62.405,31.134 L60.725,31.134 L60.725,36.909 Z M60.725,30.087 L62.405,30.087 L62.405,28.626 L60.725,28.626 L60.725,30.087 Z" id="Fill-126" fill="#2A1C35" mask="url(#mask-4)"></path>
                <path d="M66.6133,32.1006 C65.7853,32.1006 65.3363,32.7446 65.3363,34.0106 C65.3363,35.2756 65.7853,35.9206 66.6133,35.9206 C67.4423,35.9206 67.8903,35.2756 67.8903,34.0106 C67.8903,32.7446 67.4423,32.1006 66.6133,32.1006 M66.6133,37.0476 C64.8303,37.0476 63.6343,35.8626 63.6343,34.0216 C63.6343,32.1816 64.8303,30.9966 66.6133,30.9966 C68.4083,30.9966 69.6053,32.1696 69.6053,34.0216 C69.6053,35.8736 68.4083,37.0476 66.6133,37.0476" id="Fill-127" fill="#2A1C35" mask="url(#mask-4)"></path>
                <path d="M74.5361,36.9097 L74.5361,33.4237 C74.5361,32.6067 74.2941,32.2157 73.5931,32.2157 C72.9601,32.2157 72.5221,32.6527 72.5221,33.3547 L72.5221,36.9097 L70.8661,36.9097 L70.8661,32.2387 C70.8661,31.8817 70.8431,31.5137 70.8081,31.1347 L72.4081,31.1347 L72.4421,31.9967 C72.8791,31.2947 73.4541,30.9957 74.3061,30.9957 C75.5941,30.9957 76.1931,31.7207 76.1931,33.1937 L76.1931,36.9097 L74.5361,36.9097 Z" id="Fill-128" fill="#2A1C35" mask="url(#mask-4)"></path>
                <path d="M80.9165,34.1367 L80.7325,34.1367 C79.6275,34.1367 79.0635,34.5167 79.0635,35.1607 C79.0635,35.5977 79.3975,35.9207 79.8695,35.9207 C80.5365,35.9207 80.9275,35.4137 80.9275,34.4477 C80.9275,34.3557 80.9275,34.2517 80.9165,34.1367 Z M81.1695,36.9097 C81.1465,36.7137 81.1115,36.4497 81.1005,36.1277 C80.6055,36.7827 80.0195,37.0937 79.2705,37.0937 C78.1895,37.0937 77.4305,36.3457 77.4305,35.2647 C77.4305,33.9297 78.4885,33.1937 80.5485,33.1937 C80.6745,33.1937 80.8015,33.2047 80.9275,33.2047 C80.9275,33.1247 80.9395,33.0437 80.9395,32.9637 C80.9395,32.2617 80.6975,31.9397 80.1335,31.9397 C79.6395,31.9397 79.3865,32.1807 79.3405,32.7567 L77.6715,32.7567 C77.6835,31.5597 78.4995,30.9847 80.1335,30.9847 C80.9735,30.9847 81.6185,31.2147 82.0095,31.5947 C82.5035,32.0777 82.5265,32.6177 82.5265,33.3887 L82.5265,35.1497 C82.5265,35.4717 82.5615,36.0577 82.6195,36.9097 L81.1695,36.9097 Z" id="Fill-129" fill="#2A1C35" mask="url(#mask-4)"></path>
                <polygon id="Fill-130" fill="#2A1C35" mask="url(#mask-4)" points="84.03 36.91 85.698 36.91 85.698 28.626 84.03 28.626"></polygon>
                <polygon id="Fill-131" fill="#2A1C35" mask="url(#mask-4)" points="95.3467 36.9097 95.3467 33.2857 92.2177 33.2857 92.2177 36.9097 90.4337 36.9097 90.4337 28.6257 92.2177 28.6257 92.2177 31.9397 95.3467 31.9397 95.3467 28.6257 97.0727 28.6257 97.0727 36.9097"></polygon>
                <path d="M101.002,32.0547 C100.438,32.0547 100.047,32.5037 100.001,33.3087 L101.98,33.3087 C101.968,32.4797 101.646,32.0547 101.002,32.0547 M103.683,34.3787 L99.955,34.3787 C99.966,35.4137 100.323,35.9207 101.025,35.9207 C101.577,35.9207 101.899,35.6557 102.026,35.1037 L103.51,35.1037 C103.418,36.3117 102.509,37.0357 101.036,37.0357 C99.345,37.0357 98.344,35.9547 98.344,34.0797 C98.344,32.1007 99.368,30.9957 101.117,30.9957 C102.751,30.9957 103.694,32.0657 103.694,33.9987 C103.694,34.1257 103.694,34.2517 103.683,34.3787" id="Fill-132" fill="#2A1C35" mask="url(#mask-4)"></path>
                <path d="M106.6009,33.792 L106.6009,36.91 L104.8979,36.91 L104.8979,32.929 C104.8979,32.273 104.8749,31.675 104.8289,31.134 L106.3709,31.134 L106.4279,32.169 C106.7269,31.456 107.3709,31.088 108.3259,31.088 L108.3719,31.088 L108.3719,32.607 C108.2459,32.595 108.1189,32.584 108.0039,32.584 C107.1179,32.584 106.6009,33.044 106.6009,33.792 Z" id="Fill-133" fill="#2A1C35" mask="url(#mask-4)"></path>
                <path d="M109.336,36.909 L111.016,36.909 L111.016,31.134 L109.336,31.134 L109.336,36.909 Z M109.336,30.087 L111.016,30.087 L111.016,28.626 L109.336,28.626 L109.336,30.087 Z" id="Fill-134" fill="#2A1C35" mask="url(#mask-4)"></path>
                <path d="M114.5454,32.2729 L114.5454,35.0919 C114.5454,35.5179 114.7754,35.7479 115.1784,35.7479 C115.3744,35.7479 115.6044,35.7249 115.8794,35.6669 L115.8794,36.8519 C115.3744,36.9669 114.8904,37.0249 114.4074,37.0249 C113.3264,37.0249 112.8884,36.5069 112.8884,35.4019 L112.8884,32.2729 L111.7954,32.2729 L111.7954,31.1339 L112.8884,31.1339 L112.8884,30.0179 L114.5574,29.3969 L114.5574,31.1339 L115.8914,31.1339 L115.8914,32.2729 L114.5454,32.2729 Z" id="Fill-135" fill="#2A1C35" mask="url(#mask-4)"></path>
                <path d="M120.1685,34.1367 L119.9845,34.1367 C118.8795,34.1367 118.3155,34.5167 118.3155,35.1607 C118.3155,35.5977 118.6495,35.9207 119.1215,35.9207 C119.7885,35.9207 120.1795,35.4137 120.1795,34.4477 C120.1795,34.3557 120.1795,34.2517 120.1685,34.1367 Z M120.4215,36.9097 C120.3985,36.7137 120.3635,36.4497 120.3525,36.1277 C119.8575,36.7827 119.2715,37.0937 118.5225,37.0937 C117.4415,37.0937 116.6825,36.3457 116.6825,35.2647 C116.6825,33.9297 117.7405,33.1937 119.8005,33.1937 C119.9265,33.1937 120.0535,33.2047 120.1795,33.2047 C120.1795,33.1247 120.1915,33.0437 120.1915,32.9637 C120.1915,32.2617 119.9495,31.9397 119.3855,31.9397 C118.8915,31.9397 118.6385,32.1807 118.5925,32.7567 L116.9235,32.7567 C116.9355,31.5597 117.7515,30.9847 119.3855,30.9847 C120.2255,30.9847 120.8705,31.2147 121.2615,31.5947 C121.7555,32.0777 121.7785,32.6177 121.7785,33.3887 L121.7785,35.1497 C121.7785,35.4717 121.8135,36.0577 121.8715,36.9097 L120.4215,36.9097 Z" id="Fill-136" fill="#2A1C35" mask="url(#mask-4)"></path>
                <path d="M125.8135,32.1924 C125.1115,32.1924 124.6745,32.7914 124.6745,33.8954 C124.6745,34.9764 125.1115,35.5864 125.8135,35.5864 C126.5265,35.5864 126.9985,34.9654 126.9985,33.8954 C126.9985,32.8254 126.5265,32.1924 125.8135,32.1924 M128.6325,32.0544 L128.6325,36.5644 C128.6325,38.3944 127.7925,39.1874 125.7675,39.1874 C124.1105,39.1874 123.2365,38.5084 123.2365,37.3124 L124.8355,37.3124 C124.8815,37.7954 125.2155,38.0834 125.7555,38.0834 C126.6535,38.0834 126.9525,37.6694 126.9525,36.6334 L126.9525,35.9544 C126.5265,36.5184 126.0085,36.7714 125.2955,36.7714 C123.9605,36.7714 123.0295,35.6784 123.0295,33.8954 C123.0295,32.1234 123.9835,31.0194 125.3075,31.0194 C126.0205,31.0194 126.5845,31.3184 126.9865,31.9164 L127.0445,31.1344 L128.6785,31.1344 C128.6435,31.3874 128.6325,31.6974 128.6325,32.0544" id="Fill-137" fill="#2A1C35" mask="url(#mask-4)"></path>
                <path d="M132.5278,32.0547 C131.9638,32.0547 131.5728,32.5037 131.5268,33.3087 L133.5058,33.3087 C133.4938,32.4797 133.1718,32.0547 132.5278,32.0547 M135.2088,34.3787 L131.4808,34.3787 C131.4918,35.4137 131.8488,35.9207 132.5508,35.9207 C133.1028,35.9207 133.4248,35.6557 133.5518,35.1037 L135.0358,35.1037 C134.9438,36.3117 134.0348,37.0357 132.5618,37.0357 C130.8708,37.0357 129.8698,35.9547 129.8698,34.0797 C129.8698,32.1007 130.8938,30.9957 132.6428,30.9957 C134.2768,30.9957 135.2198,32.0657 135.2198,33.9987 C135.2198,34.1257 135.2198,34.2517 135.2088,34.3787" id="Fill-138" fill="#2A1C35" mask="url(#mask-4)"></path>
                <path d="M142.3232,32.1006 C141.4952,32.1006 141.0462,32.7446 141.0462,34.0106 C141.0462,35.2756 141.4952,35.9206 142.3232,35.9206 C143.1522,35.9206 143.6002,35.2756 143.6002,34.0106 C143.6002,32.7446 143.1522,32.1006 142.3232,32.1006 M142.3232,37.0476 C140.5402,37.0476 139.3442,35.8626 139.3442,34.0216 C139.3442,32.1816 140.5402,30.9966 142.3232,30.9966 C144.1182,30.9966 145.3152,32.1696 145.3152,34.0216 C145.3152,35.8736 144.1182,37.0476 142.3232,37.0476" id="Fill-139" fill="#2A1C35" mask="url(#mask-4)"></path>
                <path d="M149.061,29.6846 C148.578,29.6846 148.325,29.9146 148.325,30.3636 L148.325,31.1346 L149.349,31.1346 L149.349,32.2846 L148.325,32.2846 L148.325,36.9096 L146.679,36.9096 L146.679,32.2846 L145.805,32.2846 L145.805,31.1346 L146.679,31.1346 L146.679,30.0176 C146.679,28.9826 147.254,28.4766 148.439,28.4766 C148.693,28.4766 149.026,28.5106 149.452,28.5576 L149.452,29.7186 C149.303,29.6956 149.165,29.6846 149.061,29.6846" id="Fill-140" fill="#2A1C35" mask="url(#mask-4)"></path>
                <path d="M155.5225,32.2729 L155.5225,35.0919 C155.5225,35.5179 155.7515,35.7479 156.1555,35.7479 C156.3505,35.7479 156.5805,35.7249 156.8565,35.6669 L156.8565,36.8519 C156.3505,36.9669 155.8675,37.0249 155.3835,37.0249 C154.3025,37.0249 153.8655,36.5069 153.8655,35.4019 L153.8655,32.2729 L152.7725,32.2729 L152.7725,31.1339 L153.8655,31.1339 L153.8655,30.0179 L155.5335,29.3969 L155.5335,31.1339 L156.8685,31.1339 L156.8685,32.2729 L155.5225,32.2729 Z" id="Fill-141" fill="#2A1C35" mask="url(#mask-4)"></path>
                <path d="M161.6055,36.9097 L161.6055,33.4237 C161.6055,32.6067 161.3635,32.2157 160.6625,32.2157 C160.0295,32.2157 159.6035,32.6527 159.6035,33.3547 L159.6035,36.9097 L157.9345,36.9097 L157.9345,28.6257 L159.6035,28.6257 L159.6035,31.8817 C160.0295,31.2717 160.5815,30.9957 161.3865,30.9957 C162.6745,30.9957 163.2735,31.7207 163.2735,33.1937 L163.2735,36.9097 L161.6055,36.9097 Z" id="Fill-142" fill="#2A1C35" mask="url(#mask-4)"></path>
                <path d="M167.1572,32.0547 C166.5942,32.0547 166.2022,32.5037 166.1562,33.3087 L168.1362,33.3087 C168.1242,32.4797 167.8022,32.0547 167.1572,32.0547 M169.8382,34.3787 L166.1102,34.3787 C166.1222,35.4137 166.4782,35.9207 167.1802,35.9207 C167.7322,35.9207 168.0542,35.6557 168.1812,35.1037 L169.6662,35.1037 C169.5732,36.3117 168.6652,37.0357 167.1922,37.0357 C165.5012,37.0357 164.5002,35.9547 164.5002,34.0797 C164.5002,32.1007 165.5232,30.9957 167.2722,30.9957 C168.9062,30.9957 169.8492,32.0657 169.8492,33.9987 C169.8492,34.1257 169.8492,34.2517 169.8382,34.3787" id="Fill-143" fill="#2A1C35" mask="url(#mask-4)"></path>
                <path d="M177.0684,29.9028 L176.0214,29.9028 L176.0214,32.2268 L177.0684,32.2268 C178.2644,32.2268 178.7824,32.0078 178.7824,31.0878 C178.7824,30.0758 178.2534,29.9028 177.0684,29.9028 Z M178.9784,36.9098 C178.8284,36.6218 178.7824,36.2888 178.7484,35.8978 L178.6324,34.6428 C178.5414,33.6768 178.4834,33.5728 177.5514,33.5728 L176.0214,33.5728 L176.0214,36.9098 L174.2844,36.9098 L174.2844,28.6258 L177.7244,28.6258 C179.6224,28.6258 180.5314,29.2588 180.5314,30.7088 C180.5314,31.8818 180.0474,32.4918 178.9214,32.7568 C179.8764,32.8598 180.1974,33.2968 180.3244,34.3208 L180.4734,35.5178 C180.5544,36.1388 180.6804,36.5988 180.8994,36.9098 L178.9784,36.9098 Z" id="Fill-144" fill="#2A1C35" mask="url(#mask-4)"></path>
                <path d="M184.208,32.0547 C183.645,32.0547 183.253,32.5037 183.207,33.3087 L185.187,33.3087 C185.175,32.4797 184.853,32.0547 184.208,32.0547 M186.889,34.3787 L183.161,34.3787 C183.173,35.4137 183.529,35.9207 184.231,35.9207 C184.783,35.9207 185.105,35.6557 185.232,35.1037 L186.717,35.1037 C186.624,36.3117 185.716,37.0357 184.243,37.0357 C182.552,37.0357 181.551,35.9547 181.551,34.0797 C181.551,32.1007 182.574,30.9957 184.323,30.9957 C185.957,30.9957 186.9,32.0657 186.9,33.9987 C186.9,34.1257 186.9,34.2517 186.889,34.3787" id="Fill-145" fill="#2A1C35" mask="url(#mask-4)"></path>
                <path d="M190.9805,32.1235 C190.2445,32.1235 189.7505,32.8135 189.7505,34.0105 C189.7505,35.2065 190.2445,35.8975 190.9805,35.8975 C191.7055,35.8975 192.1545,35.2295 192.1545,34.0105 C192.1545,32.7905 191.7055,32.1235 190.9805,32.1235 M191.5215,37.0135 C190.7615,37.0135 190.1985,36.7255 189.7845,36.1155 L189.7845,39.0955 L188.1165,39.0955 L188.1165,32.3075 C188.1165,31.8935 188.1045,31.5135 188.0585,31.1345 L189.7035,31.1345 L189.7605,31.9625 C190.1745,31.3415 190.7615,31.0195 191.4985,31.0195 C192.8555,31.0195 193.8565,32.1585 193.8565,34.0215 C193.8565,35.8855 192.8905,37.0135 191.5215,37.0135" id="Fill-146" fill="#2A1C35" mask="url(#mask-4)"></path>
                <path d="M198.9023,36.9097 L198.8563,36.0467 C198.4203,36.7487 197.8433,37.0477 196.9933,37.0477 C195.7043,37.0477 195.1063,36.3227 195.1063,34.8497 L195.1063,31.1347 L196.7743,31.1347 L196.7743,34.6087 C196.7743,35.4257 197.0153,35.8167 197.7173,35.8167 C198.3503,35.8167 198.7763,35.3907 198.7763,34.6887 L198.7763,31.1347 L200.4443,31.1347 L200.4443,35.7937 C200.4443,36.1507 200.4563,36.5297 200.4903,36.9097 L198.9023,36.9097 Z" id="Fill-147" fill="#2A1C35" mask="url(#mask-4)"></path>
                <path d="M204.8232,32.1465 C204.0982,32.1465 203.5922,32.8365 203.5922,34.0335 C203.5922,35.2295 204.0982,35.9085 204.8232,35.9085 C205.5482,35.9085 205.9972,35.2525 205.9972,34.0335 C205.9972,32.8135 205.5482,32.1465 204.8232,32.1465 M205.3412,37.0245 C204.6042,37.0245 204.0172,36.7025 203.6032,36.0815 L203.5462,36.9095 L201.9012,36.9095 C201.9352,36.6225 201.9592,36.2995 201.9592,35.9545 L201.9592,28.6255 L203.6272,28.6255 L203.6272,31.9275 C204.0412,31.3185 204.6042,31.0305 205.3642,31.0305 C206.7332,31.0305 207.6992,32.1585 207.6992,34.0215 C207.6992,35.8855 206.6982,37.0245 205.3412,37.0245" id="Fill-148" fill="#2A1C35" mask="url(#mask-4)"></path>
                <polygon id="Fill-149" fill="#2A1C35" mask="url(#mask-4)" points="208.949 36.91 210.617 36.91 210.617 28.626 208.949 28.626"></polygon>
                <path d="M212.134,36.909 L213.814,36.909 L213.814,31.134 L212.134,31.134 L212.134,36.909 Z M212.134,30.087 L213.814,30.087 L213.814,28.626 L212.134,28.626 L212.134,30.087 Z" id="Fill-150" fill="#2A1C35" mask="url(#mask-4)"></path>
                <path d="M217.5957,37.0479 C216.0317,37.0479 215.0067,35.8979 215.0067,33.9419 C215.0067,32.1009 216.0317,30.9959 217.7107,30.9959 C219.0567,30.9959 219.9317,31.7899 219.9537,33.1019 L218.3667,33.1019 C218.2977,32.3769 218.0677,32.0659 217.5837,32.0659 C217.0087,32.0659 216.7437,32.6759 216.7437,33.9069 C216.7437,35.2299 216.9627,35.8629 217.6187,35.8629 C218.0787,35.8629 218.3317,35.4829 218.3777,34.7239 L219.9537,34.7239 C219.9537,36.1959 219.0797,37.0479 217.5957,37.0479" id="Fill-151" fill="#2A1C35" mask="url(#mask-4)"></path>
                <path d="M226.9316,32.1006 C226.1036,32.1006 225.6546,32.7446 225.6546,34.0106 C225.6546,35.2756 226.1036,35.9206 226.9316,35.9206 C227.7596,35.9206 228.2086,35.2756 228.2086,34.0106 C228.2086,32.7446 227.7596,32.1006 226.9316,32.1006 M226.9316,37.0476 C225.1486,37.0476 223.9526,35.8626 223.9526,34.0216 C223.9526,32.1816 225.1486,30.9966 226.9316,30.9966 C228.7266,30.9966 229.9226,32.1696 229.9226,34.0216 C229.9226,35.8736 228.7266,37.0476 226.9316,37.0476" id="Fill-152" fill="#2A1C35" mask="url(#mask-4)"></path>
                <path d="M233.6699,29.6846 C233.1869,29.6846 232.9339,29.9146 232.9339,30.3636 L232.9339,31.1346 L233.9569,31.1346 L233.9569,32.2846 L232.9339,32.2846 L232.9339,36.9096 L231.2879,36.9096 L231.2879,32.2846 L230.4139,32.2846 L230.4139,31.1346 L231.2879,31.1346 L231.2879,30.0176 C231.2879,28.9826 231.8629,28.4766 233.0489,28.4766 C233.3019,28.4766 233.6359,28.5106 234.0609,28.5576 L234.0609,29.7186 C233.9109,29.6956 233.7739,29.6846 233.6699,29.6846" id="Fill-153" fill="#2A1C35" mask="url(#mask-4)"></path>
                <path d="M240.6602,30.0068 L239.8202,30.0068 L239.8202,32.3198 L240.6602,32.3198 C241.7192,32.3198 242.1902,32.0308 242.1902,31.1568 C242.1902,30.2948 241.7072,30.0068 240.6602,30.0068 M241.0522,33.7118 L239.8202,33.7118 L239.8202,36.9098 L238.1402,36.9098 L238.1402,28.6258 L240.5912,28.6258 C242.8922,28.6258 243.9392,29.3398 243.9392,31.1458 C243.9392,32.8368 242.9612,33.7118 241.0522,33.7118" id="Fill-154" fill="#2A1C35" mask="url(#mask-4)"></path>
                <path d="M247.3154,32.1006 C246.4874,32.1006 246.0384,32.7446 246.0384,34.0106 C246.0384,35.2756 246.4874,35.9206 247.3154,35.9206 C248.1434,35.9206 248.5924,35.2756 248.5924,34.0106 C248.5924,32.7446 248.1434,32.1006 247.3154,32.1006 M247.3154,37.0476 C245.5324,37.0476 244.3364,35.8626 244.3364,34.0216 C244.3364,32.1816 245.5324,30.9966 247.3154,30.9966 C249.1104,30.9966 250.3064,32.1696 250.3064,34.0216 C250.3064,35.8736 249.1104,37.0476 247.3154,37.0476" id="Fill-155" fill="#2A1C35" mask="url(#mask-4)"></path>
                <polygon id="Fill-156" fill="#2A1C35" mask="url(#mask-4)" points="251.546 36.91 253.214 36.91 253.214 28.626 251.546 28.626"></polygon>
                <path d="M257.9512,34.1367 L257.7672,34.1367 C256.6632,34.1367 256.0992,34.5167 256.0992,35.1607 C256.0992,35.5977 256.4322,35.9207 256.9042,35.9207 C257.5722,35.9207 257.9632,35.4137 257.9632,34.4477 C257.9632,34.3557 257.9632,34.2517 257.9512,34.1367 Z M258.2052,36.9097 C258.1812,36.7137 258.1472,36.4497 258.1362,36.1277 C257.6402,36.7827 257.0542,37.0937 256.3062,37.0937 C255.2242,37.0937 254.4662,36.3457 254.4662,35.2647 C254.4662,33.9297 255.5232,33.1937 257.5832,33.1937 C257.7102,33.1937 257.8362,33.2047 257.9632,33.2047 C257.9632,33.1247 257.9742,33.0437 257.9742,32.9637 C257.9742,32.2617 257.7322,31.9397 257.1692,31.9397 C256.6752,31.9397 256.4212,32.1807 256.3752,32.7567 L254.7072,32.7567 C254.7192,31.5597 255.5352,30.9847 257.1692,30.9847 C258.0092,30.9847 258.6532,31.2147 259.0452,31.5947 C259.5392,32.0777 259.5622,32.6177 259.5622,33.3887 L259.5622,35.1497 C259.5622,35.4717 259.5972,36.0577 259.6542,36.9097 L258.2052,36.9097 Z" id="Fill-157" fill="#2A1C35" mask="url(#mask-4)"></path>
                <path d="M264.7578,36.9097 L264.7578,33.4237 C264.7578,32.6067 264.5168,32.2157 263.8148,32.2157 C263.1818,32.2157 262.7448,32.6527 262.7448,33.3547 L262.7448,36.9097 L261.0878,36.9097 L261.0878,32.2387 C261.0878,31.8817 261.0658,31.5137 261.0298,31.1347 L262.6298,31.1347 L262.6638,31.9967 C263.1018,31.2947 263.6768,30.9957 264.5288,30.9957 C265.8168,30.9957 266.4148,31.7207 266.4148,33.1937 L266.4148,36.9097 L264.7578,36.9097 Z" id="Fill-158" fill="#2A1C35" mask="url(#mask-4)"></path>
                <path d="M270.5293,32.1465 C269.8043,32.1465 269.3553,32.8135 269.3553,34.0335 C269.3553,35.2525 269.8043,35.9085 270.5293,35.9085 C271.2653,35.9085 271.7593,35.2295 271.7593,34.0335 C271.7593,32.8365 271.2653,32.1465 270.5293,32.1465 Z M271.8063,36.9095 L271.7493,36.0815 C271.3353,36.7025 270.7483,37.0245 270.0113,37.0245 C268.6543,37.0245 267.6533,35.8855 267.6533,34.0215 C267.6533,32.1585 268.6193,31.0305 269.9883,31.0305 C270.7483,31.0305 271.3113,31.3185 271.7253,31.9275 L271.7253,28.6255 L273.3933,28.6255 L273.3933,35.7475 C273.3933,36.2425 273.4053,36.6335 273.4513,36.9095 L271.8063,36.9095 Z" id="Fill-159" fill="#2A1C35" mask="url(#mask-4)"></path>
                <polygon id="Fill-160" fill="#2A1C35" mask="url(#mask-4)" points="275.012 36.91 276.461 36.91 276.461 35.391 275.012 35.391"></polygon>
            </g>
        </g>
    </g>
</svg>