<?xml version="1.0" encoding="UTF-8"?>
<svg width="49px" height="27px" viewBox="0 0 49 27" version="1.1" xmlns="http://www.w3.org/2000/svg" xmlns:xlink="http://www.w3.org/1999/xlink">
    <!-- Generator: Sketch 51.3 (57544) - http://www.bohemiancoding.com/sketch -->
    <title>Opre</title>
    <desc>Created with Sketch.</desc>
    <defs></defs>
    <g id="Opre" stroke="none" stroke-width="1" fill="none" fill-rule="evenodd">
        <g id="Opre-Cider" fill="#2A1C35">
            <path d="M2.9876,21.3022 C2.6026,21.3602 2.2836,21.6332 2.1666,22.0042 L0.9606,25.8362 C0.8786,26.0972 1.1146,26.3482 1.3796,26.2772 C3.1556,25.7922 8.3816,24.3842 11.2496,23.7802 C11.6296,23.7002 11.9376,23.4162 12.0386,23.0412 C12.2296,22.3262 12.5446,21.1512 12.7396,20.4222 C12.8166,20.1322 12.5726,19.8562 12.2746,19.9012 L2.9876,21.3022 Z" id="Fill-1"></path>
            <path d="M11.9935,11.5981 C11.9685,11.6521 11.7015,12.2481 11.2665,11.8291 C11.2385,11.8031 9.7705,10.6861 9.7325,7.9421 C9.6645,7.0401 9.7745,6.0491 10.0735,5.2001 C10.2965,4.5671 10.7195,3.9851 11.3785,3.7741 C11.7445,3.6561 12.1835,3.8641 12.4445,4.1531 C12.7435,4.4831 12.8555,4.8851 12.9135,5.3361 C13.2005,7.5891 12.5575,10.3801 11.9935,11.5981 Z M10.4965,14.5621 C10.4585,14.6871 10.3905,14.8271 10.2855,14.9841 C9.9615,15.4671 9.6525,15.9681 9.2185,16.3521 C8.9675,16.5751 8.0175,17.3341 7.0445,17.0831 C6.5425,16.9531 5.4535,16.6911 5.6735,13.1101 C5.8255,10.6261 7.0195,8.0101 7.2675,8.0351 C7.4305,8.0511 7.4335,8.2151 7.4375,8.3371 C7.6115,13.4301 10.6385,14.0971 10.4965,14.5621 Z M39.6375,8.6181 C39.7555,7.8901 40.7355,6.6271 41.2015,6.3681 C41.4595,6.2241 41.7305,6.1351 41.9925,6.3681 C42.4115,6.7411 42.0745,7.5331 41.8735,7.9311 C41.5815,8.5091 41.0805,8.9131 40.4555,9.0771 C39.7675,9.2571 39.5715,9.0181 39.6375,8.6181 Z M46.4715,10.6381 C46.4315,10.0141 45.7945,9.7461 45.1875,10.1001 C45.1845,10.1021 45.1795,10.1071 45.1815,10.1041 C45.1815,10.1021 45.1785,10.1081 45.1765,10.1101 C44.8125,10.5981 44.4235,11.0651 43.9505,11.4651 C42.9305,12.3281 42.0135,12.8451 40.6325,12.8041 C40.1065,12.7871 39.3415,12.4101 39.1055,11.8501 C38.8175,11.1641 38.9835,10.7891 39.8065,10.8071 C39.8875,10.8081 39.9685,10.8131 40.0485,10.8131 C41.0585,10.8101 42.0265,10.5651 42.8755,10.0471 C44.2465,9.2091 44.8475,7.9121 44.9395,6.3151 C45.0125,5.0271 43.8395,4.0551 42.9005,3.9081 C41.9975,3.7661 41.1045,3.7991 40.2355,4.1571 C39.6465,4.4001 39.1035,4.7091 38.6325,5.1301 C37.3215,6.2991 36.7005,8.3941 36.5105,9.0151 C35.9585,10.8061 34.9815,12.7561 34.0985,13.3311 C33.9285,13.4431 33.7555,13.5391 33.5555,13.4471 C33.3515,13.3521 33.3055,13.1301 33.3075,12.9481 C33.3265,11.5141 34.0025,9.7271 34.1875,9.0071 C34.2565,8.7431 34.2585,8.4741 34.1565,8.1981 C33.9525,7.6451 33.5185,7.2871 33.0935,6.9491 C32.5295,6.5031 31.8915,6.1561 31.2405,5.8451 C30.9305,5.6971 30.8785,5.4611 30.9785,5.1621 C31.0495,4.9561 31.1035,4.7471 31.1485,4.5331 C31.2205,4.1941 31.1475,3.8851 30.8585,3.7281 C30.5185,3.5441 30.1395,3.3231 29.7275,3.5361 C28.7485,4.0451 27.8485,5.5981 28.8395,6.8131 C28.9895,6.9981 28.9855,7.2031 28.9155,7.4311 C28.7095,8.0981 28.4425,8.7441 28.2115,9.4021 C27.5795,11.1981 26.6475,12.8831 25.2175,14.0791 C25.0415,14.2261 24.7025,14.4191 24.5705,14.2871 C24.4465,14.1641 24.5915,13.9031 24.7065,13.7021 C24.9475,13.2851 25.1225,12.8371 25.2925,12.3911 C25.6465,11.4601 25.9055,10.5011 26.0645,9.5111 C26.2225,8.5301 26.1555,7.5911 25.7185,6.7021 C25.2235,5.7001 24.1395,5.4251 23.1695,5.7031 C22.5305,5.8871 21.9975,6.2571 21.5035,6.6941 C21.2965,6.8771 21.0475,6.9341 20.7645,6.8471 C20.3385,6.7151 19.9055,6.6011 19.4735,6.4861 C18.9655,6.3491 18.5825,6.5121 18.4405,7.0081 C18.2435,7.7001 16.3385,13.5941 16.0815,14.4141 C16.0285,14.5841 15.8485,14.6831 15.6815,14.6251 C15.4825,14.5561 14.3145,14.0871 14.2725,14.0661 C14.1815,14.0211 14.1435,13.9121 14.1815,13.8191 C15.2605,11.2221 15.6635,8.8891 15.7875,7.4551 C15.8975,6.1761 15.8405,4.8841 15.4935,3.6251 C15.1935,2.5401 14.5515,1.7041 13.5765,1.1871 C12.1425,0.4281 10.3325,0.9211 9.0715,1.6681 C7.9515,2.3321 6.3825,3.9421 4.8785,6.6031 C4.2795,7.6621 3.8335,8.8001 3.5315,9.8591 C3.1955,11.0391 3.0645,12.0051 2.9725,13.2261 C2.9325,13.7401 2.7675,15.7641 3.4485,17.3571 C3.6905,17.9261 4.0705,18.4201 4.5815,18.8331 C5.2265,19.3571 5.9805,19.6291 6.8295,19.6621 C8.1595,19.7151 9.3975,19.4231 10.4815,18.6561 C11.4675,17.9601 12.3235,17.1221 13.0015,16.1191 C13.1025,15.9681 13.2945,15.9051 13.4655,15.9671 C13.5165,15.9861 14.9315,16.3771 15.1595,16.4241 C15.3255,16.4571 15.4475,16.6121 15.3995,16.7751 C15.2255,17.3751 14.2975,20.6591 13.9715,21.9711 C13.9555,22.0361 13.9485,22.0991 13.9485,22.1621 L13.9475,22.1631 C13.8435,22.7741 14.3895,23.1411 15.0395,22.8971 C15.0395,22.8971 27.1455,20.5361 44.0795,17.9071 C44.4695,17.9021 44.5565,17.7901 44.7315,17.5131 L45.4315,15.6251 C45.3955,15.4041 45.1585,15.2021 44.8595,15.2991 L18.1635,19.0281 C18.0025,19.0441 17.8765,18.8951 17.9115,18.7371 C18.1225,17.7941 20.5865,9.9551 20.6515,9.8261 C20.9745,9.1911 21.4075,8.6331 22.0565,8.2891 C22.5525,8.0251 23.0315,8.2171 23.1065,8.7131 C23.2055,9.3601 23.1925,10.0211 23.0225,10.6561 C22.7025,11.8541 22.2635,13.0061 21.6525,14.0931 C21.3725,14.5911 20.8365,14.9781 20.3605,14.9231 C19.7855,14.8551 19.6425,14.9391 19.3775,15.4441 C19.2665,15.6551 19.2875,15.8111 19.4785,15.9501 C20.1965,16.4671 21.0075,16.6681 21.8765,16.6041 C22.6055,16.5511 23.3225,16.4311 24.0175,16.1741 C24.7435,15.9051 25.4315,15.5841 26.0355,15.0971 C27.3275,14.0551 28.3355,12.3251 28.7915,11.3991 C29.4715,10.0181 30.0865,8.1191 30.1785,8.0031 C30.3065,7.8381 30.4215,7.7951 30.6125,7.9121 C31.2165,8.2811 31.3965,8.6971 31.2335,9.3891 C31.0375,10.2161 30.6925,11.0081 30.5285,11.8411 C30.4975,12.0011 30.2445,13.5781 30.6595,14.4541 C31.0945,15.3701 31.8475,15.6641 32.7305,15.5681 C33.8635,15.4451 34.7045,14.8181 35.4145,13.9661 C35.7065,13.6151 35.9395,13.2261 36.2055,12.8121 C36.2695,12.7111 36.4205,12.7441 36.4605,12.8571 C36.6585,13.4121 37.5595,14.7451 39.6735,14.7701 C41.2335,14.7881 44.3825,14.2601 46.2965,10.9701 C46.4475,10.7091 46.4695,10.6401 46.4715,10.6451 L46.4715,10.6381 Z" id="Fill-3"></path>
            <path d="M45.9984,2.9336 C45.7564,2.9646 45.5474,3.1686 45.6204,3.4016 C45.6364,3.4506 45.6544,3.4986 45.6774,3.5466 C45.8954,4.0186 46.0964,4.3006 46.2514,4.7996 C46.3734,5.1906 46.4224,5.7676 46.3944,6.1706 C46.3744,6.4786 46.2774,6.9186 46.5734,7.1296 C47.3324,7.6716 47.9004,5.1126 47.9574,4.7686 C48.0184,4.4016 48.0224,3.9356 47.9374,3.4956 C47.9134,3.3726 47.8814,3.2496 47.8404,3.1306 C47.7574,2.8886 47.4934,2.7746 47.2384,2.8046 C46.8384,2.8516 46.4344,2.8766 46.0344,2.9296 C46.0224,2.9306 46.0104,2.9326 45.9984,2.9336" id="Fill-5"></path>
        </g>
    </g>
</svg>