<?xml version="1.0" encoding="UTF-8"?>
<svg width="429px" height="75px" viewBox="0 0 429 75" version="1.1" xmlns="http://www.w3.org/2000/svg" xmlns:xlink="http://www.w3.org/1999/xlink">
    <!-- Generator: Sketch 51.3 (57544) - http://www.bohemiancoding.com/sketch -->
    <title>Radio FM</title>
    <desc>Created with Sketch.</desc>
    <defs></defs>
    <g id="Radio-FM" stroke="none" stroke-width="1" fill="none" fill-rule="evenodd">
        <g id="Group-11" transform="translate(165.000000, 11.000000)">
            <path d="M5.50078392,18 C8.53221209,18 11,15.5328202 11,12.5019599 C11,9.46717982 8.53221209,7 5.50078392,7 C2.46700399,7 0,9.46717982 0,12.5019599 C0,15.5328202 2.46700399,18 5.50078392,18" id="Fill-1" fill="#231F20"></path>
            <path d="M5.50078392,35 C8.53221209,35 11,32.5339557 11,29.5019597 C11,26.4691798 8.53221209,24 5.50078392,24 C2.46700399,24 0,26.4691798 0,29.5019597 C0,32.5339557 2.46700399,35 5.50078392,35" id="Fill-2" fill="#231F20"></path>
            <path d="M37.865514,9.24374966 L26.5292293,9.24374966 L26.5292293,20.1275987 L37.865514,20.1275987 C41.3633353,20.1275987 43.4715376,17.8437821 43.4715376,14.6852962 C43.4715376,11.5283223 41.3633353,9.24374966 37.865514,9.24374966 M39.6355143,22.1642097 L45.1149998,33.2151304 C45.1985917,33.3799341 45.2821836,33.5878287 45.2821836,33.7964793 C45.2821836,34.4194071 44.7767979,35 44.0605152,35 C43.4285913,35 43.1333357,34.7512825 42.8810262,34.2946703 L36.9383344,22.3705924 L26.5292293,22.3705924 L26.5292293,33.7549004 C26.5292293,34.46023 26.0230767,35 25.2653815,35 C24.5475651,35 24,34.46023 24,33.7549004 L24,8.24661159 C24,7.54128193 24.5897445,7 25.2653815,7 L37.3593614,7 C42.9232056,7 46,10.2824667 46,14.6852962 C46,18.4659539 43.7652595,21.4157892 39.6355143,22.1642097" id="Fill-3" fill="#231F20"></path>
            <path d="M69.4682699,0.510462768 C69.6765947,0.255231384 70.0550895,0 70.4747915,0 C71.1035813,0 71.5232832,0.510462768 71.5232832,0.978386972 C71.5232832,1.36046062 71.4385797,1.53061488 71.1867586,1.82838482 L68.8814503,4.33661324 C68.5044817,4.76199888 68.2518975,4.93060628 67.8749288,4.93060628 C67.2881092,4.93060628 66.8264371,4.46422893 66.8264371,3.95376617 C66.8264371,3.65599622 66.9523477,3.40076483 67.1621987,3.14553345 L69.4682699,0.510462768 Z M74.2498195,25.1627207 L68.0008394,10.5843682 L61.7526224,25.1627207 L74.2498195,25.1627207 Z M80.8321192,34.2574657 C80.9168227,34.4283934 81,34.6395394 81,34.8530056 C81,35.4903107 80.5398541,36 79.7851537,36 C79.1556008,36 78.8198393,35.6186998 78.6519585,35.1940876 L75.2136077,27.4149444 L60.787308,27.4149444 L57.3495677,35.1940876 C57.1816869,35.6186998 56.8451623,36 56.2163725,36 C55.4624352,36 55,35.4903107 55,34.8530056 C55,34.6395394 55.0847035,34.4283934 55.169407,34.2574657 L66.8264371,7.86422034 C67.0774952,7.31121901 67.4132567,7.01422249 68.0008394,7.01422249 C68.587659,7.01422249 68.9234205,7.31121901 69.1744786,7.86422034 L80.8321192,34.2574657 Z" id="Fill-4" fill="#231F20"></path>
            <path d="M99.9998352,9.27060109 L93.5005439,9.27060109 L93.5005439,32.7293989 L99.9998352,32.7293989 C107.249745,32.7293989 111.499456,27.6006557 111.499456,21 C111.499456,14.3993443 107.249745,9.27060109 99.9998352,9.27060109 M100.166639,35 L92.2495138,35 C91.4996539,35 91,34.410929 91,33.7377049 L91,8.26153005 C91,7.54775956 91.5421131,7 92.2495138,7 L100.166639,7 C108.58266,7 114,13.1798907 114,21 C114,28.8201093 108.58266,35 100.166639,35" id="Fill-5" fill="#231F20"></path>
            <path d="M126.5,36 C125.650394,36 125,35.4467569 125,34.7240588 L125,8.27671496 C125,7.55246938 125.650394,7 126.5,7 C127.349606,7 128,7.55246938 128,8.27671496 L128,34.7240588 C128,35.4467569 127.349606,36 126.5,36" id="Fill-6" fill="#231F20"></path>
            <path d="M152.041825,9.22782774 C144.853232,9.22782774 140.507224,15.0692793 140.507224,21.5011472 C140.507224,27.9307207 144.853232,33.7721723 152.041825,33.7721723 C159.229658,33.7721723 163.492776,27.9307207 163.492776,21.5011472 C163.492776,15.0692793 159.229658,9.22782774 152.041825,9.22782774 M152.041825,36 C143.685171,36 138,29.3165168 138,21.5011472 C138,13.6834832 143.685171,7 152.041825,7 C160.39924,7 166,13.6834832 166,21.5011472 C166,29.3165168 160.39924,36 152.041825,36" id="Fill-7" fill="#231F20"></path>
            <polygon id="Fill-8" fill="#ED1C24" points="172 39 191 39 191 36 172 36"></polygon>
            <path d="M216.644007,11.7777958 L204.039104,11.7777958 L204.039104,18.2588153 L211.06422,18.2588153 C212.346368,18.2588153 213.378854,19.3375992 213.378854,20.6681246 C213.378854,21.9978941 212.346368,23.036611 211.06422,23.036611 L204.039104,23.036611 L204.039104,32.4674658 C204.039104,33.8788811 202.925402,35 201.519176,35 C200.115205,35 199,33.8788811 199,32.4674658 L199,9.53404611 C199,8.12111885 200.115205,7 201.519176,7 L216.644007,7 C217.966762,7 219,8.03871699 219,9.36773044 C219,10.6982558 217.92465,11.7777958 216.644007,11.7777958" id="Fill-9" fill="#ED1C24"></path>
            <path d="M252.582952,36 C251.24933,36 250.208362,34.8935137 250.208362,33.5757891 L250.208362,19.4158595 L243.124015,34.6389445 C242.709296,35.5318712 241.958707,36 241.042078,36 C240.042051,36 239.418077,35.5744283 238.958626,34.6389445 L231.791638,19.4158595 L231.791638,33.5332319 C231.791638,34.8517303 230.708213,36 229.376107,36 C228.083426,36 227,34.8517303 227,33.5332319 L227,9.42421089 C227,8.1064863 228.000785,7 229.376107,7 C230.499716,7 231.166148,7.67936711 231.625599,8.53128419 L241.042078,28.4720243 L250.374401,8.53128419 C250.792911,7.63835748 251.582167,7 252.582952,7 C254.083372,7 255,8.0205982 255,9.46599429 L255,33.5757891 C255,34.8935137 253.999215,36 252.582952,36" id="Fill-10" fill="#ED1C24"></path>
        </g>
        <path d="M37.9130919,72 C36.5270959,72 35.4956407,70.9244198 35.4956407,69.5559455 C35.4956407,68.1895733 36.5270959,67.111891 37.9130919,67.111891 C39.2983887,67.111891 40.3312425,68.1895733 40.3312425,69.5559455 C40.3312425,70.9244198 39.2983887,72 37.9130919,72 Z M27.9303539,72 C27.357634,72 26.7072928,71.822722 26.2975079,71.5032011 C26.1548524,71.3917892 26.0562522,71.2488456 26.0562522,71.0932894 C26.0562522,70.8739692 26.1982084,70.7261207 26.417786,70.7261207 C26.4947081,70.7261207 26.5653366,70.7457404 26.6373636,70.7884833 C27.0177783,71.0295254 27.2800126,71.2425393 27.9443397,71.2425393 C28.6226526,71.2425393 28.8918799,70.9643599 28.8918799,70.6476419 C28.8918799,70.3007935 28.6156597,70.1235155 27.7674189,69.8964875 C26.4877152,69.5559455 26.1059019,69.1460339 26.1059019,68.4383231 C26.1059019,67.5736548 26.8478504,67.111891 27.9723114,67.111891 C28.2268535,67.111891 28.5737022,67.154634 28.8778941,67.2394191 C29.2030647,67.3326127 29.6121503,67.5379189 29.6121503,67.8196018 C29.6121503,68.0122953 29.4995644,68.2112951 29.2583087,68.2112951 C29.2030647,68.2112951 29.1457228,68.2049888 29.0897794,68.1748585 C28.7646088,68.0256087 28.4247531,67.8777602 27.9793043,67.8777602 C27.3506411,67.8777602 26.9688278,68.0473305 26.9688278,68.4151999 C26.9688278,68.7620482 27.252041,68.8839707 28.0988832,69.1313191 C29.0681014,69.4151041 29.7534072,69.6911813 29.7534072,70.5985926 C29.7534072,71.4191166 29.1324362,72 27.9303539,72 Z M59.6543492,72 C59.0816293,72 58.4312881,71.822722 58.0215032,71.5032011 C57.8788477,71.3917892 57.7802476,71.2488456 57.7802476,71.0932894 C57.7802476,70.8739692 57.9222038,70.7261207 58.1417814,70.7261207 C58.2194027,70.7261207 58.2900312,70.7457404 58.3606597,70.7884833 C58.7417736,71.0295254 59.004008,71.2425393 59.6676358,71.2425393 C60.3473472,71.2425393 60.6158752,70.9643599 60.6158752,70.6476419 C60.6158752,70.3007935 60.339655,70.1235155 59.4914143,69.8964875 C58.2117105,69.5559455 57.8298973,69.1460339 57.8298973,68.4383231 C57.8298973,67.5736548 58.572545,67.111891 59.6963067,67.111891 C59.9508489,67.111891 60.2976975,67.154634 60.6018894,67.2394191 C60.9263607,67.3326127 61.3361456,67.5379189 61.3361456,67.8196018 C61.3361456,68.0122953 61.2235597,68.2112951 60.9823041,68.2112951 C60.9263607,68.2112951 60.8704174,68.2049888 60.8123762,68.1748585 C60.4886042,68.0256087 60.150147,67.8777602 59.7032996,67.8777602 C59.0746364,67.8777602 58.6928232,68.0473305 58.6928232,68.4151999 C58.6928232,68.7620482 58.9760363,68.8839707 59.8228785,69.1313191 C60.7920967,69.4151041 61.4781019,69.6911813 61.4781019,70.5985926 C61.4781019,71.4191166 60.8564316,72 59.6543492,72 Z M45.669565,67.7148466 L43.9227345,71.7375865 C43.8590989,71.8798293 43.7108491,71.9716215 43.5549071,71.9716215 C43.3919721,71.9716215 43.2514145,71.8868364 43.1877789,71.7375865 L41.4346548,67.7148466 C41.4129767,67.6643959 41.3996902,67.6090403 41.3996902,67.5508819 C41.3996902,67.3385687 41.576611,67.141671 41.7961885,67.141671 C41.9500327,67.141671 42.106674,67.2264561 42.168911,67.375706 L43.5479141,70.6683126 L44.9416024,67.375706 C45.0038394,67.2327624 45.1457956,67.141671 45.3010383,67.141671 C45.5283081,67.141671 45.7045296,67.3252553 45.7045296,67.5438749 C45.7045296,67.6013326 45.6905438,67.6580896 45.669565,67.7148466 Z M55.7090856,71.9715514 C55.5755208,71.9715514 55.4755221,71.9211008 55.3979008,71.8230022 L52.9587715,68.7335997 L52.9587715,71.5672454 C52.9587715,71.7942734 52.7755571,71.9715514 52.5489866,71.9715514 C52.329409,71.9715514 52.1454953,71.7886678 52.1454953,71.5672454 L52.1454953,67.5515125 C52.1454953,67.3321923 52.3091295,67.1409002 52.5706646,67.1409002 C52.6839498,67.1409002 52.8035287,67.2053649 52.8671643,67.2901501 L55.3069928,70.3781512 L55.3069928,67.5515125 C55.3069928,67.3321923 55.4685292,67.1409002 55.7090856,67.1409002 C55.9496419,67.1409002 56.1188705,67.3321923 56.1188705,67.5515125 L56.1188705,71.5672454 C56.1188705,71.7886678 55.9496419,71.9715514 55.7090856,71.9715514 Z M63.5152084,71.9715514 C63.274652,71.9715514 63.0760532,71.773953 63.0760532,71.5329109 L63.0760532,67.5802414 C63.0760532,67.3391993 63.274652,67.1409002 63.5152084,67.1409002 C63.7557647,67.1409002 63.9389791,67.3391993 63.9389791,67.5802414 L63.9389791,69.3158844 L66.0669236,67.2551149 C66.144545,67.1773368 66.2438444,67.1409002 66.3501368,67.1409002 C66.5620221,67.1409002 66.7669146,67.3104705 66.7669146,67.5381992 C66.7669146,67.6720336 66.7249571,67.7715335 66.6403428,67.8500123 L65.4102888,69.0391065 L66.8452352,71.3332104 C66.8941857,71.4053828 66.9151644,71.497175 66.9151644,71.5742524 C66.9151644,71.7662452 66.7809004,71.9715514 66.5193653,71.9715514 C66.3571297,71.9715514 66.2291593,71.9084881 66.1592301,71.7942734 L64.8081987,69.6206905 L63.9389791,70.4629364 L63.9389791,71.5329109 C63.9389791,71.773953 63.7557647,71.9715514 63.5152084,71.9715514 Z M69.3049237,70.8733385 L68.902831,71.7380069 C68.8252096,71.879549 68.7259102,71.9713412 68.5412972,71.9713412 C68.2874544,71.9713412 68.1322116,71.7737428 68.1322116,71.5677359 C68.1322116,71.5116796 68.1461974,71.4549226 68.1748684,71.3981656 L69.9846352,67.3670173 C70.0482707,67.2261758 70.1692482,67.1413907 70.3517633,67.1413907 C70.535677,67.1413907 70.6559552,67.2191688 70.72029,67.3670173 L72.5300568,71.3981656 C72.5573292,71.4549226 72.571315,71.5116796 72.571315,71.5677359 C72.571315,71.7737428 72.4160723,71.9713412 72.1608308,71.9713412 C71.9776164,71.9713412 71.8790163,71.8865561 71.8013949,71.7380069 L71.3979036,70.8733385 L69.3049237,70.8733385 Z M34.2798522,71.9147244 L31.7910732,71.9147244 C31.5505169,71.9147244 31.351918,71.7171259 31.351918,71.4767846 L31.351918,67.580872 C31.351918,67.3391293 31.5505169,67.1415308 31.7910732,67.1415308 C32.0316295,67.1415308 32.2148439,67.3391293 32.2148439,67.580872 L32.2148439,71.1012074 L34.2798522,71.1012074 C34.4987305,71.1012074 34.6826442,71.2784854 34.6826442,71.504112 C34.6826442,71.7318407 34.4987305,71.9077173 34.2798522,71.9147244 Z M50.2511142,71.9147244 L47.6007988,71.9147244 C47.3595432,71.9147244 47.1616436,71.7234323 47.1616436,71.4830909 L47.1616436,67.6299213 C47.1616436,67.3881785 47.3595432,67.1968864 47.6007988,67.1968864 L50.1455211,67.1968864 C50.3713923,67.1968864 50.555306,67.3678581 50.555306,67.5934847 C50.555306,67.819812 50.3713923,67.9984914 50.1455211,67.9984914 L48.0238703,67.9984914 L48.0238703,69.1245223 L49.190988,69.1245223 C49.4105656,69.1245223 49.5944793,69.3010996 49.5944793,69.5274269 C49.5944793,69.7537542 49.4105656,69.9247259 49.190988,69.9247259 L48.0238703,69.9247259 L48.0238703,71.1145207 L50.2511142,71.1145207 C50.4776847,71.1145207 50.6608991,71.2910981 50.6608991,71.5181261 C50.6608991,71.7458548 50.4776847,71.9147244 50.2511142,71.9147244 Z M37.9130919,67.8917743 C36.9515659,67.8917743 36.3655595,68.6569427 36.3655595,69.5559455 C36.3655595,70.4563498 36.9515659,71.2208175 37.9130919,71.2208175 C38.8746179,71.2208175 39.4606243,70.4563498 39.4606243,69.5559455 C39.4606243,68.6569427 38.8746179,67.8917743 37.9130919,67.8917743 Z M70.3517633,68.3171715 L69.6168078,70.1151771 L71.0867189,70.1151771 L70.3517633,68.3171715 Z M33.8904866,64.5399581 C32.5044905,64.5399581 31.472336,63.4650787 31.472336,62.0973051 C31.472336,60.7302322 32.5044905,59.6525499 33.8904866,59.6525499 C35.2750841,59.6525499 36.3086371,60.7302322 36.3086371,62.0973051 C36.3086371,63.4650787 35.2750841,64.5399581 33.8904866,64.5399581 Z M60.8209775,64.5399581 C60.2482576,64.5399581 59.5979164,64.3647822 59.1881315,64.0445606 C59.0461753,63.9317473 58.9468758,63.7902052 58.9468758,63.6339483 C58.9468758,63.4139273 59.0888321,63.2667795 59.3084096,63.2667795 C59.386031,63.2667795 59.4566595,63.2870999 59.5279872,63.3291422 C59.9084019,63.5708849 60.1706362,63.7824975 60.8349633,63.7824975 C61.5139755,63.7824975 61.7825035,63.5057195 61.7825035,63.1883007 C61.7825035,62.8407517 61.5062833,62.6634737 60.6580425,62.4378471 C59.3783388,62.0966044 58.9972248,61.6866927 58.9972248,60.9775806 C58.9972248,60.1150143 59.7391733,59.6525499 60.862935,59.6525499 C61.1181764,59.6525499 61.4643258,59.6952928 61.7685177,59.780078 C62.092989,59.8725709 62.5027739,60.077877 62.5027739,60.3602606 C62.5027739,60.5529541 62.390188,60.751954 62.1489323,60.751954 C62.092989,60.751954 62.0370457,60.7449469 61.9797038,60.7155174 C61.6552324,60.5669682 61.3167753,60.418419 60.8699279,60.418419 C60.2412647,60.418419 59.8601508,60.5879893 59.8601508,60.9565595 C59.8601508,61.3034078 60.1419653,61.4246295 60.9902061,61.6712772 C61.958725,61.9557629 62.6440308,62.2325409 62.6440308,63.1392515 C62.6440308,63.9597755 62.0230598,64.5399581 60.8209775,64.5399581 Z M108.256238,64.5126307 C108.014983,64.5126307 107.817782,64.3136309 107.817782,64.0732895 L107.817782,60.12062 C107.817782,59.8795779 108.014983,59.680578 108.256238,59.680578 C108.496795,59.680578 108.680708,59.8795779 108.680708,60.12062 L108.680708,64.0732895 C108.680708,64.3136309 108.496795,64.5126307 108.256238,64.5126307 Z M100.252845,64.5126307 C100.01089,64.5126307 99.81369,64.3129301 99.81369,64.0732895 L99.81369,60.1213207 C99.81369,59.8795779 100.01089,59.680578 100.252845,59.680578 C100.492702,59.680578 100.677315,59.8795779 100.677315,60.1213207 L100.677315,64.0732895 C100.677315,64.3129301 100.492702,64.5126307 100.252845,64.5126307 Z M43.8600779,62.4294386 L43.8600779,64.0732895 C43.8600779,64.3136309 43.6768635,64.5126307 43.4363072,64.5126307 C43.1950516,64.5126307 42.997152,64.3136309 42.997152,64.0732895 L42.997152,60.12062 C42.997152,59.8795779 43.1950516,59.680578 43.4363072,59.680578 C43.6768635,59.680578 43.8600779,59.8795779 43.8600779,60.12062 L43.8600779,61.6229287 L46.0936155,61.6229287 L46.0936155,60.12062 C46.0936155,59.8795779 46.2845221,59.680578 46.5250784,59.680578 C46.7656348,59.680578 46.9565414,59.8795779 46.9565414,60.12062 L46.9565414,64.0732895 C46.9565414,64.3136309 46.7656348,64.5126307 46.5250784,64.5126307 C46.2845221,64.5126307 46.0936155,64.3136309 46.0936155,64.0732895 L46.0936155,62.4294386 L43.8600779,62.4294386 Z M98.2941292,60.2555755 L96.5472987,64.2783154 C96.4836631,64.4205582 96.3354133,64.5123504 96.1801706,64.5123504 C96.0172356,64.5123504 95.8759787,64.4275653 95.8123432,64.2783154 L94.0585197,60.2555755 C94.0375409,60.2051248 94.0242544,60.1497692 94.0242544,60.0916108 C94.0242544,59.8792976 94.2011752,59.6809985 94.4200535,59.6809985 C94.5752962,59.6809985 94.730539,59.7664843 94.7934752,59.9164349 L96.1717791,63.2090416 L97.5654673,59.9164349 C97.6291029,59.7727906 97.7703598,59.6809985 97.9249033,59.6809985 C98.1528723,59.6809985 98.3290938,59.8652835 98.3290938,60.0846038 C98.3290938,60.1420615 98.315108,60.1988185 98.2941292,60.2555755 Z M76.6514021,60.5526038 L76.6514021,64.0736398 C76.6514021,64.3139812 76.4535026,64.5122803 76.2136456,64.5122803 C75.9737885,64.5122803 75.7891755,64.3139812 75.7891755,64.0736398 L75.7891755,60.5526038 L74.5731073,60.5526038 C74.3465368,60.5526038 74.1633224,60.3683187 74.1633224,60.1496992 C74.1633224,59.9219705 74.3409425,59.7369847 74.5731073,59.7369847 L77.8611767,59.7369847 C78.0870479,59.7369847 78.2709616,59.9219705 78.2709616,60.1496992 C78.2709616,60.3683187 78.0933415,60.5526038 77.8611767,60.5526038 L76.6514021,60.5526038 Z M27.0952598,62.571191 L27.0952598,64.0812074 C27.0952598,64.3208481 26.9050525,64.5121402 26.6644961,64.5121402 C26.4253384,64.5121402 26.2337325,64.3208481 26.2337325,64.0812074 L26.2337325,60.1698794 C26.2337325,59.9295381 26.4253384,59.7375452 26.6644961,59.7375452 L28.4819551,59.7375452 C29.6553665,59.7375452 30.1574579,60.3191293 30.1574579,61.1550688 C30.1574579,61.7065226 29.9169016,62.1815997 29.3791463,62.4156348 L30.1071089,63.8976231 C30.1357799,63.952278 30.1574579,64.0167427 30.1574579,64.0812074 C30.1574579,64.3005277 29.9868308,64.5121402 29.7252957,64.5121402 C29.5343891,64.5121402 29.4155095,64.4266544 29.3434825,64.2781052 L28.5162204,62.571191 L27.0952598,62.571191 Z M54.4365845,63.4140675 L54.0344918,64.2787358 C53.9561712,64.420278 53.857571,64.5120701 53.672958,64.5120701 C53.4184159,64.5120701 53.2638724,64.313771 53.2638724,64.1084648 C53.2638724,64.0524085 53.2778583,63.9956515 53.3058299,63.9388945 L55.116296,59.9077462 C55.1799316,59.766204 55.3002097,59.6807182 55.4834241,59.6807182 C55.6673378,59.6807182 55.787616,59.7605984 55.8512515,59.9077462 L57.6610184,63.9388945 C57.68899,63.9956515 57.7029758,64.0524085 57.7029758,64.1084648 C57.7029758,64.313771 57.5477331,64.5120701 57.2924916,64.5120701 C57.1092772,64.5120701 57.0106771,64.427285 56.933755,64.2787358 L56.5295645,63.4140675 L54.4365845,63.4140675 Z M67.6996298,63.4140675 L67.2982364,64.2787358 C67.2199157,64.420278 67.1206163,64.5120701 66.9360033,64.5120701 C66.6821604,64.5120701 66.5269177,64.313771 66.5269177,64.1084648 C66.5269177,64.0524085 66.5409035,63.9956515 66.5702738,63.9388945 L68.3793413,59.9077462 C68.4436761,59.766204 68.5639543,59.6807182 68.7464694,59.6807182 C68.9303831,59.6807182 69.0506613,59.7605984 69.1149961,59.9077462 L70.9240636,63.9388945 C70.9520353,63.9956515 70.9660211,64.0524085 70.9660211,64.1084648 C70.9660211,64.313771 70.8107784,64.5120701 70.5569355,64.5120701 C70.3730218,64.5120701 70.2737224,64.427285 70.196101,64.2787358 L69.793309,63.4140675 L67.6996298,63.4140675 Z M111.387666,63.4140675 L110.985574,64.2787358 C110.908651,64.420278 110.808653,64.5120701 110.624739,64.5120701 C110.370896,64.5120701 110.214255,64.313771 110.214255,64.1084648 C110.214255,64.0524085 110.22894,63.9956515 110.256912,63.9388945 L112.067378,59.9077462 C112.131713,59.766204 112.251991,59.6807182 112.435205,59.6807182 C112.61842,59.6807182 112.738698,59.7605984 112.803033,59.9077462 L114.6121,63.9388945 C114.640771,63.9956515 114.654058,64.0524085 114.654058,64.1084648 C114.654058,64.313771 114.498815,64.5120701 114.244972,64.5120701 C114.061758,64.5120701 113.961759,64.427285 113.885536,64.2787358 L113.481345,63.4140675 L111.387666,63.4140675 Z M105.752774,64.4558036 L102.833931,64.4558036 C102.606661,64.4558036 102.423446,64.2785256 102.423446,64.0521983 C102.423446,63.9597054 102.458411,63.882628 102.515753,63.8118569 L104.933204,60.53887 L102.840924,60.53887 C102.622745,60.53887 102.437432,60.3545849 102.437432,60.134564 C102.437432,59.9159444 102.622745,59.737265 102.840924,59.737265 L105.732495,59.737265 C105.951373,59.737265 106.134587,59.9159444 106.134587,60.134564 C106.134587,60.2270568 106.099623,60.3111413 106.04298,60.3833138 L103.625529,63.6556 L105.752774,63.6556 C105.972352,63.6556 106.156965,63.8321773 106.156965,64.0521983 C106.156965,64.2708179 105.979345,64.4558036 105.752774,64.4558036 Z M40.9740313,64.4558036 L38.055188,64.4558036 C37.8279182,64.4558036 37.6447038,64.2785256 37.6447038,64.0521983 C37.6447038,63.9597054 37.6803676,63.882628 37.7370103,63.8118569 L40.1537622,60.53887 L38.0621809,60.53887 C37.8426033,60.53887 37.6586896,60.3545849 37.6586896,60.134564 C37.6586896,59.9159444 37.8426033,59.737265 38.0621809,59.737265 L40.9530526,59.737265 C41.1712316,59.737265 41.3565439,59.9159444 41.3565439,60.134564 C41.3565439,60.2270568 41.3215793,60.3111413 41.2642374,60.3833138 L38.8467861,63.6556 L40.9740313,63.6556 C41.1929096,63.6556 41.3775226,63.8321773 41.3775226,64.0521983 C41.3775226,64.2708179 41.2006018,64.4558036 40.9740313,64.4558036 Z M82.7669175,64.4558036 L80.1166021,64.4558036 C79.8760458,64.4558036 79.6781462,64.2645115 79.6781462,64.0241702 L79.6781462,60.1702998 C79.6781462,59.9292578 79.8760458,59.737265 80.1166021,59.737265 L82.6620237,59.737265 C82.8871956,59.737265 83.0718086,59.9082367 83.0718086,60.134564 C83.0718086,60.3601906 82.8871956,60.53887 82.6620237,60.53887 L80.5403728,60.53887 L80.5403728,61.6642001 L81.7067913,61.6642001 C81.9263689,61.6642001 82.1109819,61.8414782 82.1109819,62.0678054 C82.1109819,62.2948334 81.9263689,62.4644037 81.7067913,62.4644037 L80.5403728,62.4644037 L80.5403728,63.6556 L82.7669175,63.6556 C82.993488,63.6556 83.1767024,63.8321773 83.1767024,64.0585046 C83.1767024,64.2862333 82.993488,64.4558036 82.7669175,64.4558036 Z M92.5095187,64.4558036 L89.8592034,64.4558036 C89.618647,64.4558036 89.4207475,64.2645115 89.4207475,64.0241702 L89.4207475,60.1702998 C89.4207475,59.9292578 89.618647,59.737265 89.8592034,59.737265 L92.4039257,59.737265 C92.6297969,59.737265 92.8137106,59.9082367 92.8137106,60.134564 C92.8137106,60.3601906 92.6297969,60.53887 92.4039257,60.53887 L90.2829741,60.53887 L90.2829741,61.6642001 L91.4493926,61.6642001 C91.6689702,61.6642001 91.8535832,61.8414782 91.8535832,62.0678054 C91.8535832,62.2948334 91.6689702,62.4644037 91.4493926,62.4644037 L90.2829741,62.4644037 L90.2829741,63.6556 L92.5095187,63.6556 C92.7360892,63.6556 92.9193036,63.8321773 92.9193036,64.0585046 C92.9193036,64.2862333 92.7360892,64.4558036 92.5095187,64.4558036 Z M51.7215847,64.4558036 L49.233505,64.4558036 C48.9929486,64.4558036 48.7943498,64.2582052 48.7943498,64.0171631 L48.7943498,60.1212506 C48.7943498,59.8802085 48.9929486,59.680508 49.233505,59.680508 C49.4740613,59.680508 49.6572757,59.8802085 49.6572757,60.1212506 L49.6572757,63.6401845 L51.7215847,63.6401845 C51.9411622,63.6401845 52.125076,63.818864 52.125076,64.0451913 C52.125076,64.2708179 51.9411622,64.4487966 51.7215847,64.4558036 Z M87.5888831,64.4558036 L85.1001041,64.4558036 C84.860247,64.4558036 84.6623475,64.2582052 84.6623475,64.0171631 L84.6623475,60.1212506 C84.6623475,59.8802085 84.860247,59.680508 85.1001041,59.680508 C85.3413597,59.680508 85.5245741,59.8802085 85.5245741,60.1212506 L85.5245741,63.6401845 L87.5888831,63.6401845 C87.8084607,63.6401845 87.9916751,63.818864 87.9916751,64.0451913 C87.9916751,64.2708179 87.8084607,64.4487966 87.5888831,64.4558036 Z M33.8904866,60.4324331 C32.9289606,60.4324331 32.3422549,61.1976015 32.3422549,62.0973051 C32.3422549,62.9970086 32.9289606,63.7614763 33.8904866,63.7614763 C34.8520126,63.7614763 35.438019,62.9970086 35.438019,62.0973051 C35.438019,61.1976015 34.8520126,60.4324331 33.8904866,60.4324331 Z M55.4834241,60.8579004 L54.7484686,62.6566068 L56.2183797,62.6566068 L55.4834241,60.8579004 Z M68.7464694,60.8579004 L68.0115139,62.6566068 L69.4814249,62.6566068 L68.7464694,60.8579004 Z M112.435205,60.8579004 L111.69955,62.6566068 L113.170161,62.6566068 L112.435205,60.8579004 Z M28.6022333,60.5307418 L27.0952598,60.5307418 L27.0952598,61.8277444 L28.6022333,61.8277444 C29.0749545,61.8277444 29.2875391,61.480896 29.2875391,61.1620759 C29.2875391,60.849562 29.0749545,60.5307418 28.6022333,60.5307418 Z M100.924864,58.5622549 C100.924864,58.6337267 100.888501,58.7108041 100.845844,58.7682618 L100.527667,59.200596 C100.464031,59.2853812 100.393403,59.3344304 100.252845,59.3344304 C100.089211,59.3344304 99.9122901,59.1851805 99.9122901,59.0086032 C99.9122901,58.9238181 99.9486533,58.853047 99.9976037,58.7955893 L100.329767,58.3646565 C100.393403,58.2791707 100.471723,58.2294207 100.599694,58.2294207 C100.782908,58.2294207 100.924864,58.3562481 100.924864,58.5622549 Z M58.5959713,4.00280281 C58.5998174,4.00280281 64.3107226,4 64.680508,4 C65.1154674,4 65.0441397,4.38959125 65.0441397,4.38959125 L64.1294662,11.8422757 L84.4152178,11.8422757 C85.6627541,11.8422757 86.6522518,12.2690043 87.2438526,13.4356759 C87.7941951,14.5133582 94.5473246,28.728534 95.5585003,30.7157297 C95.6403174,30.8775922 95.7298267,30.8867014 95.8333219,30.7227367 C95.9382157,30.5601734 105.503127,14.0515945 105.503127,14.0515945 C106.34927,12.7601976 106.728286,11.8422757 108.474417,11.8422757 L117.594579,11.8401736 C117.594579,11.8401736 118.720439,11.7946279 117.991777,13.0671058 C114.488325,19.1674321 98.8885272,46.1634433 97.3955395,48.6460364 C95.708848,51.4523547 94.2836916,51.2134148 92.8060184,48.3314205 C91.3263173,45.445222 79.641853,22.3269051 79.641853,22.3269051 L62.8448674,22.3269051 L61.5099196,33.188513 C61.3616698,34.1141426 61.0099261,37.0942354 62.3574611,38.6743222 C63.1587794,39.6106025 64.7542833,40.3476727 66.8111098,40.4773029 L67.21572,40.4946803 C67.2970476,40.4965722 67.3790046,40.4975532 67.4615909,40.4975532 C67.4615909,40.4975532 67.3534105,40.4964321 67.21572,40.4946803 C67.0790084,40.4915272 66.9441151,40.4856412 66.8111098,40.4773029 L67.4615909,40.4975532 C67.4615909,40.4975532 64.9937907,40.4723279 68.6287087,40.4723279 C72.4286595,40.4723279 73.8901791,42.7334987 73.5468269,45.9448237 C73.1901882,49.2822754 73.1195597,49.7510462 73.1195597,49.7510462 C73.1195597,49.7510462 72.9762049,50.5981969 72.2881019,50.5981969 C71.5986003,50.5981969 70.9447626,50.6150138 67.6874621,50.6332321 L67.5301215,50.6332321 C60.5120304,50.6332321 56.6134794,47.7477343 54.5778414,45.3261023 C50.0897876,39.9811346 50.9569092,32.9082315 51.1771861,31.5453628 L52.3044443,22.3269051 L46.6122102,22.3269051 C37.5458939,22.3269051 36.1787787,28.4363406 35.9899699,29.7298396 L33.7641246,47.7974843 C33.5941967,49.1792719 32.6019019,50.6346335 30.8361904,50.6332321 L23.8621547,50.6332321 C22.7635675,50.6332321 23.0278998,49.4756696 23.0278998,49.4756696 L25.5949995,28.5281327 C26.2376485,22.7627428 31.4599586,11.8422757 46.6122102,11.8422757 L53.589043,11.8422757 L54.0316947,8.2315496 C54.3463759,5.92763586 56.2449527,4.15345411 58.5470209,4.00280281 L58.5959713,4.00280281 Z M125.40217,45.8287171 C128.488844,45.8287171 131,43.3145923 131,40.2230876 C131,37.1315829 128.488844,34.6139545 125.40217,34.6139545 C122.316196,34.6139545 119.805739,37.1315829 119.805739,40.2230876 C119.805739,43.3145923 122.316196,45.8287171 125.40217,45.8287171 Z M125.40217,27.8398315 C128.488844,27.8398315 131,25.3243052 131,22.2335013 C131,19.1412959 128.488844,16.6236675 125.40217,16.6236675 C122.316196,16.6236675 119.805739,19.1412959 119.805739,22.2335013 C119.805739,25.3243052 122.316196,27.8398315 125.40217,27.8398315 Z" id="Fill-1" fill="#ED145B"></path>
    </g>
</svg>