<?xml version="1.0" encoding="UTF-8"?>
<svg width="164px" height="62px" viewBox="0 0 164 62" version="1.1" xmlns="http://www.w3.org/2000/svg" xmlns:xlink="http://www.w3.org/1999/xlink">
    <!-- Generator: Sketch 51.3 (57544) - http://www.bohemiancoding.com/sketch -->
    <title>SCD Slovenske Centrum Designu</title>
    <desc>Created with Sketch.</desc>
    <defs></defs>
    <g id="SCD-Slovenske-Centrum-Designu" stroke="none" stroke-width="1" fill="none" fill-rule="evenodd">
        <path d="M10.3587,15.1376 L12.5177,15.1376 C12.5657,15.7486 13.0097,16.0846 13.7287,16.0846 C14.3527,16.0846 14.7247,15.8326 14.7247,15.4496 C14.7247,14.1176 10.4547,15.1736 10.4547,11.9836 C10.4547,10.4006 11.7857,9.3566 13.6207,9.3566 C15.3597,9.3566 16.7637,10.4246 16.7277,12.0916 L14.6527,12.0916 C14.5927,11.5276 14.1127,11.2636 13.5727,11.2636 C12.9617,11.2636 12.5777,11.5636 12.5777,11.9946 C12.5777,13.2786 16.8587,12.3066 16.8477,15.4616 C16.8357,16.7806 15.6717,17.9916 13.7047,17.9916 C11.5337,17.9916 10.3707,16.8526 10.3587,15.1376" id="Fill-1" fill="#000000"></path>
        <polygon id="Fill-3" fill="#000000" points="33.5437 15.9652 33.5437 17.8722 28.3027 17.8722 28.3027 9.4762 30.4017 9.4762 30.4017 15.9652"></polygon>
        <path d="M49.9344,13.6742 C49.9344,12.2472 48.8914,11.2992 47.6194,11.2992 C46.3364,11.2992 45.3054,12.2472 45.3054,13.6742 C45.3054,15.1012 46.3364,16.0492 47.6194,16.0492 C48.8914,16.0492 49.9344,15.1012 49.9344,13.6742 M43.1104,13.6742 C43.1104,11.0842 45.1134,9.2972 47.6194,9.2972 C50.1144,9.2972 52.1294,11.0842 52.1294,13.6742 C52.1294,16.2652 50.1144,18.0512 47.6194,18.0512 C45.1134,18.0512 43.1104,16.2652 43.1104,13.6742" id="Fill-5" fill="#000000"></path>
        <polygon id="Fill-7" fill="#000000" points="68.7947 9.4764 65.6767 17.8724 63.5777 17.8724 60.4597 9.4764 62.7737 9.4764 64.6327 15.1134 66.5997 9.4764"></polygon>
        <polygon id="Fill-9" fill="#000000" points="80.906 11.3837 80.906 12.7147 84.156 12.7147 84.156 14.6337 80.906 14.6337 80.906 15.9657 84.636 15.9657 84.636 17.8717 78.807 17.8717 78.807 9.4767 84.636 9.4767 84.636 11.3837"></polygon>
        <polygon id="Fill-11" fill="#000000" points="102.4417 9.4764 102.4417 17.8724 100.4867 17.8724 96.9007 12.8464 96.9007 17.8724 94.8377 17.8724 94.8377 9.4764 96.8047 9.4764 100.3787 14.3704 100.3787 9.4764"></polygon>
        <path d="M112.4085,15.1376 L114.5675,15.1376 C114.6155,15.7486 115.0595,16.0846 115.7785,16.0846 C116.4025,16.0846 116.7745,15.8326 116.7745,15.4496 C116.7745,14.1176 112.5045,15.1736 112.5045,11.9836 C112.5045,10.4006 113.8355,9.3566 115.6705,9.3566 C117.4095,9.3566 118.8135,10.4246 118.7775,12.0916 L116.7025,12.0916 C116.6425,11.5276 116.1625,11.2636 115.6225,11.2636 C115.0115,11.2636 114.6275,11.5636 114.6275,11.9946 C114.6275,13.2786 118.9085,12.3066 118.8975,15.4616 C118.8855,16.7806 117.7215,17.9916 115.7545,17.9916 C113.5835,17.9916 112.4205,16.8526 112.4085,15.1376" id="Fill-13" fill="#000000"></path>
        <path d="M9.2493,30.683 C9.2493,28.104 11.2403,26.329 13.6633,26.329 C15.6423,26.329 17.8003,27.685 17.9563,30.083 L15.8103,30.083 C15.6533,29.016 14.6943,28.332 13.6633,28.332 C12.4513,28.332 11.4443,29.268 11.4443,30.683 C11.4443,32.098 12.4513,33.034 13.6633,33.034 C14.6943,33.034 15.6663,32.35 15.8103,31.271 L17.9563,31.271 C17.8003,33.682 15.6423,35.037 13.6633,35.037 C11.2403,35.037 9.2493,33.262 9.2493,30.683" id="Fill-15" fill="#000000"></path>
        <polygon id="Fill-17" fill="#000000" points="29.8797 28.3925 29.8797 29.7235 33.1297 29.7235 33.1297 31.6425 29.8797 31.6425 29.8797 32.9745 33.6097 32.9745 33.6097 34.8805 27.7807 34.8805 27.7807 26.4855 33.6097 26.4855 33.6097 28.3925"></polygon>
        <polygon id="Fill-19" fill="#000000" points="51.4158 26.4852 51.4158 34.8812 49.4608 34.8812 45.8748 29.8552 45.8748 34.8812 43.8118 34.8812 43.8118 26.4852 45.7788 26.4852 49.3528 31.3792 49.3528 26.4852"></polygon>
        <polygon id="Fill-21" fill="#000000" points="67.722 28.3925 65.683 28.3925 65.683 34.8805 63.584 34.8805 63.584 28.3925 61.533 28.3925 61.533 26.4855 67.722 26.4855"></polygon>
        <path d="M80.408,30.6229 L81.74,30.6229 C82.519,30.6229 83.034,30.1909 83.034,29.5199 C83.034,28.8479 82.519,28.3929 81.74,28.3929 L80.408,28.3929 L80.408,30.6229 Z M81.163,32.3979 L80.408,32.3979 L80.408,34.8809 L78.309,34.8809 L78.309,26.4849 L81.907,26.4849 C83.898,26.4849 85.194,27.6609 85.194,29.4479 C85.194,30.6949 84.558,31.6429 83.491,32.0979 L85.433,34.8809 L82.891,34.8809 L81.163,32.3979 Z" id="Fill-23" fill="#000000"></path>
        <path d="M94.9998,31.3187 L94.9998,26.4857 L97.0988,26.4857 L97.0988,31.4147 C97.0988,32.4817 97.7468,33.0697 98.6338,33.0697 C99.5338,33.0697 100.1928,32.4817 100.1928,31.4147 L100.1928,26.4857 L102.2918,26.4857 L102.2918,31.3187 C102.2918,33.5857 100.7688,35.0007 98.6338,35.0007 C96.5108,35.0007 94.9998,33.5857 94.9998,31.3187" id="Fill-25" fill="#000000"></path>
        <polygon id="Fill-27" fill="#000000" points="120.0838 26.4852 120.0838 34.8812 118.1528 34.8812 118.1528 29.4602 116.5458 34.8812 114.7588 34.8812 113.1398 29.4472 113.1398 34.8812 111.2088 34.8812 111.2088 26.4852 113.8718 26.4852 115.6578 32.1702 117.4338 26.4852"></polygon>
        <path d="M15.4617,47.6928 C15.4617,46.3138 14.4187,45.4018 13.1237,45.4018 L11.9597,45.4018 L11.9597,49.9838 L13.1237,49.9838 C14.4187,49.9838 15.4617,49.0718 15.4617,47.6928 M17.6567,47.6928 C17.6567,50.1758 15.6537,51.8908 13.1237,51.8908 L9.8607,51.8908 L9.8607,43.4948 L13.1237,43.4948 C15.6537,43.4948 17.6567,45.2108 17.6567,47.6928" id="Fill-29" fill="#000000"></path>
        <polygon id="Fill-31" fill="#000000" points="29.563 51.891 31.662 51.891 31.662 43.495 29.563 43.495"></polygon>
        <polygon id="Fill-33" fill="#000000" points="50.847 45.2103 47.009 49.9833 50.835 49.9833 50.835 51.8903 44.382 51.8903 44.382 50.1753 48.208 45.4023 44.49 45.4023 44.49 43.4953 50.847 43.4953"></polygon>
        <path d="M65.4905,48.6044 L64.6275,46.0854 L63.7275,48.6044 L65.4905,48.6044 Z M66.1025,50.3794 L63.0925,50.3794 L62.5525,51.8904 L60.3695,51.8904 L63.6435,43.4954 L65.6105,43.4954 L68.8845,51.8904 L66.6175,51.8904 L66.1025,50.3794 Z" id="Fill-34" fill="#000000"></path>
        <path d="M78.4656,49.2401 L80.5766,49.2401 C80.6246,49.8641 80.9716,50.1031 81.3676,50.1031 C81.8596,50.1031 82.1596,49.7561 82.1596,49.1681 L82.1596,43.4951 L84.2576,43.4951 L84.2576,49.0241 C84.2576,50.9311 83.0826,52.0111 81.3436,52.0111 C79.7366,52.0111 78.5496,51.1231 78.4656,49.2401" id="Fill-35" fill="#000000"></path>
        <polygon id="Fill-36" fill="#000000" points="102.4417 43.495 102.4417 51.891 100.4867 51.891 96.9007 46.865 96.9007 51.891 94.8377 51.891 94.8377 43.495 96.8047 43.495 100.3787 48.389 100.3787 43.495"></polygon>
        <path d="M112.0066,48.3285 L112.0066,43.4955 L114.1056,43.4955 L114.1056,48.4245 C114.1056,49.4915 114.7536,50.0795 115.6406,50.0795 C116.5406,50.0795 117.1996,49.4915 117.1996,48.4245 L117.1996,43.4955 L119.2986,43.4955 L119.2986,48.3285 C119.2986,50.5955 117.7756,52.0105 115.6406,52.0105 C113.5176,52.0105 112.0066,50.5955 112.0066,48.3285" id="Fill-37" fill="#000000"></path>
        <polygon id="Fill-38" fill="#000000" points="134.1082 17.872 131.4582 14.094 131.4582 17.872 129.3592 17.872 129.3592 9.476 131.4582 9.476 131.4582 13.387 134.0602 9.476 136.5432 9.476 133.6652 13.626 136.6632 17.872"></polygon>
        <path d="M150.7156,8.973 L148.7846,8.973 L149.9846,6.778 L152.0706,6.778 L150.7156,8.973 Z M148.9406,11.384 L148.9406,12.715 L152.1906,12.715 L152.1906,14.634 L148.9406,14.634 L148.9406,15.965 L152.6706,15.965 L152.6706,17.872 L146.8416,17.872 L146.8416,9.476 L152.6706,9.476 L152.6706,11.384 L148.9406,11.384 Z" id="Fill-39" fill="#000000"></path>
        <path d="M1.75,59.525 L161.58,59.525 L161.58,1.75 L1.75,1.75 L1.75,59.525 Z M0,61.275 L163.33,61.275 L163.33,0 L0,0 L0,61.275 Z" id="Fill-40" fill="#000000"></path>
    </g>
</svg>