<?xml version="1.0" encoding="UTF-8" standalone="no"?><!DOCTYPE svg PUBLIC "-//W3C//DTD SVG 1.1//EN" "http://www.w3.org/Graphics/SVG/1.1/DTD/svg11.dtd"><svg width="100%" height="100%" viewBox="0 0 171 50" version="1.1" xmlns="http://www.w3.org/2000/svg" xmlns:xlink="http://www.w3.org/1999/xlink" xml:space="preserve" xmlns:serif="http://www.serif.com/" style="fill-rule:evenodd;clip-rule:evenodd;stroke-linejoin:round;stroke-miterlimit:1.41421;"><g><path d="M170.235,21.512l-21.51,-21.511l-148.725,-0.001l0,28.45l21.51,21.511l148.725,0l0,-28.449Z" style="fill:#000103;fill-rule:nonzero;"/><path d="M12.705,9.083c-1.795,0 -3.129,0.68 -3.129,1.905c0,0.978 0.926,1.686 2.286,1.985l2.693,0.544c3.183,0.653 7.21,1.633 7.21,5.769c0,4.135 -4.163,6.474 -8.271,6.474c-5.06,0 -8.38,-2.53 -9.087,-6.774l4.625,0c0.517,2.068 2.15,3.02 4.571,3.02c1.578,0 3.374,-0.517 3.374,-2.149c0,-1.279 -1.524,-1.904 -3.673,-2.367l-2.394,-0.49c-3.211,-0.68 -6.122,-2.204 -6.122,-5.741c0,-4.026 4.326,-5.903 8.189,-5.903c3.863,0 7.536,1.687 8.216,6.039l-4.597,0c-0.463,-1.469 -1.905,-2.312 -3.891,-2.312Z" style="fill:#fff;fill-rule:nonzero;"/><path d="M28.484,21.298l9.468,0l0,4.109l-14.12,0l0,-19.725l4.652,0l0,15.616Z" style="fill:#fff;fill-rule:nonzero;"/><path d="M46.957,18.116l5.087,0l-2.53,-7.509l-2.557,7.509Zm0.027,-12.434l5.115,0l7.454,19.725l-5.06,0l-1.198,-3.51l-7.617,0l-1.17,3.51l-4.952,0l7.428,-19.725Z" style="fill:#fff;fill-rule:nonzero;"/><path d="M73.89,25.407l-7.917,-13.604l0,13.604l-4.489,0l0,-19.725l5.659,0l7.917,13.604l0,-13.604l4.489,0l0,19.725l-5.659,0Z" style="fill:#fff;fill-rule:nonzero;"/><path d="M87.765,9.763l-6.312,0l0,-4.081l17.33,0l0,4.081l-6.339,0l0,15.644l-4.679,0l0,-15.644Z" style="fill:#fff;fill-rule:nonzero;"/><path d="M100.823,5.682l15.127,0l0,4.081l-10.474,0l0,3.455l9.903,0l0,4.109l-9.903,0l0,3.971l10.474,0l0,4.109l-15.127,0l0,-19.725Z" style="fill:#fff;fill-rule:nonzero;"/><path d="M125.009,9.6l-1.932,0l0,11.889l1.932,0c3.428,0 6.53,-0.734 6.53,-5.958c0,-5.196 -3.102,-5.931 -6.53,-5.931Zm-0.082,-3.918c6.448,0 11.536,2.34 11.536,9.849c0,7.536 -5.088,9.876 -11.536,9.876l-6.502,0l0,-19.725l6.502,0Z" style="fill:#fff;fill-rule:nonzero;"/></g></svg>