<svg xmlns="http://www.w3.org/2000/svg" viewBox="0 0 214.98 218.11"><defs><style>.cls-1{fill:#291c35;}</style></defs><title>Asset 2</title><g id="Layer_2" data-name="Layer 2"><g id="Layer_1-2" data-name="Layer 1"><path class="cls-1" d="M107.49,0C48.22,0,0,48.92,0,109.05S48.22,218.11,107.49,218.11,215,169.19,215,109.05,166.77,0,107.49,0Zm0,210.68C52.26,210.68,7.32,165.1,7.32,109.05S52.26,7.43,107.49,7.43,207.66,53,207.66,109.05,162.73,210.68,107.49,210.68Z"/><polygon class="cls-1" points="132.51 64.33 132.51 135.04 146.28 149.01 146.28 176.27 153.6 176.27 153.6 149.03 167.36 135.04 167.36 64.33 149.94 46.64 132.51 64.33"/><polygon class="cls-1" points="90.1 64.33 90.1 135.04 103.87 149.01 103.87 176.27 111.19 176.27 111.19 149.03 124.95 135.04 124.95 64.33 107.53 46.64 90.1 64.33"/><polygon class="cls-1" points="47.62 64.33 47.62 135.04 61.38 149.02 61.38 176.27 68.71 176.27 68.71 149.03 82.47 135.04 82.47 64.33 65.04 46.64 47.62 64.33"/></g></g></svg>